<svg width="59" height="52" viewBox="0 0 59 52" fill="none" xmlns="http://www.w3.org/2000/svg">
<g clip-path="url(#clip0_1132_8256)">
<path d="M29.5785 51.9844C21.7881 45.8345 13.888 40.1384 7.55537 32.6428C4.20096 28.6681 1.52057 24.2865 0.407656 19.1068C-1.53602 10.0933 3.69937 2.0969 12.7281 0.266025C18.8256 -0.954559 25.4874 2.0969 28.7477 7.60518C28.9515 7.96509 29.1553 8.30936 29.4217 8.79446C29.6412 8.46584 29.8136 8.19982 29.9547 7.93379C33.1837 2.26903 39.6887 -0.876316 45.9273 0.219079C52.6361 1.37707 57.6207 6.21246 58.6866 12.8318C59.392 17.1977 58.3104 21.282 56.3511 25.1785C53.3415 31.1249 48.8899 35.9133 43.8896 40.201C39.2342 44.1914 34.4377 48.0096 29.5785 52V51.9844Z" fill="#ED2666"/>
<path d="M7.35156 27.0406C7.35156 27.0406 36.1932 30.5302 54.6738 23.6762L56.0846 20.5152C56.0846 20.5152 37.0083 26.5555 7.35156 27.0406Z" fill="#BA2666"/>
<path d="M27.9953 34.5519L34.0301 31.7039L27.6348 26.5555L33.842 21.7358L28.2461 16.5248L33.8264 12.5032L30.0331 8.57538L30.0958 7.71471L29.4374 8.77881L28.9045 7.8712L28.8261 8.99789L32.0394 12.3467L26.4122 16.4153L32.0394 21.6575L25.7382 26.5399L31.8357 31.4379L25.3933 34.4737L31.2714 37.6347L27.4467 42.0319L30.3936 43.7219L28.8574 46.7577L28.9672 51.5305L29.5628 51.9844H29.5942L30.1428 51.5305L30.0487 47.0238L31.9454 43.2525L29.2807 41.7189L33.121 37.2904L27.9953 34.5519Z" fill="white"/>
<path d="M57.5265 9.37346C57.5265 9.37346 62.1819 26.0235 30.1426 51.4992C30.1426 51.4992 42.3376 41.7815 43.09 41.1556C43.8424 40.5296 47.4946 37.3686 49.3599 35.2561C49.3599 35.2561 52.9651 31.563 55.4417 27.0876C57.7459 22.9251 58.4983 19.6702 58.7178 18.0114C58.9215 16.4309 59.2507 13.3951 57.5265 9.37346Z" fill="#B21E4E"/>
<path d="M0.172363 18.4026C0.172363 18.4026 42.0711 18.4809 58.3416 11.4078C58.3416 11.4078 59.8307 15.5546 58.3729 19.8267C58.3729 19.8267 33.8889 27.9013 3.58947 27.1032C3.58947 27.1032 2.58628 25.4601 1.81822 23.6136C1.28527 22.3304 0.407485 19.858 0.172363 18.387V18.4026Z" fill="#DFE0E0"/>
<path d="M25.2364 22.6434C25.2364 22.6434 13.9819 24.1926 2.02197 23.817C2.02197 23.817 20.1421 26.5868 25.2364 22.6434Z" fill="#ABACAD"/>
<path d="M57.605 11.7207C57.605 11.7207 57.6521 18.4652 55.9749 20.5778L58.3731 19.8267C58.3731 19.8267 59.7838 16.0867 58.4044 11.3608L57.605 11.7207Z" fill="#ABACAD"/>
</g>
<defs>
<clipPath id="clip0_1132_8256">
<rect width="59" height="52" fill="white"/>
</clipPath>
</defs>
</svg>
