<svg width="51" height="26" viewBox="0 0 51 26" fill="none" xmlns="http://www.w3.org/2000/svg">
<g id="Layer_1" clip-path="url(#clip0_1126_7786)">
<g id="Group">
<path id="Vector" d="M0 5.43359L0 20.5664H5.57121L5.57121 5.43359H0Z" fill="#221F20"/>
<path id="Vector_2" d="M4.20442 2.4248V23.5752C4.20442 24.9082 5.31085 26 6.69064 26H48.5268C49.8936 26 51.013 24.9209 51.013 23.5752V2.4248C51.013 1.0918 49.9066 0 48.5268 0H6.67762C5.31086 0 4.19141 1.0791 4.19141 2.4248H4.20442ZM47.8759 1.25684C48.8522 1.25684 49.6332 2.01855 49.6332 2.9707V23.042C49.6332 23.9941 48.8522 24.7559 47.8759 24.7559H7.32847C6.3522 24.7559 5.57119 23.9941 5.57119 23.042V2.95801C5.57119 2.00586 6.3522 1.24414 7.32847 1.24414H47.8759V1.25684Z" fill="#221F20"/>
<path id="Vector_3" d="M7.04199 4.69727L7.04199 21.29C7.04199 22.2646 7.85206 23.0547 8.85133 23.0547L46.3659 23.0547C47.3652 23.0547 48.1752 22.2646 48.1752 21.29V4.69727C48.1752 3.72268 47.3652 2.93262 46.3659 2.93262L8.85133 2.93262C7.85206 2.93262 7.04199 3.72268 7.04199 4.69727Z" fill="#221F20"/>
<path id="Vector_4" d="M35.7182 9.63574C35.7182 9.63574 35.4448 6.84277 32.2687 6.05566C29.0926 5.26855 27.5956 8.46777 27.5956 8.46777C27.5956 8.46777 26.0987 5.26855 22.9226 6.05566C19.7465 6.84277 19.4731 9.63574 19.4731 9.63574C19.4731 9.63574 18.1845 13.5586 27.5956 20.0713C37.0068 13.5586 35.7182 9.63574 35.7182 9.63574Z" fill="white"/>
</g>
<path id="Vector_5" d="M26.5153 17.9258L30.186 12.708H28.3506L28.65 8.9375L25.3047 14.0029L27.3223 14.0537L26.5153 17.9258Z" fill="#221F20"/>
</g>
<defs>
<clipPath id="clip0_1126_7786">
<rect width="51" height="26" fill="white"/>
</clipPath>
</defs>
</svg>
