<svg width="34" height="30" viewBox="0 0 34 30" fill="none" xmlns="http://www.w3.org/2000/svg">
<g clip-path="url(#clip0_1126_7793)">
<path d="M21.3619 19.4492H12.6379V19.9226C12.6379 22.8141 12.621 25.7143 12.6464 28.6059C12.6548 29.4837 12.1645 30.0258 11.26 30C9.55239 29.9484 7.83632 29.9828 6.12872 29.9828C5.30873 29.9828 4.86069 29.5525 4.86069 28.7177C4.85224 27.2461 4.86069 25.7745 4.86069 24.2943C4.86069 21.3597 4.86069 18.4251 4.86069 15.4905C4.86069 15.1979 4.95368 15.0344 5.19038 14.8795C9.03672 12.3494 12.8746 9.81928 16.7125 7.28055C16.9408 7.13425 17.0845 7.13425 17.3042 7.28055C21.1506 9.82789 24.9969 12.3666 28.8517 14.9053C29.0631 15.043 29.1476 15.1979 29.1476 15.4561C29.1476 19.8537 29.1476 24.2427 29.1476 28.6403C29.1476 29.5611 28.7249 29.9914 27.8373 29.9914C26.1128 29.9914 24.3883 29.9914 22.6638 29.9914C21.7762 29.9914 21.3704 29.5955 21.3704 28.6833C21.3704 25.7659 21.3704 22.8399 21.3704 19.9226C21.3704 19.7763 21.3704 19.6213 21.3704 19.4492H21.3619Z" fill="black"/>
<path d="M23.2811 3.85542C23.2811 3.2358 23.2811 2.67642 23.2811 2.12564C23.2811 1.23063 23.7291 0.783129 24.6083 0.783129C25.3015 0.783129 25.9946 0.783129 26.6878 0.783129C27.4402 0.783129 27.8882 1.23924 27.8967 1.99655C27.8967 3.49397 27.9051 4.99139 27.8967 6.48881C27.8967 6.7642 27.9728 6.92771 28.2095 7.07401C29.9171 8.17556 31.6247 9.28571 33.3238 10.4045C34.0846 10.9036 34.203 11.4802 33.7296 12.2547C33.5098 12.599 33.2985 12.9432 33.0787 13.2874C32.5292 14.1566 32.0051 14.2771 31.1597 13.7263C26.5948 10.7573 22.0299 7.78829 17.482 4.79346C17.1354 4.5697 16.9071 4.5611 16.5605 4.79346C12.0041 7.77969 7.4392 10.7487 2.88276 13.7177C2.02896 14.2771 1.50484 14.1652 0.963814 13.3046C0.718662 12.9174 0.47351 12.5301 0.236812 12.1429C-0.143596 11.5146 -0.00833955 10.8778 0.600313 10.4819C5.83303 7.05679 11.0827 3.63167 16.3323 0.215143C16.8141 -0.103274 17.2706 -0.0516389 17.7356 0.258172C19.4601 1.38554 21.1846 2.5043 22.9091 3.63167C23.0106 3.70051 23.1205 3.76075 23.2726 3.85542H23.2811Z" fill="black"/>
</g>
<defs>
<clipPath id="clip0_1126_7793">
<rect width="34" height="30" fill="white"/>
</clipPath>
</defs>
</svg>
