<svg width="64" height="65" viewBox="0 0 64 65" fill="none" xmlns="http://www.w3.org/2000/svg">
<g clip-path="url(#clip0_1696_7526)">
<path d="M50.6572 19.2793H50.6493C49.9067 19.2793 49.3047 19.8709 49.3047 20.6007V39.6907C49.3047 40.4204 49.9067 41.012 50.6493 41.012H50.6572C51.3998 41.012 52.0019 40.4204 52.0019 39.6907V20.6007C52.0019 19.8709 51.3998 19.2793 50.6572 19.2793Z" fill="#DB3131"/>
<path d="M42 24.3363V30.0338V35.7312L48.4542 39.5788V30.0338V20.4888L42 24.3363Z" fill="#DB3131"/>
<path d="M33.7977 24.4482H41.2169V35.8354H33.7977C30.5943 35.8432 28 33.2859 28 30.1457C28 27.0055 30.5943 24.4482 33.7977 24.4482Z" fill="#DB3131"/>
<path d="M35.9131 36.814H39.5653V43.5677C39.5653 43.8486 39.2629 44.0698 38.8969 44.0698H36.5815C36.2075 44.0698 35.9131 43.8427 35.9131 43.5677V36.814Z" fill="#DB3131"/>
<path d="M52.9229 27.0986C54.6155 27.0986 55.9918 28.4511 55.9918 30.1145C55.9918 31.7779 54.6155 33.1303 52.9229 33.1303V27.0986Z" fill="#DB3131"/>
</g>
<defs>
<clipPath id="clip0_1696_7526">
<rect width="28" height="26" fill="white" transform="translate(28 19.2793)"/>
</clipPath>
</defs>
</svg>
