<svg width="48" height="45" viewBox="0 0 48 45" fill="none" xmlns="http://www.w3.org/2000/svg">
<g id="Layer_1">
<g id="Group">
<path id="Vector" d="M41.6527 20.1937C41.036 11.5919 33.974 4.77153 25.2212 4.41723V3.78735C25.7981 3.45273 25.8279 3 25.8279 3H23.1921C23.1921 3 23.2219 3.45273 23.7988 3.78735V4.41723C15.0261 4.77153 7.96409 11.5919 7.34741 20.1937C7.34741 20.1937 7.34741 20.2134 7.34741 20.2232C12.997 20.2725 34.72 20.2232 41.6527 20.2036V20.1937Z" fill="black"/>
<path id="Vector_2" d="M24.3015 23H6L8.33741 24.8896C8.61591 25.116 8.95409 25.2341 9.31217 25.2341H39.2709C39.6289 25.2341 39.9671 25.116 40.2456 24.8896L42.583 23H24.2915H24.3015Z" fill="#221F20"/>
<path id="Vector_3" d="M43.2938 20.7941H5.7062C5.31618 20.7941 5 21.1047 5 21.4879C5 21.8711 5.31618 22.1818 5.7062 22.1818H43.2938C43.6838 22.1818 44 21.8711 44 21.4879C44 21.1047 43.6838 20.7941 43.2938 20.7941Z" fill="black"/>
</g>
<g id="Group_2">
<path id="Vector_4" d="M48.0002 45V31.7193L40.5363 30.294L38.6245 43.0953L48.0002 45Z" fill="#221F20"/>
<path id="Vector_5" d="M39.816 30.294L37.8388 41.6701C37.8388 41.6701 37.3543 39.299 35.4425 38.6512C33.5307 38.0033 24.1288 40.1282 20.3445 38.2366C16.5602 36.3449 9.80349 31.3047 9.80349 31.3047C9.80349 31.3047 9.08329 30.592 9.80349 29.5296C10.5237 28.4671 12.2652 29.5296 12.2652 29.5296L21.2481 33.0279L30.1785 32.3153L23.0551 30.307C23.0551 30.307 21.9813 30.1904 22.0337 29.0631C22.0861 27.9359 23.6444 28.0007 23.6444 28.0007L33.3474 28.2987C33.3474 28.2987 37.0007 29.4778 37.9042 29.9572C38.8078 30.4366 39.816 30.307 39.816 30.307V30.294Z" fill="#221F20"/>
</g>
</g>
</svg>
