<svg width="66" height="68" viewBox="0 0 66 68" fill="none" xmlns="http://www.w3.org/2000/svg">
<g clip-path="url(#clip0_1132_8260)">
<path d="M62.7111 5.23321L60.77 3.37131L40.5755 24.1574L42.5166 26.0193L62.7111 5.23321Z" fill="#D4AD82"/>
<path d="M61.4239 7.5901L58.7183 5.08226L46.1723 18.4458L48.8779 20.9536L61.4239 7.5901Z" fill="#D4AD82"/>
<path d="M32.2678 59.0385C24.6055 53.0183 16.8354 47.4422 10.6069 40.1045C7.3077 36.2136 4.6714 31.9243 3.5768 26.8538C1.6651 18.0302 6.81436 10.2023 15.6945 8.41C21.6917 7.21514 28.2439 10.2023 31.4507 15.5945C31.6511 15.9468 31.8515 16.2838 32.1136 16.7587C32.3294 16.437 32.499 16.1766 32.6378 15.9162C35.7982 10.3861 42.1963 7.30705 48.3322 8.36405C54.9307 9.49764 59.8333 14.2311 60.8816 20.711C61.5754 24.9849 60.5116 28.9831 58.5845 32.7975C55.6245 38.6186 51.246 43.3062 46.328 47.5035C41.7492 51.4098 37.0316 55.1476 32.2523 59.0538L32.2678 59.0385Z" fill="#ED2666"/>
<path d="M31.4506 37.822L28.7526 35.3098L9.34268 55.8829L8.86475 55.8063L6.04345 55.3161L0 61.6121L5.25718 62.8376L6.75263 68L12.7961 61.7193L12.0406 58.3951L31.4506 37.822Z" fill="#D4AD82"/>
<path d="M8.86465 65.6562L7.41546 60.4478L2.12744 59.253" stroke="#ED2666" stroke-width="0.91" stroke-linecap="round" stroke-linejoin="round"/>
<path d="M11.1 63.3278L9.63543 58.1347L4.34741 56.9245" stroke="#ED2666" stroke-width="0.91" stroke-linecap="round" stroke-linejoin="round"/>
<path d="M12.0406 58.3951L11.8093 57.2309L30.7722 37.1786L31.4505 37.822L12.0406 58.3951Z" fill="#B99873"/>
<path d="M56.2566 12.1018L59.7254 8.42532L60.08 9.00743L56.7499 12.5614L56.2566 12.1018Z" fill="#B99873"/>
<path d="M65.5838 8.47504e-07C65.8151 1.86889 66.108 3.6765 65.9538 5.57603C65.8767 6.58707 65.6455 7.56747 65.0905 8.4866C64.1346 10.0797 62.3308 10.6619 60.8662 9.86529C59.8795 9.31381 59.3862 8.05767 59.6791 6.83217C59.6945 6.75558 59.7254 6.67898 59.7408 6.57175C59.6637 6.60239 59.602 6.61771 59.5558 6.63303C58.3533 7.10791 57.0428 6.80153 56.349 5.88241C55.5936 4.90201 55.5782 3.56927 56.3182 2.43568C56.8116 1.68506 57.5207 1.19486 58.307 0.842533C59.5249 0.306376 60.7737 0.107232 62.0379 0.0612759C63.2096 0.0153196 64.3813 0.0153196 65.5838 -0.0153179V8.47504e-07Z" fill="#ED2666"/>
<path d="M59.8023 16.9885C59.8023 16.9885 63.7645 34.0996 32.2522 59.0385C32.2522 59.0385 44.8633 48.729 45.6033 48.1009C46.3433 47.4729 49.9355 44.3938 51.7701 42.3257C51.7701 42.3257 55.316 38.7105 57.7518 34.3294C60.0181 30.2546 60.7582 27.0683 60.974 25.4445C61.1744 23.8973 61.4982 20.9254 59.8023 16.9885Z" fill="#B21E4E"/>
</g>
<defs>
<clipPath id="clip0_1132_8260">
<rect width="66" height="68" fill="white"/>
</clipPath>
</defs>
</svg>
