<svg width="44" height="41" viewBox="0 0 44 41" fill="none" xmlns="http://www.w3.org/2000/svg">
<g id="Layer_1">
<path id="Vector" d="M35.6037 0H35.5913C34.4243 0 33.4783 0.932907 33.4783 2.08371V32.1871C33.4783 33.3379 34.4243 34.2709 35.5913 34.2709H35.6037C36.7707 34.2709 37.7167 33.3379 37.7167 32.1871V2.08371C37.7167 0.932907 36.7707 0 35.6037 0Z" fill="#221F20"/>
<path id="Vector_2" d="M22 7.97425V16.9587V25.9432L32.1424 32.0104V16.9587V1.90698L22 7.97425Z" fill="#221F20"/>
<path id="Vector_3" d="M9.11073 8.15097H20.7695V26.1076H9.11073C4.07684 26.1199 0 22.0873 0 17.1354C0 12.1836 4.07684 8.15097 9.11073 8.15097Z" fill="#221F20"/>
<path id="Vector_4" d="M12.4348 27.6512H18.1739V38.3013C18.1739 38.7443 17.6988 39.093 17.1236 39.093H13.4851C12.8974 39.093 12.4348 38.7349 12.4348 38.3013V27.6512Z" fill="#221F20"/>
<path id="Vector_5" d="M39.165 12.3306C41.8249 12.3306 43.9876 14.4634 43.9876 17.0864C43.9876 19.7094 41.8249 21.8422 39.165 21.8422V12.3306Z" fill="#221F20"/>
</g>
</svg>
