<svg width="168" height="119" viewBox="0 0 168 119" fill="none" xmlns="http://www.w3.org/2000/svg">
<g id="Group 684">
<path id="Vector" d="M69.5045 116.191C67.8422 116.191 66.1518 116.148 64.4473 116.05C59.2915 115.769 54.0512 114.828 48.8672 113.269C47.9798 113.002 46.9796 112.847 45.9231 112.693C45.5568 112.637 45.1906 112.58 44.8102 112.524C43.1057 112.243 41.3871 111.976 39.6826 111.709C37.964 111.442 36.2313 111.161 34.5127 110.881C33.4562 110.712 32.3997 110.529 31.3432 110.333C29.8359 110.066 28.3145 109.799 26.7931 109.574C23.2996 109.054 19.5102 108.52 14.9038 107.916C13.6782 107.748 12.4386 107.621 11.213 107.481C10.241 107.369 9.28313 107.27 8.31114 107.158C7.50819 107.059 6.73341 106.891 6.01498 106.638C3.94421 105.922 2.74683 104.264 2.80317 102.185C2.87361 100.232 4.02873 98.6729 6.00089 97.9143C6.69115 97.6474 7.33915 97.3383 7.93079 97.0012C8.60696 96.6078 9.15635 95.779 9.79026 94.8237L10.1565 94.2899C11.7765 91.9018 12.6922 89.1062 13.6782 86.1562L13.8191 85.7347C15.1151 81.8434 16.4111 77.6993 16.9041 73.5411C17.2563 70.5489 17.5099 67.4724 17.7634 64.4943C17.9184 62.654 18.0733 60.8137 18.2424 58.9875C18.3692 57.7232 18.5382 56.4729 18.7213 55.2226C18.8059 54.6888 18.8763 54.155 18.9467 53.6212L19.2003 51.7387C19.7074 47.9036 20.2286 43.9281 21.4964 40.0649C23.4263 34.221 26.8635 25.722 34.2873 19.5409C35.7946 18.2766 37.4991 17.0825 39.4713 15.8744L40.0911 15.4951C43.3311 13.5143 46.6697 11.4633 50.6563 10.4097C51.6846 10.1428 52.6848 9.97424 53.6427 9.81971C54.1498 9.73542 54.6569 9.65114 55.1641 9.5528C55.2627 9.53875 55.3754 9.51066 55.4881 9.48256C57.4039 8.19015 59.5873 7.12251 62.3484 6.13915C66.7294 4.56579 71.364 3.55434 76.1394 3.1329C78.4497 2.93623 80.4923 2.83789 82.4081 2.83789C85.0001 2.83789 87.3526 3.02051 89.6065 3.38576C94.3819 4.1584 99.0447 4.95913 103.707 6.08296C106.736 6.81345 109.582 8.11991 112.089 9.25779L112.526 9.45447C115.639 10.8733 118.865 12.3483 121.865 14.2308C127.261 17.6304 134.107 22.4488 139.051 29.6273C139.573 30.3859 140.136 31.1304 140.685 31.875C141.784 33.3359 142.911 34.8531 143.869 36.5529C145.517 39.4889 146.94 42.5514 148.321 45.5014L148.87 46.6815C150.941 51.1487 152.18 55.8688 153.265 60.322C153.603 61.7409 153.998 63.1456 154.378 64.5364C154.815 66.0957 155.237 67.6691 155.618 69.2425C156.04 71.0406 156.392 72.8528 156.73 74.6088C156.899 75.4938 157.068 76.3788 157.252 77.2638C158.083 81.2956 159.928 85.0885 163.084 89.2327C163.619 89.9351 164.056 90.6655 164.38 91.2275C165.183 92.6463 165.788 94.8799 164.041 97.5209C160.999 102.129 156.491 104.348 152.913 105.781C146.996 108.127 140.319 109.265 131.895 109.377H131.36C125.979 109.377 120.541 108.745 114.737 107.425C112.638 106.947 110.695 106.469 108.793 105.978C108.638 105.936 108.553 105.936 108.539 105.936C104.961 108.408 100.932 110.361 96.1709 111.976C91.0011 113.732 85.5635 114.926 79.5484 115.643C76.2803 116.036 72.8994 116.233 69.5045 116.233V116.191ZM33.0195 94.9221C35.0058 97.1276 37.6963 98.8836 41.6548 100.583C45.754 102.339 50.2055 103.505 55.2486 104.152C59.1929 104.657 63.1513 104.924 67.0111 104.924C74.4349 104.924 81.7882 103.969 88.8739 102.072C93.0296 100.963 96.6217 99.6562 99.8476 98.0969C105.609 95.3014 109.314 92.4075 111.836 88.6988C112.948 87.0833 114.512 86.1842 116.231 86.1842C117.513 86.1842 118.794 86.69 119.95 87.6312C120.612 88.165 121.26 88.4038 122.049 88.4038C122.218 88.4038 122.387 88.4038 122.556 88.3757C124.063 88.1931 125.514 87.5469 126.965 86.409C130.12 83.9366 132.149 80.6775 132.994 76.744C133.332 75.1566 133.304 73.7518 132.895 72.4735C132.261 70.4787 131.078 70.2258 130.134 70.2258C129.881 70.2258 129.613 70.2539 129.331 70.296C128.007 70.5068 126.979 70.9703 126.176 71.7008C124.922 72.8528 123.669 74.0187 122.429 75.1988L120.738 76.7862C119.569 77.8819 118.245 78.4438 116.836 78.4438C116.428 78.4438 116.005 78.3877 115.597 78.3034C114.174 77.9662 111.765 76.8564 111.512 73.2321C111.441 72.3049 111.145 71.448 110.582 70.5068C109.272 68.3574 107.271 66.6857 105.482 65.3371C101.341 62.2044 96.7908 59.8022 91.9731 57.2596L90.8179 56.6415C89.2825 55.8267 87.747 55.0259 86.2115 54.2252C83.211 52.6518 80.0978 51.0363 77.0691 49.3646C76.9001 49.2803 76.6606 49.168 76.5057 49.168C76.4352 49.168 76.3366 49.182 76.2239 49.2242C74.4208 49.8423 72.6318 50.4744 70.8428 51.1206C70.2652 51.3313 69.6735 51.4437 69.096 51.4437C67.7296 51.4437 66.504 50.8537 65.6447 49.772C64.3205 48.1284 64.3487 45.9088 65.7151 44.2371C66.2786 43.5628 66.8843 43.015 67.5605 42.6216C67.321 42.425 67.0816 42.2283 66.8421 42.0316C64.1937 39.7839 61.4891 37.3256 59.5028 34.1367C58.6576 34.6003 57.8687 35.0638 57.1362 35.5696C54.9387 37.0867 52.8397 38.8989 50.7408 41.1466C50.9662 41.1466 51.1775 41.1466 51.4029 41.1466C52.3608 41.1466 53.3187 41.1606 54.2907 41.1887H55.0795C56.122 41.2168 57.0235 41.568 57.6011 41.863C59.6014 42.8745 60.5734 44.8272 60.1508 46.9624C59.7282 49.0275 57.8265 50.5447 55.643 50.5728C54.7133 50.5728 53.9667 50.4885 53.2482 50.4182L52.7129 50.362C52.1354 50.3058 51.5437 50.2777 50.9662 50.2777C48.2897 50.2777 45.6273 50.8678 42.8521 52.104C42.7535 52.1461 42.669 52.1883 42.5704 52.2304C39.1755 58.3132 37.1892 63.5811 36.3158 68.8351C36.02 70.6191 35.8932 72.1082 35.9073 73.4568C39.6544 73.5411 42.8521 75.4797 44.9511 78.9355C47.6839 83.4309 47.0219 87.9402 43.148 91.3258C40.6968 93.4611 37.5836 94.6692 33.8788 94.9221C33.6112 94.9361 33.3294 94.9502 33.0618 94.9502L33.0195 94.9221ZM23.2996 99.1365C22.7502 98.3076 22.2712 97.4647 21.8768 96.6078C21.5105 97.4085 21.1161 98.2093 20.6794 99.01C21.5528 99.0522 22.4262 99.0943 23.3137 99.1365H23.2996ZM126.12 98.2374C127.387 98.3357 128.627 98.3919 129.839 98.406C130.332 98.406 130.839 98.406 131.346 98.406C134.487 98.406 137.051 98.3076 139.432 98.0829C142.784 97.7738 146.264 96.7062 150.687 94.6552C151.237 94.4023 151.8 94.0511 152.378 93.6578C152.307 93.5594 152.251 93.4611 152.18 93.3627C150.884 91.4101 149.532 89.3872 148.588 87.0974C147.363 84.1473 146.574 81.0708 145.813 78.1067L145.475 76.7581C145.123 75.4095 144.883 74.0749 144.658 72.7825C144.461 71.6868 144.278 70.6472 144.038 69.6358C143.714 68.3153 143.348 67.0088 142.982 65.7024C142.545 64.1571 142.094 62.5556 141.714 60.9261C140.39 55.0962 137.854 49.6737 135.149 44.1529C134.304 42.425 133.163 40.8375 131.952 39.1518C131.473 38.4775 130.98 37.8032 130.515 37.1289C126.88 31.8047 121.767 27.3094 114.428 22.9967C112.075 21.6059 109.511 20.4821 107.539 19.6533L106.75 19.3161C104.271 18.2625 101.932 17.2792 99.5377 16.7172C93.9875 15.4108 89.6769 14.6943 85.5635 14.3853C84.2394 14.287 82.9293 14.2448 81.6333 14.2448C74.6462 14.2448 67.969 15.7058 61.8131 18.5716C59.9254 19.4566 58.2209 20.0466 56.6009 20.3838C52.3044 21.2828 48.7686 22.6876 45.7681 24.6684C39.7389 28.658 35.3579 34.3895 32.3574 42.1861C30.836 46.1477 30.2867 50.4463 29.9486 54.1409C29.9486 54.1831 29.9486 54.2252 29.9486 54.2674C30.3148 53.4245 30.7093 52.5816 31.1319 51.7247C35.6538 42.5092 41.3167 35.1341 48.4446 29.1778C51.5297 26.607 54.502 24.7667 57.5447 23.5867C58.066 23.39 58.883 23.1371 59.7423 23.1371C60.3762 23.1371 60.9538 23.2636 61.475 23.5164C62.9118 24.2188 64.1092 25.0196 65.039 25.9186C65.9969 26.8458 66.8843 27.8011 67.7296 28.7282C68.4057 29.4587 69.0678 30.1892 69.7721 30.8916C72.8008 33.926 76.2944 36.4546 80.2105 39.1799C81.3656 39.2501 82.4503 39.2782 83.5209 39.3063C85.0282 39.3485 86.5214 39.4047 88.0287 39.4889C89.4515 39.5732 90.7898 39.8963 91.9026 40.2054C94.1988 40.8375 95.7061 43.1414 95.3398 45.4453C95.2412 46.0493 95.0299 46.6112 94.72 47.1029C96.8048 48.1706 98.932 49.2803 101.003 50.4042C106.102 53.1716 110.272 55.6862 114.047 59.0015C116.048 60.7575 117.611 62.4713 118.837 64.2695C122.246 61.3897 126.007 59.9427 130.064 59.9427C130.529 59.9427 130.994 59.9568 131.473 59.9989C134.515 60.2377 137.136 61.4458 139.263 63.5811C142.587 66.9245 144.038 71.2934 143.446 76.2243C142.263 86.1281 136.981 93.4751 128.162 97.4647C127.472 97.7738 126.782 98.0267 126.091 98.2374H126.12ZM32.1461 85.3273C32.2447 85.3273 32.3433 85.3414 32.4419 85.3414C32.4983 85.3414 32.5546 85.3414 32.611 85.3414H32.78L32.9491 85.3273C34.555 85.3273 35.7805 84.948 36.823 84.1333C36.823 84.1333 36.8511 84.1192 36.8511 84.1052C36.8511 84.1052 36.8511 84.1052 36.8511 84.0911C36.4426 83.1078 36.0482 83.0656 35.8932 83.0375L35.6115 83.0094C35.1889 82.9673 34.7522 82.9111 34.3437 82.9111C33.7943 82.9111 33.752 82.9813 33.583 83.2482C33.3153 83.6556 33.0336 84.063 32.7659 84.4704C32.5546 84.7654 32.3574 85.0604 32.1743 85.3414L32.1461 85.3273Z" fill="#90D3F5"/>
<path id="Vector_2" d="M82.4222 5.61895C84.6761 5.61895 86.93 5.75943 89.1698 6.12467C93.8184 6.88326 98.4812 7.66994 103.059 8.77973C105.764 9.43998 108.384 10.62 110.934 11.786C114.146 13.247 117.4 14.708 120.386 16.5904C126.641 20.5238 132.487 25.0051 136.755 31.2002C138.305 33.4479 140.108 35.541 141.446 37.9151C143.263 41.1181 144.785 44.5036 146.334 47.847C148.278 52.0333 149.447 56.4865 150.546 60.9678C151.279 63.96 152.194 66.896 152.899 69.8882C153.519 72.5152 153.983 75.1843 154.519 77.8253C155.519 82.728 157.857 86.9845 160.858 90.932C161.266 91.4658 161.619 92.0418 161.943 92.6178C162.605 93.7837 162.45 94.8373 161.703 95.9752C159.308 99.5996 155.772 101.622 151.885 103.168C145.461 105.71 138.727 106.483 131.881 106.567C131.712 106.567 131.543 106.567 131.374 106.567C125.965 106.567 120.64 105.879 115.371 104.685C113.413 104.235 111.469 103.772 109.525 103.266C109.187 103.182 108.863 103.126 108.553 103.126C107.976 103.126 107.426 103.294 106.877 103.673C103.299 106.132 99.3828 107.916 95.2835 109.307C90.0573 111.077 84.7042 112.187 79.2385 112.833C75.9986 113.212 72.7586 113.395 69.5186 113.395C67.8845 113.395 66.2504 113.353 64.6164 113.254C59.531 112.973 54.5724 112.06 49.6984 110.599C48.2756 110.164 46.7683 110.009 45.2892 109.77C41.852 109.208 38.4148 108.689 34.9917 108.127C32.3997 107.705 29.8218 107.214 27.2298 106.82C23.2573 106.23 19.2848 105.682 15.2982 105.149C13.1007 104.854 10.875 104.657 8.67741 104.39C8.09985 104.32 7.5082 104.193 6.95882 103.997C6.02908 103.673 5.62056 103.098 5.64874 102.283C5.67691 101.44 6.18404 100.864 7.05743 100.527C7.84629 100.218 8.62107 99.8524 9.35358 99.431C10.8045 98.6022 11.6075 97.1833 12.509 95.8488C14.4249 93.0111 15.4532 89.7941 16.5097 86.5912C17.8902 82.419 19.2003 78.2186 19.7074 73.8497C20.285 68.9892 20.5949 64.1005 21.0598 59.2399C21.2288 57.4839 21.5246 55.742 21.7641 53.986C22.3699 49.589 22.8065 45.1498 24.2011 40.9214C26.6241 33.5743 30.019 26.7611 36.1186 21.6617C37.64 20.3974 39.2882 19.2595 40.9645 18.234C44.2749 16.2111 47.5713 14.1039 51.3888 13.0924C52.8116 12.7132 54.2766 12.5727 55.7276 12.2777C56.1642 12.1934 56.6291 12.095 56.9813 11.8422C58.9394 10.4936 61.0947 9.53832 63.3204 8.73759C67.5605 7.20636 71.9415 6.2792 76.4071 5.88586C78.4074 5.70323 80.4218 5.59085 82.4222 5.59085M28.6103 102.212C28.8357 102.212 29.0611 102.142 29.3851 102.086C29.2161 101.819 29.1456 101.679 29.047 101.566C28.1314 100.555 27.1453 99.5996 26.3142 98.5179C24.0603 95.5397 22.8347 92.1963 23.2151 88.4034C23.6236 84.3857 25.5112 81.0423 28.23 78.1343C28.6949 77.6286 28.8639 77.165 28.7512 76.4907C28.1877 73.1754 28.3849 69.8601 29.0048 66.587C29.9204 61.8388 31.5263 57.3153 33.6675 52.9605C37.7527 44.6441 43.1198 37.297 50.2618 31.3267C52.7834 29.2195 55.5022 27.4073 58.5731 26.2132C58.9253 26.0727 59.362 25.9603 59.7564 25.9603C59.9536 25.9603 60.1227 25.9884 60.2635 26.0587C61.2778 26.5504 62.292 27.1685 63.095 27.9411C64.7291 29.5145 66.1941 31.2845 67.8 32.886C71.1104 36.2013 74.9139 38.8985 78.7314 41.5676C79.1258 41.8345 79.6752 41.975 80.1542 42.0031C82.718 42.1295 85.2959 42.1436 87.8597 42.3121C88.9726 42.3824 90.0854 42.6352 91.1701 42.9443C92.1421 43.2112 92.7056 44.1665 92.5647 45.0234C92.4238 45.8663 91.6772 46.4563 90.6348 46.4563C90.6348 46.4563 90.6207 46.4563 90.6066 46.4563C89.8882 46.4563 89.1698 46.3158 88.4514 46.2456C88.0992 46.2175 87.7611 46.1894 87.4089 46.1613C87.3948 46.2315 87.3667 46.3158 87.3526 46.386C87.5639 46.5265 87.7611 46.681 87.9865 46.7934C91.8885 48.8163 95.8188 50.783 99.6786 52.8762C104.088 55.2643 108.412 57.7929 112.216 61.1223C114.413 63.0469 116.343 65.1822 117.682 67.7951C117.963 68.357 118.104 68.6099 118.273 68.6099C118.428 68.6099 118.625 68.3991 118.992 68.0198C122.063 64.8029 125.641 62.7659 130.092 62.7659C130.487 62.7659 130.881 62.78 131.275 62.8081C133.614 62.9907 135.642 63.9178 137.276 65.5755C140.136 68.4413 141.122 72.0516 140.657 75.9007C139.615 84.6807 135.192 91.213 127.007 94.9076C125.429 95.624 123.809 95.9893 122.175 95.9893C120.64 95.9893 119.09 95.6521 117.555 94.9638C117.344 94.8654 117.174 94.8233 117.02 94.8233C116.724 94.8233 116.498 94.9778 116.245 95.2447C115.301 96.2562 114.301 97.2395 113.343 98.2369C113.202 98.3774 113.089 98.546 112.836 98.8691C113.765 99.0658 114.54 99.2062 115.301 99.3748C120.076 100.414 124.908 101.145 129.796 101.201C130.303 101.201 130.825 101.201 131.332 101.201C134.121 101.201 136.91 101.117 139.685 100.864C143.968 100.457 147.997 98.9815 151.87 97.1833C153.138 96.5933 154.293 95.7224 155.463 94.9216C156.04 94.5283 156.04 94.0928 155.618 93.4466C154.054 91.0163 152.293 88.6562 151.194 86.0152C149.87 82.8264 149.081 79.4127 148.208 76.0412C147.602 73.7233 147.334 71.3071 146.785 68.9611C146.081 66.0531 145.137 63.2014 144.461 60.2794C143.066 54.1405 140.432 48.5073 137.685 42.9021C136.375 40.233 134.515 37.9573 132.853 35.527C128.458 29.093 122.485 24.4572 115.878 20.5519C113.582 19.2033 111.117 18.0795 108.652 17.0399C105.891 15.8739 103.102 14.6518 100.214 13.9634C95.4807 12.8396 90.6771 11.9265 85.7889 11.5612C84.4084 11.4629 83.0279 11.4067 81.6615 11.4067C74.3786 11.4067 67.3774 12.8677 60.6439 16.0004C59.1788 16.6887 57.6152 17.2787 56.0375 17.6018C51.8114 18.4868 47.8107 19.9197 44.2186 22.2938C37.2315 26.9016 32.6955 33.4479 29.7373 41.1602C28.1736 45.2341 27.5538 49.5468 27.1594 53.8595C26.765 58.2284 26.6523 62.6114 26.3142 66.9943C26.1029 69.7056 25.8211 72.4309 25.3844 75.1281C24.6238 79.8061 23.3137 84.3576 21.8205 88.8529C20.454 92.9549 18.9327 96.9726 16.4111 100.541C15.9181 101.243 16.0167 101.426 16.8478 101.58C17.0028 101.608 17.1718 101.637 17.3268 101.651C21.0739 101.833 24.821 102.03 28.5681 102.198C28.5822 102.198 28.5962 102.198 28.6103 102.198M44.3172 44.8548C44.6412 44.7986 44.9652 44.7565 45.2892 44.7003C46.4161 44.4615 47.529 44.0681 48.67 44.0119C49.5857 43.9698 50.4872 43.9417 51.4029 43.9417C52.6003 43.9417 53.8117 43.9698 55.0091 43.9979C55.4458 43.9979 55.9107 44.1524 56.3192 44.3631C57.2208 44.8127 57.5448 45.5291 57.3757 46.4001C57.2208 47.1306 56.5164 47.7487 55.6008 47.7627C55.5726 47.7627 55.5303 47.7627 55.5022 47.7627C54.657 47.7627 53.8117 47.6503 52.9524 47.5661C52.2763 47.4958 51.6001 47.4677 50.9239 47.4677C47.7121 47.4677 44.6412 48.2123 41.6689 49.5328C41.035 49.8137 40.4997 50.0947 40.1475 50.7409C37.0343 56.2898 34.555 62.0635 33.4985 68.371C33.104 70.7732 32.8927 73.2035 33.2167 75.6479C33.2731 76.0974 33.3717 76.4065 33.8366 76.4065C33.907 76.4065 33.9774 76.4065 34.062 76.3924C34.5973 76.3081 35.1185 76.266 35.6115 76.266C38.5838 76.266 40.9082 77.7551 42.5141 80.3961C44.3876 83.4866 44.2468 86.6052 41.2603 89.2182C39.1191 91.0865 36.499 91.9294 33.6534 92.1261C33.3999 92.1401 33.1322 92.1542 32.8787 92.1542C31.5404 92.1542 30.2585 91.9294 28.9766 91.4939C28.9062 91.4658 28.8357 91.4658 28.7512 91.4658C28.5822 91.4658 28.399 91.508 28.23 91.508C28.23 91.7608 28.1877 92.0418 28.2722 92.2666C28.7512 93.7556 29.4696 95.1183 30.4839 96.3264C33.1886 99.5574 36.7525 101.566 40.5419 103.196C45.1342 105.163 49.9519 106.343 54.8823 106.975C58.9394 107.495 62.9823 107.761 66.9971 107.761C74.5899 107.761 82.1263 106.806 89.5924 104.811C93.5367 103.758 97.3824 102.437 101.059 100.653C106.187 98.1667 110.864 95.1323 114.146 90.3139C114.737 89.457 115.456 89.0355 116.217 89.0355C116.836 89.0355 117.498 89.3165 118.161 89.8503C119.33 90.8056 120.612 91.2551 122.034 91.2551C122.316 91.2551 122.598 91.2411 122.88 91.1989C125.077 90.932 126.993 89.9908 128.698 88.6422C132.402 85.7343 134.741 81.9554 135.741 77.3617C136.149 75.4652 136.178 73.5266 135.572 71.6442C134.699 68.9049 132.755 67.4298 130.12 67.4298C129.726 67.4298 129.303 67.4579 128.881 67.5282C127.148 67.8091 125.57 68.4413 124.26 69.6354C122.415 71.3211 120.626 73.035 118.809 74.7348C118.231 75.2686 117.583 75.6338 116.836 75.6338C116.653 75.6338 116.456 75.6057 116.245 75.5636C115.033 75.2686 114.428 74.51 114.315 73.0209C114.216 71.5599 113.723 70.2535 112.977 69.0313C111.497 66.601 109.399 64.7607 107.173 63.075C102.496 59.5349 97.2838 56.8798 92.1139 54.1405C87.5498 51.7242 82.9293 49.3782 78.4074 46.8918C77.7453 46.5265 77.1255 46.3439 76.4916 46.3439C76.0972 46.3439 75.7027 46.4141 75.2942 46.5546C73.477 47.1727 71.6598 47.8189 69.8426 48.4792C69.575 48.5775 69.3073 48.6337 69.0678 48.6337C68.5748 48.6337 68.1522 48.437 67.8141 48.0156C67.3492 47.4396 67.321 46.681 67.8704 46.0208C68.2085 45.6134 68.617 45.2341 69.0819 44.9812C69.9835 44.5036 70.9273 44.1384 71.857 43.7169C72.1528 43.5765 72.4487 43.4219 72.8713 43.2253C72.5473 42.9583 72.3501 42.7898 72.1388 42.6212C70.9836 41.7081 69.7863 40.8512 68.6593 39.8959C65.6447 37.3392 62.7428 34.6701 60.996 31.0316C60.8411 30.6945 60.6298 30.54 60.3762 30.54C60.2213 30.54 60.0663 30.5962 59.8832 30.6945C58.4181 31.5374 56.9109 32.296 55.5163 33.2512C51.5297 35.9906 48.2192 39.4464 45.2188 43.2253C44.8525 43.6888 44.5144 44.1946 44.1622 44.6722C44.2045 44.7424 44.2468 44.7986 44.3031 44.8689M32.4279 88.1505C32.5969 88.1505 32.766 88.1505 32.9209 88.1224C32.9209 88.1224 32.9491 88.1224 32.9632 88.1224C35.1044 88.1224 36.9357 87.5746 38.5416 86.3524C39.7249 85.4393 39.9925 84.3576 39.4431 83.023C38.8374 81.534 37.7809 80.4242 36.1891 80.2415C35.5692 80.1713 34.9353 80.087 34.3155 80.087C33.1322 80.087 32.0194 80.3961 31.1741 81.7166C30.2303 83.2057 29.0611 84.5402 28.5399 86.2681C28.4272 86.6614 28.2863 87.0407 28.8498 87.2515C30.0472 87.6869 31.2305 88.1505 32.4138 88.1505M82.4222 -0.000224458C80.4218 -0.000224458 78.2947 0.098111 75.914 0.30883C70.8991 0.758364 66.011 1.81196 61.4046 3.46961C58.6435 4.46702 56.4037 5.53466 54.4034 6.81302C54.009 6.88326 53.6004 6.9535 53.206 7.00969C52.2199 7.16422 51.1071 7.34684 49.9379 7.6559C45.5568 8.80783 41.8802 11.0695 38.6261 13.0643L38.0204 13.4436C35.9214 14.722 34.1183 16.0004 32.4983 17.349C24.5251 24.0077 20.8907 32.9843 18.8481 39.1514C17.4817 43.2674 16.9464 47.3834 16.4252 51.359C16.3407 51.9771 16.2561 52.6093 16.1716 53.2274C16.1012 53.7471 16.0308 54.2669 15.9462 54.7867C15.7631 56.051 15.5659 57.3434 15.4391 58.692C15.256 60.5463 15.101 62.4007 14.9461 64.255C14.6925 67.2051 14.4389 70.2535 14.1009 73.1895C13.636 77.0808 12.3823 81.0704 11.1426 84.8212L11.0017 85.2566C10.0861 88.0241 9.2268 90.637 7.81812 92.702L7.43777 93.264C7.12786 93.7275 6.67708 94.4159 6.46578 94.5845C6.04317 94.8233 5.52196 95.0761 4.95848 95.2869C1.94389 96.4669 0.0844248 99.0096 -0.0141833 102.086C-0.126878 105.401 1.8312 108.169 5.08526 109.293C5.98682 109.602 6.95882 109.826 7.95898 109.953C8.93098 110.079 9.91706 110.178 10.9031 110.29C12.1146 110.416 13.3261 110.557 14.5376 110.711C19.1299 111.316 22.9052 111.849 26.3846 112.369C27.8496 112.594 29.3147 112.847 30.8642 113.114C31.9348 113.296 33.0054 113.493 34.076 113.662C35.7946 113.943 37.5132 114.209 39.2318 114.49C40.9504 114.757 42.6549 115.038 44.3735 115.305C44.7539 115.361 45.1342 115.418 45.5146 115.488C46.4725 115.628 47.374 115.769 48.0643 115.965C53.4596 117.595 58.9253 118.564 64.3065 118.859C66.0532 118.958 67.8 119 69.5186 119C73.0262 119 76.5198 118.803 79.9006 118.396C86.1129 117.665 91.7336 116.415 97.1007 114.603C101.679 113.057 105.623 111.189 109.103 108.927C110.709 109.335 112.399 109.742 114.132 110.136C120.147 111.498 125.782 112.158 131.374 112.158H131.923C140.714 112.046 147.715 110.838 153.969 108.365C157.942 106.792 162.943 104.32 166.422 99.0517C169.085 95.02 167.845 91.5361 166.859 89.8222C166.493 89.1901 166 88.3612 165.366 87.5184C162.478 83.7395 160.802 80.2977 160.055 76.6874C159.872 75.8164 159.703 74.9314 159.534 74.0464C159.196 72.2623 158.829 70.422 158.393 68.5677C157.998 66.9241 157.562 65.3226 157.125 63.7633C156.73 62.3304 156.35 60.9818 156.026 59.6192C154.913 55.0255 153.631 50.1509 151.448 45.4589L150.913 44.2929C149.518 41.2866 148.067 38.168 146.362 35.1336C145.32 33.2934 144.137 31.6919 142.982 30.1607C142.418 29.4161 141.897 28.6997 141.404 27.9973C136.164 20.3974 129.022 15.3682 123.401 11.8141C120.231 9.81928 116.921 8.31615 113.723 6.85516L113.286 6.65849C110.666 5.46442 107.68 4.10177 104.398 3.30104C99.6363 2.14911 94.9031 1.34838 90.0854 0.561693C87.6766 0.168351 85.1691 -0.0283203 82.4222 -0.0283203V-0.000224458ZM63.0105 21.1279C63.0105 21.1279 63.0246 21.1279 63.0386 21.1279C68.8988 18.3885 74.9984 17.068 81.6615 17.068C82.887 17.068 84.1267 17.1102 85.3804 17.2085C89.3388 17.5035 93.5226 18.1918 98.9179 19.4702C101.073 19.9759 103.313 20.9312 105.68 21.9286L106.468 22.2657C108.356 23.0524 110.793 24.1341 113.019 25.4406C119.978 29.5426 124.81 33.771 128.204 38.744C128.683 39.4464 129.176 40.1347 129.67 40.8231C130.811 42.4105 131.881 43.8996 132.628 45.4167C134.896 50.0525 137.037 54.6181 138.403 59.3523C136.417 58.1441 134.163 57.4277 131.754 57.231C131.205 57.1889 130.656 57.1608 130.12 57.1608C126.289 57.1608 122.711 58.2425 119.428 60.3918C118.428 59.2258 117.287 58.088 115.977 56.936C112.005 53.4381 107.68 50.8252 102.411 47.9735C101.017 47.2149 99.6081 46.4703 98.1995 45.7398C98.6925 42.0452 96.3682 38.5332 92.6915 37.5358C91.4378 37.1987 89.9305 36.8334 88.2541 36.7211C86.6905 36.6227 85.155 36.5806 83.6618 36.5244C82.8589 36.4963 82.0418 36.4682 81.2389 36.4401C77.7031 33.9677 74.5476 31.6357 71.8288 28.9245C71.1809 28.2783 70.5469 27.5759 69.8708 26.8454C68.9833 25.8761 68.0676 24.8927 67.0534 23.9093C65.9687 22.8698 64.6164 21.9286 63.0386 21.1419L63.0105 21.1279ZM57.4884 38.7861C57.8828 38.4771 58.2914 38.182 58.6999 37.9011C60.1086 39.7133 61.7004 41.2726 63.3204 42.7195C63.0809 43.0286 62.8696 43.3657 62.7006 43.7029C62.0948 41.8626 60.7707 40.3033 58.8689 39.348C58.5027 39.1654 58.0378 38.9547 57.5025 38.7861H57.4884ZM55.5022 53.3819H55.6571C58.4886 53.3538 61.0101 51.7523 62.2357 49.3782C62.5033 50.1368 62.8978 50.8673 63.4331 51.5416C64.8277 53.2695 66.8844 54.2669 69.0819 54.2669C69.9976 54.2669 70.8991 54.0983 71.8007 53.7752C73.2516 53.2414 74.773 52.7076 76.3226 52.1738C79.1822 53.7331 82.0841 55.2503 84.9015 56.7113C86.4369 57.512 87.9724 58.3127 89.5079 59.1275L90.6771 59.7456C95.3821 62.2321 99.8335 64.5781 103.806 67.5703C105.384 68.7644 107.131 70.2113 108.201 71.9673C108.624 72.6697 108.708 73.1192 108.736 73.4283C109.004 77.3336 111.343 80.1713 114.977 81.0423C115.597 81.1968 116.245 81.267 116.865 81.267C118.344 81.267 120.555 80.8456 122.697 78.8508C123.26 78.317 123.838 77.7832 124.401 77.2493C125.627 76.0974 126.852 74.9314 128.106 73.7935C128.345 73.5688 128.782 73.2597 129.81 73.0911C129.937 73.0771 130.036 73.063 130.134 73.063C130.163 73.1333 130.205 73.2316 130.247 73.3581C130.501 74.1588 130.515 75.1 130.275 76.1957C129.557 79.5251 127.923 82.1521 125.26 84.2452C124.218 85.074 123.26 85.5095 122.26 85.6219C122.189 85.6219 122.133 85.6219 122.091 85.6219C121.992 85.6219 121.95 85.6219 121.781 85.4814C120.105 84.1188 118.203 83.4023 116.273 83.4023C113.625 83.4023 111.173 84.765 109.539 87.1391C107.271 90.4544 104.017 92.983 98.6362 95.5819C95.5793 97.071 92.1562 98.3072 88.1696 99.3748C81.3375 101.201 74.2236 102.128 67.0393 102.128C63.3063 102.128 59.4747 101.875 55.643 101.384C50.8535 100.766 46.6556 99.6698 42.7958 98.0122C41.6689 97.5205 40.6546 97.0429 39.739 96.5371C41.697 95.8207 43.4579 94.7811 45.0075 93.4185C49.8674 89.176 50.769 83.0652 47.374 77.4601C45.3033 74.0464 42.345 71.8268 38.8515 70.998C38.9078 70.4642 38.9924 69.8882 39.091 69.2842C39.8657 64.6062 41.6266 59.858 44.5708 54.4215C46.7683 53.5224 48.8672 53.0869 50.9521 53.0869C51.4451 53.0869 51.9382 53.115 52.4171 53.1571L52.9243 53.2133C53.685 53.2976 54.5443 53.3819 55.5022 53.3819ZM136.628 95.4976C140.221 92.4351 142.869 88.6001 144.531 84.0626C144.954 85.4393 145.433 86.816 145.996 88.1927C146.658 89.7941 147.503 91.2832 148.349 92.6459C144.771 94.2192 141.897 95.048 139.164 95.315C138.347 95.3852 137.502 95.4554 136.614 95.4976H136.628Z" fill="#90D3F5"/>
<path id="Vector_3" d="M28.4274 105.022C24.6943 104.854 20.9472 104.657 17.2001 104.475C16.9043 104.461 16.6226 104.418 16.3408 104.376C15.8055 104.278 14.1855 103.997 13.5094 102.353C13.0586 101.272 13.2558 100.12 14.101 98.9397C16.2845 95.8632 17.6932 92.3372 19.1441 87.9964C20.905 82.7284 21.9756 78.6264 22.6095 74.7071C22.9898 72.3189 23.2856 69.7341 23.511 66.8121C23.6519 64.9156 23.7505 63.0192 23.8632 61.1227C23.99 58.6784 24.1309 56.1497 24.3562 53.6492C24.7225 49.5753 25.3423 44.799 27.1173 40.1913C30.5545 31.2568 35.6398 24.6402 42.6833 19.9904C46.2895 17.6022 50.4733 15.9446 55.4741 14.891C56.6715 14.6381 57.9675 14.1886 59.4607 13.4862C66.3774 10.2692 73.8434 8.63965 81.6616 8.63965C83.0844 8.63965 84.5494 8.69584 86.0004 8.79418C90.4237 9.11728 95.0019 9.87587 100.862 11.2526C103.722 11.9269 106.384 13.0507 108.976 14.1464L109.751 14.4695C111.878 15.3686 114.667 16.5908 117.315 18.1501C125.387 22.9123 131.064 27.9275 135.178 33.954C135.614 34.6002 136.079 35.2324 136.53 35.8645C137.826 37.6627 139.164 39.531 140.221 41.6804C143.066 47.5103 145.743 53.2559 147.208 59.6758C147.546 61.1648 147.954 62.6118 148.405 64.1571C148.8 65.5338 149.194 66.9245 149.532 68.3152C149.814 69.4953 150.025 70.6612 150.222 71.7991C150.448 73.0353 150.659 74.2154 150.941 75.3533L151.293 76.7159C152.04 79.6238 152.744 82.3772 153.815 84.948C154.561 86.7321 155.688 88.4459 156.9 90.2441C157.28 90.806 157.646 91.3679 158.012 91.9298C159.463 94.1775 158.59 96.2285 157.069 97.254L156.364 97.7316C155.35 98.434 154.308 99.1645 153.082 99.7264C148.039 102.072 143.996 103.281 139.967 103.66C137.403 103.899 134.671 104.011 131.346 104.011C130.825 104.011 130.304 104.011 129.796 104.011C125.26 103.969 120.471 103.365 114.724 102.129C114.23 102.016 113.723 101.918 113.174 101.806L107.779 100.696L110.836 96.8606C111.033 96.6078 111.174 96.4392 111.314 96.2847L112.315 95.2592C112.949 94.613 113.568 93.9808 114.188 93.3206C115.005 92.4355 115.963 92 117.034 92C117.597 92 118.161 92.1265 118.738 92.3934C119.865 92.9132 121.034 93.166 122.19 93.166C123.345 93.166 124.627 92.8851 125.852 92.3232C132.98 89.1062 136.91 83.6134 137.868 75.5359C138.249 72.333 137.375 69.6357 135.276 67.5145C134.107 66.3345 132.727 65.7023 131.05 65.5759C130.726 65.5478 130.402 65.5338 130.092 65.5338C126.768 65.5338 123.894 66.9245 121.049 69.9167C120.443 70.5489 119.654 71.3917 118.287 71.3917C116.386 71.3917 115.611 69.8746 115.202 69.0738C114.16 67.0509 112.639 65.1966 110.371 63.2018C106.99 60.2236 103.116 57.9057 98.3546 55.3209C95.7626 53.9161 93.0861 52.5394 90.5082 51.2189C89.2404 50.5727 87.9725 49.9125 86.7047 49.2663C86.4512 49.1258 86.1976 48.9713 85.9581 48.8027L84.1409 47.5946L84.8453 44.9535C84.3663 44.9395 83.8733 44.9254 83.3943 44.9114C82.2815 44.8833 81.1545 44.8412 80.0416 44.785C79.4218 44.7569 78.2104 44.5883 77.1397 43.8438C72.9559 40.9218 69.2088 38.2386 65.828 34.839C65.0673 34.0804 64.3489 33.2938 63.6164 32.5071C62.7852 31.594 61.9964 30.737 61.1652 29.9363C60.7708 29.557 60.2355 29.1777 59.5734 28.8265C57.1223 29.7818 54.6712 31.299 52.0933 33.4623C45.5852 38.9129 40.3871 45.684 36.2174 54.183C34.0621 58.566 32.6112 62.7944 31.7941 67.0931C31.1743 70.3662 31.0898 73.2742 31.5546 75.9995C31.8082 77.5166 31.3997 78.8652 30.315 80.0312C27.7512 82.7987 26.3566 85.6223 26.0467 88.6847C25.7649 91.5224 26.5961 94.1915 28.5823 96.8185C29.0472 97.4225 29.6107 98.0126 30.2023 98.6447C30.5263 98.9819 30.8503 99.3331 31.1602 99.6843C31.3293 99.8669 31.4701 100.064 31.6532 100.373L34.1325 104.194L29.822 104.854L29.6247 104.896C29.3712 104.938 29.0331 105.008 28.6246 105.008H28.4414L28.4274 105.022Z" fill="#90D3F5"/>
<path id="Vector_4" d="M81.6475 11.4484C83.0139 11.4484 84.3944 11.5046 85.7749 11.603C90.6631 11.9542 95.4526 12.8813 100.2 14.0051C103.102 14.6935 105.877 15.9157 108.638 17.0816C111.103 18.1212 113.554 19.245 115.864 20.5936C122.471 24.4849 128.444 29.1348 132.839 35.5687C134.501 37.999 136.375 40.2748 137.671 42.9439C140.418 48.549 143.052 54.1963 144.447 60.3212C145.109 63.2431 146.067 66.0949 146.771 69.0028C147.335 71.3347 147.602 73.751 148.194 76.0829C149.067 79.4404 149.856 82.8681 151.18 86.057C152.279 88.698 154.04 91.058 155.604 93.4883C156.026 94.1486 156.026 94.5841 155.449 94.9634C154.279 95.7641 153.138 96.6351 151.856 97.2251C147.983 99.0372 143.954 100.512 139.671 100.906C136.896 101.173 134.107 101.243 131.318 101.243C130.811 101.243 130.289 101.243 129.782 101.243C124.894 101.201 120.062 100.456 115.287 99.4165C114.512 99.248 113.751 99.0934 112.822 98.9108C113.075 98.5877 113.188 98.4191 113.329 98.2787C114.301 97.2813 115.287 96.2979 116.231 95.2865C116.484 95.0055 116.724 94.865 117.005 94.865C117.16 94.865 117.344 94.9072 117.541 95.0055C119.076 95.7079 120.626 96.031 122.161 96.031C123.795 96.031 125.415 95.6517 126.993 94.9493C135.178 91.2547 139.601 84.7084 140.643 75.9425C141.108 72.0793 140.108 68.483 137.262 65.6172C135.614 63.9596 133.6 63.0324 131.261 62.8498C130.853 62.8217 130.458 62.8076 130.078 62.8076C125.627 62.8076 122.049 64.8446 118.978 68.0616C118.611 68.4549 118.414 68.6516 118.259 68.6516C118.076 68.6516 117.949 68.3847 117.668 67.8368C116.329 65.2239 114.399 63.0886 112.202 61.164C108.413 57.8347 104.074 55.3061 99.6646 52.9179C95.8048 50.8248 91.8745 48.8581 87.9725 46.8352C87.7471 46.7228 87.5499 46.5682 87.3386 46.4278C87.3526 46.3575 87.3808 46.2732 87.3949 46.203C87.7471 46.2311 88.0992 46.2451 88.4373 46.2873C89.1558 46.3575 89.8742 46.498 90.5926 46.498C90.5926 46.498 90.6067 46.498 90.6208 46.498C91.6632 46.498 92.4098 45.8939 92.5507 45.0651C92.6916 44.2082 92.1281 43.2529 91.1561 42.986C90.0714 42.691 88.9585 42.4241 87.8457 42.3539C85.2819 42.1993 82.704 42.1712 80.1402 42.0448C79.6612 42.0167 79.1118 41.8762 78.7174 41.6093C74.8858 38.9402 71.0823 36.229 67.786 32.9277C66.1801 31.3122 64.715 29.5562 63.081 27.9828C62.278 27.2102 61.2638 26.5921 60.2495 26.1004C60.1086 26.0302 59.9255 26.0021 59.7424 26.0021C59.362 26.0021 58.9113 26.1285 58.5591 26.2549C55.4741 27.449 52.7553 29.2752 50.2478 31.3684C43.1058 37.3388 37.7387 44.6858 33.6535 53.0022C31.5123 57.3571 29.8923 61.8805 28.9907 66.6287C28.3709 69.9019 28.1737 73.2172 28.7372 76.5325C28.8499 77.2068 28.6808 77.6704 28.216 78.1761C25.5113 81.084 23.6096 84.4274 23.201 88.4451C22.8207 92.2381 24.0322 95.5815 26.3001 98.5596C27.1172 99.6413 28.1174 100.597 29.033 101.608C29.1316 101.72 29.202 101.861 29.3711 102.128C29.0471 102.17 28.8217 102.254 28.5963 102.254C28.5822 102.254 28.5681 102.254 28.554 102.254C24.8069 102.072 21.0598 101.889 17.3127 101.706C17.1578 101.706 16.9887 101.664 16.8338 101.636C16.0026 101.482 15.904 101.299 16.3971 100.597C18.9186 97.0284 20.44 93.0107 21.8064 88.9087C23.3137 84.4134 24.6238 79.8618 25.3704 75.1839C25.8071 72.4867 26.0888 69.7754 26.3001 67.0501C26.6382 62.6812 26.7368 58.2842 27.1454 53.9153C27.5398 49.6026 28.1596 45.2899 29.7233 41.216C32.6815 33.5177 37.2316 26.9714 44.2046 22.3496C47.7967 19.9755 51.7974 18.5426 56.0234 17.6576C57.6012 17.3205 59.1507 16.7304 60.6299 16.0561C67.3634 12.9235 74.3645 11.4625 81.6475 11.4625M81.6475 5.8433C73.4066 5.8433 65.5321 7.5712 58.2492 10.9567C56.9532 11.5608 55.8544 11.9541 54.8824 12.1508C49.5294 13.2747 45.0216 15.0728 41.1195 17.6576C33.6817 22.5744 28.0892 29.8231 24.4829 39.1931C22.5953 44.1239 21.9473 49.139 21.5529 53.3955C21.3134 55.9523 21.1866 58.509 21.0457 60.9814C20.9471 62.8357 20.8485 64.7603 20.7077 66.6006C20.4964 69.4383 20.2005 71.9529 19.8343 74.2708C19.2285 78.0356 18.2002 81.9971 16.4816 87.1106C15.1011 91.2266 13.791 94.5279 11.8048 97.3234C9.93121 99.9644 10.4383 102.282 10.9173 103.42C11.4949 104.811 12.819 106.595 15.8477 107.129C16.0872 107.171 16.5098 107.241 17.031 107.269C20.7922 107.452 24.5393 107.649 28.3005 107.817H28.4273H28.6104C29.3147 107.817 29.8641 107.705 30.174 107.649H30.2586L38.8797 106.314L34.1184 99.0232L34.0479 98.9108C33.9071 98.6861 33.6535 98.2646 33.245 97.8151C32.921 97.4498 32.5688 97.0846 32.2307 96.7193C31.6954 96.1434 31.1742 95.6096 30.8079 95.1179C29.2443 93.0528 28.6104 91.0861 28.8217 88.9508C29.0753 86.4925 30.2022 84.2588 32.3575 81.9269C34.4705 79.6511 34.5832 77.1927 34.3015 75.521C33.893 73.1329 33.9775 70.5481 34.5269 67.612C35.3017 63.5522 36.6681 59.5626 38.7107 55.4044C42.7113 47.2706 47.6699 40.7945 53.8682 35.5968C55.7417 34.0375 57.5026 32.8434 59.2352 32.0146C59.9819 32.7451 60.7285 33.5458 61.5032 34.4027C62.2358 35.1894 62.9824 36.0042 63.7853 36.819C67.3352 40.3731 71.1809 43.1546 75.4915 46.1468C76.7171 47.0037 78.2666 47.5095 79.8725 47.5937C80.3092 47.6218 80.7459 47.6359 81.1826 47.6499L80.8727 48.844L84.2535 51.0636L84.324 51.1057C84.5353 51.2603 84.9015 51.5131 85.3805 51.7519C86.6483 52.4122 87.9302 53.0724 89.198 53.7186C91.7759 55.0391 94.4242 56.4018 96.9881 57.7925C101.58 60.279 105.299 62.5126 108.483 65.3082C110.469 67.0501 111.793 68.6516 112.653 70.3233C113.977 72.9081 115.864 74.2005 118.259 74.2005C120.837 74.2005 122.33 72.6272 123.049 71.8686C125.373 69.4242 127.528 68.3425 130.064 68.3425C130.303 68.3425 130.557 68.3425 130.811 68.3706C131.811 68.4549 132.571 68.7921 133.262 69.4945C134.769 71.0116 135.333 72.8238 135.051 75.1979C134.206 82.2219 130.811 86.9841 124.669 89.7516C123.809 90.1449 122.964 90.3416 122.161 90.3416C121.358 90.3416 120.654 90.173 119.879 89.8218C118.935 89.3863 117.963 89.1756 116.991 89.1756C115.695 89.1756 113.794 89.5549 112.075 91.3952C111.483 92.0273 110.878 92.6454 110.272 93.2636C109.934 93.6148 109.596 93.9519 109.244 94.3031C108.934 94.6262 108.708 94.9072 108.553 95.1179L108.384 95.3286L102.665 102.479L111.652 104.333L112.54 104.516C113.075 104.628 113.568 104.727 114.061 104.839C119.992 106.131 124.965 106.75 129.712 106.792C130.233 106.792 130.768 106.792 131.304 106.792C134.713 106.792 137.53 106.679 140.178 106.426C144.545 106.019 148.87 104.727 154.223 102.24C155.674 101.566 156.871 100.737 157.928 100.007C158.153 99.852 158.379 99.6975 158.604 99.543C161.675 97.4639 162.407 93.6148 160.337 90.3837C159.97 89.8078 159.59 89.2318 159.196 88.6558C158.069 86.9701 157.012 85.3686 156.364 83.8374C155.378 81.4492 154.688 78.7942 153.969 75.9846L153.617 74.6079C153.35 73.5824 153.152 72.4586 152.941 71.2785C152.73 70.0985 152.518 68.8904 152.209 67.6401C151.856 66.1651 151.448 64.7463 151.053 63.3696C150.631 61.8664 150.222 60.4476 149.898 59.0288C148.377 52.3279 145.616 46.4137 142.7 40.4293C141.545 38.0692 140.136 36.1025 138.77 34.2061C138.333 33.588 137.882 32.9698 137.46 32.3517C133.093 25.974 127.134 20.6779 118.696 15.7049C115.907 14.0613 113.005 12.783 110.793 11.8558L110.018 11.5327C107.328 10.3948 104.539 9.2148 101.454 8.48431C95.523 7.07952 90.6631 6.27879 86.1412 5.95568C84.6198 5.8433 83.0843 5.78711 81.5911 5.78711L81.6475 5.8433Z" fill="#90D3F5"/>
<path id="Vector_5" d="M67.0113 110.543C62.9261 110.543 58.7283 110.276 54.5304 109.729C48.952 109.012 44.0216 107.706 39.4293 105.739C36.0202 104.278 31.6815 102.087 28.3147 98.0829C27.1032 96.6359 26.1735 94.9502 25.5819 93.0818C25.3846 92.4497 25.3987 91.9018 25.4128 91.6068L25.3142 88.7831L28.1457 88.6427C28.357 88.6146 28.5542 88.6005 28.7514 88.6005C29.1458 88.6005 29.5262 88.6567 29.8784 88.7831C30.8926 89.1203 31.8787 89.2889 32.8789 89.2889C33.0761 89.2889 33.2733 89.2889 33.4705 89.2748C35.9498 89.1062 37.8797 88.3898 39.4011 87.0553C41.176 85.4959 41.3873 83.9366 40.1054 81.8013C38.9644 79.9329 37.4994 79.0198 35.6117 79.0198C35.2595 79.0198 34.8933 79.0479 34.5129 79.1182C34.2594 79.1603 34.0481 79.1744 33.8368 79.1744C33.3437 79.1744 30.8363 79.0198 30.4277 75.9855C30.0051 72.8528 30.3855 69.8465 30.7236 67.8798C31.7096 61.9376 33.9213 56.0515 37.6966 49.3366C38.5559 47.8194 39.8941 47.2153 40.5421 46.9344C41.007 46.7236 41.4718 46.541 41.9508 46.3584L40.7393 44.6305L42.2185 42.5795C42.4861 42.2002 42.7538 41.835 43.0355 41.4697C46.6699 36.9041 50.1212 33.5467 53.9387 30.9338C55.0093 30.1892 56.1222 29.5711 57.1928 28.9811C57.6295 28.7423 58.0521 28.5035 58.4888 28.2506C59.1086 27.8994 59.7425 27.7168 60.3905 27.7168C61.7429 27.7168 62.9261 28.5035 63.5601 29.8099C65.0674 32.9707 67.7016 35.3729 70.5049 37.747C71.2233 38.3651 71.984 38.9411 72.7447 39.5171C73.125 39.8121 73.5195 40.1071 73.8998 40.4021C74.0548 40.5145 77.9146 43.6752 77.9146 43.6752C78.5485 43.8157 79.1683 44.0686 79.8022 44.4198C82.7886 46.0634 85.8737 47.6649 88.846 49.2242C90.3955 50.0249 91.931 50.8397 93.4665 51.6545L94.6216 52.2585C99.4252 54.7872 104.398 57.4141 108.906 60.8278C111.117 62.4995 113.611 64.6067 115.414 67.5567C116.386 69.1582 116.949 70.7597 117.118 72.4595L118.569 71.0968C119.837 69.9027 121.091 68.7227 122.373 67.5427C123.993 66.0676 126.035 65.1264 128.444 64.7331C129.022 64.6488 129.585 64.5926 130.135 64.5926C134.008 64.5926 137.037 66.8965 138.277 70.7597C138.981 72.9652 139.052 75.3814 138.516 77.91C137.389 83.1499 134.671 87.4907 130.473 90.806C128.219 92.5761 125.782 93.6297 123.246 93.9387C122.838 93.9809 122.443 94.009 122.063 94.009C119.978 94.009 118.076 93.3206 116.414 91.972C112.427 97.7317 106.793 100.949 102.313 103.126C98.7631 104.84 94.847 106.273 90.3392 107.481C82.7886 109.504 74.9422 110.529 67.0254 110.529L67.0113 110.543ZM101.552 79.2025C99.0871 79.2025 96.9741 80.1437 95.1006 82.0963C93.227 84.0349 93.2833 86.4793 95.2132 88.4881C96.5797 89.8929 98.4251 90.5953 101.369 90.792C104.229 90.7499 106.638 89.7805 108.159 88.0386C109.695 86.2826 109.638 85.0042 109.427 84.0771C108.92 81.8856 107.525 80.5089 105.004 79.7363C103.792 79.371 102.623 79.1744 101.538 79.1744L101.552 79.2025ZM80.1826 71.9959C83.0281 71.9959 85.3384 72.333 87.4655 73.0635C87.8176 73.1759 88.1698 73.2602 88.4656 73.3164C88.5643 72.7545 88.6206 72.1925 88.691 71.6306C88.7474 71.0828 88.8178 70.5489 88.9023 70.0151C88.9728 69.5656 89.0714 69.1301 89.17 68.6806C89.1841 68.5963 89.2122 68.512 89.2263 68.4277C88.353 68.1889 87.395 67.9501 86.4371 67.7113C85.8314 67.5567 85.2398 67.4162 84.6481 67.2617C84.31 67.1774 83.986 67.0369 83.662 66.8965L80.253 65.5619L82.1406 62.6821C82.3519 62.2747 82.7041 61.6144 83.4225 61.1087C84.634 60.2518 85.7187 59.4932 86.7752 58.7768C86.2681 57.8356 85.6764 57.0208 85.0003 56.3184C84.2537 55.5457 83.0563 54.6186 81.549 54.6186C80.7742 54.6186 79.9713 54.8574 79.1683 55.3491C78.2104 55.925 77.4215 56.782 76.7454 57.9901C74.7028 61.5864 73.9562 65.4917 74.5337 69.6077C74.6042 70.1696 74.7732 71.2935 74.421 72.4735C76.1819 72.1363 77.9005 72.038 79.4641 72.0099C79.7177 72.0099 79.9572 72.0099 80.2107 72.0099L80.1826 71.9959ZM43.3031 70.3804C43.8666 70.4506 44.3737 70.5208 44.8668 70.577C45.9515 70.7035 46.9798 70.8299 48.0222 71.0547C49.3041 71.3356 50.572 71.6587 51.8398 71.9959C52.3751 72.1363 52.9104 72.2768 53.4457 72.4173C53.5443 72.0802 53.6147 71.7009 53.6992 71.3216C53.7838 70.9282 53.8542 70.5349 53.9106 70.1415C54.0092 69.5515 54.1078 68.9615 54.2627 68.3294C53.5725 68.0484 52.8681 67.7674 52.1638 67.5005C51.5299 67.2477 50.896 67.0089 50.2621 66.756C49.769 66.5593 49.4168 66.3065 49.1915 66.1379L46.529 64.424L48.4448 61.9095C48.6702 61.5864 49.0224 61.0806 49.6422 60.6873L50.0367 60.4344C50.9523 59.8585 51.882 59.2684 52.8399 58.6925C52.4455 57.8215 52.0652 57.0067 51.6003 56.3746C50.9382 55.4755 50.2057 55.0119 49.4168 55.0119C48.7548 55.0119 48.0222 55.321 47.2756 55.911C46.205 56.7679 45.3598 57.9479 44.5428 59.7742C43.2468 62.654 42.6129 65.7164 42.6411 68.8772C42.6411 69.4251 42.5565 69.9308 42.3875 70.3944L42.8946 70.3382L43.2609 70.3944L43.3031 70.3804Z" fill="#90D3F5"/>
<path id="Vector_6" d="M60.3762 30.54C60.6298 30.54 60.8411 30.6945 60.996 31.0317C62.7428 34.6841 65.6447 37.3392 68.6593 39.8959C69.7863 40.8512 70.9695 41.7081 72.1388 42.6212C72.3501 42.7757 72.5473 42.9443 72.8713 43.2253C72.4628 43.4219 72.1669 43.5765 71.857 43.717C70.9273 44.1384 69.9835 44.5036 69.0819 44.9813C68.617 45.2201 68.2085 45.6134 67.8704 46.0208C67.3351 46.6811 67.3492 47.4256 67.8141 48.0156C68.1522 48.4371 68.5748 48.6337 69.0678 48.6337C69.3214 48.6337 69.5749 48.5775 69.8426 48.4792C71.6457 47.8189 73.4629 47.1727 75.2942 46.5546C75.7027 46.4142 76.0972 46.3439 76.4916 46.3439C77.1255 46.3439 77.7453 46.5265 78.4074 46.8918C82.9434 49.3783 87.5498 51.7243 92.1139 54.1405C97.2838 56.8658 102.496 59.5349 107.173 63.075C109.399 64.7608 111.497 66.601 112.977 69.0313C113.723 70.2675 114.216 71.56 114.315 73.0209C114.413 74.51 115.033 75.2686 116.245 75.5636C116.442 75.6058 116.639 75.6339 116.836 75.6339C117.583 75.6339 118.231 75.2827 118.809 74.7348C120.626 73.035 122.429 71.3071 124.26 69.6354C125.57 68.4413 127.148 67.8092 128.881 67.5282C129.303 67.458 129.726 67.4299 130.12 67.4299C132.755 67.4299 134.699 68.9049 135.572 71.6442C136.178 73.5267 136.149 75.4653 135.741 77.3617C134.755 81.9414 132.402 85.7343 128.698 88.6422C126.993 89.9908 125.077 90.932 122.88 91.199C122.598 91.227 122.316 91.2551 122.034 91.2551C120.612 91.2551 119.316 90.7916 118.161 89.8503C117.498 89.3165 116.836 89.0356 116.217 89.0356C115.442 89.0356 114.737 89.457 114.146 90.3139C110.849 95.1324 106.173 98.1667 101.059 100.653C97.3824 102.437 93.5367 103.758 89.5924 104.811C82.1263 106.806 74.5899 107.761 66.9971 107.761C62.9682 107.761 58.9394 107.495 54.8823 106.975C49.9519 106.343 45.1201 105.163 40.5419 103.196C36.7385 101.566 33.1886 99.5575 30.4839 96.3264C29.4696 95.1183 28.7512 93.7557 28.2722 92.2666C28.2018 92.0278 28.2441 91.7609 28.23 91.508C28.399 91.508 28.5822 91.4659 28.7512 91.4659C28.8357 91.4659 28.9062 91.4659 28.9766 91.494C30.2444 91.9154 31.5404 92.1542 32.8787 92.1542C33.1322 92.1542 33.3858 92.1542 33.6534 92.1261C36.499 91.9435 39.1051 91.1006 41.2603 89.2182C44.2468 86.6193 44.3876 83.4866 42.5141 80.3961C40.9082 77.7551 38.5838 76.266 35.6115 76.266C35.1185 76.266 34.5973 76.3082 34.062 76.3924C33.9774 76.3924 33.907 76.4065 33.8366 76.4065C33.3717 76.4065 33.2731 76.0974 33.2167 75.6479C32.8787 73.2036 33.09 70.7873 33.4985 68.3711C34.555 62.0635 37.0343 56.2758 40.1475 50.7409C40.4996 50.0947 41.049 49.8138 41.6689 49.5328C44.6412 48.2123 47.7262 47.4678 50.9239 47.4678C51.6001 47.4678 52.2622 47.4958 52.9524 47.5661C53.7977 47.6504 54.6429 47.7628 55.5022 47.7628C55.5303 47.7628 55.5726 47.7628 55.6008 47.7628C56.5164 47.7628 57.2348 47.1446 57.3757 46.4001C57.5588 45.5291 57.2208 44.8127 56.3192 44.3632C55.9248 44.1665 55.4599 44.012 55.0091 43.9979C53.8117 43.9839 52.6003 43.9417 51.4029 43.9417C50.4872 43.9417 49.5716 43.9558 48.67 44.012C47.529 44.0682 46.4161 44.4755 45.2892 44.7003C44.9652 44.7705 44.6412 44.8127 44.3172 44.8548C44.2749 44.7846 44.2327 44.7284 44.1763 44.6582C44.5285 44.1805 44.8525 43.6748 45.2328 43.2112C48.2333 39.4323 51.5438 35.9765 55.5303 33.2372C56.9109 32.2819 58.4322 31.5234 59.8973 30.6805C60.0804 30.5821 60.2354 30.5259 60.3903 30.5259M70.5892 76.4627C70.9273 76.4627 71.3076 76.3784 71.7021 76.1958C74.1954 75.086 76.8438 74.8612 79.4921 74.805C79.7175 74.805 79.9429 74.805 80.1824 74.805C82.3376 74.805 84.4789 75.0157 86.5637 75.7181C87.2681 75.957 88.0147 76.0834 88.4091 76.1817C88.4513 76.1817 88.4795 76.1817 88.5218 76.1817C90.0854 76.1817 90.9306 75.4512 91.2124 74.0183C91.4378 72.8383 91.5082 71.6302 91.6913 70.4502C91.8181 69.6213 92.0576 68.7925 92.1703 67.9637C92.2125 67.5984 92.1985 67.1068 91.9872 66.8679C91.635 66.4746 91.1419 66.0953 90.6348 65.9408C88.888 65.421 87.1131 65.0136 85.3522 64.5641C85.0564 64.4798 84.7747 64.3393 84.4929 64.2269C84.6761 63.946 84.7888 63.5948 85.0423 63.4122C86.5214 62.3586 88.0147 61.319 89.5501 60.3357C90.1277 59.9704 90.2545 59.6333 90.0009 59.0292C89.2684 57.3153 88.3246 55.742 87.0286 54.3934C85.3945 52.6936 83.4928 51.8226 81.5347 51.8226C80.2528 51.8226 78.9568 52.1879 77.7031 52.9464C76.2239 53.8315 75.1252 55.1239 74.28 56.5989C71.9134 60.7711 71.0682 65.2524 71.7302 69.9725C71.9415 71.4476 71.8288 72.3888 70.2793 73.0209C69.1101 73.4845 68.7579 74.6786 69.1946 75.6058C69.4482 76.1396 69.9553 76.4627 70.6033 76.4627M37.795 73.7936C37.9499 73.7936 38.119 73.7936 38.2739 73.7514C39.9362 73.4986 41.6125 73.33 42.9367 73.1614C44.6975 73.4002 46.0921 73.5126 47.4445 73.8076C49.4589 74.2431 51.4451 74.8191 53.4455 75.3107C53.685 75.3669 53.9244 75.395 54.1357 75.395C54.9528 75.395 55.5444 74.9595 55.8966 74.0605C56.1642 73.3721 56.3333 72.6276 56.4882 71.8971C56.7277 70.8014 56.8263 69.6775 57.1362 68.5958C57.5307 67.177 57.3475 66.5589 55.9811 65.9829C54.4457 65.3367 52.8961 64.7607 51.3465 64.1426C51.093 64.0443 50.8676 63.8476 50.6422 63.6931C50.8253 63.4824 50.9662 63.2014 51.1916 63.0469C52.6144 62.1478 54.0371 61.2347 55.5022 60.4059C56.1924 60.0126 56.3615 59.5209 56.0656 58.8887C55.3895 57.4699 54.826 55.9527 53.9103 54.7024C52.6848 53.0167 51.1071 52.1879 49.4448 52.1879C48.1629 52.1879 46.8106 52.6936 45.5568 53.705C43.9228 55.0115 42.8662 56.7394 42.021 58.6078C40.556 61.8809 39.8376 65.3086 39.8798 68.8908C39.8798 69.5651 39.6122 69.8461 38.9783 69.9585C38.3444 70.0709 37.7104 70.2113 37.1188 70.4642C36.0341 70.9278 35.6115 71.7847 35.9214 72.6978C36.1609 73.4002 36.9216 73.7795 37.795 73.7795M119.626 86.0153C120.175 86.0153 120.724 85.7624 121.203 85.2707C121.443 85.0179 121.64 84.7369 121.837 84.4419C122.161 83.9502 122.513 83.4585 122.739 82.9247C122.978 82.3769 123.302 82.1521 123.739 82.1521C123.922 82.1521 124.119 82.1942 124.345 82.2645C125.965 82.7562 127.585 83.2338 129.219 83.6412C129.388 83.6833 129.571 83.7114 129.74 83.7114C130.571 83.7114 131.346 83.2197 131.726 82.4892C132.177 81.6183 132.036 80.5225 131.205 79.8763C130.571 79.3846 129.782 79.0615 129.007 78.7665C128.19 78.4575 127.331 78.2468 126.246 77.9237C126.824 77.2915 127.218 76.7998 127.669 76.3643C128.331 75.7041 129.092 75.1281 129.712 74.4398C131.008 73.0069 130.529 71.1104 128.782 70.6047C128.571 70.5485 128.374 70.5204 128.176 70.5204C127.345 70.5204 126.655 71.0402 126.021 71.574C123.091 74.0324 120.865 77.0808 119.006 80.3961C118.47 81.3514 117.977 82.3488 117.639 83.3743C117.315 84.3436 117.808 85.3129 118.64 85.7765C118.964 85.9591 119.288 86.0434 119.612 86.0434M101.299 93.6292C105.032 93.6012 108.215 92.2947 110.3 89.9206C111.892 88.0944 112.765 85.9731 112.202 83.4866C111.413 80.0589 109.075 78.0782 105.863 77.0948C104.384 76.6453 102.947 76.4205 101.566 76.4205C98.4249 76.4205 95.537 77.6287 93.0718 80.1854C90.0995 83.2759 90.2545 87.4341 93.1845 90.4825C95.5089 92.8847 98.5376 93.4747 101.299 93.6573M58.7703 87.5465C58.9534 87.5465 59.1507 87.5465 59.3338 87.5184C60.0663 87.4482 60.8411 87.111 61.4327 86.6615C62.2075 86.0996 62.292 85.2426 61.9258 84.5121C61.5736 83.8238 60.982 83.4866 60.179 83.4866C60.0663 83.4866 59.9536 83.4866 59.8409 83.5007C59.5169 83.5288 59.1929 83.5709 58.8689 83.5709C58.6858 83.5709 58.5027 83.5709 58.3195 83.5288C57.6152 83.4024 57.4602 82.8685 57.9815 82.3769C58.39 81.9976 58.9112 81.7588 59.3479 81.4076C60.2635 80.6771 60.0945 79.4549 58.9957 79.0475C58.6858 78.9351 58.3195 78.8649 57.9815 78.8649C57.8547 78.8649 57.7279 78.8649 57.6011 78.893C55.4176 79.2442 53.8681 81.1406 53.854 83.5007C53.8117 84.4138 54.2062 85.2848 54.9809 85.9872C56.0656 86.9846 57.3475 87.5184 58.7562 87.5184M57.7983 92.9268C57.6575 92.9268 57.5166 92.9268 57.3757 92.9268C56.7136 92.8847 56.0375 92.8707 55.3754 92.7864C54.7415 92.7161 54.1076 92.5756 53.4737 92.4633C52.389 92.2806 51.6846 91.5782 51.0366 90.7635C50.5013 90.0892 50.614 89.4289 50.7408 88.6563C50.8112 88.1786 50.5013 87.5043 50.1492 87.111C49.8815 86.802 49.5152 86.6474 49.1067 86.6474C48.8673 86.6474 48.6278 86.7036 48.3742 86.816C47.0782 87.392 46.1907 89.0496 46.5852 90.3982C47.2332 92.6178 48.5292 94.4019 50.5718 95.5117C52.6003 96.6074 54.7978 96.79 57.0095 96.79C57.6293 96.79 58.2632 96.776 58.883 96.7619C60.179 96.7338 61.5173 96.495 62.7428 96.0736C66.7576 94.6828 70.2089 92.3509 73.2234 89.3868C73.4488 89.162 73.632 89.0496 73.8433 89.0496C73.9982 89.0496 74.1673 89.1199 74.3786 89.2603C75.9281 90.342 77.689 90.9039 79.5344 91.1568C79.7598 91.1849 79.9992 91.199 80.2387 91.199C80.7458 91.199 81.267 91.1287 81.7601 91.0304C82.873 90.8056 83.5632 89.8082 83.4223 88.8108C83.2815 87.7853 82.5349 87.2093 81.3657 87.2093C81.3093 87.2093 81.253 87.2093 81.2107 87.2093C81.0276 87.2093 80.8304 87.2515 80.6472 87.2515C80.5204 87.2515 80.3937 87.2515 80.2669 87.2515C77.3791 87.2515 75.3506 85.5095 74.928 82.6438C74.8716 82.2504 74.7589 81.8571 74.618 81.4918C74.3504 80.8035 73.8714 80.2978 73.1108 80.2978C73.0685 80.2978 73.0262 80.2978 72.9981 80.2978C72.1669 80.354 71.5189 80.8175 71.3781 81.6183C71.2231 82.5735 71.1527 83.585 71.2654 84.5402C71.364 85.2848 71.2935 85.8467 70.716 86.3243C69.2509 87.5184 67.8423 88.7968 66.2927 89.9065C63.7571 91.7187 60.9679 92.8847 57.8124 92.8847M60.4044 24.8927C59.2493 24.8927 58.1364 25.2018 57.0799 25.8058C56.6714 26.0447 56.2488 26.2694 55.8402 26.5082C54.7133 27.1404 53.5441 27.7866 52.3467 28.6014C48.3038 31.3829 44.6412 34.923 40.8377 39.7133C40.5137 40.1066 40.2179 40.5281 39.9221 40.9495L39.6263 41.3569L37.2738 44.602L37.7386 45.2622C36.9075 45.8241 35.9496 46.6811 35.2312 47.9594C31.3009 54.9693 28.9907 61.1504 27.9482 67.4158C27.5961 69.5792 27.1735 72.8524 27.6524 76.3643C28.1877 80.2556 31.146 81.9835 33.8506 81.9835C34.2169 81.9835 34.5973 81.9554 34.9635 81.8992C35.203 81.8571 35.4143 81.843 35.6256 81.843C36.1045 81.843 36.8371 81.843 37.6964 83.2619C38.0626 83.8519 38.119 84.2171 38.119 84.3014C38.1049 84.3436 37.964 84.5964 37.5555 84.9476C36.5131 85.8607 35.1466 86.3524 33.2872 86.4648C33.1463 86.4648 33.0195 86.4648 32.8927 86.4648C32.2025 86.4648 31.5122 86.3524 30.7938 86.0996C30.1458 85.8888 29.4696 85.7765 28.7653 85.7765C28.399 85.7765 28.1032 85.8045 27.906 85.8326L22.4121 86.0012L22.5952 91.5221C22.5812 91.9856 22.5671 92.8847 22.9052 93.9102C23.6236 96.1298 24.7083 98.1386 26.1733 99.8665C29.9204 104.32 34.6395 106.708 38.3303 108.295C43.1621 110.36 48.346 111.737 54.178 112.482C58.4886 113.029 62.7992 113.31 67.0111 113.31C75.1815 113.31 83.2674 112.257 91.0574 110.164C95.7343 108.913 99.8195 107.424 103.524 105.626C107.736 103.589 112.92 100.653 117.076 95.6802C118.625 96.4107 120.302 96.79 122.049 96.79C122.542 96.79 123.063 96.7619 123.57 96.6917C126.627 96.3264 129.529 95.0762 132.205 92.969C136.938 89.2463 139.995 84.3576 141.263 78.4575C141.911 75.4372 141.812 72.5433 140.967 69.8602C139.375 64.845 135.234 61.7264 130.148 61.7264C129.458 61.7264 128.74 61.7826 128.021 61.895C125.049 62.3726 122.513 63.5526 120.485 65.407C119.823 66.011 119.161 66.6291 118.499 67.2472C118.301 66.8398 118.076 66.4325 117.822 66.0251C115.78 62.6676 113.033 60.3497 110.61 58.5235C105.919 54.9693 100.848 52.3002 95.9456 49.7154L94.7904 49.1114C93.2409 48.2966 91.6913 47.4818 90.1277 46.667C87.1694 45.1217 84.0985 43.5203 81.1544 41.9048C80.5204 41.5536 79.8724 41.2867 79.2245 41.0759L76.4493 38.8142L76.1676 38.5895C75.9563 38.4209 75.7873 38.2804 75.6182 38.1399C75.2238 37.8309 74.8293 37.5359 74.4349 37.2268C73.6742 36.6508 72.9699 36.103 72.3219 35.5551C69.7722 33.3777 67.3633 31.2143 66.0955 28.5452C65.0108 26.2694 62.8132 24.8506 60.3903 24.8506L60.4044 24.8927ZM77.2664 64.9855C77.5199 63.0329 78.1538 61.1645 79.1822 59.3523C79.6189 58.5797 80.0837 58.0599 80.619 57.7368C80.8585 57.5963 81.2248 57.4137 81.5488 57.4137C81.9996 57.4137 82.4926 57.7789 82.8025 58.088C82.4644 58.3268 82.1123 58.5656 81.7883 58.8044C80.5627 59.6754 79.9711 60.7571 79.7034 61.2488L77.2664 64.9855ZM45.5146 67.8092C45.5146 67.5844 45.5427 67.3456 45.5568 67.1208L46.9092 67.9918C46.4443 67.9215 45.9794 67.8653 45.5146 67.8092ZM77.3086 69.2561C77.3086 69.2561 77.3086 69.2139 77.3086 69.1858C77.2241 68.5677 77.1678 67.9496 77.1537 67.3456L81.8869 69.1999C81.3375 69.1718 80.774 69.1578 80.1964 69.1578C79.9288 69.1578 79.6611 69.1578 79.4076 69.1578C78.7455 69.1578 78.0412 69.1999 77.3227 69.242L77.3086 69.2561ZM101.454 87.9679C99.2982 87.8134 98.0727 87.3779 97.2416 86.521C95.9737 85.2145 96.7203 84.4279 97.1289 84.0205C98.4671 82.6297 99.8758 81.9835 101.552 81.9835C102.355 81.9835 103.243 82.124 104.2 82.419C106.159 83.0231 106.511 83.8659 106.694 84.6948C106.75 84.9336 106.835 85.2848 106.046 86.1838C105.074 87.2936 103.454 87.9258 101.454 87.9679Z" fill="#90D3F5"/>
<path id="Vector_7" d="M32.442 90.9741C30.822 90.9741 29.371 90.4403 28.1032 89.9767L27.906 89.9064C26.5114 89.4007 25.1309 87.9397 25.8493 85.5094C26.3705 83.7675 27.2862 82.4329 28.1032 81.2529C28.3427 80.9158 28.5822 80.5646 28.8076 80.2134C30.0472 78.2607 31.9067 77.2773 34.3296 77.2773C35.0199 77.2773 35.6679 77.3476 36.2454 77.4178L36.5131 77.4459C39.0206 77.7269 40.9927 79.3283 42.0633 81.9553C43.0917 84.4699 42.4437 86.8861 40.2743 88.5578C38.2458 90.1312 35.8933 90.9038 33.09 90.9319C32.8787 90.946 32.6674 90.96 32.442 90.96V90.9741Z" fill="#90D3F5"/>
<path id="Vector_8" d="M34.3298 80.1016C34.9496 80.1016 35.5835 80.1859 36.2033 80.2561C37.7951 80.4387 38.8517 81.5485 39.4574 83.0376C39.9927 84.3581 39.725 85.4539 38.5558 86.367C36.964 87.6032 35.1327 88.137 32.9774 88.137C32.9774 88.137 32.9493 88.137 32.9352 88.137C32.7661 88.1511 32.5971 88.1651 32.4421 88.1651C31.2588 88.1651 30.0755 87.7015 28.8782 87.266C28.3147 87.0553 28.4555 86.676 28.5682 86.2827C29.0754 84.5548 30.2446 83.2202 31.2025 81.7312C32.0477 80.4106 33.1606 80.1016 34.3439 80.1016M34.3439 74.4824C30.0474 74.4824 27.6808 76.7863 26.4552 78.7249C26.2439 79.048 26.0326 79.3571 25.8072 79.6802C24.9197 80.9585 23.8069 82.56 23.173 84.6953C21.9756 88.713 24.2999 91.5787 26.9623 92.5481L27.1455 92.6183C28.5682 93.1381 30.3291 93.7843 32.4562 93.7843C32.7239 93.7843 32.9774 93.7843 33.2451 93.7562C36.6259 93.7 39.556 92.7026 42.0212 90.8061C45.1626 88.3758 46.1909 84.5829 44.6977 80.9164C43.2327 77.3482 40.373 75.0724 36.8513 74.6791L36.5978 74.651C35.9779 74.5808 35.2032 74.4965 34.3579 74.4965L34.3439 74.4824Z" fill="#90D3F5"/>
<path id="Vector_9" d="M70.5752 79.286C68.8425 79.286 67.3211 78.3448 66.6168 76.8135C66.0674 75.6476 66.0251 74.299 66.49 73.1049C66.9408 71.967 67.8001 71.0679 68.927 70.5341C68.927 70.4779 68.927 70.4358 68.8989 70.3655C68.1523 64.9992 69.1242 59.8998 71.7867 55.2219C72.9418 53.1849 74.4209 51.6116 76.2099 50.5439C77.9004 49.5325 79.6753 49.0127 81.5066 49.0127C84.2817 49.0127 86.8878 50.2068 89.0431 52.4544C90.5081 53.9857 91.6632 55.7698 92.5789 57.9331C93.3537 59.7734 92.7761 61.6137 91.0434 62.7094C90.8885 62.8078 90.7335 62.9061 90.5786 63.0044C90.8603 63.0887 91.142 63.159 91.4097 63.2432C92.7198 63.6225 93.6354 64.5216 94.0721 65.0133C95.0582 66.1371 95.0441 67.5841 94.9314 68.3426C94.861 68.8624 94.7483 69.3822 94.6356 69.902C94.5651 70.2251 94.4947 70.5622 94.4384 70.8853C94.3679 71.3489 94.3116 71.8265 94.2552 72.2901C94.1707 73.0487 94.0721 73.8073 93.9312 74.5518C93.3959 77.3333 91.3674 79.005 88.4796 79.005H88.0007L87.3808 78.8505C86.916 78.7522 86.268 78.6117 85.6059 78.3869C84.0845 77.8671 82.3518 77.6283 80.1543 77.6283H79.5204C77.2946 77.6705 74.9421 77.839 72.8291 78.7803C72.0684 79.1174 71.3077 79.286 70.5611 79.286H70.5752Z" fill="#90D3F5"/>
<path id="Vector_10" d="M81.5207 51.8369C83.4788 51.8369 85.3805 52.7079 87.0146 54.4077C88.3106 55.7563 89.2685 57.3297 89.9869 59.0435C90.2405 59.6476 90.1137 59.9847 89.5362 60.35C88.0007 61.3193 86.5075 62.3729 85.0284 63.4265C84.7748 63.6091 84.6621 63.9603 84.479 64.2413C84.7607 64.3536 85.0425 64.4941 85.3383 64.5784C87.0991 65.042 88.8741 65.4494 90.6209 65.9551C91.128 66.1096 91.621 66.4889 91.9732 66.8823C92.1845 67.1211 92.2127 67.6268 92.1563 67.978C92.0436 68.8068 91.8042 69.6357 91.6774 70.4645C91.4942 71.6586 91.4238 72.8526 91.1984 74.0327C90.9167 75.4796 90.0856 76.1961 88.5078 76.1961C88.4656 76.1961 88.4374 76.1961 88.3951 76.1961C87.9866 76.0977 87.2541 75.9713 86.5497 75.7325C84.479 75.016 82.3237 74.8193 80.1684 74.8193C79.943 74.8193 79.7035 74.8193 79.4781 74.8193C76.8298 74.8755 74.1815 75.1003 71.6881 76.2101C71.2796 76.3927 70.8992 76.477 70.5752 76.477C69.9132 76.477 69.4201 76.1539 69.1666 75.6201C68.7299 74.6929 69.082 73.4988 70.2512 73.0353C71.8008 72.4172 71.9135 71.4759 71.7022 69.9869C71.0542 65.2668 71.8853 60.7714 74.2519 56.6132C75.0971 55.1382 76.1959 53.8458 77.675 52.9608C78.9288 52.2022 80.2247 51.8369 81.5067 51.8369M81.5067 46.2178C79.1964 46.2178 76.858 46.8921 74.759 48.1564C72.5615 49.4769 70.7443 51.4015 69.3356 53.8598C66.6309 58.6221 65.4899 63.7636 65.9266 69.1721C65.0109 69.9588 64.3066 70.9562 63.8558 72.0941C63.1092 74.0046 63.1796 76.168 64.053 78.0223C65.2363 80.5369 67.7297 82.1102 70.5612 82.1102C71.7022 82.1102 72.8573 81.8574 73.9702 81.3657C75.6183 80.6352 77.6328 80.4947 79.5768 80.4666C79.774 80.4666 79.9571 80.4666 80.1543 80.4666C82.042 80.4666 83.4788 80.6633 84.7044 81.0847C85.5355 81.3657 86.2962 81.5343 86.8033 81.6466L87.0428 81.7028L87.6344 81.8433H88.2684L88.5078 81.8714C92.7198 81.8714 95.9457 79.2304 96.7346 75.1284C96.9036 74.2434 97.0022 73.4005 97.0867 72.656C97.1431 72.2205 97.1853 71.785 97.2558 71.3636C97.298 71.0967 97.3685 70.8157 97.4248 70.5488C97.5375 70.029 97.6643 69.439 97.7629 68.7647C98.0446 66.6575 97.4812 64.6346 96.2274 63.2017C95.9175 62.8505 95.5653 62.5134 95.2132 62.2043C95.9598 60.6028 95.9879 58.7204 95.2132 56.8802C94.1848 54.4358 92.8043 52.3005 91.128 50.5445C88.4656 47.763 85.0706 46.2318 81.563 46.2318L81.5067 46.2178Z" fill="#90D3F5"/>
<path id="Vector_11" d="M54.0936 78.2186C53.6569 78.2186 53.1921 78.1624 52.7413 78.05C51.9524 77.8533 51.1776 77.6566 50.4029 77.4459C49.2196 77.1369 48.0222 76.8278 46.8248 76.5609C46.0359 76.3923 45.1766 76.294 44.1905 76.1676C43.782 76.1114 43.3453 76.0692 42.8946 75.999L42.0493 76.0973C41.0069 76.2237 39.8518 76.3502 38.6967 76.5328C38.3868 76.5749 38.0768 76.603 37.781 76.603C35.6539 76.603 33.879 75.4371 33.2451 73.6389C32.428 71.2929 33.555 68.9329 36.0061 67.9074C36.3582 67.7528 36.7245 67.6405 37.0626 67.5421C37.2035 64.0582 37.9923 60.6867 39.4292 57.4838C40.6125 54.8428 41.993 52.9604 43.782 51.5415C45.5288 50.1508 47.4869 49.4062 49.4309 49.4062C52.051 49.4062 54.4458 50.7127 56.1644 53.0868C57.0378 54.2809 57.6153 55.5873 58.1366 56.7393C58.2774 57.0624 58.4324 57.3995 58.5873 57.7226C59.5171 59.7034 58.8268 61.7825 56.8546 62.8782C56.6997 62.9625 56.5447 63.0468 56.3898 63.1451C56.6011 63.2294 56.8265 63.3277 57.0378 63.412C59.672 64.5218 60.6017 66.5307 59.8129 69.3684C59.672 69.8741 59.5734 70.4641 59.4607 71.0682C59.3762 71.5458 59.3058 72.0094 59.2071 72.487C59.0381 73.2877 58.8409 74.1868 58.4746 75.0999C57.6999 77.0385 56.0658 78.2045 54.0936 78.2045V78.2186Z" fill="#90D3F5"/>
<path id="Vector_12" d="M49.4169 52.2301C51.0791 52.2301 52.6568 53.073 53.8824 54.7447C54.798 55.995 55.3615 57.5121 56.0377 58.931C56.3335 59.5631 56.1645 60.0548 55.4742 60.4482C54.0092 61.277 52.5864 62.1901 51.1636 63.0892C50.9382 63.2297 50.7974 63.5106 50.6142 63.7354C50.8537 63.8899 51.065 64.0866 51.3186 64.1849C52.8541 64.803 54.4177 65.379 55.9532 66.0252C57.3196 66.6012 57.5027 67.2193 57.1083 68.6381C56.7984 69.7057 56.6998 70.8436 56.4603 71.9394C56.3053 72.6699 56.1504 73.4144 55.8686 74.1027C55.5165 75.0018 54.9248 75.4373 54.1078 75.4373C53.8965 75.4373 53.657 75.4092 53.4175 75.353C51.4172 74.8613 49.4309 74.2854 47.4165 73.8499C46.0642 73.5549 44.6696 73.4565 42.9087 73.2037C41.5846 73.3723 39.9082 73.5408 38.246 73.7937C38.0769 73.8218 37.922 73.8358 37.767 73.8358C36.8936 73.8358 36.1329 73.4565 35.8935 72.7541C35.5836 71.8551 36.0062 70.9841 37.0908 70.5205C37.6684 70.2677 38.3164 70.1272 38.9503 70.0148C39.5842 69.9024 39.866 69.6215 39.8519 68.9472C39.8096 65.3649 40.528 61.9232 41.9931 58.6641C42.8383 56.7957 43.8948 55.0678 45.5289 53.7614C46.7967 52.7499 48.135 52.2442 49.4169 52.2442M49.4169 46.625C46.8249 46.625 44.2611 47.5803 42.0072 49.3643C39.866 51.0782 38.2178 53.2978 36.8514 56.3462C35.5272 59.2962 34.6961 62.3868 34.3721 65.5757C30.9208 67.3176 29.329 71.0122 30.5827 74.5804C31.6111 77.5304 34.4284 79.4269 37.7811 79.4269C38.2319 79.4269 38.6827 79.3848 39.1334 79.3145C40.2181 79.146 41.3592 79.0195 42.3734 78.8931C42.5425 78.879 42.7256 78.8509 42.8806 78.8369C43.2186 78.879 43.5285 78.9212 43.8525 78.9633C44.8105 79.0757 45.5852 79.174 46.2473 79.3145C47.3602 79.5533 48.5012 79.8484 49.6986 80.1715C50.5015 80.3822 51.2904 80.5929 52.0934 80.7896C52.7695 80.9581 53.4598 81.0424 54.1219 81.0424C57.2351 81.0424 59.9257 79.1741 61.123 76.1678C61.5738 75.044 61.7992 73.9763 61.9823 73.1194C62.095 72.5996 62.1796 72.0798 62.2641 71.5601C62.3486 71.0263 62.4331 70.5065 62.5458 70.1553C63.391 67.1771 62.7994 64.5642 60.9681 62.6958C62.0105 60.8696 62.1373 58.6219 61.1512 56.5428C61.0103 56.2338 60.8695 55.9247 60.7286 55.6157C60.1511 54.3373 59.5031 52.8763 58.4606 51.4575C56.1926 48.3389 52.9808 46.625 49.445 46.625H49.4169Z" fill="#90D3F5"/>
<path id="Vector_13" d="M101.101 96.4249C98.3122 96.2423 94.2552 95.6242 91.142 92.3932C87.0709 88.1788 87.0286 82.3489 91.0152 78.2048C93.9735 75.1423 97.5093 73.583 101.538 73.583C103.186 73.583 104.905 73.8499 106.652 74.3837C111.103 75.7464 113.963 78.6684 114.921 82.8406C115.414 85.018 115.385 88.3333 112.399 91.747C109.779 94.7392 105.835 96.3968 101.299 96.4249H101.2H101.101ZM102.313 83.1637C100.538 83.1637 99.1856 83.5992 98.1854 84.4702C98.0023 84.6247 97.7206 84.9197 97.7206 85.2287C97.7206 85.4816 97.9319 85.7766 98.27 86.0435C99.0166 86.6335 99.8336 86.9004 100.918 86.9004C101.552 86.9004 102.285 86.8162 103.214 86.6195C103.989 86.465 104.651 86.0716 105.243 85.4535C105.37 85.3271 105.567 85.0742 105.553 84.8354C105.553 84.6528 105.398 84.428 105.158 84.2173C104.454 83.5992 103.482 83.248 102.299 83.1637H102.313Z" fill="#90D3F5"/>
<path id="Vector_14" d="M101.538 76.4068C102.919 76.4068 104.356 76.6316 105.835 77.0811C109.061 78.0645 111.399 80.0452 112.174 83.4729C112.737 85.9454 111.878 88.0806 110.272 89.9069C108.187 92.281 105.018 93.6015 101.271 93.6155C98.5096 93.4329 95.4809 92.8429 93.1566 90.4407C90.2265 87.4063 90.0575 83.2341 93.0439 80.1436C95.5091 77.5868 98.3828 76.3787 101.538 76.3787M100.904 89.6961C101.848 89.6961 102.806 89.5557 103.778 89.359C105.159 89.078 106.328 88.3897 107.286 87.3782C108.835 85.7487 108.708 83.5572 107.004 82.0822C105.553 80.8179 103.806 80.4245 102.383 80.3402C99.8196 80.3402 97.8193 81.0567 96.3402 82.335C94.3399 84.0629 94.4525 86.6197 96.5233 88.2492C97.9038 89.3309 99.383 89.7102 100.904 89.7102M101.538 70.7736C96.791 70.7736 92.4381 72.6701 88.9868 76.2523C83.9719 81.4641 84.0142 89.064 89.1136 94.332C92.903 98.2654 97.6644 98.9959 100.918 99.2066H101.116H101.313C106.68 99.1785 111.371 97.1696 114.526 93.5593C118.288 89.2607 118.316 85.0041 117.668 82.1805C116.498 77.039 112.878 73.3022 107.483 71.6586C105.468 71.0405 103.468 70.7314 101.538 70.7314V70.7736Z" fill="#90D3F5"/>
<path id="Vector_15" d="M56.9955 99.5996C54.6289 99.5996 51.8538 99.4029 49.2055 97.97C46.5853 96.5512 44.7259 94.1911 43.8525 91.1568C43.0918 88.5158 44.585 85.3971 47.1911 84.2311C47.8109 83.9502 48.4448 83.8237 49.0787 83.8237C50.2902 83.8237 51.403 84.3154 52.206 85.2145C52.9808 86.0714 53.7274 87.5464 53.4879 89.0777C53.4879 89.1479 53.4597 89.2182 53.4456 89.2884C53.6569 89.5272 53.826 89.6677 53.9246 89.6817L54.474 89.7801C54.8684 89.8503 55.2628 89.9206 55.6573 89.9767C56.0517 90.0189 56.4602 90.047 56.8687 90.061L57.5167 90.1032H57.7562C60.0524 90.1032 62.2922 89.3024 64.6024 87.6448C65.5744 86.9424 66.5182 86.1557 67.5043 85.3269C67.8001 85.074 68.096 84.8352 68.3777 84.5964C68.2791 83.5568 68.3355 82.4049 68.5327 81.1968C68.8848 79.1458 70.5753 77.6708 72.7446 77.5303H73.0405C74.8999 77.5303 76.4495 78.6401 77.182 80.4944C77.4074 81.0704 77.5623 81.6604 77.6469 82.2644C77.8723 83.7535 78.7034 84.47 80.1966 84.47H80.4361L80.5769 84.4559C80.7178 84.4419 80.8728 84.4278 81.0136 84.4278H81.2954C83.8592 84.4278 85.8032 86.0293 86.1413 88.4315C86.4934 90.932 84.7889 93.292 82.2533 93.7978C81.5208 93.9523 80.8305 94.0225 80.1684 94.0225C79.8022 94.0225 79.4359 93.9944 79.0696 93.9523C77.182 93.6994 75.5338 93.1797 74.0547 92.407C70.857 95.315 67.3494 97.4362 63.5882 98.7426C62.095 99.2624 60.4609 99.5574 58.855 99.5855H58.6437C58.0661 99.5996 57.4886 99.6136 56.911 99.6136L56.9955 99.5996Z" fill="#90D3F5"/>
<path id="Vector_16" d="M73.0827 80.3261C73.8575 80.3261 74.3224 80.8177 74.59 81.5201C74.7309 81.8854 74.8436 82.2787 74.8999 82.6721C75.3225 85.5378 77.351 87.2798 80.2388 87.2798C80.3656 87.2798 80.4924 87.2798 80.6192 87.2798C80.8023 87.2798 80.9995 87.2376 81.1827 87.2376C81.239 87.2376 81.2954 87.2376 81.3376 87.2376C82.5068 87.2376 83.2534 87.8136 83.3943 88.8391C83.5352 89.8365 82.8449 90.8339 81.732 91.0587C81.239 91.157 80.7178 91.2272 80.2107 91.2272C79.9712 91.2272 79.7317 91.2132 79.5063 91.1851C77.6609 90.9322 75.9001 90.3703 74.3505 89.2886C74.1392 89.1482 73.9702 89.0779 73.8152 89.0779C73.6039 89.0779 73.4208 89.1903 73.1954 89.4151C70.1808 92.3792 66.7295 94.7111 62.7148 96.1019C61.4892 96.5233 60.151 96.7621 58.855 96.7902C58.2351 96.7902 57.6012 96.8183 56.9814 96.8183C54.7698 96.8183 52.5722 96.6357 50.5437 95.54C48.487 94.4302 47.191 92.6461 46.5571 90.4265C46.1627 89.0779 47.0502 87.4203 48.3462 86.8443C48.5997 86.7319 48.8392 86.6757 49.0787 86.6757C49.4872 86.6757 49.8535 86.8443 50.1211 87.1393C50.4733 87.5326 50.7832 88.2069 50.7128 88.6846C50.586 89.4572 50.4874 90.1175 51.0086 90.7918C51.6566 91.6065 52.375 92.3089 53.4456 92.4916C54.0795 92.6039 54.7134 92.7304 55.3473 92.8147C56.0094 92.8849 56.6856 92.913 57.3477 92.9551C57.4885 92.9551 57.6294 92.9551 57.7703 92.9551C60.9398 92.9551 63.729 91.7892 66.2506 89.977C67.786 88.8812 69.1947 87.6029 70.6739 86.3948C71.2514 85.9171 71.3218 85.3693 71.2232 84.6107C71.0965 83.6554 71.1669 82.644 71.3359 81.6887C71.4768 80.888 72.1248 80.4103 72.9559 80.3682C72.9982 80.3682 73.0404 80.3682 73.0686 80.3682M73.0686 74.749C72.9137 74.749 72.7587 74.749 72.5897 74.7631C69.082 74.9878 66.3351 77.4041 65.7716 80.7615C65.6167 81.6606 65.5321 82.5316 65.5321 83.3745C64.6447 84.119 63.8135 84.8214 62.9683 85.4114C61.137 86.7319 59.4889 87.336 57.7703 87.336C57.7139 87.336 57.6576 87.336 57.6012 87.336C57.404 87.336 57.2209 87.3079 57.0237 87.3079C56.756 87.3079 56.4884 87.2798 56.2207 87.2657C55.9249 85.6783 55.122 84.3016 54.2908 83.3885C52.9526 81.9135 51.0508 81.0706 49.0646 81.0706C48.0222 81.0706 46.9938 81.2954 46.0218 81.7308C42.1198 83.4868 39.9786 87.9822 41.1337 91.9999C42.2184 95.7788 44.5427 98.7148 47.8531 100.499C51.0508 102.227 54.2627 102.466 56.9814 102.466C57.5731 102.466 58.1788 102.466 58.7705 102.437H58.9677C60.8553 102.395 62.7993 102.044 64.5602 101.44C68.1241 100.204 71.4909 98.2934 74.59 95.7507C75.8719 96.2424 77.2524 96.5795 78.7315 96.7902C79.2105 96.8605 79.7035 96.8886 80.2107 96.8886C81.0559 96.8886 81.9433 96.7902 82.859 96.6076C86.8456 95.7928 89.5362 92.0561 88.9727 88.0946C88.4374 84.3016 85.296 81.6606 81.3376 81.6606C81.2108 81.6606 81.07 81.6606 80.9291 81.6606C80.7601 81.6606 80.591 81.6747 80.4361 81.7027C80.3093 80.9582 80.1121 80.2277 79.8303 79.5394C78.6752 76.6033 76.0832 74.7771 73.0686 74.7771V74.749Z" fill="#90D3F5"/>
<path id="Vector_17" d="M119.598 88.839C118.795 88.839 117.978 88.6283 117.245 88.2209C115.174 87.083 114.202 84.6527 114.935 82.4753C115.301 81.3936 115.794 80.2979 116.513 79.0195C118.766 74.9878 121.274 71.8551 124.176 69.4248C124.838 68.8629 126.218 67.7109 128.148 67.7109C128.613 67.7109 129.078 67.7812 129.529 67.9076C131.262 68.3993 132.572 69.6917 133.051 71.3353C133.544 73.0351 133.065 74.9035 131.783 76.3364C131.656 76.4768 131.515 76.6173 131.388 76.7438C131.895 76.9826 132.417 77.2916 132.91 77.6709C134.769 79.1179 135.304 81.6324 134.206 83.7818C133.346 85.4535 131.586 86.5352 129.712 86.5352C129.303 86.5352 128.895 86.479 128.501 86.3806C127.162 86.0435 125.852 85.6782 124.613 85.2989C124.528 85.4394 124.176 85.9732 124.176 85.9732C123.922 86.3525 123.612 86.8161 123.204 87.2376C122.204 88.2631 120.922 88.839 119.598 88.839Z" fill="#90D3F5"/>
<path id="Vector_18" d="M128.148 70.5203C128.346 70.5203 128.543 70.5484 128.754 70.6046C130.501 71.1103 130.98 73.0208 129.684 74.4397C129.064 75.128 128.303 75.704 127.641 76.3643C127.19 76.7997 126.796 77.2914 126.218 77.9236C127.317 78.2467 128.177 78.4433 128.979 78.7664C129.74 79.0615 130.543 79.3846 131.177 79.8762C132.008 80.5224 132.149 81.6182 131.698 82.4892C131.318 83.2196 130.543 83.7113 129.712 83.7113C129.543 83.7113 129.36 83.6973 129.191 83.6411C127.557 83.2337 125.937 82.7561 124.317 82.2644C124.091 82.1941 123.894 82.152 123.711 82.152C123.274 82.152 122.95 82.3768 122.711 82.9246C122.485 83.4585 122.133 83.9501 121.809 84.4418C121.626 84.7368 121.415 85.0178 121.175 85.2706C120.696 85.7623 120.147 86.0152 119.598 86.0152C119.274 86.0152 118.936 85.9309 118.626 85.7483C117.794 85.2847 117.301 84.3154 117.625 83.3461C117.978 82.3206 118.457 81.3232 118.992 80.3679C120.851 77.0526 123.063 74.0182 126.007 71.5458C126.655 71.012 127.331 70.4922 128.162 70.4922M128.162 64.873C125.204 64.873 123.218 66.5307 122.373 67.2471C119.203 69.9022 116.499 73.3018 114.076 77.6286C113.273 79.0615 112.709 80.3117 112.287 81.562C111.117 85.0318 112.639 88.8669 115.893 90.665C117.034 91.2972 118.316 91.6344 119.598 91.6344C121.697 91.6344 123.683 90.7634 125.218 89.19C125.43 88.9793 125.613 88.7686 125.782 88.5579C126.444 88.7405 127.12 88.9231 127.81 89.0917C128.43 89.2462 129.064 89.3305 129.712 89.3305C132.67 89.3305 135.347 87.6869 136.713 85.0599C138.277 82.0115 137.671 78.3591 135.319 76.0271C136.122 74.2992 136.291 72.3746 135.769 70.5484C135.023 67.9636 132.994 65.9688 130.318 65.1961C129.613 64.9854 128.881 64.8871 128.162 64.8871V64.873Z" fill="#90D3F5"/>
<path id="Vector_19" d="M58.7563 90.3137C56.6574 90.3137 54.6852 89.527 53.0652 88.0379C51.6706 86.7596 50.9522 85.1019 51.0367 83.36C51.0367 79.7778 53.6005 76.6732 57.1363 76.1113C57.404 76.0691 57.6857 76.041 57.9675 76.041C58.6436 76.041 59.3339 76.1674 59.9678 76.3922C61.4469 76.9401 62.4612 78.1342 62.7006 79.6092C62.7993 80.1711 62.757 80.7471 62.6302 81.2809C63.3909 81.7164 63.9966 82.3766 64.4192 83.2195C65.4335 85.2284 64.8841 87.5744 63.081 88.8949C62.0386 89.6675 60.7707 90.1732 59.5875 90.2856C59.3057 90.3137 59.024 90.3278 58.7422 90.3278L58.7563 90.3137Z" fill="#90D3F5"/>
<path id="Vector_20" d="M57.9815 78.8512C58.3337 78.8512 58.6858 78.9215 58.9957 79.0338C60.0945 79.4412 60.2636 80.6494 59.3479 81.3939C58.9112 81.7451 58.39 81.9839 57.9815 82.3632C57.4603 82.8549 57.6011 83.3887 58.3196 83.5151C58.5027 83.5432 58.6858 83.5573 58.869 83.5573C59.193 83.5573 59.517 83.5151 59.8409 83.487C59.9536 83.487 60.0663 83.473 60.179 83.473C60.982 83.473 61.5736 83.8101 61.9258 84.4985C62.2921 85.229 62.2075 86.0859 61.4328 86.6478C60.8411 87.0833 60.0663 87.4205 59.3338 87.5047C59.1366 87.5188 58.9535 87.5328 58.7703 87.5328C57.3617 87.5328 56.0798 86.999 54.9951 86.0016C54.2203 85.2852 53.8259 84.4142 53.8681 83.5151C53.8681 81.1551 55.4318 79.2586 57.6152 78.9074C57.742 78.8934 57.8688 78.8793 57.9956 78.8793M57.9956 73.2601C57.5589 73.2601 57.1222 73.2882 56.6996 73.3585C51.8396 74.1452 48.2897 78.3595 48.2334 83.3887C48.1629 85.9173 49.1913 88.3055 51.1634 90.1317C53.3046 92.1125 55.9389 93.152 58.7703 93.152C59.1366 93.152 59.5169 93.138 59.8832 93.0958C61.5877 92.9272 63.3204 92.2529 64.7714 91.1713C67.7014 89.0079 68.5889 85.229 66.9407 81.9699C66.5745 81.2534 66.1096 80.6072 65.5743 80.0593C65.5743 79.7643 65.532 79.4693 65.4898 79.1884C65.0954 76.73 63.3486 74.6649 60.9397 73.7799C59.9959 73.4287 58.9676 73.2461 57.9674 73.2461L57.9956 73.2601Z" fill="#90D3F5"/>
<path id="Vector_21" d="M100.918 92.519C98.5517 92.519 96.5514 91.8447 94.7905 90.468C93.1001 89.1335 92.1422 87.3213 92.0999 85.3686C92.0576 83.43 92.9028 81.6038 94.5088 80.2271C96.5654 78.443 99.2279 77.5439 102.397 77.5439H102.566C105.032 77.6985 107.201 78.5273 108.877 79.9742C110.3 81.1964 111.117 82.84 111.202 84.5679C111.286 86.2958 110.624 87.9816 109.342 89.3302C107.948 90.7911 106.271 91.7464 104.37 92.1397C103.045 92.4066 101.961 92.5331 100.932 92.5331L100.918 92.519Z" fill="#90D3F5"/>
<path id="Vector_22" d="M102.383 80.3539C103.806 80.4382 105.553 80.8316 107.004 82.0959C108.708 83.5709 108.835 85.7624 107.285 87.3919C106.328 88.4034 105.158 89.0917 103.778 89.3727C102.806 89.5694 101.848 89.7098 100.904 89.7098C99.3687 89.7098 97.9036 89.3446 96.5231 88.2489C94.4524 86.6193 94.3397 84.0626 96.34 82.3347C97.8332 81.0423 99.8195 80.3399 102.383 80.3399M102.552 74.7207H102.383C98.5094 74.7207 95.2271 75.8586 92.6352 78.0922C90.4235 80.0027 89.198 82.6718 89.2543 85.4252C89.3247 88.1927 90.6912 90.8337 93.0296 92.6599C95.2835 94.4299 97.9318 95.315 100.904 95.315C102.13 95.315 103.412 95.1745 104.919 94.8654C107.37 94.3597 109.596 93.1094 111.371 91.2411C113.188 89.3305 114.118 86.9143 114.005 84.4138C113.878 81.8992 112.709 79.5672 110.709 77.8253C108.567 75.971 105.806 74.9033 102.721 74.7207H102.552Z" fill="#90D3F5"/>
<path id="Vector_23" d="M131.867 106.539C126.289 106.581 120.795 105.893 115.371 104.657C113.413 104.207 111.469 103.744 109.525 103.238C108.553 102.985 107.736 103.055 106.877 103.645C103.299 106.104 99.3829 107.888 95.2836 109.279C90.0573 111.049 84.7043 112.158 79.2386 112.805C74.3787 113.381 69.5046 113.507 64.6165 113.24C59.5311 112.959 54.5725 112.046 49.6985 110.585C48.2757 110.15 46.7684 109.995 45.2893 109.756C41.8521 109.194 38.4149 108.674 34.9918 108.113C32.3998 107.691 29.8219 107.199 27.2299 106.806C23.2574 106.216 19.2849 105.668 15.2983 105.134C13.1008 104.839 10.875 104.643 8.6775 104.376C8.09994 104.306 7.50829 104.179 6.9589 103.982C6.02917 103.659 5.62065 103.083 5.64882 102.269C5.677 101.426 6.18412 100.85 7.05751 100.513C7.84637 100.204 8.62115 99.8383 9.35367 99.4169C10.8046 98.5881 11.6076 97.1693 12.5091 95.8347C14.4249 92.997 15.4533 89.78 16.5098 86.5771C17.8903 82.4049 19.2004 78.2045 19.7075 73.8356C20.2851 68.9751 20.595 64.0864 21.0599 59.2258C21.2289 57.4698 21.5247 55.7279 21.7642 53.9719C22.3699 49.5749 22.8066 45.1357 24.2012 40.9073C26.6242 33.5602 30.0191 26.747 36.1187 21.6476C37.6401 20.3833 39.2883 19.2454 40.9646 18.2199C44.275 16.197 47.5713 14.0898 51.3889 13.0784C52.8117 12.6991 54.2767 12.5586 55.7276 12.2636C56.1643 12.1793 56.6292 12.0809 56.9814 11.8281C58.9394 10.4795 61.0947 9.52423 63.3205 8.72349C67.5606 7.19227 71.9416 6.26511 76.4072 5.87176C80.6614 5.49247 84.9438 5.40818 89.1699 6.09653C93.8185 6.85512 98.4813 7.6418 103.06 8.75159C105.764 9.41184 108.384 10.5919 110.934 11.7578C114.146 13.2188 117.4 14.6798 120.386 16.5622C126.641 20.4957 132.487 24.9769 136.755 31.1721C138.305 33.4198 140.108 35.5129 141.446 37.887C143.263 41.0899 144.785 44.4755 146.334 47.8189C148.278 52.0052 149.448 56.4584 150.546 60.9396C151.279 63.9319 152.195 66.8679 152.899 69.8601C153.519 72.487 153.984 75.1561 154.519 77.7972C155.519 82.6999 157.857 86.9564 160.858 90.9039C161.266 91.4377 161.619 92.0137 161.943 92.5896C162.605 93.7556 162.45 94.8092 161.703 95.9471C159.308 99.5714 155.773 101.594 151.885 103.14C145.461 105.682 138.727 106.455 131.881 106.539H131.867ZM112.836 98.8831C113.766 99.0798 114.54 99.2202 115.301 99.3888C120.076 100.428 124.908 101.159 129.796 101.215C133.093 101.243 136.403 101.187 139.685 100.878C143.968 100.471 147.997 98.9955 151.871 97.1973C153.138 96.6073 154.293 95.7364 155.463 94.9356C156.04 94.5423 156.04 94.1068 155.618 93.4606C154.054 91.0303 152.293 88.6702 151.194 86.0292C149.87 82.8404 149.081 79.4267 148.208 76.0552C147.602 73.7233 147.335 71.3211 146.785 68.9751C146.081 66.0671 145.137 63.2154 144.461 60.2934C143.066 54.1545 140.432 48.5213 137.685 42.9161C136.375 40.247 134.515 37.9713 132.853 35.541C128.458 29.107 122.485 24.4712 115.879 20.5659C113.582 19.2173 111.117 18.0935 108.652 17.0539C105.891 15.8879 103.102 14.6658 100.214 13.9774C95.4808 12.8536 90.6772 11.9405 85.789 11.5752C77.027 10.929 68.6312 12.2917 60.644 16.0144C59.1789 16.7027 57.6153 17.2927 56.0376 17.6158C51.8115 18.5009 47.8108 19.9337 44.2187 22.3078C37.2316 26.9156 32.6956 33.4619 29.7374 41.1742C28.1737 45.2481 27.5539 49.5608 27.1595 53.8735C26.765 58.2424 26.6523 62.6254 26.3143 67.0083C26.103 69.7196 25.8212 72.4449 25.3845 75.1421C24.6238 79.8201 23.3138 84.3716 21.8205 88.8669C20.4541 92.9689 18.9327 96.9866 16.4112 100.555C15.9181 101.257 16.0168 101.44 16.8479 101.594C17.0028 101.622 17.1719 101.651 17.3268 101.665C21.0739 101.847 24.821 102.044 28.5682 102.212C28.8076 102.212 29.0471 102.142 29.3852 102.1C29.2162 101.833 29.1457 101.693 29.0471 101.58C28.1315 100.569 27.1454 99.6136 26.3143 98.5319C24.0604 95.5537 22.8348 92.2103 23.2151 88.4174C23.6237 84.3997 25.5113 81.0563 28.2301 78.1343C28.6949 77.6286 28.864 77.165 28.7513 76.4907C28.1878 73.1754 28.385 69.8601 29.0048 66.5869C29.9205 61.8387 31.5264 57.3153 33.6676 52.9604C37.7528 44.644 43.1199 37.297 50.2619 31.3266C52.7835 29.2194 55.5023 27.4072 58.5732 26.2132C59.0944 26.0165 59.8269 25.8479 60.2636 26.0586C61.2779 26.5503 62.2921 27.1684 63.0951 27.9411C64.7292 29.5144 66.1942 31.2704 67.8001 32.8859C71.1105 36.2012 74.914 38.8984 78.7315 41.5675C79.1259 41.8345 79.6753 41.9749 80.1543 42.003C82.7181 42.1295 85.296 42.1435 87.8598 42.3121C88.9726 42.3823 90.0855 42.6352 91.1702 42.9442C92.1422 43.2112 92.7057 44.1664 92.5648 45.0233C92.4239 45.8662 91.6632 46.4703 90.6067 46.4562C89.8883 46.4562 89.1699 46.3157 88.4514 46.2455C88.0993 46.2174 87.7612 46.1893 87.409 46.1612C87.3949 46.2315 87.3667 46.3157 87.3527 46.386C87.564 46.5265 87.7612 46.681 87.9866 46.7934C91.8886 48.8163 95.8189 50.783 99.6787 52.8761C104.088 55.2643 108.413 57.7929 112.216 61.1223C114.414 63.0468 116.343 65.1821 117.682 67.795C118.217 68.8486 118.217 68.8486 119.006 68.0198C122.344 64.5078 126.289 62.4147 131.29 62.808C133.628 62.9906 135.657 63.9178 137.291 65.5755C140.15 68.4412 141.136 72.0516 140.671 75.9007C139.629 84.6806 135.206 91.2129 127.021 94.9075C123.95 96.2983 120.724 96.3966 117.569 94.9637C116.991 94.6968 116.653 94.8232 116.245 95.2447C115.301 96.2561 114.301 97.2395 113.343 98.2369C113.202 98.3774 113.089 98.5459 112.836 98.869V98.8831ZM44.1764 44.6721C44.1764 44.6721 44.2609 44.7986 44.3173 44.8688C44.6413 44.8126 44.9653 44.7705 45.2893 44.7143C46.4162 44.4755 47.5291 44.0821 48.6701 44.0259C50.7831 43.9136 52.8962 43.9697 55.0233 44.0119C55.46 44.0119 55.9249 44.1664 56.3334 44.3771C57.2349 44.8267 57.5589 45.5431 57.3899 46.4141C57.2349 47.1446 56.5306 47.7627 55.6149 47.7767C54.7416 47.7767 53.8541 47.6643 52.9807 47.5801C49.0364 47.1867 45.3034 47.9594 41.6971 49.5468C41.0632 49.8277 40.5279 50.1087 40.1757 50.7549C37.0625 56.3038 34.5832 62.0775 33.5267 68.385C33.1323 70.7872 32.921 73.2175 33.245 75.6619C33.3154 76.1676 33.4281 76.5047 34.0902 76.4064C37.8232 75.8164 40.6688 77.3336 42.5423 80.4101C44.4159 83.5006 44.275 86.6193 41.2886 89.2322C39.1474 91.1005 36.5272 91.9434 33.6817 92.1401C32.0758 92.2525 30.5262 92.0137 29.0048 91.5079C28.7795 91.4377 28.4977 91.5079 28.2582 91.5079C28.2582 91.7608 28.216 92.0418 28.3005 92.2665C28.7795 93.7556 29.4979 95.1182 30.5121 96.3264C33.2168 99.5574 36.7808 101.566 40.5702 103.196C45.1625 105.163 49.9802 106.343 54.9106 106.975C66.6027 108.478 78.1962 107.874 89.6206 104.811C93.565 103.758 97.4107 102.437 101.087 100.653C106.215 98.1666 110.892 95.1323 114.174 90.3139C115.245 88.7545 116.71 88.6422 118.189 89.8503C119.583 90.9882 121.147 91.4236 122.908 91.2129C125.105 90.946 127.021 90.0048 128.726 88.6562C132.431 85.7483 134.769 81.9694 135.769 77.3757C136.178 75.4792 136.206 73.5406 135.6 71.6582C134.6 68.5115 132.177 67.0364 128.909 67.5562C127.176 67.8372 125.599 68.4693 124.288 69.6634C122.443 71.3492 120.654 73.063 118.837 74.7628C118.118 75.4371 117.287 75.8304 116.273 75.5916C115.062 75.2966 114.456 74.538 114.343 73.049C114.244 71.588 113.751 70.2815 113.005 69.0593C111.526 66.6291 109.427 64.7888 107.201 63.103C102.524 59.5629 97.3121 56.9079 92.1422 54.1685C87.5781 51.7523 82.9576 49.4063 78.4357 46.9198C77.3651 46.3298 76.3931 46.2174 75.3084 46.5827C73.4912 47.2008 71.674 47.847 69.8568 48.5072C69.0538 48.8022 68.3213 48.6618 67.8283 48.0436C67.3634 47.4677 67.3352 46.7091 67.8846 46.0488C68.2227 45.6414 68.6312 45.2622 69.0961 45.0093C69.9976 44.5317 70.9415 44.1664 71.8712 43.745C72.167 43.6045 72.4628 43.45 72.8855 43.2533C72.5615 42.9864 72.3642 42.8178 72.1529 42.6492C70.9978 41.7361 69.8004 40.8792 68.6735 39.9239C65.6589 37.3672 62.757 34.6981 61.0102 31.0597C60.7567 30.5259 60.3763 30.4416 59.8974 30.7225C58.4323 31.5654 56.925 32.324 55.5304 33.2793C51.5438 36.0186 48.2334 39.4744 45.2329 43.2533C44.8667 43.7169 44.5286 44.2226 44.1764 44.7002V44.6721ZM32.9351 88.1224C35.0904 88.1224 36.9358 87.5886 38.5417 86.3523C39.725 85.4392 39.9926 84.3575 39.4432 83.023C38.8375 81.5339 37.781 80.4241 36.1892 80.2415C34.386 80.0448 32.4702 79.7077 31.1742 81.7165C30.2304 83.2056 29.0612 84.5402 28.54 86.2681C28.4273 86.6614 28.2864 87.0407 28.8499 87.2514C30.2163 87.7431 31.5687 88.2769 32.9069 88.1224H32.9351Z" fill="black"/>
<path id="Vector_24" d="M112.836 98.8967C113.089 98.5736 113.202 98.405 113.343 98.2645C114.315 97.2671 115.301 96.2838 116.245 95.2723C116.639 94.8368 116.991 94.7245 117.569 94.9914C120.724 96.4243 123.95 96.3259 127.021 94.9352C135.206 91.2406 139.629 84.6942 140.671 75.9283C141.136 72.0652 140.136 68.4689 137.291 65.6031C135.642 63.9455 133.628 63.0183 131.29 62.8357C126.289 62.4423 122.344 64.5495 119.006 68.0474C118.217 68.8763 118.231 68.8763 117.682 67.8227C116.343 65.2098 114.414 63.0745 112.216 61.1499C108.427 57.8206 104.088 55.2919 99.6787 52.9038C95.8189 50.8106 91.8886 48.8439 87.9866 46.821C87.7612 46.7087 87.564 46.5541 87.3527 46.4136C87.3668 46.3434 87.3949 46.2591 87.409 46.1889C87.7612 46.217 88.1134 46.231 88.4515 46.2732C89.1699 46.3434 89.8883 46.4839 90.6067 46.4839C91.6633 46.4839 92.424 45.8939 92.5648 45.051C92.7057 44.1941 92.1422 43.2388 91.1702 42.9719C90.0855 42.6769 88.9727 42.41 87.8598 42.3397C85.296 42.1852 82.7181 42.1571 80.1543 42.0307C79.6753 42.0026 79.1259 41.8621 78.7315 41.5952C74.8999 38.9261 71.0964 36.2148 67.8001 32.9136C66.1942 31.2981 64.7292 29.5421 63.0951 27.9687C62.2921 27.1961 61.2779 26.578 60.2636 26.0863C59.8269 25.8756 59.0944 26.0441 58.5732 26.2408C55.4882 27.4349 52.7694 29.2611 50.2619 31.3543C43.1199 37.3246 37.7528 44.6717 33.6676 52.9881C31.5264 57.3429 29.9064 61.8664 29.0049 66.6146C28.385 69.8877 28.1878 73.203 28.7513 76.5183C28.864 77.1926 28.695 77.6562 28.2301 78.162C25.5254 81.0699 23.6237 84.4133 23.2152 88.445C22.8348 92.238 24.0463 95.5814 26.3143 98.5596C27.1313 99.6412 28.1315 100.597 29.0471 101.608C29.1457 101.72 29.2162 101.861 29.3852 102.128C29.0471 102.184 28.8076 102.254 28.5682 102.24C24.8211 102.057 21.074 101.875 17.3268 101.692C17.1719 101.692 17.0028 101.65 16.8479 101.622C16.0168 101.467 15.9182 101.285 16.4112 100.582C18.9327 97.0143 20.4541 92.9966 21.8206 88.8946C23.3279 84.3992 24.6379 79.8477 25.3845 75.1697C25.8212 72.4725 26.103 69.7613 26.3143 67.036C26.6524 62.6671 26.751 58.2701 27.1595 53.9012C27.5539 49.5885 28.1737 45.2758 29.7374 41.2019C32.6956 33.5036 37.2457 26.9573 44.2187 22.3355C47.8108 19.9614 51.8115 18.5285 56.0376 17.6435C57.6153 17.3063 59.1648 16.7163 60.644 16.042C68.6312 12.3193 77.027 10.9707 85.789 11.6029C90.6772 11.9541 95.4667 12.8812 100.214 14.0051C103.116 14.6934 105.891 15.9156 108.652 17.0816C111.117 18.1211 113.568 19.2449 115.879 20.5936C122.485 24.4848 128.458 29.1347 132.853 35.5686C134.516 37.9989 136.389 40.2747 137.685 42.9438C140.432 48.5489 143.066 54.1962 144.461 60.3211C145.123 63.2431 146.081 66.0948 146.785 69.0027C147.349 71.3347 147.616 73.7509 148.208 76.0829C149.081 79.4403 149.87 82.868 151.194 86.0569C152.293 88.6979 154.054 91.058 155.618 93.4883C156.04 94.1485 156.04 94.584 155.463 94.9633C154.293 95.75 153.152 96.635 151.871 97.225C147.997 99.0372 143.968 100.512 139.685 100.906C136.403 101.215 133.093 101.271 129.796 101.243C124.908 101.201 120.076 100.456 115.301 99.4165C114.526 99.2479 113.766 99.0934 112.836 98.9108V98.8967Z" fill="black"/>
<path id="Vector_25" d="M44.1765 44.6724C44.5286 44.1948 44.8526 43.689 45.233 43.2255C48.2335 39.4466 51.5439 35.9908 55.5305 33.2514C56.911 32.2962 58.4324 31.5376 59.8974 30.6947C60.3764 30.4137 60.7567 30.498 61.0103 31.0318C62.757 34.6843 65.6589 37.3394 68.6735 39.8961C69.8005 40.8514 70.9838 41.7083 72.153 42.6214C72.3643 42.7759 72.5615 42.9445 72.8855 43.2255C72.477 43.4221 72.1812 43.5767 71.8712 43.7171C70.9415 44.1386 69.9977 44.5038 69.0961 44.9814C68.6313 45.2203 68.2227 45.6136 67.8847 46.021C67.3494 46.6812 67.3635 47.4258 67.8283 48.0158C68.3354 48.6339 69.0539 48.7744 69.8568 48.4794C71.6599 47.8191 73.4771 47.1729 75.3084 46.5548C76.3931 46.1896 77.351 46.3019 78.4357 46.892C82.9717 49.3784 87.5781 51.7245 92.1423 54.1407C97.3121 56.866 102.524 59.5351 107.201 63.0752C109.427 64.7609 111.526 66.6012 113.005 69.0315C113.752 70.2677 114.245 71.5601 114.343 73.0211C114.442 74.5102 115.062 75.2688 116.273 75.5638C117.287 75.8026 118.104 75.4093 118.837 74.735C120.654 73.0352 122.457 71.3073 124.288 69.6356C125.599 68.4415 127.176 67.8093 128.909 67.5284C132.177 67.0086 134.6 68.4836 135.6 71.6304C136.206 73.5128 136.178 75.4514 135.769 77.3479C134.783 81.9275 132.431 85.7204 128.726 88.6284C127.021 89.977 125.106 90.9182 122.908 91.1851C121.133 91.3958 119.569 90.9603 118.189 89.8224C116.71 88.6143 115.245 88.7407 114.174 90.286C110.878 95.1044 106.201 98.1388 101.087 100.625C97.4107 102.409 93.565 103.73 89.6207 104.783C78.1962 107.846 66.6168 108.45 54.9107 106.947C49.9803 106.315 45.1485 105.135 40.5702 103.168C36.7668 101.538 33.2169 99.5296 30.5122 96.2985C29.4979 95.0904 28.7795 93.7278 28.3006 92.2387C28.2301 91.9999 28.2724 91.733 28.2583 91.4801C28.5119 91.4801 28.7795 91.3958 29.0049 91.4801C30.5263 91.9858 32.0758 92.2106 33.6817 92.1122C36.5273 91.9296 39.1334 91.0867 41.2887 89.2043C44.2751 86.6055 44.4159 83.4728 42.5424 80.3822C40.6688 77.3057 37.8233 75.7886 34.0903 76.3786C33.4282 76.4909 33.3155 76.1538 33.2451 75.634C32.907 73.1897 33.1183 70.7734 33.5268 68.3572C34.5833 62.0497 37.0626 56.2619 40.1758 50.727C40.528 50.0808 41.0774 49.7999 41.6972 49.5189C45.3034 47.9315 49.0364 47.1589 52.9808 47.5522C53.8541 47.6365 54.7416 47.7629 55.615 47.7489C56.5306 47.7489 57.2491 47.1308 57.3899 46.3862C57.5731 45.5153 57.235 44.7988 56.3334 44.3493C55.939 44.1526 55.4741 43.9981 55.0234 43.984C52.9103 43.9419 50.7832 43.8857 48.6702 43.9981C47.5291 44.0543 46.4163 44.4617 45.2893 44.6864C44.9653 44.7567 44.6413 44.7988 44.3173 44.841C44.2751 44.7707 44.2328 44.7145 44.1765 44.6443V44.6724ZM88.3951 76.1959C90.0292 76.2381 90.9167 75.5076 91.1984 74.0326C91.4238 72.8525 91.4943 71.6444 91.6774 70.4644C91.8042 69.6356 92.0436 68.8067 92.1563 67.9779C92.1986 67.6127 92.1845 67.121 91.9732 66.8822C91.621 66.4888 91.128 66.1095 90.6209 65.955C88.8741 65.4352 87.0992 65.0278 85.3383 64.5783C85.0425 64.494 84.7607 64.3535 84.479 64.2412C84.6621 63.9602 84.7748 63.609 85.0284 63.4264C86.5075 62.3728 88.0007 61.3332 89.5362 60.3499C90.1137 59.9846 90.2405 59.6475 89.987 59.0434C89.2544 57.3296 88.3106 55.7562 87.0146 54.4076C84.324 51.598 80.8587 51.0501 77.6891 52.9607C76.21 53.8457 75.1112 55.1381 74.266 56.6131C71.8994 60.7854 71.0542 65.2667 71.7163 69.9868C71.9276 71.4618 71.8149 72.403 70.2653 73.0352C69.0961 73.4987 68.744 74.6928 69.1807 75.62C69.561 76.4348 70.5189 76.7438 71.7163 76.21C74.2097 75.1002 76.858 74.8754 79.5063 74.8192C81.887 74.7771 84.2818 74.9457 86.5639 75.7324C87.2682 75.9712 88.0148 76.0976 88.4092 76.1959H88.3951ZM42.9086 73.1756C44.6695 73.4145 46.0641 73.5268 47.4164 73.8218C49.4309 74.2573 51.4171 74.8333 53.4174 75.325C54.6007 75.6059 55.4178 75.2126 55.8686 74.0888C56.1362 73.4004 56.3053 72.6559 56.4602 71.9254C56.6997 70.8296 56.7983 69.7058 57.1082 68.6241C57.5026 67.2053 57.3195 66.5872 55.9531 66.0112C54.4176 65.365 52.8681 64.789 51.3185 64.1709C51.0649 64.0726 50.8396 63.8759 50.6142 63.7214C50.7973 63.5107 50.9382 63.2297 51.1635 63.0752C52.5863 62.1761 54.0091 61.263 55.4741 60.4342C56.1644 60.0408 56.3334 59.5491 56.0376 58.917C55.3614 57.4981 54.798 55.981 53.8823 54.7307C51.7129 51.7385 48.4307 51.4154 45.5288 53.7193C43.8947 55.0257 42.8382 56.7536 41.993 58.622C40.528 61.8951 39.8095 65.3228 39.8518 68.9051C39.8518 69.5794 39.5841 69.8603 38.9502 69.9727C38.3163 70.0851 37.6824 70.2256 37.0908 70.4784C36.0061 70.942 35.5835 71.7989 35.8934 72.7121C36.1751 73.5409 37.1894 73.9202 38.2459 73.7516C39.9081 73.4987 41.5845 73.3302 42.9086 73.1616V73.1756ZM101.285 93.6154C105.018 93.5873 108.201 92.2808 110.286 89.9067C111.878 88.0805 112.751 85.9593 112.188 83.4728C111.399 80.0451 109.061 78.0643 105.849 77.081C101.017 75.6059 96.6219 76.4769 93.072 80.1575C90.0997 83.248 90.2546 87.4062 93.1847 90.4546C95.509 92.8568 98.5377 93.4468 101.299 93.6294L101.285 93.6154ZM57.3759 92.8989C56.7138 92.8568 56.0376 92.8427 55.3755 92.7584C54.7416 92.6882 54.1077 92.5477 53.4738 92.4354C52.3891 92.2527 51.6848 91.5503 51.0368 90.7355C50.5015 90.0612 50.6142 89.401 50.7409 88.6284C50.8114 88.1507 50.5015 87.4764 50.1493 87.0831C49.7126 86.6055 49.0646 86.479 48.3743 86.7881C47.0784 87.364 46.1909 89.0217 46.5853 90.3703C47.2333 92.5899 48.5293 94.374 50.5719 95.4837C53.178 96.8885 56.0658 96.7902 58.8972 96.734C60.1932 96.7059 61.5315 96.4671 62.757 96.0457C66.7718 94.6549 70.2231 92.323 73.2377 89.3589C73.6462 88.9655 73.9279 88.8953 74.3928 89.2324C75.9424 90.3141 77.7032 90.876 79.5486 91.1289C80.267 91.2272 81.0559 91.157 81.7743 91.0025C82.8872 90.7777 83.5774 89.7803 83.4366 88.7829C83.2816 87.7152 82.4787 87.1252 81.2108 87.1814C81.0277 87.1814 80.8305 87.2236 80.6474 87.2236C77.5623 87.3781 75.3648 85.6221 74.9281 82.6299C74.8717 82.2365 74.7591 81.8432 74.6182 81.478C74.3365 80.7475 73.8293 80.2417 72.9841 80.2839C72.153 80.3401 71.505 80.8037 71.3641 81.6044C71.2092 82.5597 71.1387 83.5711 71.2514 84.5264C71.35 85.2709 71.2796 85.8328 70.702 86.3104C69.237 87.5045 67.8283 88.7829 66.2788 89.8927C63.6304 91.7891 60.7145 92.9832 57.3618 92.8708L57.3759 92.8989ZM126.218 77.9238C126.796 77.2917 127.19 76.8 127.641 76.3645C128.303 75.7043 129.064 75.1283 129.684 74.44C130.98 73.0071 130.501 71.1106 128.754 70.6049C127.627 70.2818 126.782 70.9139 125.993 71.5742C123.063 74.0326 120.837 77.081 118.978 80.3963C118.442 81.3515 117.949 82.3489 117.611 83.3744C117.287 84.3437 117.78 85.313 118.611 85.7766C119.471 86.2543 120.401 86.0857 121.161 85.299C121.401 85.0461 121.598 84.7652 121.795 84.4702C122.119 83.9785 122.471 83.4868 122.697 82.953C123.035 82.1663 123.556 82.0539 124.317 82.2927C125.937 82.7844 127.557 83.2621 129.191 83.6694C130.219 83.9223 131.247 83.4025 131.698 82.5175C132.149 81.6465 132.008 80.5508 131.177 79.9046C130.543 79.4129 129.754 79.0898 128.979 78.7948C128.162 78.4858 127.303 78.275 126.218 77.9519V77.9238ZM53.8541 83.4728C53.8119 84.3859 54.2063 85.2569 54.9811 85.9593C56.2066 87.0971 57.6858 87.6169 59.3198 87.4624C60.0524 87.3921 60.8271 87.055 61.4188 86.6055C62.1936 86.0435 62.2781 85.1866 61.9118 84.4561C61.5174 83.6694 60.799 83.3463 59.827 83.4587C59.3198 83.5149 58.7986 83.5711 58.3197 83.4868C57.6153 83.3604 57.4604 82.8266 57.9816 82.3349C58.3901 81.9556 58.9113 81.7168 59.348 81.3656C60.2637 80.6351 60.0946 79.4129 58.9959 79.0055C58.5592 78.851 58.0379 78.7808 57.5872 78.851C55.4037 79.2022 53.8541 81.0987 53.8401 83.4587L53.8541 83.4728Z" fill="white"/>
<path id="Vector_26" d="M32.935 88.1368C31.5827 88.2913 30.2304 87.7715 28.878 87.2658C28.3145 87.0551 28.4554 86.6758 28.5681 86.2824C29.0752 84.5545 30.2444 83.22 31.2023 81.7309C32.4843 79.708 34.4001 80.0451 36.2173 80.2559C37.8091 80.4385 38.8656 81.5483 39.4713 83.0374C40.0066 84.3579 39.739 85.4536 38.5698 86.3667C36.9639 87.6029 35.1185 88.1508 32.9632 88.1368H32.935Z" fill="#F29FA1"/>
<path id="Vector_27" d="M88.3951 76.1957C87.9866 76.0974 87.2541 75.9709 86.5497 75.7321C84.2536 74.9454 81.8588 74.7768 79.4922 74.819C76.8439 74.8752 74.1956 75.0999 71.7022 76.2097C70.5048 76.7436 69.5469 76.4345 69.1666 75.6197C68.7299 74.6926 69.082 73.4985 70.2512 73.0349C71.8008 72.4168 71.9135 71.4756 71.7022 69.9865C71.0542 65.2664 71.8853 60.7711 74.2519 56.6129C75.0971 55.1378 76.1959 53.8454 77.675 52.9604C80.8446 51.0499 84.3099 51.5837 87.0005 54.4073C88.2965 55.7559 89.2544 57.3293 89.9729 59.0432C90.2264 59.6472 90.0996 59.9844 89.5221 60.3496C87.9866 61.3189 86.4934 62.3725 85.0143 63.4261C84.7607 63.6087 84.648 63.9599 84.4649 64.2409C84.7466 64.3533 85.0284 64.4938 85.3242 64.5781C87.0851 65.0416 88.86 65.449 90.6068 65.9547C91.1139 66.1093 91.6069 66.4886 91.9591 66.8819C92.1704 67.1207 92.1986 67.6264 92.1422 67.9776C92.0295 68.8065 91.7901 69.6353 91.6633 70.4641C91.4802 71.6582 91.4097 72.8523 91.1843 74.0323C90.9026 75.5073 90.0292 76.2378 88.381 76.1957H88.3951Z" fill="black"/>
<path id="Vector_28" d="M42.9087 73.1749C41.5845 73.3434 39.9082 73.512 38.246 73.7649C37.1894 73.9335 36.1752 73.5542 35.8934 72.7253C35.5835 71.8263 36.0061 70.9553 37.0908 70.4917C37.6684 70.2389 38.3164 70.0984 38.9503 69.986C39.5842 69.8736 39.8659 69.5927 39.8519 68.9184C39.8096 65.3361 40.528 61.8944 41.9931 58.6353C42.8383 56.7669 43.8948 55.039 45.5289 53.7325C48.4308 51.4287 51.713 51.7518 53.8824 54.744C54.798 55.9943 55.3615 57.5114 56.0377 58.9303C56.3335 59.5624 56.1645 60.0541 55.4742 60.4474C54.0092 61.2763 52.5864 62.1894 51.1636 63.0885C50.9382 63.2289 50.7974 63.5099 50.6142 63.7347C50.8537 63.8892 51.065 64.0859 51.3186 64.1842C52.854 64.8023 54.4177 65.3783 55.9532 66.0245C57.3196 66.6004 57.5027 67.2186 57.1083 68.6374C56.7984 69.705 56.6998 70.8429 56.4603 71.9387C56.3053 72.6691 56.1504 73.4137 55.8686 74.102C55.4178 75.2259 54.6008 75.6333 53.4175 75.3383C51.4172 74.8466 49.4309 74.2706 47.4165 73.8351C46.0642 73.5401 44.6696 73.4418 42.9087 73.1889V73.1749Z" fill="black"/>
<path id="Vector_29" d="M101.285 93.6287C98.5236 93.4461 95.4949 92.8561 93.1706 90.4539C90.2405 87.4195 90.0715 83.2473 93.0579 80.1567C96.6078 76.4762 101.003 75.6052 105.835 77.0802C109.061 78.0636 111.399 80.0443 112.174 83.472C112.737 85.9445 111.878 88.0798 110.272 89.906C108.187 92.2801 105.018 93.6006 101.271 93.6146L101.285 93.6287ZM102.397 80.3534C99.8337 80.3534 97.8333 81.0558 96.3401 82.3482C94.3398 84.0761 94.4525 86.6328 96.5232 88.2624C98.749 90.0184 101.228 89.906 103.778 89.3722C105.158 89.0912 106.328 88.4029 107.286 87.3914C108.835 85.7618 108.708 83.5704 107.004 82.0953C105.553 80.831 103.806 80.4377 102.383 80.3534H102.397Z" fill="black"/>
<path id="Vector_30" d="M57.3758 92.9124C60.7144 93.0248 63.6445 91.8307 66.2928 89.9342C67.8283 88.8385 69.237 87.5601 70.7161 86.352C71.2936 85.8744 71.3641 85.3265 71.2655 84.5679C71.1387 83.6127 71.2091 82.6012 71.3782 81.6459C71.519 80.8452 72.167 80.3676 72.9982 80.3254C73.8434 80.2693 74.3364 80.789 74.6322 81.5195C74.7731 81.8848 74.8858 82.2781 74.9421 82.6714C75.3929 85.6637 77.5764 87.4196 80.6614 87.2651C80.8445 87.2651 81.0418 87.223 81.2249 87.223C82.4927 87.1668 83.2957 87.7427 83.4506 88.8244C83.5915 89.8218 82.9012 90.8192 81.7884 91.044C81.0699 91.1845 80.2811 91.2688 79.5626 91.1704C77.7173 90.9176 75.9564 90.3557 74.4068 89.274C73.9279 88.9368 73.6462 89.0071 73.2517 89.4004C70.2371 92.3645 66.7858 94.6965 62.7711 96.0872C61.5455 96.5087 60.2073 96.7475 58.9113 96.7756C56.0798 96.8318 53.192 96.9301 50.5859 95.5253C48.5293 94.4155 47.2333 92.6314 46.5994 90.4119C46.2049 89.0633 47.0924 87.4056 48.3884 86.8296C49.0787 86.5206 49.7266 86.647 50.1633 87.1246C50.5155 87.518 50.8254 88.1923 50.755 88.6699C50.6282 89.4425 50.5296 90.1028 51.0508 90.7771C51.6988 91.5919 52.4172 92.2943 53.4878 92.4769C54.1218 92.5893 54.7557 92.7157 55.3896 92.8C56.0517 92.8702 56.7278 92.8983 57.3899 92.9405L57.3758 92.9124Z" fill="black"/>
<path id="Vector_31" d="M126.218 77.9381C127.317 78.2612 128.176 78.4579 128.979 78.781C129.74 79.076 130.543 79.3991 131.177 79.8907C132.008 80.537 132.149 81.6327 131.698 82.5037C131.247 83.3887 130.219 83.9225 129.191 83.6556C127.557 83.2482 125.937 82.7706 124.317 82.2789C123.556 82.0541 123.049 82.1525 122.697 82.9392C122.471 83.473 122.119 83.9646 121.795 84.4563C121.612 84.7513 121.401 85.0323 121.161 85.2852C120.4 86.0718 119.457 86.2404 118.611 85.7628C117.78 85.2992 117.287 84.3299 117.611 83.3606C117.963 82.3351 118.442 81.3377 118.978 80.3824C120.837 77.0671 123.049 74.0328 125.993 71.5603C126.782 70.9001 127.627 70.2679 128.754 70.591C130.501 71.0967 130.98 73.0073 129.684 74.4261C129.064 75.1145 128.303 75.6904 127.641 76.3507C127.19 76.7862 126.796 77.2778 126.218 77.91V77.9381Z" fill="black"/>
<path id="Vector_32" d="M53.854 83.4866C53.854 81.1265 55.4176 79.2301 57.6011 78.8789C58.0519 78.8086 58.5731 78.8788 59.0098 79.0334C60.1086 79.4408 60.2776 80.6489 59.362 81.3934C58.9253 81.7446 58.4041 81.9834 57.9955 82.3627C57.4743 82.8544 57.6152 83.3882 58.3336 83.5147C58.8267 83.599 59.3479 83.5428 59.8409 83.4866C60.8129 83.3882 61.5313 83.7113 61.9258 84.484C62.292 85.2145 62.2075 86.0714 61.4327 86.6333C60.8411 87.0688 60.0663 87.4059 59.3338 87.4902C57.6997 87.6448 56.2206 87.125 54.995 85.9871C54.2203 85.2707 53.8258 84.3997 53.8681 83.5006L53.854 83.4866Z" fill="black"/>
<path id="Vector_33" d="M102.397 80.3535C103.82 80.4378 105.567 80.8311 107.018 82.0955C108.722 83.5705 108.849 85.762 107.3 87.3915C106.342 88.403 105.172 89.0913 103.792 89.3723C101.242 89.8921 98.763 90.0044 96.5372 88.2625C94.4665 86.6329 94.3538 84.0762 96.3541 82.3483C97.8473 81.0559 99.8476 80.3535 102.411 80.3535H102.397Z" fill="#F29FA1"/>
</g>
</svg>
