<?xml version="1.0" encoding="utf-8"?>
<!-- Generator: Adobe Illustrator 28.0.0, SVG Export Plug-In . SVG Version: 6.00 Build 0)  -->
<svg version="1.1" id="Layer_1" xmlns="http://www.w3.org/2000/svg" xmlns:xlink="http://www.w3.org/1999/xlink" x="0px" y="0px"
	 viewBox="0 0 50 50" style="enable-background:new 0 0 50 50;" xml:space="preserve">
<style type="text/css">
	.st0{fill:#FFFFFF;}
</style>
<g>
	<g>
		<path class="st0" d="M22.25,6.43c-1.34,0.56-2.66,0.95-3.81,1.63c-4.54,2.65-6.82,6.67-6.88,11.92
			c-0.04,3.39,0.02,6.79-0.03,10.18c-0.01,0.89-0.2,1.8-0.46,2.64c-0.34,1.09-1.16,1.65-2.35,1.69c-1.13,0.03-2.1,0.82-2.41,1.9
			c-0.32,1.11,0.08,2.28,1.01,2.96c0.6,0.44,1.28,0.5,1.99,0.5c10.45,0,20.9,0,31.34,0c0.21,0,0.41-0.01,0.62-0.02
			c1.4-0.11,2.48-1.27,2.48-2.68c0-1.43-1.1-2.6-2.54-2.66c-1.16-0.04-1.97-0.59-2.31-1.65c-0.27-0.87-0.46-1.79-0.48-2.7
			c-0.05-3.37-0.01-6.75-0.02-10.13c-0.01-4.15-1.52-7.64-4.63-10.4c-1.74-1.54-3.77-2.52-6.02-3.01c-0.35-2.02-1.29-3-2.8-2.97
			C23.41,3.67,22.43,4.73,22.25,6.43z M19.61,41.2c0.07,2.08,0.97,3.66,2.74,4.65c1.91,1.06,3.84,0.97,5.65-0.25
			c1.53-1.03,2.29-2.52,2.32-4.39C26.72,41.2,23.19,41.2,19.61,41.2z"/>
		<path d="M22.25,6.43c0.18-1.7,1.17-2.76,2.69-2.79c1.52-0.03,2.45,0.95,2.8,2.97c2.25,0.49,4.29,1.47,6.02,3.01
			c3.11,2.76,4.62,6.25,4.63,10.4c0.01,3.38-0.03,6.75,0.02,10.13c0.01,0.9,0.21,1.83,0.48,2.7c0.34,1.07,1.16,1.61,2.31,1.65
			c1.45,0.06,2.54,1.23,2.54,2.66c0,1.4-1.07,2.57-2.48,2.68c-0.21,0.02-0.41,0.02-0.62,0.02c-10.45,0-20.9,0-31.34,0
			c-0.71,0-1.39-0.06-1.99-0.5c-0.93-0.68-1.34-1.84-1.01-2.96c0.31-1.08,1.27-1.86,2.41-1.9c1.18-0.04,2-0.6,2.35-1.69
			c0.27-0.85,0.45-1.76,0.46-2.64c0.05-3.39-0.01-6.79,0.03-10.18c0.06-5.25,2.34-9.27,6.88-11.92C19.59,7.38,20.91,6.99,22.25,6.43
			z"/>
		<path d="M19.61,41.2c3.58,0,7.11,0,10.72,0c-0.04,1.88-0.79,3.36-2.32,4.39c-1.81,1.22-3.75,1.32-5.65,0.25
			C20.58,44.86,19.68,43.28,19.61,41.2z"/>
	</g>
</g>
</svg>
