<svg width="28" height="33" viewBox="0 0 28 33" fill="none" xmlns="http://www.w3.org/2000/svg">
<g id="Layer_1" clip-path="url(#clip0_1126_7020)">
<path id="Vector" d="M11.9663 2.14696C10.9657 2.57806 9.98155 2.88236 9.12039 3.39799C5.73316 5.43513 4.03545 8.52042 3.99444 12.5609C3.96163 15.1728 4.01084 17.7763 3.96984 20.3883C3.96163 21.0729 3.82221 21.7661 3.62537 22.4169C3.37112 23.2538 2.75601 23.6849 1.87845 23.7187C1.03369 23.744 0.320158 24.3526 0.0823139 25.181C-0.15553 26.0348 0.147926 26.9308 0.836854 27.4549C1.28794 27.793 1.78823 27.8437 2.32133 27.8437C10.1128 27.8437 17.9042 27.8437 25.6875 27.8437C25.8433 27.8437 25.9991 27.8437 26.155 27.8268C27.2047 27.7422 28.0003 26.8462 28.0003 25.7727C28.0003 24.6739 27.1801 23.7779 26.1057 23.7271C25.2446 23.6933 24.6295 23.2791 24.3834 22.4592C24.1784 21.7914 24.039 21.0814 24.0308 20.3883C23.9898 17.7932 24.0226 15.1982 24.0144 12.6032C24.0062 9.41643 22.8825 6.73687 20.5615 4.6152C19.2657 3.4318 17.7484 2.67949 16.0671 2.29911C15.7964 0.72688 15.0993 -0.0254253 13.9675 -6.66453e-05C12.8357 0.025292 12.0975 0.836767 11.9663 2.14696ZM9.99796 28.8665C10.0472 30.4641 10.7197 31.6728 12.0401 32.4336C13.459 33.2451 14.9025 33.1774 16.2557 32.2392C17.3957 31.4446 17.9616 30.3035 17.9862 28.8665H9.99796Z" fill="white"/>
<path id="Vector_2" d="M11.966 2.14702C12.1054 0.836828 12.8353 0.0253531 13.9671 -5.537e-06C15.099 -0.0253641 15.7961 0.726941 16.0585 2.28227C17.7398 2.66265 19.2571 3.41495 20.553 4.59835C22.874 6.72002 23.9976 9.39958 24.0058 12.5863C24.0058 15.1813 23.9812 17.7764 24.0222 20.3714C24.0304 21.0645 24.178 21.783 24.3749 22.4424C24.6291 23.2623 25.236 23.6765 26.0972 23.7103C27.1716 23.7526 27.9918 24.6486 27.9918 25.7559C27.9918 26.8294 27.188 27.7254 26.1464 27.8099C25.9906 27.8184 25.8348 27.8268 25.6789 27.8268C17.8875 27.8268 10.096 27.8268 2.31278 27.8268C1.78789 27.8268 1.27939 27.7761 0.828309 27.438C0.139381 26.9139 -0.164075 26.0264 0.073769 25.1642C0.303412 24.3358 1.02515 23.7272 1.8699 23.7018C2.74747 23.6765 3.36258 23.2454 3.61683 22.4001C3.81366 21.7492 3.95309 21.0476 3.96129 20.3714C4.0023 17.7595 3.96129 15.156 3.9859 12.5441C4.0351 8.51203 5.73282 5.41828 9.11185 3.38114C9.97301 2.86552 10.9572 2.56121 11.9578 2.13012L11.966 2.14702Z" fill="black"/>
<path id="Vector_3" d="M9.99756 28.8665H17.9858C17.9612 30.3035 17.3953 31.4447 16.2553 32.2392C14.9103 33.1775 13.4586 33.2536 12.0397 32.4337C10.7111 31.6729 10.0468 30.4641 9.99756 28.8665Z" fill="black"/>
</g>
<defs>
<clipPath id="clip0_1126_7020">
<rect width="28" height="33" fill="white"/>
</clipPath>
</defs>
</svg>
