<svg width="38" height="40" viewBox="0 0 38 40" fill="none" xmlns="http://www.w3.org/2000/svg">
<g clip-path="url(#clip0_1599_5915)">
<path d="M0.00916413 0.687625C0.00916413 0.444725 0.245599 0.267907 0.485699 0.330418C1.24816 0.526882 1.97579 0.716202 2.70342 0.905521C7.76935 2.22897 12.8353 3.55778 17.9049 4.86873C18.2531 4.95803 18.3503 5.08841 18.3503 5.43133C18.3411 16.8298 18.3429 28.2283 18.3429 39.6249V39.6285C18.3429 39.8714 18.1047 40.0482 17.8646 39.9857C16.5981 39.6553 15.3609 39.3338 14.1238 39.0123C9.60035 37.8335 5.07693 36.6458 0.548015 35.4867C0.0989726 35.3724 0 35.1849 0 34.7651C0.010997 23.4417 0.00916413 12.1182 0.00916413 0.793001V0.687625Z" fill="#FA1919"/>
<path d="M5.30775 0H25.2599C25.4689 0 25.6393 0.166101 25.6393 0.369709V13.2595C25.6393 13.4631 25.4689 13.6292 25.2599 13.6292C25.2434 13.6292 25.2269 13.6292 25.2104 13.6292C24.173 13.6292 23.1357 13.6256 22.0983 13.6292C21.4916 13.6328 21.1947 13.9078 21.1929 14.5026C21.1855 16.5387 21.1855 18.5747 21.1929 20.6126C21.1947 21.2359 21.4733 21.4931 22.1276 21.4967C23.1613 21.5021 24.1932 21.4985 25.2507 21.4985C25.4597 21.4985 25.632 21.6646 25.632 21.8682V34.7562C25.632 34.9598 25.4615 35.1259 25.2526 35.1259H20.2581C20.0492 35.1259 19.8787 34.9598 19.8787 34.7562C19.8787 34.6955 19.8787 34.633 19.8787 34.5722C19.8787 24.6723 19.8787 14.7723 19.8787 4.8723C19.8787 3.96142 19.7981 3.84712 18.8872 3.60779C14.4957 2.4558 10.1024 1.31095 5.70914 0.162529C5.56985 0.126808 5.43238 0.0803715 5.29492 0.0392927L5.30775 0Z" fill="#FA1919"/>
<path d="M33.2604 22.7005C33.0258 22.947 32.6024 22.7862 32.6024 22.4486C32.6024 21.97 32.6024 21.5235 32.6024 21.077C32.6024 20.2661 32.3715 20.0375 31.5559 20.0375C28.7975 20.0375 26.0372 20.0375 23.2788 20.0375H23.134C22.9251 20.0375 22.7546 19.8714 22.7546 19.6678V15.4849C22.7546 15.2813 22.9251 15.1152 23.134 15.1152H23.299C26.0281 15.1152 28.7571 15.1152 31.4844 15.1152C32.3623 15.1152 32.6006 14.8812 32.6024 14.0346C32.6024 13.5971 32.6024 13.1595 32.6024 12.688C32.6024 12.3522 33.0258 12.1897 33.2604 12.4361C34.8385 14.0954 36.3634 15.6974 37.8993 17.3138C38.0331 17.4549 38.0349 17.6746 37.8993 17.8157C36.3634 19.432 34.8403 21.0359 33.2604 22.6987V22.7005Z" fill="#FA1919"/>
</g>
<defs>
<clipPath id="clip0_1599_5915">
<rect width="38" height="40" fill="white"/>
</clipPath>
</defs>
</svg>
