<svg width="44" height="49" viewBox="0 0 44 49" fill="none" xmlns="http://www.w3.org/2000/svg">
<g id="Layer_1" clip-path="url(#clip0_1126_7052)">
<g id="iK3i27">
<g id="Group">
<path id="Vector" d="M32.2719 44.6842C33.1821 45.5789 34.0662 46.4079 34.9114 47.2631C35.3145 47.671 35.3275 48.171 35.0154 48.5921C34.7033 49 34.2743 49.0789 33.8192 48.8947C33.6502 48.8289 33.5071 48.671 33.3771 48.5263C32.532 47.671 31.6738 46.8158 30.8416 45.9342C30.6076 45.6974 30.4256 45.6316 30.1005 45.7763C24.7045 48.0921 19.2955 48.0921 13.8996 45.7763C13.6135 45.6579 13.4315 45.671 13.1974 45.9079C12.3523 46.8026 11.4941 47.671 10.623 48.5395C10.0899 49.0789 9.53077 49.1316 9.08869 48.7105C8.62061 48.2632 8.65961 47.671 9.21871 47.1184C10.0249 46.3026 10.844 45.5131 11.6892 44.6974C0.0390455 37.6974 -1.76828 21.8947 6.90429 12.2632C14.7967 3.5 28.5792 3.27631 36.7317 11.8947C39.6963 15.0395 41.5556 18.75 42.2577 23.0395C42.9598 27.3026 42.4137 31.421 40.6194 35.3421C38.8251 39.2895 36.0426 42.3684 32.2589 44.6842H32.2719ZM22.026 9.06578C12.5863 9.05263 4.94094 16.8158 4.91493 26.4342C4.88893 36.1184 12.5343 43.9737 22 43.9868C31.3747 43.9868 39.0591 36.1842 39.0851 26.6184C39.1111 16.9079 31.5178 9.0921 22.026 9.06578Z" fill="black"/>
<path id="Vector_2" d="M38.032 0C40.5414 0 42.8949 1.72368 43.688 4.23684C44.5071 6.80263 43.61 9.67105 41.5036 11.1842C40.8535 11.6447 40.4244 11.6184 39.8653 11.0526C37.6289 8.77631 35.3925 6.5 33.1691 4.21053C32.584 3.60526 32.558 3.19737 33.0651 2.51316C34.3003 0.881579 35.9386 0.0526316 38.032 0Z" fill="black"/>
<path id="Vector_3" d="M6.04598 0C8.08736 0.0526316 9.73866 0.881579 10.9609 2.55263C11.416 3.18421 11.39 3.61842 10.8699 4.17105C8.62045 6.48684 6.35804 8.78947 4.09563 11.0921C3.58854 11.6053 3.14646 11.6316 2.54835 11.2105C0.402959 9.72368 -0.520209 6.86842 0.285937 4.28947C1.07908 1.73684 3.4065 0 6.04598 0Z" fill="black"/>
<path id="Vector_4" d="M22.013 27.5395C21.4799 27.5395 21.0118 27.0789 20.9988 26.5395C20.9988 25.9868 21.4409 25.5132 21.974 25.5132C22.5201 25.5132 22.9751 25.9605 22.9881 26.5132C22.9881 27.0658 22.5461 27.5395 22.013 27.5526V27.5395Z" fill="black"/>
</g>
</g>
<g id="Group_2">
<g id="Group_3">
<path id="Vector_5" d="M22.0261 42.6316C13.1325 42.6316 5.89014 35.3026 5.89014 26.2895C5.89014 17.2895 13.1325 9.96053 22.0261 9.96053C26.3429 9.96053 30.3996 11.6579 33.4551 14.75C36.4977 17.8421 38.175 21.9474 38.175 26.3289C38.175 35.3158 30.9197 42.6316 22.0391 42.6316H22.0261ZM22.0001 32.4342C21.688 32.4342 21.389 32.5658 21.1549 32.8026C20.9209 33.0395 20.7908 33.3553 20.7908 33.6711C20.7908 34.3421 21.3499 34.9079 22.0261 34.9211C22.7022 34.9211 23.2353 34.3684 23.2353 33.6579C23.2353 33.3289 23.1053 33.0263 22.8842 32.8026C22.6502 32.5658 22.3381 32.4474 22.0131 32.4474L22.0001 32.4342ZM21.9611 17.6842C21.519 17.6974 21.2589 17.9868 21.2589 18.4737V24.3684C21.2589 25.4342 21.2589 26.4868 21.2589 27.5526C21.2589 27.9605 21.623 28.2368 21.9481 28.2368C22.0001 28.2368 22.0651 28.2368 22.1301 28.2105C22.3901 28.1447 22.7412 27.9737 22.7412 27.3026C22.7412 25.5526 22.7412 23.8026 22.7412 22.0526V21.0132C22.7412 20.1447 22.7412 19.2895 22.7282 18.4211C22.7282 18.0395 22.3641 17.6974 21.9871 17.6974V16.3816L21.9611 17.6974V17.6842Z" fill="black"/>
<path id="Vector_6" d="M22.0261 11.2895C30.2306 11.2895 36.8618 18.0132 36.8618 26.3289C36.8618 34.6053 30.2046 41.3158 22.0261 41.3158C13.8346 41.3158 7.19038 34.5921 7.19038 26.3026C7.19038 18.0132 13.8346 11.2895 22.0261 11.2895ZM21.9611 29.5526C22.1301 29.5526 22.2991 29.5263 22.4682 29.4868C23.4563 29.2237 24.0544 28.4211 24.0544 27.3026C24.0544 25.5526 24.0544 23.8026 24.0544 22.0526C24.0544 20.8289 24.0805 19.6053 24.0414 18.3816C24.0024 17.2632 23.0663 16.3684 22.0001 16.3684C21.9741 16.3684 21.9481 16.3684 21.9221 16.3684C20.7779 16.4211 19.9717 17.2895 19.9587 18.4737C19.9587 19.9737 19.9587 21.4737 19.9587 22.9737C19.9587 24.5 19.9587 26.0395 19.9587 27.5658C19.9587 28.6974 20.8949 29.5526 21.9611 29.5526ZM22.0261 36.25C23.4173 36.25 24.5355 35.1053 24.5355 33.6711C24.5355 32.2632 23.4173 31.1316 22.0131 31.1316C20.6348 31.1316 19.4906 32.3026 19.4906 33.6974C19.4906 35.0921 20.6348 36.25 22.0131 36.2632C22.0131 36.2632 22.0131 36.2632 22.0261 36.2632M22.0261 8.6579C12.4043 8.6579 4.5769 16.5789 4.5769 26.3158C4.5769 31.0395 6.39724 35.4737 9.68683 38.8026C12.9764 42.1316 17.3582 43.9737 22.0261 43.9737C31.6348 43.9737 39.4622 36.0658 39.4753 26.3553C39.4753 21.6316 37.6679 17.1842 34.3783 13.8421C31.0887 10.5 26.7069 8.6579 22.0261 8.6579Z" fill="white"/>
</g>
<path id="Vector_7" d="M19.9587 22.9737C19.9587 21.4737 19.9587 19.9737 19.9587 18.4737C19.9587 17.2763 20.7779 16.4079 21.9221 16.3684C23.0143 16.329 24.0155 17.2368 24.0415 18.3816C24.0805 19.6053 24.0545 20.829 24.0545 22.0526C24.0545 23.8026 24.0545 25.5526 24.0545 27.3026C24.0545 28.4211 23.4564 29.2237 22.4682 29.4868C21.22 29.8158 19.9717 28.8684 19.9587 27.5658C19.9587 26.0395 19.9587 24.5 19.9587 22.9737Z" fill="white"/>
<path id="Vector_8" d="M24.5356 33.6711C24.5356 35.1053 23.4044 36.2632 22.0132 36.25C20.6349 36.25 19.4907 35.079 19.4907 33.6842C19.4907 32.2895 20.6349 31.1184 22.0132 31.1184C23.4174 31.1184 24.5486 32.25 24.5356 33.6579V33.6711Z" fill="white"/>
</g>
</g>
<defs>
<clipPath id="clip0_1126_7052">
<rect width="44" height="49" fill="white"/>
</clipPath>
</defs>
</svg>
