<svg width="31" height="31" viewBox="0 0 31 31" fill="none" xmlns="http://www.w3.org/2000/svg">
<g clip-path="url(#clip0_1133_6238)">
<path d="M15.5035 31.0069C24.0658 31.0069 31.0069 24.0658 31.0069 15.5035C31.0069 6.94113 24.0658 0 15.5035 0C6.94113 0 0 6.94113 0 15.5035C0 24.0658 6.94113 31.0069 15.5035 31.0069Z" fill="white"/>
<path d="M15.2757 23.9592C13.1497 23.8626 11.2791 22.8755 9.99516 20.8737C9.42223 19.9764 9.65002 18.9203 10.4922 18.3888C11.3412 17.8504 12.3421 18.0989 12.9495 19.0031C14.261 20.9497 16.7736 20.9497 18.092 19.0031C18.6926 18.1127 19.7211 17.8642 20.5563 18.4026C21.3915 18.941 21.5917 19.9902 21.0395 20.8945C19.8936 22.772 17.7331 23.9662 15.2757 23.9592Z" fill="#C8C8C8"/>
<path d="M9.6707 13.9987C8.68362 13.9987 7.90361 13.2256 7.91742 12.2385C7.93122 11.2859 8.69742 10.5197 9.6569 10.5197C10.6302 10.5197 11.4378 11.3204 11.4171 12.2799C11.4033 13.2256 10.6233 13.9918 9.6707 13.9987Z" fill="#C8C8C8"/>
<path d="M21.3569 13.9987C20.3837 13.9987 19.583 13.1911 19.6037 12.2316C19.6244 11.2859 20.4113 10.5197 21.3569 10.5197C22.3371 10.5197 23.124 11.3135 23.1033 12.2868C23.0826 13.2463 22.3233 13.9987 21.3569 13.9987Z" fill="#C8C8C8"/>
</g>
<defs>
<clipPath id="clip0_1133_6238">
<rect width="31" height="31" fill="white"/>
</clipPath>
</defs>
</svg>
