<svg width="34" height="34" viewBox="0 0 34 34" fill="none" xmlns="http://www.w3.org/2000/svg">
<g id="_&#235;&#160;&#136;&#236;&#157;&#180;&#236;&#150;&#180;_1" clip-path="url(#clip0_1507_5856)">
<path id="Vector" d="M17 0C7.61443 0 0 7.61443 0 17C0 26.3856 7.61443 34 17 34C26.3856 34 34 26.3856 34 17C34 7.61443 26.3856 0 17 0ZM8.68923 13.4274C8.68923 12.3829 9.55209 11.5503 10.5966 11.5352C11.6714 11.5352 12.5494 12.4132 12.5343 13.4728C12.5191 14.5174 11.6714 15.35 10.6269 15.35C9.53695 15.35 8.68923 14.5022 8.70436 13.4274H8.68923ZM23.0855 22.919C21.829 24.9777 19.4675 26.2947 16.7729 26.2796C14.4417 26.1736 12.3829 25.0988 10.9751 22.8887C10.3393 21.9047 10.5966 20.7391 11.52 20.1638C12.4586 19.5735 13.5485 19.8459 14.2146 20.8299C15.6527 22.9644 18.4078 22.9644 19.8459 20.8299C20.512 19.8611 21.6322 19.5886 22.5557 20.179C23.4791 20.7694 23.691 21.9199 23.0855 22.919ZM23.4337 15.3651C22.3589 15.3651 21.4809 14.4871 21.5111 13.4274C21.5263 12.398 22.3891 11.5503 23.4337 11.5503C24.5085 11.5503 25.3713 12.4132 25.3562 13.488C25.3411 14.5476 24.4933 15.3651 23.4488 15.3651H23.4337Z" fill="white"/>
</g>
<defs>
<clipPath id="clip0_1507_5856">
<rect width="34" height="34" fill="white"/>
</clipPath>
</defs>
</svg>
