<svg width="30" height="37" viewBox="0 0 30 37" fill="none" xmlns="http://www.w3.org/2000/svg">
<path d="M20.2739 2.05994C23.3304 -1.29719 26.3026 1.12292 26.3026 1.12292C26.3026 1.12292 29.6739 2.94642 27.7435 7.05697C27.7435 7.05697 31.0507 10.8468 28.4264 14.4931C27.7261 15.4609 26.849 16.4163 25.7208 16.8777C24.8122 17.248 23.809 17.0615 22.8666 16.9422C22.2065 16.8619 21.4976 16.8019 20.8533 17.0142C20.0159 17.2911 19.6897 18.0158 19.6762 18.8527C19.6759 19.064 19.7889 20.7787 19.2776 20.4366L17.7495 19.4144L16.6622 21.0398L14.7016 21.2175L12.3761 24.6936L12.1426 27.1634L10.5706 29.5133L8.70742 29.7561L7.29832 31.8625L8.17495 33.7267L7.16088 35.2426L2.64915 36.4806L1.0785 35.4299L0.966 33.3719L12.6094 15.967L11.1362 14.9814C10.6248 14.6393 12.2488 14.0955 12.448 14.0084C13.2205 13.6704 13.7679 13.1025 13.6982 12.2187C13.6485 11.5422 13.3224 10.9099 12.9963 10.3304C12.5263 9.50491 11.9711 8.6488 11.9665 7.66762C11.9624 6.44876 12.5107 5.27344 13.138 4.2567C15.5067 0.439378 20.2718 2.04978 20.2718 2.04978L20.2739 2.05994ZM25.2193 2.74226C24.1478 2.02549 22.6949 2.31367 21.9781 3.38511C21.2614 4.45656 21.5495 5.90948 22.621 6.62625C23.6924 7.34302 25.1454 7.05485 25.8621 5.9834C26.5789 4.91196 26.2907 3.45903 25.2193 2.74226Z" fill="#F9B233"/>
</svg>
