<svg width="77" height="99" viewBox="0 0 77 99" fill="none" xmlns="http://www.w3.org/2000/svg">
<g clip-path="url(#clip0_1520_6135)">
<path d="M20.2496 44.7972V28.397C20.2496 18.549 28.2519 10.5467 38.0999 10.5467C47.9479 10.5467 55.9502 18.549 55.9502 28.397V44.7972H66.4969V28.397C66.4969 12.7352 53.7618 0 38.0999 0C22.438 0 9.70288 12.7352 9.70288 28.397V44.7972H20.2496Z" fill="#BABABA"/>
<path d="M70.7816 44.7971H5.41837C2.42574 44.7971 0 47.2229 0 50.2155V95.0522C0 98.0448 2.42574 100.471 5.41837 100.471H70.7816C73.7743 100.471 76.2 98.0448 76.2 95.0522V50.2155C76.2 47.2229 73.7743 44.7971 70.7816 44.7971ZM44.2962 85.5734H31.9038L34.1713 71.2694C32.3652 70.0169 31.1787 67.934 31.1787 65.5741C31.1787 61.751 34.2768 58.6529 38.1 58.6529C41.9232 58.6529 45.0213 61.751 45.0213 65.5741C45.0213 67.934 43.8348 70.0169 42.0286 71.2694L44.2962 85.5734Z" fill="#FFC555"/>
<path d="M44.2962 85.5734H31.9038L34.1713 71.2695C32.3652 70.017 31.1787 67.9341 31.1787 65.5742C31.1787 61.7511 34.2768 58.653 38.1 58.653C41.9232 58.653 45.0213 61.7511 45.0213 65.5742C45.0213 67.9341 43.8348 70.017 42.0286 71.2695L44.2962 85.5734Z" fill="#58595B"/>
</g>
<defs>
<clipPath id="clip0_1520_6135">
<rect width="76.2" height="100.484" fill="white"/>
</clipPath>
</defs>
</svg>
