<svg width="298" height="179" viewBox="0 0 298 179" fill="none" xmlns="http://www.w3.org/2000/svg">
<g clip-path="url(#clip0_1132_7288)">
<path d="M8.79 2.03003H0V64.91H8.79V2.03003Z" fill="black"/>
<path d="M39.89 2.03003H31.1V64.91H39.89V2.03003Z" fill="black"/>
<path d="M60.18 0H51.39V75.06H60.18V0Z" fill="black"/>
<path d="M204.21 0H195.42V39.22H204.21V0Z" fill="black"/>
<path d="M221.11 0H212.32V39.22H221.11V0Z" fill="black"/>
<path d="M89.94 14.88H80.47V35.17H89.94V14.88Z" fill="black"/>
<path d="M267.77 3.38H258.3V37.87H267.77V3.38Z" fill="black"/>
<path d="M289.41 0H279.94V37.87H289.41V0Z" fill="black"/>
<path d="M289.41 48.01H279.94V75.73H289.41V48.01Z" fill="black"/>
<path d="M89.94 56.12H80.47V75.05H89.94V56.12Z" fill="black"/>
<path d="M141.33 2.03003H131.86V22.32H141.33V2.03003Z" fill="black"/>
<path d="M35.83 34.49V25.7L2.01995 25.7V34.49H35.83Z" fill="black"/>
<path d="M141.32 10.14V1.34998L80.4601 1.34998V10.14L141.32 10.14Z" fill="black"/>
<path d="M141.32 22.99V14.2L80.4601 14.2V22.99L141.32 22.99Z" fill="black"/>
<path d="M141.32 37.19V28.4L80.4601 28.4V37.19H141.32Z" fill="black"/>
<path d="M148.09 50.71V41.92L75.06 41.92V50.71L148.09 50.71Z" fill="black"/>
<path d="M142 75.06V66.27H80.47V75.06H142Z" fill="black"/>
<path d="M69.65 39.2201V30.4301H56.8V39.2201H69.65Z" fill="black"/>
<path d="M217.06 22.9899V14.2H204.21V22.9899H217.06Z" fill="black"/>
<path d="M267.77 10.82V2.03003L229.23 2.03003V10.82L267.77 10.82Z" fill="black"/>
<path d="M297.52 24.34V15.55H285.35V24.34H297.52Z" fill="black"/>
<path d="M289.4 53.42V44.63H231.92V53.42H289.4Z" fill="black"/>
<path d="M35.84 64.92V56.13H2.02997V64.92H35.84Z" fill="black"/>
<path d="M194.15 34.57L177.01 2.03003H170.14L153.01 34.57L160.79 38.66L173.58 14.37L186.37 38.66L194.15 34.57Z" fill="black"/>
<path d="M207.25 44.63H174.12C165.72 44.63 158.91 51.44 158.91 59.84C158.91 68.24 165.72 75.05 174.12 75.05H207.25C215.65 75.05 222.46 68.24 222.46 59.84C222.46 51.44 215.65 44.63 207.25 44.63ZM205.2 66.97H176.17C172.24 66.97 169.05 63.78 169.05 59.85C169.05 55.92 172.24 52.73 176.17 52.73H205.2C209.13 52.73 212.32 55.92 212.32 59.85C212.32 63.78 209.13 66.97 205.2 66.97Z" fill="black"/>
<path d="M8.79 102.56H0V165.44H8.79V102.56Z" fill="black"/>
<path d="M39.89 102.56H31.1V165.44H39.89V102.56Z" fill="black"/>
<path d="M60.18 100.54H51.39V175.6H60.18V100.54Z" fill="black"/>
<path d="M89.94 115.41H80.47V135.7H89.94V115.41Z" fill="black"/>
<path d="M89.94 156.66H80.47V175.59H89.94V156.66Z" fill="black"/>
<path d="M141.33 102.56H131.86V122.85H141.33V102.56Z" fill="black"/>
<path d="M35.84 135.02V126.23H2.02997V135.02H35.84Z" fill="black"/>
<path d="M141.33 110.68V101.89H80.4699V110.68H141.33Z" fill="black"/>
<path d="M141.32 123.53V114.74H80.4601V123.53H141.32Z" fill="black"/>
<path d="M141.32 137.73V128.94H80.46V137.73H141.32Z" fill="black"/>
<path d="M148.08 151.24V142.45H75.05V151.24H148.08Z" fill="black"/>
<path d="M142 175.59V166.8H80.47V175.59H142Z" fill="black"/>
<path d="M69.65 139.76V130.97H56.8V139.76H69.65Z" fill="black"/>
<path d="M35.84 165.45V156.66H2.02995V165.45H35.84Z" fill="black"/>
<path d="M193.87 110.68H219.76V101.89H158.9V110.68H184.79C180.07 127.41 157.55 133.67 157.55 133.67L162.28 140.43C185.27 132.32 189.33 121.5 189.33 121.5C189.33 121.5 193.39 132.32 216.38 140.43L221.11 133.67C221.11 133.67 198.59 127.41 193.87 110.68Z" fill="black"/>
<path d="M223.14 153.28V144.49H155.52V153.28H223.14Z" fill="black"/>
<path d="M194.07 150.57H184.6V178.97H194.07V150.57Z" fill="black"/>
<path d="M247.49 150.57H238.02V175.59H247.49V150.57Z" fill="black"/>
<path d="M292.17 149.91H282.7V175.59H292.17V149.91Z" fill="black"/>
<path d="M253.26 110.68H269.8V101.89H228.55V110.68H244.75C244.75 110.68 245.45 126.23 225.84 138.4L231.93 144.1C231.93 144.1 242.56 140.18 249 125.17C255.44 140.18 266.07 144.1 266.07 144.1L272.16 138.4C252.55 126.23 253.25 110.68 253.25 110.68H253.26Z" fill="black"/>
<path d="M292.11 100.54H282.64V146.52H292.11V100.54Z" fill="black"/>
<path d="M292.03 126.91V118.12H268.36V126.91H292.03Z" fill="black"/>
<path d="M290.75 175.59V166.8H238.01V175.59H290.75Z" fill="black"/>
<path d="M292.11 157.84V149.05H238.01V157.84H292.11Z" fill="black"/>
</g>
<defs>
<clipPath id="clip0_1132_7288">
<rect width="297.52" height="178.97" fill="white"/>
</clipPath>
</defs>
</svg>
