<svg width="162" height="126" viewBox="0 0 162 126" fill="none" xmlns="http://www.w3.org/2000/svg">
<g id="&#235;&#130;&#168;&#236;&#158;&#144; (&#235;&#136;&#140;&#235;&#160;&#128;&#236;&#157;&#132;&#235;&#150;&#132; &#235;&#176;&#152;&#236;&#157;&#145;)" clip-path="url(#clip0_1501_7784)">
<path id="Vector" d="M75.1143 113.045C74.4269 113.045 73.7274 113.033 73.0278 112.996C68.5533 112.778 63.922 112.548 59.2424 112.027C56.7458 111.748 54.394 111.154 52.1266 110.573L50.7516 110.221C47.8571 109.506 44.9504 108.706 42.1403 107.943L40.3553 107.458C37.5934 106.707 35.4827 105.204 33.6133 103.883L33.3842 103.713C29.8865 101.241 27.4141 98.5022 25.8221 95.3391C21.8541 87.4619 24.025 81.5357 26.5457 77.9607C27.0402 77.2578 27.595 76.664 28.1257 76.1428C28.2221 74.0463 28.3307 71.8285 28.4875 69.5986C28.7649 65.4661 29.5609 61.8426 30.8996 58.5462C30.5137 57.0435 30.2484 55.6983 30.0674 54.4137C29.6333 51.3355 29.778 48.0998 30.5499 44.2581C30.7549 43.2037 31.0805 42.21 31.3821 41.3011C29.6815 38.5743 28.6322 35.5931 28.2704 32.4058C28.1257 31.0848 28.3066 29.7275 28.8131 28.5884C29.7297 26.4918 31.6112 25.1466 33.8063 24.9527C34.6143 23.3409 36.1099 22.1775 38.0275 21.7654C38.2085 21.7291 38.4014 21.6927 38.5823 21.6685C39.2698 19.5113 40.9824 17.9843 43.286 17.5359C43.6358 17.4753 43.9855 17.439 44.3353 17.439C46.1203 17.439 47.8691 18.2994 49.039 19.7416C50.3174 18.8932 51.7527 18.1176 53.405 17.3905C58.169 15.2697 63.3792 13.9609 69.8076 13.2337C72.3162 12.955 74.9696 12.8096 77.6833 12.8096C79.7819 12.8096 81.9045 12.8944 84.1961 13.0519C88.2726 13.3428 92.4336 13.9851 96.5583 14.9546C103.252 16.5301 109.126 18.6993 114.529 21.5958C118.991 23.9832 123.056 27.1462 126.988 31.2666C128.037 32.3694 128.773 33.5571 129.436 34.6114C129.665 34.9871 129.906 35.3628 130.148 35.7264C134.14 38.7197 136.817 42.7432 138.108 47.6998C139.965 54.8378 139.953 61.8062 138.047 68.3989C138.047 68.4231 138.035 68.4473 138.023 68.4837C139.579 71.4286 140.025 74.7613 139.374 78.6878C138.59 83.4263 136.66 87.4498 133.621 90.6491C130.063 94.3939 125.962 96.7449 121.452 97.6417C120.523 99.6535 119.003 101.447 116.869 103.095C114.42 104.986 111.779 106.186 109.753 107.022C102.215 110.124 94.2909 111.215 86.8253 112.063L85.1851 112.257C81.9287 112.633 78.5637 113.033 75.1023 113.033L75.1143 113.045Z" fill="#8FD2F4"/>
<path id="Vector_2" d="M77.6833 17.0877C79.7578 17.0877 81.8322 17.1725 83.8946 17.318C87.8264 17.5967 91.7461 18.2148 95.5935 19.1237C101.491 20.5174 107.172 22.5048 112.539 25.377C116.845 27.6796 120.583 30.7214 123.924 34.2359C125.022 35.3872 125.757 36.8657 126.662 38.1867C126.819 38.4048 126.939 38.6836 127.144 38.829C130.654 41.3012 132.922 44.6703 134.007 48.8149C135.611 54.9471 135.744 61.1277 133.983 67.2599C133.645 68.4354 133.609 69.2958 134.236 70.4229C135.539 72.774 135.635 75.428 135.201 78.0336C134.598 81.7056 133.139 85.0504 130.558 87.7529C127.784 90.6736 124.479 92.7943 120.439 93.5457C119.86 93.6548 119.245 93.6548 118.666 93.7517C118.485 93.776 118.219 93.9456 118.195 94.0911C117.725 96.5633 116.193 98.3084 114.3 99.7627C112.43 101.205 110.344 102.223 108.161 103.12C101.166 106.004 93.7844 107.022 86.355 107.87C82.6162 108.294 78.8773 108.803 75.1144 108.803C74.4872 108.803 73.8601 108.791 73.2329 108.755C68.7101 108.537 64.1873 108.307 59.7007 107.81C57.0233 107.519 54.394 106.755 51.7648 106.101C48.3154 105.24 44.8901 104.295 41.4528 103.362C39.3301 102.78 37.5693 101.496 35.8084 100.247C33.2515 98.4296 31.0082 96.2725 29.573 93.4245C27.3659 89.0375 26.992 84.6505 29.971 80.4089C30.4534 79.7181 31.0926 79.1243 31.7077 78.5547C32.0937 78.1911 32.2505 77.8154 32.2746 77.2943C32.3831 74.8342 32.5037 72.3619 32.6726 69.9018C32.9259 66.2661 33.6254 62.7395 35.1089 59.3947C35.3139 58.9463 35.2415 58.5706 35.1089 58.0859C34.735 56.6922 34.4214 55.2622 34.2164 53.8321C33.8063 50.8994 34.0837 47.9787 34.6626 45.1066C34.9159 43.822 35.3983 42.5858 35.8204 41.3497C35.9772 40.8892 35.9531 40.5499 35.6637 40.1378C33.8787 37.6898 32.7811 34.9509 32.4434 31.9333C32.3831 31.4001 32.4434 30.7942 32.6485 30.3215C32.9741 29.5823 33.6133 29.1945 34.2887 29.1945C34.8677 29.1945 35.4707 29.4732 35.929 30.0307C36.3029 30.4912 36.6647 30.9396 37.0386 31.388C37.1109 31.3516 37.1833 31.3032 37.2557 31.2668C37.2557 30.7214 37.2557 30.1761 37.2557 29.6429C37.2677 28.9521 37.2557 28.2613 37.3401 27.5705C37.4486 26.6616 38.0155 26.1163 38.8839 25.9224C39.0166 25.8981 39.1492 25.8739 39.2819 25.8739C39.9211 25.8739 40.4397 26.2375 40.8739 26.7586C41.3202 27.2918 41.7423 27.8493 42.1765 28.3946C42.2488 28.3583 42.3333 28.334 42.4056 28.2977C42.4297 28.0432 42.4659 27.8008 42.4659 27.5463C42.4659 26.3465 42.4297 25.1468 42.4177 23.947C42.4177 23.6925 42.4539 23.438 42.5142 23.1956C42.6951 22.3594 43.2257 21.8747 44.0579 21.7171C44.1424 21.705 44.2147 21.6929 44.2992 21.6929C44.9022 21.6929 45.5414 22.0928 45.9032 22.6745C46.4219 23.4865 46.9043 24.3227 47.4953 25.074C47.7968 25.4497 48.0018 25.6315 48.231 25.6315C48.4601 25.6315 48.6772 25.4619 49.0028 25.1468C50.7758 23.4501 52.8743 22.2625 55.0815 21.2808C59.9178 19.1358 65.0075 18.0451 70.2418 17.4634C72.7143 17.1847 75.1747 17.0635 77.6471 17.0635M66.503 96.2846C66.1412 96.2846 65.7552 96.1513 65.2969 95.8725C64.3562 95.303 63.3913 95.0606 62.4144 95.0606C61.7511 95.0606 61.0757 95.1697 60.3882 95.3514C59.942 95.4726 59.8093 95.6786 59.9661 96.0907C60.0867 96.4421 60.1711 96.8057 60.352 97.1208C61.5822 99.181 63.2707 100.49 65.7191 100.49C65.8276 100.49 65.9241 100.49 66.0326 100.49C66.0326 100.55 66.0568 100.611 66.0568 100.684C67.3473 100.393 68.7945 100.393 69.8921 99.7748C73.1123 97.9691 74.9938 95.0727 75.6933 91.437C75.826 90.7341 75.7777 90.4554 75.3918 90.4554C75.235 90.4554 75.0299 90.5039 74.7525 90.5766C71.9906 91.3886 69.9644 93.2428 68.1191 95.3272C67.5523 95.9574 67.0699 96.2967 66.5151 96.2967M77.6833 8.60449C74.8129 8.60449 72.0027 8.74992 69.3493 9.05289C62.4747 9.81638 56.8665 11.2464 51.7045 13.5369C50.9084 13.8883 50.1486 14.2519 49.437 14.6276C47.8933 13.7187 46.1324 13.2218 44.3353 13.2218C43.7202 13.2218 43.0931 13.2824 42.49 13.4036C39.5472 13.9732 37.111 15.6819 35.6275 18.0936C33.8907 18.748 32.3952 19.8266 31.2615 21.196C28.4996 22.0807 26.1598 24.1288 24.9417 26.904C24.1456 28.7218 23.8321 30.8548 24.0733 32.915C24.4351 36.0538 25.3517 39.035 26.799 41.8102C26.6543 42.3313 26.5216 42.8767 26.401 43.4463C25.5326 47.7848 25.3638 51.469 25.8703 55.0319C26.0151 56.0741 26.2201 57.1527 26.4734 58.2798C25.2673 61.6367 24.5436 65.2724 24.2663 69.3201C24.1456 71.0167 24.0612 72.7255 23.9768 74.3858C23.6753 74.7372 23.3858 75.1008 23.0964 75.5128C19.9003 80.0453 17.1263 87.4984 22.0591 97.2541C23.9647 101.047 26.8834 104.283 30.96 107.179L31.1891 107.349C33.2394 108.803 35.7843 110.609 39.2698 111.554L41.0548 112.039C43.8891 112.815 46.8078 113.602 49.7506 114.33C50.2089 114.439 50.6552 114.56 51.1135 114.681C53.405 115.263 56.0101 115.929 58.7962 116.244C63.6084 116.778 68.5171 117.02 72.8349 117.238C73.5827 117.274 74.3425 117.299 75.1264 117.299C78.8291 117.299 82.3267 116.887 85.7037 116.499L87.3199 116.317C95.087 115.432 103.337 114.305 111.369 110.997C113.636 110.064 116.603 108.706 119.45 106.513C121.488 104.937 123.08 103.241 124.262 101.387C128.857 100.09 133.03 97.4844 136.685 93.6427C140.315 89.8131 142.63 85.0383 143.547 79.4515C144.235 75.2947 143.885 71.5015 142.51 68.1567C144.222 61.2489 144.114 54.0503 142.196 46.6941C140.737 41.1194 137.673 36.381 133.295 32.8786C133.199 32.7332 133.115 32.5878 133.018 32.4302C132.294 31.2668 131.39 29.8125 130.051 28.3946C125.818 23.9349 121.391 20.5052 116.531 17.9118C110.802 14.8457 104.591 12.5431 97.5353 10.8828C93.1814 9.86486 88.8033 9.1862 84.5097 8.87111C82.1217 8.70144 79.8904 8.61661 77.6954 8.61661L77.6833 8.60449Z" fill="#8FD2F4"/>
<path id="Vector_3" d="M37.2797 31.2788C37.2797 30.7335 37.2797 30.1881 37.2797 29.6549C37.2918 28.9641 37.2797 28.2733 37.3641 27.5826C37.4727 26.6736 38.0395 26.1283 38.9079 25.9344C39.7401 25.7526 40.3793 26.1525 40.8979 26.7706C41.3442 27.3038 41.7663 27.8613 42.2005 28.4066C42.2729 28.3703 42.3573 28.346 42.4297 28.3097C42.4538 28.0552 42.49 27.8128 42.49 27.5583C42.49 26.3586 42.4538 25.1588 42.4417 23.959C42.4417 23.7045 42.4779 23.45 42.5382 23.2076C42.7191 22.3714 43.2498 21.8867 44.082 21.7291C44.7453 21.5958 45.5172 22.02 45.9273 22.6865C46.4459 23.4985 46.9283 24.3347 47.5193 25.0861C48.1103 25.8374 48.3515 25.8011 49.0148 25.1588C50.7878 23.4621 52.8863 22.2745 55.0934 21.2929C59.9298 19.1478 65.0194 18.0571 70.2538 17.4754C74.8007 16.9664 79.3356 16.9907 83.8704 17.3179C87.8022 17.5966 91.7219 18.2147 95.5693 19.1236C101.467 20.5172 107.148 22.5047 112.515 25.3769C116.82 27.6795 120.559 30.7213 123.9 34.2358C124.998 35.3871 125.733 36.8656 126.638 38.1866C126.795 38.4047 126.915 38.6835 127.12 38.8289C130.63 41.3011 132.897 44.6702 133.983 48.8148C135.587 54.947 135.72 61.1276 133.959 67.2598C133.621 68.4353 133.585 69.2957 134.212 70.4228C135.515 72.7739 135.611 75.4279 135.177 78.0335C134.574 81.7055 133.114 85.0503 130.533 87.7528C127.759 90.6735 124.455 92.7943 120.414 93.5456C119.836 93.6547 119.22 93.6547 118.642 93.7516C118.461 93.7759 118.195 93.9455 118.171 94.091C117.701 96.5632 116.169 98.3083 114.276 99.7626C112.406 101.205 110.32 102.223 108.137 103.12C101.141 106.004 93.7602 107.022 86.3308 107.87C81.9769 108.367 77.6109 108.985 73.2087 108.767C68.6859 108.549 64.1631 108.319 59.6765 107.822C56.999 107.531 54.3698 106.767 51.7406 106.113C48.2912 105.252 44.8659 104.307 41.4286 103.374C39.3059 102.792 37.5451 101.508 35.7842 100.259C33.2273 98.4417 30.984 96.2845 29.5488 93.4366C27.3417 89.0495 26.9678 84.6625 29.9468 80.4209C30.4292 79.7301 31.0684 79.1363 31.6835 78.5667C32.0695 78.2031 32.2263 77.8274 32.2504 77.3063C32.3589 74.8462 32.4795 72.3739 32.6484 69.9138C32.9017 66.2781 33.6012 62.7515 35.0847 59.4067C35.2897 58.9583 35.2173 58.5827 35.0847 58.0979C34.7108 56.7042 34.3972 55.2742 34.1922 53.8442C33.7821 50.9114 34.0595 47.9908 34.6384 45.1186C34.8917 43.834 35.3741 42.5979 35.7963 41.3617C35.953 40.9012 35.9289 40.5619 35.6395 40.1498C33.8545 37.7018 32.7569 34.963 32.4192 31.9454C32.3589 31.4121 32.4192 30.8062 32.6243 30.3335C33.2273 28.952 34.9279 28.8308 35.9048 30.0427C36.2787 30.5032 36.6405 30.9516 37.0144 31.4C37.0868 31.3636 37.1591 31.3152 37.2315 31.2788H37.2797ZM109.101 74.6159C109.198 73.2101 108.752 71.9619 108.149 70.7379C106.436 67.2598 104.735 63.7938 103.023 60.3157C101.455 57.1405 99.8991 53.9532 98.283 50.7902C97.9694 50.1722 97.5955 49.3723 97.0407 49.142C93.7843 47.7241 90.4797 46.4032 87.1509 45.1549C85.6072 44.5732 83.9789 44.2218 82.399 43.7491C79.2994 42.8039 76.1395 42.004 72.9192 41.7495C69.9282 41.5072 66.913 41.495 63.9099 41.5556C61.9681 41.592 60.0263 41.9071 58.1086 42.1979C55.0934 42.6463 52.0783 43.1674 49.0751 43.6522C47.857 43.8461 46.6268 44.04 45.3966 44.2218C44.5041 44.3551 43.877 44.8035 43.4066 45.6155C41.9352 48.1241 41.115 50.8993 40.2829 53.6503C39.6557 55.7105 39.2336 57.8434 38.6426 59.9157C37.0747 65.3692 36.5802 70.956 36.4355 76.5913C36.4234 77.1851 36.5681 77.3912 37.2074 77.3912C39.3059 77.3669 41.1753 78.0092 42.8035 79.3787C45.7102 81.8388 45.3363 86.1046 41.9955 87.8982C39.2577 89.3646 36.4837 89.2313 33.7459 87.8376C33.4323 87.6801 33.0946 87.5953 32.769 87.4741C32.769 87.8498 32.7087 88.2497 32.7931 88.6132C33.3841 91.3521 34.9882 93.4608 37.0747 95.218C41.0668 98.575 45.7343 100.599 50.7154 101.871C57.6503 103.641 64.7421 104.186 71.87 104.416C76.5736 104.562 81.2894 104.477 85.981 104.028C91.6496 103.495 97.294 102.707 102.77 101.071C106.038 100.09 109.21 98.9022 111.96 96.8056C113.576 95.5695 114.698 94.091 114.77 91.8975C114.806 90.6371 115.868 89.1828 117.677 89.4737C119.015 89.6918 120.342 89.4858 121.596 88.9768C126.457 86.9893 129.713 83.5354 130.98 78.3364C131.438 76.4459 131.426 74.5553 130.883 72.6648C130.377 70.9197 127.868 69.0776 125.685 69.4533C123.333 69.8653 122.151 71.4771 120.921 73.1496C120.041 74.3493 119.269 75.646 118.304 76.7852C116.446 78.9666 114.155 80.4694 111.272 80.942C109.331 81.2692 108.233 80.1179 108.595 78.1668C108.812 76.9912 108.957 75.8036 109.126 74.6281L109.101 74.6159ZM37.9069 86.2501C38.6667 86.0804 39.4627 86.0319 40.1622 85.7411C42.2246 84.8927 42.5382 82.9295 40.8979 81.4146C39.5833 80.2027 36.7008 79.7422 35.1209 80.5057C34.9038 80.6148 34.6987 80.8087 34.5902 81.0147C34.1922 81.7418 33.8424 82.4932 33.4806 83.2325C33.2394 83.7293 33.3359 84.1535 33.758 84.5292C34.9279 85.5956 36.2907 86.1652 37.9069 86.2501Z" fill="black"/>
<path id="Vector_4" d="M109.09 74.6161C108.921 75.7916 108.776 76.9792 108.559 78.1548C108.197 80.1059 109.295 81.2572 111.236 80.93C114.119 80.4452 116.41 78.9546 118.268 76.7732C119.233 75.634 120.004 74.3494 120.885 73.1376C122.115 71.453 123.297 69.8533 125.649 69.4413C127.832 69.0535 130.341 70.8956 130.847 72.6528C131.402 74.5434 131.414 76.4218 130.944 78.3244C129.665 83.5234 126.421 86.9652 121.56 88.9648C120.306 89.4738 118.991 89.6798 117.641 89.4617C115.831 89.1708 114.77 90.6251 114.734 91.8855C114.674 94.079 113.54 95.5575 111.924 96.7936C109.174 98.8902 105.99 100.09 102.733 101.059C97.2579 102.708 91.6255 103.483 85.9449 104.016C81.2533 104.465 76.5375 104.55 71.8339 104.404C64.718 104.174 57.6142 103.617 50.6793 101.859C45.6982 100.587 41.0307 98.563 37.0386 95.206C34.9521 93.4488 33.348 91.3401 32.757 88.6013C32.6726 88.2377 32.7329 87.8378 32.7329 87.4621C33.0585 87.5833 33.4083 87.6681 33.7098 87.8256C36.4476 89.2193 39.2216 89.3526 41.9594 87.8862C45.3002 86.0926 45.6861 81.8268 42.7674 79.3667C41.1513 77.9972 39.2698 77.3549 37.1713 77.3792C36.5441 77.3792 36.3873 77.1731 36.3994 76.5793C36.5441 70.944 37.0265 65.3572 38.6065 59.9037C39.2095 57.8314 39.6196 55.7106 40.2467 53.6383C41.0789 50.8873 41.887 48.1121 43.3705 45.6035C43.8529 44.7915 44.468 44.3431 45.3605 44.2098C46.5907 44.0159 47.8088 43.8341 49.039 43.6402C52.0542 43.1554 55.0574 42.6343 58.0725 42.1859C60.0023 41.9072 61.932 41.5921 63.8738 41.5436C66.8769 41.483 69.8921 41.4952 72.8831 41.7375C76.1034 41.992 79.2633 42.7919 82.3629 43.7372C83.9428 44.2219 85.571 44.5612 87.1148 45.1429C90.4436 46.4033 93.7482 47.7243 97.0046 49.1301C97.5594 49.3724 97.9333 50.1723 98.2469 50.7782C99.851 53.9413 101.407 57.1285 102.987 60.3037C104.699 63.7697 106.4 67.2478 108.113 70.7259C108.716 71.9378 109.162 73.186 109.065 74.6039L109.09 74.6161ZM79.6372 75.5856C81.0844 75.7552 82.7488 75.937 84.4132 76.1309C84.7992 76.1673 85.1972 76.2279 85.571 76.1915C86.4877 76.1067 87.0063 75.3553 86.9098 74.4343C86.8374 73.7071 86.8254 72.98 86.8133 72.2408C86.8133 70.944 86.8495 69.6594 86.8133 68.3627C86.7771 67.3447 86.6927 67.3084 85.6555 67.3084C84.4373 67.3084 83.2192 67.3326 82.0011 67.272C81.6634 67.2599 81.1568 67.0539 81.0483 66.7994C80.9518 66.557 81.193 66.0601 81.4221 65.8178C82.5559 64.6422 83.7258 63.5031 84.9077 62.376C85.2695 62.0245 85.4022 61.7095 85.1972 61.2247C84.3529 59.2251 83.2554 57.4073 81.6031 55.9651C78.805 53.5413 75.5003 53.6019 72.847 56.0984C71.5565 57.3103 70.7122 58.8009 70.1092 60.4491C68.6619 64.4241 68.6498 68.496 69.3855 72.6043C69.5785 73.6829 69.6026 73.6587 68.5533 74.0344C67.5402 74.3979 66.5271 74.7857 65.5502 75.2341C64.8145 75.5735 64.4768 76.4097 64.706 77.0883C64.9351 77.7912 65.6226 78.1548 66.503 78.0094C66.7322 77.973 66.9492 77.8882 67.1663 77.8276C68.9151 77.2822 70.6398 76.5551 72.4369 76.2521C74.7405 75.8643 77.0923 75.8158 79.6613 75.6098L79.6372 75.5856ZM66.0447 103.774C67.8417 103.726 69.5544 103.653 71.1102 102.877C73.2208 101.811 74.9214 100.235 76.3084 98.3327C78.4431 95.4121 79.1306 92.0188 79.2753 88.4922C79.2995 87.8499 79.3839 87.4984 80.1558 87.4257C81.4221 87.3045 81.9408 85.9472 81.1447 84.9413C80.9156 84.6626 80.6261 84.4202 80.3246 84.2142C79.3356 83.5356 78.6482 82.6751 78.4311 81.4511C78.3346 80.9058 78.1899 80.3604 77.9607 79.8635C77.4542 78.7607 76.2119 78.6517 75.6692 79.7424C75.3677 80.3604 75.428 81.1481 75.3073 81.8632C75.2591 82.154 75.2591 82.5782 75.0782 82.7115C73.5706 83.8022 72.1113 84.9898 70.4951 85.8866C65.9603 88.4074 61.2083 90.4191 56.1428 91.5704C55.1418 91.8006 54.0322 91.8006 53.007 91.6552C51.415 91.4249 50.9688 90.5645 51.4512 89.086C51.4632 89.0375 51.4753 89.0012 51.4874 88.9527C51.6442 88.4074 51.6442 87.8984 51.1376 87.5227C50.619 87.1349 50.1124 87.2197 49.6059 87.5469C47.9898 88.5891 47.5435 91.2916 48.7978 92.758C50.0642 94.2244 51.6803 95.0364 53.6221 95.0727C54.5267 95.097 55.4433 94.9515 56.3479 94.8182C57.18 94.697 57.2283 94.7576 57.3127 95.5696C57.4092 96.5512 57.4454 97.5813 57.771 98.4903C58.8565 101.447 61.8355 104.041 66.0206 103.81L66.0447 103.774ZM50.8361 55.6864C49.1355 55.6864 47.9415 56.256 46.8922 57.1164C45.059 58.6191 44.0579 60.6794 43.4308 62.8971C42.6951 65.4905 42.2006 68.1567 42.7192 70.8834C42.8398 71.5258 42.6468 71.8287 41.9714 71.853C41.489 71.8772 41.0066 71.962 40.5483 72.0711C39.8126 72.2529 39.4025 72.7982 39.3904 73.5132C39.3904 74.1677 39.7884 74.713 40.5121 74.9069C40.9945 75.0281 41.5011 75.1251 42.0076 75.1372C46.1203 75.1978 50.2089 75.4159 54.201 76.5793C55.781 77.0398 56.77 76.4218 57.168 74.8342C57.5177 73.4527 57.6745 72.0226 57.9157 70.6168C58.0002 70.0836 57.7831 69.7322 57.3248 69.4171C56.0825 68.5566 54.8523 67.6598 53.6583 66.7267C52.7537 66.0359 52.7658 65.4542 53.6945 64.824C54.6473 64.1817 55.6363 63.6121 56.6373 63.0425C56.9991 62.8365 57.2283 62.6305 57.0956 62.1821C56.6132 60.546 55.8895 59.0312 54.7438 57.7708C53.6221 56.5347 52.3196 55.65 50.8602 55.6985L50.8361 55.6864ZM92.9763 88.5407C94.4357 88.6134 95.8227 88.2862 97.1011 87.6317C98.7293 86.8077 99.9595 85.5836 100.14 83.6446C100.333 81.5965 99.26 80.1665 97.7042 79.0637C95.5574 77.5488 93.1211 77.2459 90.5883 77.5973C88.5983 77.876 86.958 78.7001 85.9208 80.6028C84.8836 82.5176 84.9801 84.4324 86.4877 85.9957C88.2606 87.8378 90.5039 88.4922 92.9643 88.5285L92.9763 88.5407ZM67.4196 50.4147C67.4076 51.7477 68.5533 52.39 69.7956 51.8689C70.8328 51.4326 71.8339 50.8752 72.9073 50.5843C76.6582 49.5785 80.4211 48.815 84.1479 50.7782C84.9439 51.2024 85.764 50.9237 86.162 50.2814C86.6203 49.53 86.5118 48.5726 85.7158 48.0878C84.775 47.5061 83.7499 46.9244 82.6885 46.6942C79.4683 45.9791 76.2481 46.2336 73.1002 47.1426C71.5444 47.591 70.073 48.3181 68.5775 48.9483C67.9141 49.2391 67.4558 49.7481 67.4317 50.4147H67.4196ZM124.346 78.1911C124.503 77.8518 124.624 77.6094 124.732 77.3671C125.203 76.3491 125.685 75.319 126.155 74.2889C126.361 73.8405 126.312 73.3436 125.878 73.1376C125.54 72.98 125.046 72.9921 124.672 73.0891C124.407 73.1618 124.153 73.4648 123.972 73.7314C122.019 76.4824 120.439 79.4515 119.088 82.5418C118.654 83.5234 118.955 84.3839 119.715 84.7474C120.475 85.1231 121.319 84.7959 121.814 83.8507C122.163 83.1841 122.453 82.4691 122.73 81.7662C122.899 81.342 123.068 81.1845 123.587 81.2451C124.648 81.3784 125.733 81.4269 126.807 81.4269C127.591 81.4269 128.194 80.7967 128.302 80.0453C128.387 79.3909 127.965 78.6638 127.265 78.4214C126.867 78.276 126.421 78.2275 125.987 78.2033C125.492 78.1669 124.986 78.2033 124.358 78.2033L124.346 78.1911ZM51.8371 47.494C50.3416 47.7606 48.9667 47.8576 47.7003 48.2696C46.6631 48.6089 45.6741 49.227 44.8057 49.8935C44.1906 50.3662 44.2389 51.0812 44.6369 51.6387C45.059 52.2325 45.6861 52.4264 46.3977 52.1719C46.651 52.0749 46.8922 51.9295 47.1576 51.8447C47.9777 51.566 48.8099 51.1176 49.6421 51.0933C51.3909 51.0327 53.1518 51.166 54.9126 51.3115C55.7086 51.3721 56.4805 51.6629 57.2645 51.7962C57.9761 51.9174 58.6032 51.5781 58.9168 50.9479C59.2183 50.3541 59.1218 49.6875 58.567 49.1907C58.2293 48.8998 57.8193 48.6089 57.3971 48.512C55.5157 48.1242 53.6221 47.8091 51.8492 47.4819L51.8371 47.494ZM54.3216 82.5176C54.5508 83.2326 54.7076 83.984 55.0332 84.6505C55.7689 86.1411 57.7831 87.1227 59.2424 86.7834C60.1108 86.5774 60.7018 85.8624 60.6777 85.0747C60.6415 84.299 60.0264 83.7295 59.1218 83.5962C58.8082 83.5477 58.4585 83.5113 58.2052 83.3417C57.9881 83.1962 57.7831 82.8811 57.771 82.6266C57.771 82.4327 58.0605 82.2146 58.2414 82.0328C58.3138 81.9601 58.4464 81.9359 58.5429 81.8874C59.2786 81.5117 59.5681 80.9664 59.4354 80.2635C59.3148 79.6212 58.76 79.2091 57.9519 79.1606C55.974 79.0395 54.4543 80.4816 54.3216 82.5297V82.5176Z" fill="white"/>
<path id="Vector_5" d="M37.8948 86.238C36.2787 86.1531 34.9158 85.5956 33.7459 84.5171C33.3238 84.1414 33.2273 83.7172 33.4685 83.2203C33.8303 82.469 34.1922 81.7297 34.5781 81.0026C34.6867 80.7966 34.8917 80.5905 35.1088 80.4936C36.6887 79.7301 39.5713 80.1906 40.8859 81.4025C42.5261 82.9053 42.2126 84.8806 40.1502 85.729C39.4507 86.0198 38.6546 86.0804 37.8948 86.238Z" fill="#F19D9F"/>
<path id="Vector_6" d="M79.6492 75.5855C77.0803 75.8036 74.7284 75.84 72.4248 76.2278C70.6278 76.5308 68.9031 77.2579 67.1543 77.8032C66.9372 77.876 66.7201 77.9487 66.4909 77.985C65.6225 78.1305 64.9351 77.7669 64.6939 77.064C64.4647 76.3853 64.8024 75.5491 65.5381 75.2098C66.515 74.7614 67.5281 74.3736 68.5412 74.01C69.5905 73.6222 69.5664 73.6586 69.3734 72.58C68.6498 68.4717 68.6618 64.3998 70.0971 60.4248C70.7001 58.7766 71.5444 57.286 72.8349 56.0741C75.5003 53.5776 78.7929 53.5291 81.591 55.9408C83.2433 57.3708 84.3529 59.1887 85.1851 61.2004C85.3901 61.6851 85.2574 62.0124 84.8956 62.3517C83.7137 63.4787 82.5438 64.6179 81.4101 65.7934C81.1688 66.0358 80.9276 66.5448 81.0362 66.7751C81.1447 67.0296 81.6513 67.2356 81.989 67.2477C83.2071 67.3083 84.4253 67.2841 85.6434 67.2841C86.6927 67.2841 86.7771 67.3204 86.8012 68.3384C86.8374 69.623 86.8012 70.9197 86.8012 72.2164C86.8012 72.9436 86.8133 73.6828 86.8977 74.41C86.9942 75.331 86.4756 76.0824 85.559 76.1672C85.173 76.2036 84.7871 76.143 84.4011 76.1066C82.7368 75.9248 81.0724 75.7309 79.6251 75.5613L79.6492 75.5855Z" fill="black"/>
<path id="Vector_7" d="M66.0567 103.774C61.8716 104.016 58.8926 101.411 57.8071 98.4537C57.4694 97.5448 57.4453 96.5147 57.3488 95.533C57.2765 94.7211 57.2162 94.6605 56.384 94.7816C55.4794 94.915 54.5628 95.0483 53.6582 95.0361C51.7285 94.9998 50.1003 94.1878 48.8339 92.7214C47.5796 91.2672 48.0259 88.5525 49.642 87.5103C50.1486 87.1831 50.6672 87.1104 51.1737 87.4861C51.6803 87.8618 51.6923 88.3708 51.5235 88.9161C51.5114 88.9646 51.4994 89.0009 51.4873 89.0494C51.0049 90.54 51.4511 91.4005 53.0431 91.6186C54.0683 91.764 55.1779 91.764 56.1789 91.5338C61.2445 90.3825 65.9964 88.3708 70.5312 85.85C72.1474 84.9532 73.6188 83.7777 75.1143 82.6749C75.2952 82.5416 75.2952 82.1174 75.3435 81.8266C75.4641 81.1115 75.3917 80.3238 75.7053 79.7058C76.248 78.6272 77.4903 78.7241 77.9968 79.827C78.226 80.3238 78.3707 80.8692 78.4672 81.4145C78.6722 82.6385 79.3597 83.499 80.3607 84.1776C80.6623 84.3836 80.9517 84.626 81.1809 84.9048C81.9769 85.9106 81.4583 87.2679 80.1919 87.3891C79.42 87.4618 79.3356 87.8133 79.3115 88.4556C79.1667 91.9822 78.4793 95.3755 76.3445 98.2961C74.9575 100.199 73.269 101.774 71.1463 102.841C69.5905 103.628 67.8779 103.701 66.0808 103.737L66.0567 103.774ZM66.0567 100.502C66.0567 100.562 66.0808 100.623 66.0808 100.696C67.3713 100.405 68.8186 100.405 69.9161 99.7867C73.1364 97.981 75.0178 95.0846 75.7173 91.449C75.9103 90.4552 75.7173 90.3098 74.7766 90.5885C72.0147 91.4005 69.9885 93.2547 68.1432 95.3391C67.2145 96.3813 66.515 96.6116 65.321 95.8966C63.741 94.9392 62.1128 94.9271 60.4123 95.3755C59.966 95.4967 59.8333 95.7027 59.9901 96.1147C60.1107 96.4662 60.1952 96.8419 60.3761 97.1448C61.6666 99.2899 63.4395 100.623 66.0567 100.502Z" fill="black"/>
<path id="Vector_8" d="M50.8481 55.6862C52.2954 55.6498 53.61 56.5345 54.7316 57.7585C55.8774 59.031 56.6011 60.5337 57.0835 62.1698C57.2162 62.6303 56.987 62.8242 56.6252 63.0302C55.6362 63.5998 54.6352 64.1694 53.6824 64.8117C52.7537 65.4419 52.7416 66.0236 53.6462 66.7144C54.8402 67.6475 56.0704 68.5443 57.3126 69.4048C57.771 69.7199 57.988 70.0713 57.9036 70.6045C57.6624 72.0103 57.5056 73.4404 57.1559 74.8219C56.7578 76.4095 55.7689 77.0275 54.1889 76.567C50.1968 75.4036 46.1082 75.1855 41.9955 75.1249C41.501 75.1249 40.9945 75.0279 40.5 74.8946C39.7763 74.7007 39.3662 74.1554 39.3783 73.5009C39.3783 72.7859 39.8125 72.2406 40.5361 72.0588C41.0065 71.9497 41.4889 71.8528 41.9593 71.8407C42.6347 71.8164 42.8277 71.5135 42.7071 70.8712C42.1764 68.1444 42.683 65.4782 43.4187 62.8848C44.0458 60.6671 45.0469 58.619 46.8801 57.1041C47.9294 56.2437 49.1234 55.6741 50.824 55.6741L50.8481 55.6862Z" fill="black"/>
<path id="Vector_9" d="M92.9883 88.5405C90.5159 88.5041 88.2846 87.8618 86.5117 86.0077C85.0041 84.4443 84.9076 82.5174 85.9449 80.6147C86.9821 78.7121 88.6223 77.9001 90.6124 77.6093C93.1451 77.2457 95.5814 77.5608 97.7282 79.0757C99.284 80.1785 100.37 81.6085 100.164 83.6566C99.9836 85.5956 98.7534 86.8075 97.1252 87.6437C95.8347 88.2981 94.4597 88.6253 93.0004 88.5526L92.9883 88.5405ZM92.9521 85.9592C93.8085 85.741 94.6889 85.5835 95.5211 85.2926C96.4256 84.9775 97.2699 84.4686 97.3543 83.3657C97.4388 82.2508 96.6186 81.7055 95.8226 81.1601C95.7502 81.1116 95.6658 81.0753 95.5814 81.0268C93.1331 79.8755 90.745 79.924 88.4414 81.4025C87.6575 81.8994 87.4163 82.6628 87.8866 83.4627C88.1158 83.8505 88.4414 84.2141 88.7912 84.4807C89.9973 85.4138 91.4084 85.7895 92.9401 85.9471L92.9521 85.9592Z" fill="black"/>
<path id="Vector_10" d="M67.4316 50.4267C67.4678 49.7602 67.914 49.2512 68.5774 48.9604C70.0729 48.318 71.5443 47.603 73.1002 47.1546C76.248 46.2578 79.4803 46.0033 82.6885 46.7062C83.7498 46.9365 84.775 47.5182 85.7157 48.0999C86.5117 48.5847 86.6203 49.5542 86.162 50.2934C85.776 50.9357 84.9438 51.2145 84.1478 50.7903C80.421 48.8149 76.6581 49.5784 72.9072 50.5964C71.8338 50.8873 70.8327 51.4447 69.7955 51.881C68.5533 52.4021 67.3954 51.7477 67.4196 50.4267H67.4316Z" fill="black"/>
<path id="Vector_11" d="M124.37 78.191C124.998 78.191 125.504 78.1667 125.999 78.191C126.433 78.2273 126.879 78.2758 127.277 78.4091C127.977 78.6515 128.399 79.3786 128.314 80.0331C128.218 80.7844 127.603 81.4146 126.819 81.4146C125.745 81.4146 124.66 81.3661 123.599 81.2328C123.08 81.1722 122.911 81.3177 122.742 81.7539C122.465 82.4568 122.187 83.1718 121.826 83.8384C121.331 84.7837 120.487 85.1109 119.727 84.7352C118.967 84.3595 118.666 83.4991 119.1 82.5295C120.451 79.4392 122.031 76.4822 123.984 73.7191C124.165 73.4646 124.407 73.1495 124.684 73.0768C125.07 72.9799 125.552 72.9677 125.89 73.1253C126.324 73.3313 126.373 73.8282 126.167 74.2766C125.697 75.3067 125.227 76.3247 124.744 77.3548C124.636 77.5972 124.515 77.8395 124.358 78.1789L124.37 78.191Z" fill="black"/>
<path id="Vector_12" d="M51.8491 47.4939C53.6221 47.8211 55.5156 48.1362 57.3971 48.524C57.8192 48.6088 58.2413 48.8997 58.567 49.2027C59.1338 49.6995 59.2183 50.3661 58.9167 50.9599C58.6032 51.578 57.9639 51.9294 57.2644 51.8082C56.4805 51.6628 55.7086 51.3841 54.9126 51.3235C53.1638 51.1902 51.4029 51.0568 49.642 51.1053C48.8098 51.1296 47.9776 51.578 47.1575 51.8567C46.8922 51.9415 46.663 52.0991 46.3977 52.1839C45.6861 52.4384 45.0589 52.2445 44.6368 51.6507C44.2388 51.0932 44.1906 50.3782 44.8057 49.9056C45.6861 49.239 46.663 48.621 47.7002 48.2816C48.9666 47.8696 50.3415 47.7726 51.8371 47.506L51.8491 47.4939Z" fill="black"/>
<path id="Vector_13" d="M54.3457 82.5175C54.4784 80.4694 55.998 79.0273 57.976 79.1485C58.7841 79.1969 59.3268 79.609 59.4595 80.2513C59.5921 80.9542 59.3027 81.4874 58.567 81.8752C58.4705 81.9237 58.3378 81.9479 58.2654 82.0206C58.0845 82.2024 57.783 82.4206 57.7951 82.6145C57.7951 82.869 58.0122 83.1841 58.2293 83.3295C58.4825 83.4991 58.8323 83.5355 59.1459 83.584C60.0504 83.7173 60.6655 84.299 60.7017 85.0625C60.7379 85.8502 60.1349 86.5652 59.2665 86.7712C57.8071 87.1106 55.793 86.1411 55.0573 84.6383C54.7316 83.9718 54.5869 83.2204 54.3457 82.5054V82.5175Z" fill="black"/>
<path id="Vector_14" d="M92.9522 85.9592C91.4084 85.8016 90.0094 85.4259 88.8033 84.4928C88.4415 84.214 88.1279 83.8626 87.8987 83.4748C87.4284 82.6749 87.6696 81.9114 88.4535 81.4146C90.7692 79.9361 93.1452 79.8876 95.5935 81.0389C95.6779 81.0752 95.7623 81.1116 95.8347 81.1722C96.6307 81.7054 97.4509 82.2629 97.3664 83.3778C97.282 84.4807 96.4377 84.9896 95.5332 85.3047C94.701 85.5956 93.8206 85.7531 92.9643 85.9713L92.9522 85.9592Z" fill="#F19D9F"/>
<path id="Vector_15" d="M66.2377 100.781C63.138 100.732 61.2083 99.1203 60.0023 96.6844C59.4716 95.618 59.6163 95.4483 60.7621 95.1696C62.342 94.7818 63.8255 94.9514 65.2487 95.7755C66.5995 96.5632 67.2749 96.3451 68.3 95.1817C70.2056 93.0488 72.2922 91.1461 75.1264 90.322C76.1034 90.0312 76.3084 90.1766 76.1275 91.1461C75.4159 94.9636 73.4379 97.9812 70.0609 99.8717C68.9634 100.49 67.5161 100.49 66.2377 100.769V100.781Z" fill="white"/>
<path id="Vector_16" d="M148.757 3.02972C154.402 3.02972 158.985 7.63489 158.985 13.3065V112.693C158.985 118.365 154.402 122.97 148.757 122.97H13.2427C7.59827 122.97 3.01519 118.365 3.01519 112.693V13.3065C3.01519 7.63489 7.59827 3.02972 13.2427 3.02972H148.757ZM148.757 0H13.2427C5.94595 0 0 5.97461 0 13.3065V112.693C0 120.025 5.94595 126 13.2427 126H148.757C156.054 126 162 120.025 162 112.693V13.3065C162 5.97461 156.054 0 148.757 0Z" fill="#8FD2F4"/>
</g>
<defs>
<clipPath id="clip0_1501_7784">
<rect width="162" height="126" fill="white"/>
</clipPath>
</defs>
</svg>
