<svg width="138" height="118" viewBox="0 0 138 118" fill="none" xmlns="http://www.w3.org/2000/svg">
<g id="Group 685">
<path id="Vector" d="M61.3129 115.18C60.5321 115.18 59.7513 115.166 58.9705 115.124C53.7322 114.87 48.3235 114.602 42.8722 114.01C40.0897 113.699 37.4067 113.023 34.8088 112.374L33.1621 111.965C29.7976 111.133 26.3905 110.231 23.1112 109.343L20.9676 108.765C18.0858 107.989 15.7577 106.354 13.6992 104.915L13.4295 104.718C9.59658 102.039 6.91353 99.1063 5.1958 95.7506C1.83133 89.152 2.05847 83.075 5.87721 77.7171C6.54443 76.7724 7.35361 76.0111 8.07761 75.3343C8.21957 72.2183 8.36153 69.5957 8.54608 66.9168C8.88678 62.0665 9.85211 57.8648 11.4989 54.072C10.9878 52.1544 10.6187 50.4343 10.3774 48.8128C9.8947 45.4712 10.0793 41.9463 10.931 37.7023C11.2149 36.2641 11.6976 34.9388 12.1519 33.6557L12.1945 33.5429C10.0367 30.4128 8.71643 26.9443 8.29055 23.2361C8.14859 22.0658 8.31894 20.8814 8.75902 19.8944C9.58239 18.0474 11.3143 16.9053 13.2876 16.9053C13.5857 16.9053 13.8696 16.9335 14.1535 16.9758C14.5794 15.016 16.0132 13.606 18.1 13.1689C18.4549 13.0984 18.8098 13.0561 19.1647 13.0561C19.4345 13.0561 19.7184 13.0843 20.0307 13.1407C20.0591 12.8446 20.1017 12.5203 20.1869 12.1678C20.6269 10.0952 22.1033 8.68522 24.2327 8.27633C24.5025 8.21993 24.7722 8.19173 25.0561 8.19173C26.7312 8.19173 28.378 9.12231 29.3433 10.631C29.3433 10.631 29.9538 11.5897 30.0531 11.7589C31.8418 10.349 33.957 9.10821 36.5975 7.95204C41.992 5.5833 47.9402 4.10283 55.2795 3.28505C58.1471 2.96076 61.1851 2.80566 64.3082 2.80566C66.7216 2.80566 69.1775 2.89026 71.8322 3.08766C76.5027 3.42605 81.2867 4.14513 86.0424 5.259C93.7367 7.04966 100.494 9.5171 106.684 12.7882C111.723 15.4531 116.351 19.0062 120.809 23.645C121.887 24.7729 122.668 25.9996 123.421 27.1981C123.719 27.6634 124.017 28.1427 124.329 28.5939C124.386 28.6785 124.443 28.7631 124.5 28.8477C128.971 32.0624 131.953 36.4333 133.386 41.8335C135.487 49.7716 135.459 57.4841 133.33 64.7877C133.074 65.6901 133.131 65.8593 133.386 66.3105C135.061 69.3137 135.53 72.8104 134.834 76.998C133.983 82.088 131.896 86.3884 128.631 89.8005C124.684 93.9176 120.156 96.4556 115.173 97.372C114.889 97.4284 114.619 97.4566 114.335 97.4848C113.2 100.671 110.9 102.73 109.154 104.069C106.471 106.114 103.532 107.439 101.275 108.356C92.6578 111.866 83.5013 113.107 74.8559 114.066L72.9253 114.292C69.1491 114.729 65.2452 115.18 61.2987 115.18H61.3129ZM15.9848 91.9296C16.6094 92.7615 17.3902 93.5651 18.3556 94.3688C22.3021 97.654 27.1855 100.009 33.2898 101.531C41.7365 103.66 50.3109 104.182 57.5793 104.408C59.1693 104.464 60.7592 104.478 62.3492 104.478C66.3241 104.478 70.1996 104.309 73.8338 103.971C79.5832 103.435 86.3689 102.617 93.0411 100.629C96.4198 99.628 99.9546 98.3872 102.964 96.1172C104.469 94.9751 105.108 93.9458 105.15 92.5641C105.236 89.8146 107.393 86.9665 110.871 86.9665C111.184 86.9665 111.524 86.9947 111.865 87.0511C112.135 87.0934 112.405 87.1216 112.674 87.1216C113.412 87.1216 114.179 86.9665 114.946 86.6563C120.014 84.6119 123.08 81.1856 124.315 76.2226C124.755 74.4601 124.727 72.7822 124.23 71.1044C124.06 70.5122 122.725 69.3419 121.533 69.3419C121.462 69.3419 121.391 69.3419 121.32 69.356C119.744 69.6239 118.935 70.6391 117.501 72.5566C117.132 73.0501 116.791 73.5436 116.45 74.0512C115.797 75.01 115.116 75.997 114.293 76.9416C111.539 80.1423 108.188 82.088 104.327 82.7366C103.915 82.8071 103.518 82.8353 103.134 82.8353C101.445 82.8353 99.9688 82.1867 98.9892 81.0164C97.9529 79.7757 97.5696 78.0696 97.9245 76.1944C98.0949 75.292 98.2226 74.3896 98.3504 73.4872L98.5208 72.317C98.5634 71.471 98.3078 70.5968 97.6832 69.3419L90.8833 55.6653C89.3075 52.4928 87.7176 49.3204 86.0992 46.1762L86.0282 46.0352C85.943 45.8519 85.8011 45.584 85.6875 45.4007C82.2095 43.9203 78.5611 42.468 74.5294 40.9593C73.4931 40.5786 72.3858 40.2825 71.2217 39.9724C70.5119 39.7891 69.8163 39.5917 69.1207 39.3802C66.2247 38.506 62.406 37.4767 58.5588 37.1665C56.4152 36.9973 54.1013 36.9127 51.4892 36.9127C50.4103 36.9127 49.3172 36.9268 48.2383 36.955C46.3502 36.9973 44.4479 37.2793 42.4179 37.5754L41.7507 37.6741C39.3515 38.0266 36.9666 38.4073 34.5817 38.8021L31.1462 39.352C29.7976 39.5635 28.4348 39.775 27.0861 39.9865L26.8022 40.0288C26.6887 40.0429 26.6461 40.071 26.6461 40.071C26.6319 40.071 26.5609 40.1415 26.4757 40.3107C24.9709 42.8487 24.105 45.6968 23.168 48.7141L23.0687 49.0384C22.6996 50.251 22.3872 51.4918 22.0607 52.803C21.7768 53.9733 21.4787 55.1295 21.138 56.2856C19.7468 61.0795 18.9802 66.3387 18.7105 73.1347C21.0954 73.459 23.239 74.4178 25.1271 75.9829C27.4836 77.9427 28.7045 80.8472 28.4064 83.7377C28.1083 86.6281 26.3763 89.1096 23.6933 90.5337C21.7626 91.563 19.7326 92.0847 17.6741 92.0847C17.1205 92.0847 16.5669 92.0424 16.0132 91.9719L15.9848 91.9296ZM15.417 82.6661C15.9848 82.9904 16.6094 83.1878 17.3334 83.2583C17.518 83.2301 17.7025 83.1878 17.8871 83.1596C18.3698 83.075 18.824 83.0045 19.0938 82.8917C19.1931 82.8494 19.2641 82.8071 19.3351 82.7789C19.2783 82.7225 19.2215 82.6379 19.1221 82.5533C18.7247 82.1867 17.6032 81.7919 16.4817 81.7919C16.2261 81.7919 16.0132 81.806 15.8571 81.8483C15.7151 82.1162 15.5731 82.3982 15.4312 82.6661H15.417Z" fill="#90D3F5"/>
<path id="Vector_2" d="M64.3368 5.63986C66.7785 5.63986 69.2202 5.73856 71.6478 5.90775C76.2757 6.23205 80.8894 6.95113 85.4179 8.0086C92.3598 9.63006 99.0462 11.9424 105.363 15.284C110.431 17.963 114.832 21.502 118.765 25.5909C120.056 26.9303 120.922 28.6505 121.987 30.1874C122.172 30.4412 122.314 30.7654 122.555 30.9346C126.686 33.811 129.355 37.7307 130.632 42.5528C132.521 49.6872 132.677 56.878 130.604 64.0124C130.207 65.3801 130.164 66.3812 130.902 67.6924C132.435 70.4278 132.549 73.5156 132.038 76.547C131.328 80.8192 129.61 84.7107 126.572 87.8549C123.307 91.253 119.418 93.7204 114.662 94.5946C113.98 94.7215 113.256 94.7215 112.575 94.8343C112.362 94.8625 112.05 95.0599 112.021 95.2291C111.468 98.1054 109.665 100.136 107.436 101.828C105.236 103.506 102.78 104.69 100.21 105.733C91.9765 109.089 83.2885 110.273 74.5437 111.26C70.143 111.754 65.7422 112.346 61.313 112.346C60.5748 112.346 59.8366 112.332 59.1126 112.29C53.7891 112.036 48.4656 111.768 43.1846 111.19C40.0331 110.851 36.9384 109.963 33.8436 109.202C29.7835 108.201 25.7519 107.101 21.706 106.015C19.2075 105.339 17.1348 103.844 15.0622 102.392C12.0526 100.277 9.41218 97.767 7.72284 94.4536C5.12496 89.3495 4.68488 84.2454 8.19131 79.3105C8.75916 78.5069 9.51155 77.816 10.2355 77.1533C10.6898 76.7303 10.8744 76.2932 10.9028 75.6869C11.0305 72.8247 11.1725 69.9484 11.3712 67.0862C11.6694 62.8563 12.4927 58.7533 14.2388 54.8617C14.4802 54.3401 14.395 53.903 14.2388 53.339C13.7988 51.7175 13.4297 50.0538 13.1883 48.39C12.7057 44.9779 13.0322 41.5799 13.7136 38.2383C14.0117 36.7437 14.5795 35.3055 15.0764 33.8674C15.261 33.3316 15.2326 32.9368 14.8919 32.4574C12.7908 29.6093 11.499 26.4227 11.1015 22.9119C11.0305 22.2916 11.1015 21.5866 11.3428 21.0367C11.7261 20.1766 12.4785 19.7254 13.2735 19.7254C13.9549 19.7254 14.6647 20.0497 15.2042 20.6983C15.6443 21.2341 16.0701 21.7558 16.5102 22.2775C16.5954 22.2352 16.6806 22.1788 16.7657 22.1365C16.7657 21.502 16.7657 20.8675 16.7657 20.2471C16.7799 19.4434 16.7657 18.6397 16.8651 17.8361C16.9929 16.7786 17.6601 16.1441 18.6822 15.9185C18.8384 15.8903 18.9945 15.8621 19.1507 15.8621C19.9031 15.8621 20.5135 16.2851 21.0246 16.8914C21.5498 17.5118 22.0467 18.1604 22.5577 18.7948C22.6429 18.7525 22.7423 18.7243 22.8275 18.682C22.8559 18.3859 22.8984 18.104 22.8984 17.8079C22.8984 16.412 22.8559 15.0161 22.8417 13.6203C22.8417 13.3242 22.8842 13.0281 22.9552 12.7461C23.1682 11.7732 23.7928 11.2092 24.7723 11.0259C24.8717 11.0118 24.9569 10.9977 25.0562 10.9977C25.7661 10.9977 26.5184 11.463 26.9443 12.1398C27.5548 13.0845 28.1226 14.0574 28.8182 14.9315C29.1731 15.3686 29.4144 15.5801 29.6842 15.5801C29.9539 15.5801 30.2094 15.3827 30.5927 15.0161C32.6795 13.0422 35.1497 11.6604 37.7475 10.5183C43.4402 8.0227 49.4309 6.75373 55.592 6.07695C58.5022 5.75266 61.3982 5.61166 64.3084 5.61166M16.6664 75.7856H16.6948C16.7373 75.7856 16.7799 75.7856 16.8225 75.7856C19.2359 75.7856 21.4079 76.5329 23.2817 78.098C26.703 80.9602 26.2629 85.9233 22.3306 88.01C20.769 88.8278 19.2075 89.2226 17.6459 89.2226C15.9708 89.2226 14.2956 88.7714 12.6205 87.9395C12.2514 87.7562 11.8539 87.6575 11.4706 87.5165C11.4706 87.9536 11.3996 88.4189 11.499 88.8419C12.1946 92.0284 14.0827 94.4818 16.5386 96.5262C21.2375 100.432 26.7314 102.786 32.5944 104.267C40.7571 106.325 49.1044 106.96 57.4943 107.228C59.1126 107.284 60.731 107.312 62.3493 107.312C66.2674 107.312 70.1856 107.157 74.1037 106.791C80.7758 106.17 87.4196 105.254 93.8646 103.35C97.7117 102.208 101.445 100.827 104.682 98.3874C106.584 96.9492 107.905 95.2291 107.99 92.677C108.032 91.3376 109.069 89.8148 110.871 89.8148C111.042 89.8148 111.226 89.8289 111.411 89.8571C111.837 89.9276 112.263 89.9558 112.674 89.9558C113.81 89.9558 114.932 89.7161 116.025 89.279C121.746 86.9667 125.579 82.9483 127.069 76.8995C127.609 74.7 127.594 72.5004 126.956 70.3009C126.402 68.4538 123.918 66.5081 121.533 66.5081C121.291 66.5081 121.064 66.5222 120.823 66.5645C118.055 67.0438 116.664 68.9191 115.216 70.8649C114.179 72.2607 113.271 73.7694 112.135 75.0947C109.949 77.6327 107.252 79.381 103.859 79.9309C103.603 79.9732 103.362 79.9873 103.12 79.9873C101.303 79.9873 100.324 78.7043 100.707 76.688C100.963 75.3203 101.133 73.9386 101.332 72.5709C101.445 70.9354 100.92 69.4831 100.21 68.059C98.1944 64.0124 96.1928 59.9799 94.1769 55.9333C92.3314 52.2392 90.5001 48.531 88.5979 44.851C88.2288 44.1319 87.7887 43.2013 87.1357 42.9334C83.3027 41.2838 79.413 39.7469 75.4949 38.2947C73.6778 37.6179 71.7613 37.209 69.9016 36.6591C66.2532 35.5593 62.5339 34.6287 58.7435 34.3327C56.3302 34.1353 53.8885 34.0648 51.4609 34.0648C50.3536 34.0648 49.2463 34.0789 48.1391 34.1071C45.8535 34.1494 43.5679 34.5159 41.3107 34.8543C37.7617 35.376 34.2127 35.9823 30.6779 36.5463C29.2441 36.7719 27.7961 36.9975 26.3481 37.209C25.2976 37.3641 24.5594 37.8858 24.0057 38.8304C22.2738 41.7491 21.3085 44.9779 20.329 48.1785C19.5908 50.5755 19.0939 53.057 18.3983 55.468C16.5528 61.8129 15.9708 68.3128 15.8004 74.8692C15.7862 75.5459 15.9566 75.7997 16.6664 75.7997M17.5039 86.1066C18.3983 85.9092 19.3352 85.8528 20.1586 85.5144C22.5861 84.5274 22.9552 82.2433 21.0246 80.4808C19.9882 79.5361 18.1286 78.9863 16.4676 78.9863C15.6301 78.9863 14.8493 79.1273 14.2246 79.4233C13.9691 79.5502 13.7278 79.7758 13.6 80.0155C13.1315 80.8615 12.7199 81.7357 12.294 82.5958C12.0101 83.1739 12.1236 83.6673 12.6205 84.1044C13.9975 85.3452 15.6017 86.0079 17.5039 86.1066ZM64.3368 0C61.1143 0 57.9627 0.169196 54.9958 0.493488C47.3583 1.33947 41.1546 2.89043 35.4762 5.38607C33.7017 6.16155 32.1401 6.97933 30.7489 7.85351C29.2583 6.30255 27.1999 5.38607 25.0846 5.38607C24.6304 5.38607 24.1761 5.42837 23.7218 5.51296C20.8968 6.04875 18.7532 7.83941 17.7879 10.3773C17.6885 10.3914 17.6033 10.4055 17.5039 10.4337C15.1616 10.9413 13.3161 12.2949 12.2372 14.1702C9.56833 14.5226 7.29696 16.2146 6.16127 18.7666C5.52245 20.2048 5.28112 21.9109 5.46567 23.5746C5.89155 27.2687 7.09822 30.7372 9.05727 33.9238C8.71657 34.9107 8.39006 35.9964 8.14872 37.1385C7.22598 41.6927 7.04143 45.5278 7.56669 49.1937C7.77963 50.6601 8.09194 52.1969 8.50363 53.8466C6.95625 57.6958 6.03351 61.9116 5.707 66.7055C5.53665 69.187 5.40888 71.6826 5.29531 74.0514C4.71328 74.6295 4.10284 75.2921 3.56339 76.0676C0.482846 80.3821 -2.17182 87.5306 2.65484 97.0056C4.58551 100.784 7.56669 104.055 11.7829 107.002L12.0526 107.2C14.2956 108.779 16.8509 110.569 20.2154 111.472L22.3022 112.036C25.6099 112.924 29.0453 113.841 32.4524 114.687C32.9919 114.828 33.5455 114.954 34.0849 115.095C36.7822 115.772 39.5646 116.477 42.5316 116.802C48.0681 117.408 53.7749 117.69 58.8003 117.929C59.6095 117.972 60.447 117.986 61.2846 117.986C65.4015 117.986 69.3906 117.521 73.2377 117.084L75.1542 116.858C83.9983 115.871 93.3678 114.588 102.325 110.95C104.753 109.963 107.905 108.539 110.857 106.297C113.356 104.394 115.159 102.321 116.309 100.009C121.632 98.895 126.459 96.1173 130.661 91.7464C134.338 87.9254 136.68 83.1175 137.617 77.4635C138.383 72.8952 137.858 68.8345 136.084 65.3942C138.313 57.6535 138.313 49.4898 136.098 41.1146C134.551 35.235 131.342 30.4411 126.558 26.8739C126.303 26.4932 126.047 26.0844 125.792 25.6896C124.997 24.4347 124.102 23.0106 122.825 21.6853C118.154 16.835 113.299 13.1127 107.99 10.2927C101.573 6.89473 94.6028 4.35679 86.6672 2.50974C81.7695 1.36767 76.8293 0.620385 72.0027 0.281993C69.2912 0.0845979 66.7643 0 64.28 0L64.3368 0ZM28.3923 42.5951C29.457 42.44 30.5075 42.2708 31.558 42.1016C32.7079 41.9183 33.8578 41.735 35.0077 41.5376C37.35 41.1569 39.7634 40.7621 42.1199 40.4237L42.7871 40.325C44.7178 40.043 46.5491 39.7751 48.2526 39.7328C49.3173 39.7046 50.382 39.6905 51.4467 39.6905C53.9878 39.6905 56.2166 39.7751 58.2751 39.9302C61.8525 40.2122 65.4725 41.1992 68.2407 42.0311C68.9647 42.2426 69.7029 42.44 70.4411 42.6373C71.5484 42.9334 72.5847 43.2154 73.479 43.5538C77.1132 44.9074 80.4351 46.2187 83.5866 47.5581C85.1624 50.6319 86.7382 53.7902 88.2571 56.8498L89.0521 58.4431C90.2446 60.8259 91.4371 63.2228 92.6153 65.6198L95.0713 70.5688C95.4262 71.2737 95.5965 71.7531 95.6107 72.0915C95.5681 72.4158 95.5114 72.7542 95.4688 73.0785C95.341 73.995 95.2274 74.8551 95.0713 75.6587C94.5602 78.3659 95.1565 80.9038 96.7464 82.7932C98.2796 84.6261 100.523 85.6272 103.078 85.6272C103.617 85.6272 104.185 85.5849 104.739 85.4862C105.69 85.3311 106.613 85.1055 107.507 84.8235C104.512 86.0784 102.382 89.0111 102.283 92.4937C102.283 92.7757 102.269 93.0859 101.218 93.8755C98.5777 95.8776 95.3268 97.0056 92.2037 97.9362C85.7586 99.8537 79.1575 100.643 73.5358 101.165C69.9868 101.503 66.2107 101.673 62.3209 101.673C60.802 101.673 59.2262 101.644 57.6504 101.602C50.524 101.377 42.1483 100.869 33.9714 98.8104C29.5138 97.6824 25.7661 96.1173 22.6145 94.0306C23.4237 93.7486 24.2187 93.4102 24.9853 93.0013C28.4775 91.1543 30.7915 87.7985 31.1889 84.0057C31.5864 80.1847 29.9965 76.3637 26.9159 73.7976C25.326 72.4722 23.5515 71.4993 21.6208 70.8931C21.9473 65.4365 22.6429 61.0656 23.8212 57.0472C24.1761 55.8205 24.4742 54.6221 24.7723 53.4518C25.0846 52.1828 25.3828 50.9843 25.7377 49.8423L25.837 49.5039C26.5894 47.0223 27.3134 44.6677 28.3639 42.6091L28.3923 42.5951ZM108.472 84.4851C111.468 83.3289 114.137 81.4114 116.436 78.7466C117.345 77.6891 118.097 76.5893 118.765 75.6305C119.091 75.1511 119.418 74.6859 119.758 74.2206C120.709 72.9375 121.149 72.4158 121.504 72.2184C121.533 72.2325 121.561 72.2607 121.59 72.2748C121.831 73.3323 121.817 74.4039 121.533 75.5318C120.525 79.6207 118.083 82.3279 113.853 84.0339C113.427 84.2031 113.015 84.3018 112.646 84.3018C112.518 84.3018 112.405 84.3018 112.277 84.2736C111.794 84.2031 111.312 84.1608 110.843 84.1608C110.02 84.1608 109.211 84.2736 108.458 84.4992L108.472 84.4851Z" fill="#90D3F5"/>
<path id="Vector_3" d="M62.349 110.133C60.7023 110.133 59.0555 110.104 57.3946 110.048C49.8139 109.808 40.8562 109.258 31.8842 107.002C24.9424 105.254 19.3207 102.533 14.6928 98.6836C11.4277 95.9624 9.46864 92.9451 8.70206 89.4343C8.56009 88.7857 8.58849 88.2358 8.60268 87.8128C8.60268 87.7282 8.60268 87.6295 8.60268 87.5449L8.5459 83.4701L12.4072 84.8519L12.6912 84.9506C13.0177 85.0634 13.4293 85.1903 13.8836 85.4159C15.1755 86.0644 16.4389 86.4028 17.6314 86.4028C18.8239 86.4028 19.8602 86.1208 20.9817 85.5146C22.0038 84.9788 22.6142 84.1187 22.7278 83.1035C22.8413 82.0601 22.3729 81.0168 21.4501 80.2554C20.1157 79.1415 18.6109 78.6057 16.8222 78.6057L16.666 75.7858V78.6057C15.5446 78.6057 14.6218 78.2532 13.9404 77.5624C12.9183 76.519 12.9467 75.2218 12.9609 74.7847C13.1028 69.2577 13.5287 61.9822 15.6581 54.6645C15.9704 53.5788 16.2402 52.4932 16.5099 51.3934C16.8364 50.068 17.1771 48.7004 17.603 47.3327L17.7024 47.0084C18.6819 43.8078 19.6898 40.4944 21.5495 37.3783C22.5574 35.6864 24.0196 34.6853 25.9077 34.3892L26.1774 34.3469C27.526 34.1354 28.8605 33.938 30.2091 33.7265L33.6162 33.1767C36.0437 32.7819 38.457 32.3871 40.8845 32.0346L41.5376 31.9359C43.6386 31.6257 45.8248 31.3014 48.0678 31.2591C49.1892 31.2309 50.3249 31.2168 51.4464 31.2168C54.2147 31.2168 56.6706 31.3014 58.9703 31.4847C63.3569 31.8372 67.559 32.9652 70.7247 33.9239C71.3635 34.1213 72.0165 34.2905 72.6695 34.4597C73.9188 34.7981 75.2106 35.1365 76.5025 35.6159C80.7613 37.2092 84.6084 38.746 88.271 40.3111C89.8184 40.9738 90.5708 42.4401 91.0677 43.413L91.1386 43.5399C92.7712 46.7123 94.3611 49.8988 95.9511 53.0995L102.751 66.7761C103.489 68.2566 104.327 70.2869 104.156 72.7262V72.839L103.943 74.2207C103.816 75.1795 103.674 76.1383 103.503 77.0971C105.988 76.66 108.103 75.391 109.963 73.2338C110.587 72.5147 111.155 71.6828 111.751 70.8227C112.135 70.2728 112.518 69.7089 112.915 69.1731C114.491 67.0581 116.436 64.4356 120.326 63.7729C120.709 63.7024 121.107 63.6742 121.518 63.6742C124.996 63.6742 128.73 66.339 129.667 69.4833C130.448 72.1058 130.49 74.827 129.823 77.5483C128.148 84.302 123.861 89.1241 117.089 91.8594C115.627 92.4516 114.15 92.7477 112.674 92.7477C112.106 92.7477 111.524 92.7054 110.956 92.6067C110.871 92.6067 110.843 92.6913 110.843 92.7336C110.743 95.8496 109.295 98.4298 106.414 100.601C102.68 103.421 98.3928 104.93 94.6877 106.03C87.5328 108.159 80.4064 109.019 74.3873 109.583C70.5685 109.935 66.5368 110.118 62.3774 110.118L62.349 110.133ZM42.4035 94.341C42.801 94.8626 43.1133 95.5958 43.2269 96.6533L43.2837 97.2878C43.3547 98.0774 43.4114 98.8387 43.6102 99.3463C44.3626 101.363 46.492 103.703 50.041 103.703C50.1972 103.703 50.3391 103.703 50.4953 103.703C52.5963 103.647 54.1011 103.562 55.3503 102.942C57.281 101.983 58.9561 100.531 60.4467 98.5003C62.3064 95.9906 63.215 92.931 63.3995 88.6024C63.4705 86.8963 64.1661 85.9235 64.9611 85.3736C64.3932 84.8801 63.9106 84.3443 63.5273 83.7521C63.3711 83.9354 63.1866 84.1046 62.9736 84.2597L61.8663 85.0634C60.4325 86.1208 58.9419 87.2206 57.281 88.1371C52.1704 90.9429 47.2728 92.9874 42.4035 94.341ZM81.7124 78.7185C81.1588 78.7185 80.5626 78.7608 79.9521 78.8454C78.206 79.0851 77.2265 79.6914 76.5593 80.904C75.7075 82.4408 76.1902 83.2727 76.7722 83.8649C78.1066 85.2467 79.8953 85.9094 82.3939 85.9516C82.6068 85.9516 82.8339 85.9516 82.8339 85.9516C83.8702 85.9516 84.9066 85.6979 85.9287 85.1903C87.6038 84.3584 87.9019 83.5124 87.9587 82.8074C88.0297 82.0319 87.8877 81.1719 86.2836 80.058C84.9775 79.1556 83.487 78.7044 81.7124 78.7044V78.7185ZM25.5812 70.442C29.8258 70.6112 33.6162 71.0483 37.4207 72.134C37.6762 71.1188 37.8466 70.0472 38.0169 68.9193C38.0453 68.7501 38.0737 68.5668 38.1021 68.3976C36.8529 67.5234 35.5752 66.5928 34.3118 65.634C33.0199 64.6471 32.3811 63.4768 32.4237 62.1655C32.4521 61.2632 32.8354 59.966 34.5105 58.8521C35.2771 58.3304 36.0579 57.8651 36.8387 57.414C36.3986 56.3988 35.8733 55.5669 35.2345 54.876C34.3544 53.9172 33.5168 53.3815 32.878 53.3815V50.5615L32.8496 53.3815C31.6287 53.3815 30.8337 53.6775 29.9252 54.4107C28.4772 55.581 27.4835 57.273 26.7737 59.7263C26.0922 62.1232 25.4534 64.9432 25.9929 67.7067C26.2342 68.9475 25.9645 69.8498 25.5954 70.4561L25.5812 70.442ZM63.8254 51.6049C62.7039 51.6049 61.6108 52.0984 60.5745 53.0713C59.524 54.0441 58.7148 55.3413 58.0902 57.0333C56.7274 60.7274 56.5002 64.8727 57.3662 69.7088C57.5081 70.4843 57.5365 71.1329 57.4372 71.711C57.5223 71.6969 57.5933 71.6828 57.6785 71.6687C59.6943 71.3303 61.6676 71.2034 63.7544 71.0765C64.6204 71.0201 65.5147 70.9637 66.4233 70.8932L66.693 70.865C66.693 70.865 70.966 71.3444 72.3004 71.4854C72.2721 70.9355 72.2721 70.3856 72.2579 69.8357C72.2579 69.2154 72.2579 68.5809 72.2579 67.9605C72.2579 67.608 72.2579 67.2555 72.2579 66.8889H71.8462C70.9802 66.8889 70.1285 66.8889 69.2625 66.8325C67.9281 66.762 66.3097 66.0429 65.6709 64.5625C64.9185 62.8282 65.9548 61.094 66.6788 60.3467C67.8571 59.1341 69.0495 57.9779 70.0717 57.0051C69.2199 55.2849 68.2546 53.9877 67.0763 52.9726C65.9974 52.0561 64.9043 51.5908 63.8112 51.5908L63.8254 51.6049Z" fill="#90D3F5"/>
<path id="Vector_4" d="M51.4608 34.0645C53.8883 34.0645 56.3301 34.135 58.7434 34.3324C62.5338 34.6285 66.2531 35.5591 69.9015 36.6589C71.7612 37.2229 73.6777 37.6177 75.4948 38.2944C79.4129 39.7608 83.3026 41.2977 87.1355 42.9332C87.7886 43.2152 88.2286 44.1458 88.5977 44.8508C90.4858 48.5308 92.3171 52.239 94.1768 55.9331C96.1926 59.9656 98.1943 64.0122 100.21 68.0588C100.92 69.4688 101.445 70.921 101.332 72.5707C101.133 73.9384 100.963 75.3201 100.707 76.6878C100.324 78.704 101.303 79.9871 103.12 79.9871C103.347 79.9871 103.603 79.973 103.859 79.9307C107.251 79.3667 109.949 77.6325 112.135 75.0945C113.271 73.7692 114.179 72.2746 115.215 70.8646C116.663 68.9048 118.055 67.0436 120.823 66.5642C121.05 66.5219 121.291 66.5078 121.533 66.5078C123.918 66.5078 126.402 68.4536 126.956 70.3007C127.609 72.5002 127.623 74.6856 127.069 76.8993C125.564 82.948 121.746 86.9523 116.025 89.2788C114.946 89.7159 113.824 89.9556 112.674 89.9556C112.248 89.9556 111.837 89.9274 111.411 89.8569C111.226 89.8287 111.042 89.8146 110.871 89.8146C109.068 89.8146 108.032 91.3373 107.99 92.6768C107.919 95.2289 106.584 96.949 104.682 98.3872C101.445 100.826 97.6974 102.222 93.8645 103.35C87.4195 105.268 80.7899 106.17 74.1036 106.791C70.1996 107.157 66.2673 107.312 62.3492 107.312C60.7309 107.312 59.1125 107.284 57.4942 107.228C49.1185 106.96 40.757 106.311 32.5942 104.267C26.7313 102.786 21.2374 100.432 16.5385 96.526C14.0826 94.4816 12.1945 92.0282 11.4989 88.8417C11.3995 88.4187 11.4705 87.9534 11.4705 87.5163C11.8538 87.6573 12.2655 87.756 12.6204 87.9393C14.2955 88.7853 15.9706 89.2224 17.6458 89.2224C19.2074 89.2224 20.7689 88.8276 22.3305 88.0098C26.2628 85.9231 26.7171 80.96 23.2816 78.0978C21.4077 76.5327 19.2357 75.7854 16.8224 75.7854C16.7798 75.7854 16.7372 75.7854 16.6946 75.7854H16.6663C15.9565 75.7854 15.7861 75.5316 15.8003 74.8548C15.9706 68.2985 16.5385 61.7986 18.3982 55.4537C19.108 53.0427 19.5906 50.5752 20.3288 48.1642C21.3084 44.9636 22.2595 41.7348 24.0056 38.8161C24.5735 37.8715 25.2975 37.3498 26.348 37.1947C27.796 36.9691 29.2298 36.7576 30.6778 36.532C34.2268 35.968 37.7616 35.3617 41.3106 34.84C43.582 34.5157 45.8534 34.1491 48.1389 34.0927C49.2462 34.0645 50.3535 34.0504 51.4608 34.0504M54.0871 46.3171C54.3994 46.3171 54.7401 46.2466 55.0808 46.1057C56.3017 45.5981 57.48 44.9495 58.7434 44.6111C61.1567 43.9766 63.5701 43.4126 65.9692 43.4126C67.9709 43.4126 69.9725 43.7933 71.9599 44.8367C72.2723 44.9918 72.5704 45.0764 72.8685 45.0764C73.4789 45.0764 74.0184 44.7662 74.3307 44.2727C74.8701 43.3985 74.7424 42.2846 73.8054 41.7207C72.6981 41.0439 71.4915 40.3671 70.2422 40.0992C68.7516 39.7749 67.2468 39.6198 65.7563 39.6198C63.4707 39.6198 61.1851 39.9723 58.9422 40.6068C57.1109 41.1285 55.3789 41.9745 53.6186 42.7076C52.8378 43.046 52.2984 43.6382 52.27 44.4137C52.27 45.5981 53.0508 46.3171 54.0871 46.3171ZM26.8306 46.5709C27.0578 46.5709 27.2849 46.5286 27.5262 46.444C27.8244 46.3312 28.1083 46.162 28.4206 46.0633C29.3859 45.7391 30.3655 45.2174 31.345 45.1892C31.6715 45.1892 32.0122 45.1751 32.3387 45.1751C34.0706 45.1751 35.8168 45.302 37.5487 45.443C38.4856 45.5135 39.3942 45.8519 40.3169 46.007C40.4305 46.0211 40.544 46.0352 40.6576 46.0352C41.3532 46.0352 41.9495 45.6545 42.276 45.02C42.6309 44.3291 42.5173 43.5536 41.8643 42.9755C41.4668 42.6371 40.9841 42.2987 40.4873 42.1859C38.2727 41.7348 36.0439 41.3682 33.9571 40.9875C32.1968 41.2977 30.5784 41.4105 29.0878 41.8899C27.867 42.2846 26.7029 43.0037 25.6808 43.7792C24.9568 44.3291 25.0135 45.161 25.482 45.8096C25.8369 46.303 26.3196 46.5568 26.859 46.5568M50.751 76.5186C50.893 76.5186 51.0349 76.5186 51.1911 76.4763C51.4608 76.434 51.7164 76.3353 51.9719 76.2648C54.0303 75.6303 56.0603 74.7843 58.1756 74.4319C60.887 73.9807 63.6552 73.9243 66.679 73.6846C68.3825 73.882 70.3416 74.0935 72.3007 74.3191C72.6556 74.3614 73.0247 74.4037 73.3796 74.4037C73.4789 74.4037 73.5783 74.4037 73.6777 74.4037C74.7566 74.305 75.367 73.4308 75.2534 72.3592C75.1683 71.5132 75.1541 70.6672 75.1399 69.8072C75.1257 68.2985 75.1825 66.8039 75.1399 65.2953C75.0973 64.1109 74.9979 64.0686 73.777 64.0686C73.6777 64.0686 73.5783 64.0686 73.4789 64.0686C72.9537 64.0686 72.4426 64.0686 71.9174 64.0686C71.1082 64.0686 70.2848 64.0686 69.4756 64.0263C69.0781 64.0122 68.4819 63.7725 68.3541 63.4764C68.2406 63.1944 68.5245 62.6163 68.7942 62.3344C70.1287 60.9667 71.5057 59.6413 72.8969 58.33C73.3228 57.9212 73.4789 57.5546 73.2376 56.9906C72.2439 54.6641 70.952 52.5492 69.0072 50.8713C67.3888 49.4896 65.6285 48.7987 63.8966 48.7987C62.0937 48.7987 60.305 49.546 58.7008 51.0123C57.1818 52.4223 56.1881 54.1566 55.4783 56.0741C53.7748 60.6988 53.7606 65.4363 54.6265 70.2161C54.8537 71.4709 54.8821 71.4427 53.647 71.8798C52.4545 72.3028 51.2621 72.754 50.1122 73.2757C49.2462 73.6705 48.8487 74.6433 49.1185 75.4329C49.3598 76.1379 49.9702 76.5327 50.7936 76.5327M37.861 75.024C39.0819 75.024 39.8768 74.2627 40.2459 72.8245C40.6576 71.2171 40.8422 69.5534 41.1261 67.9178C41.2255 67.2974 40.9699 66.8885 40.4305 66.5219C38.9683 65.5209 37.5203 64.4775 36.1149 63.3918C35.0502 62.5881 35.0644 61.9114 36.1575 61.1782C37.2789 60.4309 38.443 59.7682 39.6213 59.1055C40.0472 58.8658 40.3169 58.6261 40.1608 58.1045C39.5929 56.201 38.7411 54.4385 37.3925 52.9722C36.1007 51.5763 34.6101 50.5611 32.9491 50.5611C32.9066 50.5611 32.864 50.5611 32.8356 50.5611C30.8339 50.5611 29.4285 51.2238 28.1935 52.2249C26.0357 53.9733 24.8574 56.3702 24.1192 58.9504C23.2532 61.9678 22.6712 65.0697 23.2816 68.2421C23.4236 68.9894 23.1964 69.3419 22.4015 69.3701C21.8336 69.3983 21.2658 69.497 20.7263 69.6239C19.8604 69.8354 19.3777 70.4699 19.3635 71.3017C19.3635 72.0631 19.832 72.6976 20.6837 72.9232C21.2516 73.0642 21.8478 73.177 22.4441 73.1911C27.2849 73.2616 32.0974 73.5154 36.7963 74.8689C37.1938 74.9817 37.5629 75.0381 37.9036 75.0381M114.69 84.5272C115.357 84.5272 115.996 84.1042 116.422 83.3146C116.834 82.5392 117.174 81.7073 117.501 80.8895C117.671 80.4665 117.842 80.2691 118.253 80.2691C118.324 80.2691 118.409 80.2691 118.495 80.2832C119.73 80.4383 120.979 80.4947 122.228 80.4947C122.242 80.4947 122.271 80.4947 122.285 80.4947C123.208 80.4947 123.918 79.7615 124.045 78.8873C124.145 78.126 123.648 77.28 122.824 76.998C122.356 76.8288 121.831 76.7724 121.32 76.7442C121.093 76.7301 120.851 76.716 120.61 76.716C120.241 76.716 119.843 76.716 119.403 76.716C119.588 76.3212 119.73 76.0392 119.857 75.7572C120.411 74.5729 120.979 73.3744 121.533 72.1759C121.774 71.6542 121.717 71.0761 121.206 70.8364C120.993 70.7377 120.723 70.6954 120.454 70.6954C120.227 70.6954 119.985 70.7236 119.787 70.78C119.474 70.8646 119.176 71.2171 118.963 71.5273C116.663 74.7279 114.804 78.1824 113.214 81.7778C112.703 82.9198 113.058 83.9209 113.952 84.3439C114.193 84.4567 114.449 84.5131 114.69 84.5131M82.9619 88.7712C84.5093 88.7712 85.9573 88.3905 87.3343 87.6996C89.2508 86.7409 90.6988 85.3168 90.9117 83.0608C91.1388 80.678 89.8754 79.0142 88.0441 77.7312C86.1418 76.4058 84.0408 75.87 81.8404 75.87C81.1306 75.87 80.4066 75.9264 79.6684 76.0251C77.3261 76.3494 75.3954 77.3082 74.1745 79.5218C72.9537 81.7496 73.0672 83.9773 74.8418 85.7962C76.9286 87.9393 79.569 88.7007 82.465 88.743C82.6354 88.743 82.7915 88.743 82.9477 88.743M37.0944 92.4371C36.5408 92.4371 35.9729 92.3948 35.4477 92.3243C33.5738 92.0564 33.0485 91.0553 33.6164 89.3352C33.6306 89.2788 33.6448 89.2365 33.6589 89.1801C33.8435 88.5456 33.8435 87.9534 33.2473 87.5163C32.9633 87.3048 32.6794 87.2202 32.4097 87.2202C32.0832 87.2202 31.7709 87.3471 31.4444 87.5445C29.5421 88.7571 29.0168 91.9013 30.4932 93.6074C31.9838 95.3134 33.8861 96.2581 36.1717 96.3004C36.2426 96.3004 36.2994 96.3004 36.3704 96.3004C37.3783 96.3004 38.3862 96.1453 39.38 96.0043C39.6213 95.9761 39.8058 95.9479 39.9478 95.9479C40.3879 95.9479 40.4447 96.1594 40.5157 96.8785C40.6292 98.0206 40.6718 99.219 41.0551 100.277C42.276 103.576 45.5411 106.48 50.1406 106.48C50.3393 106.48 50.5523 106.48 50.7652 106.466C52.8804 106.41 54.8963 106.325 56.7276 105.423C59.2119 104.182 61.2135 102.349 62.8461 100.136C65.3588 96.7375 66.1679 92.7896 66.3383 88.6866C66.3667 87.9393 66.4661 87.5304 67.3746 87.4458C68.8652 87.3048 69.4756 85.7257 68.5387 84.5554C68.269 84.2311 67.9283 83.9491 67.5734 83.7094C66.4093 82.9198 65.6001 81.9188 65.3446 80.4947C65.231 79.8602 65.0607 79.2257 64.7909 78.6477C64.4786 77.9709 63.925 77.6184 63.3855 77.6184C62.8887 77.6184 62.406 77.9004 62.1079 78.5067C61.753 79.2257 61.824 80.1422 61.682 80.9741C61.6252 81.3125 61.6252 81.806 61.4123 81.9611C59.6378 83.23 57.92 84.6118 56.0178 85.6552C50.68 88.5879 45.0868 90.9285 39.1244 92.2679C38.4714 92.4089 37.7758 92.4794 37.0944 92.4794M42.0204 86.7973C42.276 86.7973 42.5173 86.7691 42.7444 86.7127C43.7666 86.473 44.4622 85.6411 44.4338 84.7246C44.3912 83.8222 43.6672 83.1595 42.6025 83.0044C42.2334 82.948 41.8217 82.9057 41.5236 82.7084C41.268 82.5392 41.0267 82.1726 41.0125 81.8765C41.0125 81.6509 41.3532 81.3971 41.5662 81.1856C41.6513 81.101 41.8075 81.0728 41.9211 81.0164C42.787 80.5652 43.1277 79.9448 42.9716 79.127C42.8296 78.3798 42.1766 77.9004 41.2255 77.844C41.1403 77.844 41.0409 77.844 40.9557 77.844C38.7695 77.844 37.1086 79.4936 36.9524 81.7778C37.2222 82.6097 37.4067 83.4838 37.79 84.2593C38.5282 85.768 40.4021 86.8114 42.0062 86.8114M51.546 28.4247C50.3961 28.4247 49.2462 28.4388 48.0964 28.467C45.683 28.5234 43.4117 28.8477 41.2113 29.172L40.5582 29.2707C38.1023 29.6232 35.6322 30.032 33.2473 30.4268C32.1116 30.6101 30.9759 30.7934 29.8402 30.9767C28.4632 31.2023 27.072 31.4138 25.695 31.6112H25.553C22.8132 32.0483 20.6128 33.5429 19.179 35.968C17.1631 39.366 16.0984 42.8486 15.0621 46.2043L14.9627 46.5427C14.5226 47.9809 14.1677 49.3768 13.8412 50.7444C13.5715 51.8442 13.3018 52.9017 13.0179 53.9028C10.8033 61.5166 10.349 69.0317 10.207 74.7279C10.1503 77.139 11.144 78.6758 11.9957 79.5359C12.8475 80.396 14.3523 81.4253 16.7514 81.4253H16.8366C18.0291 81.4253 18.8808 81.7355 19.7042 82.4123C19.9455 82.6238 19.9881 82.7789 19.9881 82.8212C19.9881 82.8493 19.9172 82.9339 19.7326 83.0326C19.037 83.3992 18.3698 83.5825 17.7168 83.5825C16.9786 83.5825 16.1552 83.3569 15.2608 82.9057C14.622 82.5815 14.0542 82.3982 13.6709 82.2713L13.4721 82.2008L5.76367 79.4231L5.86304 87.5586V87.6855C5.83465 88.179 5.80626 89.025 6.0192 90.012C6.92775 94.1432 9.18493 97.6822 12.9611 100.826C17.9155 104.958 23.9063 107.862 31.274 109.709C40.5157 112.036 49.6579 112.6 57.3806 112.839C59.0841 112.896 60.7876 112.924 62.4202 112.924C66.6648 112.924 70.7959 112.741 74.6998 112.374C80.8609 111.796 88.1577 110.908 95.5538 108.722C99.5003 107.552 104.086 105.93 108.188 102.843C110.9 100.798 112.632 98.3449 113.356 95.5531C114.988 95.4826 116.635 95.1161 118.225 94.4675C125.777 91.4078 130.774 85.7962 132.648 78.2247C133.443 75.0099 133.386 71.7952 132.464 68.6933C131.158 64.2942 126.388 60.8539 121.589 60.8539C121.022 60.8539 120.468 60.8962 119.914 60.9949C114.903 61.855 112.376 65.253 110.715 67.4948C110.289 68.0729 109.878 68.651 109.48 69.2432C108.927 70.0469 108.401 70.8082 107.876 71.4145C107.62 71.7247 107.351 71.9926 107.081 72.2464C107.109 69.4124 106.13 67.0859 105.363 65.5491L102.907 60.6001C101.715 58.2032 100.537 55.8203 99.33 53.4234L98.535 51.8442C96.9734 48.7141 95.3551 45.4712 93.7225 42.2846L93.6657 42.1718C93.0695 41.0016 91.9622 38.8161 89.4637 37.7446C85.7585 36.1513 81.8688 34.6003 77.5674 32.993C76.1478 32.4572 74.785 32.1047 73.4789 31.7522C72.8543 31.583 72.2297 31.4138 71.6192 31.2305C68.3116 30.2435 63.925 29.0451 59.2687 28.6785C56.8979 28.4952 54.371 28.3965 51.5318 28.3965L51.546 28.4247ZM60.1204 68.5382C59.4674 64.4634 59.7087 61.1077 60.8444 58.0199C61.3129 56.7509 61.8807 55.8203 62.6047 55.1435C62.8887 54.8756 63.4281 54.4385 63.925 54.4385C64.2941 54.4385 64.8193 54.6923 65.3446 55.1435C65.813 55.5383 66.2247 56.0036 66.6222 56.5535C66.0118 57.1457 65.3872 57.7802 64.7625 58.4146C63.13 60.0784 62.0085 62.9829 63.1868 65.6901C63.641 66.7475 64.3367 67.5653 65.1316 68.1716C64.649 68.1998 64.1663 68.2421 63.6836 68.2703C62.5196 68.3408 61.3413 68.4254 60.1488 68.5382H60.1204ZM28.9601 67.8332C28.9317 67.6217 28.9033 67.3961 28.8607 67.1705C28.52 65.4363 28.7329 63.4341 29.5847 60.5014C30.1241 58.6261 30.8197 57.3854 31.7993 56.5958C32.1258 56.3279 32.3103 56.2292 32.6226 56.201C32.7078 56.2715 32.8356 56.3702 32.9917 56.5253C30.2093 58.4005 29.7266 60.8116 29.6841 62.0806C29.6415 63.3636 29.9822 65.8029 32.6794 67.8755C32.8782 68.0306 33.0911 68.1857 33.2899 68.3408C31.8419 68.1152 30.3939 67.946 28.9742 67.8332H28.9601ZM79.1857 82.1867C79.3135 81.9752 79.5123 81.7778 80.4492 81.6509C80.9319 81.5804 81.3861 81.5522 81.812 81.5522C83.0045 81.5522 83.9414 81.8201 84.7648 82.3982C84.85 82.4546 84.9352 82.5251 85.0061 82.5674C84.9352 82.6097 84.85 82.652 84.7648 82.6943C84.1402 83.0044 83.5439 83.1595 82.9477 83.1595C82.8909 83.1595 82.8199 83.1595 82.7632 83.1595H82.6638H82.5644C80.7047 83.1313 79.7962 82.6943 79.2141 82.2008L79.1857 82.1867ZM46.1231 96.1876C50.2684 94.82 54.442 92.9729 58.7576 90.6042C59.3964 90.2517 60.0069 89.8851 60.5889 89.5044C60.3476 92.705 59.6094 94.9892 58.2465 96.8362C57.0257 98.4859 55.6912 99.6561 54.1723 100.418C53.4483 100.77 52.1848 100.841 50.5949 100.869H50.5097H50.4245C50.3251 100.869 50.2258 100.869 50.1264 100.869C47.4433 100.869 46.5206 98.7679 46.3644 98.3449C46.3076 98.1475 46.2509 97.4707 46.2083 97.0195C46.1941 96.7939 46.1657 96.5824 46.1515 96.3568C46.1515 96.2863 46.1515 96.2299 46.1373 96.1735L46.1231 96.1876Z" fill="#90D3F5"/>
<path id="Vector_5" d="M17.3619 88.9262C14.8066 88.7993 12.5636 87.8828 10.7039 86.1909C9.2843 84.9078 8.9152 83.0607 9.73857 81.3688C10.1786 80.4664 10.6187 79.5499 11.1156 78.6617C11.5273 77.9003 12.2087 77.2517 12.9895 76.8851C13.969 76.4198 15.1757 76.166 16.4675 76.166C18.4124 76.166 21.138 76.7582 22.9409 78.3938C24.6019 79.9024 25.3684 81.8764 25.0135 83.7939C24.6728 85.6974 23.2958 87.2765 21.2232 88.1084C20.3714 88.4609 19.5481 88.6019 18.8241 88.7147C18.5827 88.757 18.3414 88.7993 18.1001 88.8416L17.731 88.9262H17.3477H17.3619Z" fill="#90D3F5"/>
<path id="Vector_6" d="M16.4674 78.9865C18.1425 78.9865 19.988 79.5364 21.0243 80.4811C22.955 82.2295 22.5859 84.5277 20.1583 85.5147C19.335 85.8531 18.398 85.9236 17.5037 86.1069C15.6014 86.0082 13.9972 85.3596 12.6202 84.1047C12.1234 83.6676 12.0098 83.1741 12.2937 82.5961C12.7196 81.7219 13.1455 80.8618 13.5998 80.0158C13.7275 79.7761 13.9689 79.5364 14.2244 79.4236C14.8348 79.1275 15.6298 78.9865 16.4674 78.9865ZM16.4674 73.3467C14.7212 73.3467 13.1313 73.6851 11.7543 74.3478C10.434 74.9822 9.32673 76.0397 8.63113 77.3228C8.10587 78.2957 7.6374 79.2403 7.19732 80.1427C5.82031 82.9626 6.45913 86.1492 8.81568 88.2782C11.1722 90.4073 14.0114 91.5775 17.2339 91.7326L17.9863 91.7749L18.7245 91.6198C18.9233 91.5775 19.122 91.5493 19.3208 91.507C20.1016 91.3801 21.1805 91.1968 22.3303 90.7316C25.3115 89.519 27.3274 87.1784 27.8384 84.3021C28.3637 81.4117 27.2848 78.5072 24.8856 76.3217C22.8414 74.4606 19.7041 73.3467 16.4958 73.3467H16.4674Z" fill="#90D3F5"/>
<path id="Vector_7" d="M50.7225 79.367C48.6925 79.367 46.9748 78.1827 46.3502 76.3356C45.6262 74.1643 46.7193 71.6968 48.8487 70.724C49.7572 70.301 50.68 69.9344 51.5743 69.6101C50.7509 64.1676 51.1484 59.4442 52.7384 55.1156C53.6753 52.5636 54.9672 50.5615 56.6849 48.9682C58.7859 47.0224 61.256 45.9932 63.8113 45.9932C66.3666 45.9932 68.6806 46.9378 70.7816 48.7426C72.8542 50.5192 74.4868 52.8597 75.7786 55.8911C76.46 57.4985 76.0909 59.134 74.7849 60.3748C74.4868 60.6568 74.1745 60.9529 73.8479 61.2631C75.5799 61.2913 77.8086 61.7707 77.9222 65.2251C77.9506 66.1557 77.9506 67.0862 77.9222 68.0168C77.9222 68.609 77.9222 69.2012 77.9222 69.7934C77.9222 70.6253 77.9364 71.3584 78.0216 72.0775C78.1635 73.3888 77.8086 74.6437 77.0137 75.6024C76.2471 76.533 75.1398 77.097 73.8905 77.2239C73.706 77.238 73.5214 77.2521 73.3369 77.2521C72.9394 77.2521 72.5277 77.2098 72.1302 77.1675H71.9599C70.5403 76.9983 69.1065 76.8291 67.7862 76.6881L66.6079 76.5612C65.7562 76.6317 64.9328 76.674 64.1094 76.7304C62.1788 76.8573 60.3475 76.9701 58.6156 77.2521C57.3805 77.4636 56.1171 77.8866 54.7684 78.3519C54.1012 78.5775 53.434 78.8031 52.7668 79.0004L52.6248 79.0428C52.2983 79.1555 51.9576 79.2401 51.6311 79.2965C51.3188 79.3529 51.0207 79.367 50.7367 79.367H50.7225Z" fill="#90D3F5"/>
<path id="Vector_8" d="M63.8254 48.7985C65.5715 48.7985 67.3319 49.4894 68.936 50.8711C70.8809 52.5349 72.1869 54.6498 73.1664 56.9904C73.4078 57.5544 73.2516 57.9351 72.8257 58.3299C71.4345 59.6411 70.0575 60.9665 68.7231 62.3342C68.4391 62.6162 68.1552 63.2083 68.283 63.4762C68.4108 63.7723 69.007 64.012 69.4045 64.0261C70.2137 64.0684 71.037 64.0684 71.8462 64.0684C72.3573 64.0684 72.8825 64.0684 73.3936 64.0684C73.4929 64.0684 73.5923 64.0684 73.6917 64.0684C74.9268 64.0684 75.0261 64.1107 75.0545 65.2951C75.0971 66.7897 75.0545 68.2983 75.0545 69.807C75.0545 70.653 75.0687 71.513 75.1681 72.359C75.2817 73.4306 74.6712 74.3048 73.5923 74.4035C73.4929 74.4035 73.3936 74.4035 73.2942 74.4035C72.9393 74.4035 72.5702 74.3471 72.2153 74.3189C70.2562 74.1074 68.2972 73.8818 66.5937 73.6844C63.5699 73.9382 60.8017 73.9805 58.0902 74.4317C55.975 74.7842 53.945 75.6301 51.8865 76.2646C51.631 76.3492 51.3755 76.4338 51.1057 76.4761C50.9496 76.5043 50.8076 76.5184 50.6657 76.5184C49.8565 76.5184 49.2319 76.1095 48.9905 75.4186C48.7208 74.6291 49.1183 73.6562 49.9843 73.2614C51.1341 72.7397 52.3266 72.2885 53.5191 71.8655C54.7541 71.4143 54.7257 71.4566 54.4986 70.2018C53.6468 65.422 53.661 60.6845 55.3504 56.0598C56.0602 54.1423 57.0539 52.408 58.5729 50.998C60.1628 49.5176 61.9515 48.7844 63.7686 48.7844M63.7686 43.1445C60.4751 43.1445 57.3378 44.4417 54.6973 46.8809C52.6389 48.7844 51.1057 51.1531 50.0126 54.1282C48.4653 58.3158 47.94 62.8135 48.4227 67.7766C48.153 67.8894 47.869 68.0163 47.5993 68.1432C44.1213 69.7365 42.3894 73.628 43.596 77.2093C44.6039 80.2266 47.3864 82.1724 50.6515 82.1724C51.1057 82.1724 51.56 82.1301 52.0143 82.0596C52.6389 81.9609 53.1358 81.7917 53.4339 81.7071L53.5333 81.6789C54.2289 81.4674 54.9245 81.2277 55.6201 81.0021C56.8552 80.5791 58.0192 80.1843 59.0272 80.0151C60.6171 79.7472 62.3774 79.6344 64.2371 79.5216C64.9753 79.4793 65.7277 79.4229 66.4943 79.3665L67.3319 79.4652C68.6805 79.6203 70.1427 79.7754 71.5907 79.9446H71.7468C72.1301 80.001 72.6554 80.0715 73.28 80.0715C73.5497 80.0715 73.8337 80.0715 74.1034 80.0292C76.1192 79.8459 77.9079 78.9013 79.1572 77.3926C80.4348 75.8416 81.0169 73.8536 80.7897 71.7809C80.7329 71.2028 80.7187 70.5402 80.7045 69.7788C80.7045 69.2007 80.7045 68.6367 80.7045 68.0586C80.7045 67.128 80.7187 66.1552 80.6904 65.1541C80.6478 63.871 80.3071 61.4741 78.4332 59.9231C79.0862 58.3158 79.0862 56.5251 78.348 54.8049C76.8858 51.3505 74.9977 48.6716 72.5844 46.613C69.9581 44.3712 66.906 43.1727 63.7686 43.1727V43.1445Z" fill="#90D3F5"/>
<path id="Vector_9" d="M50.027 109.343C44.7035 109.343 40.0898 106.184 38.2727 101.292C37.9888 100.544 37.8468 99.7972 37.7474 99.0781C37.2648 99.1204 36.7537 99.1627 36.2427 99.1627H35.9871C32.9492 99.0922 30.2519 97.8233 28.2219 95.4968C27.001 94.0868 26.4616 92.1129 26.7597 90.0966C27.0578 88.024 28.1651 86.2474 29.7834 85.2182C30.5784 84.7106 31.4302 84.4427 32.282 84.4427C33.1763 84.4427 34.0565 84.7388 34.8231 85.3028C35.4903 85.7962 36.9383 87.1921 36.3704 89.6596C36.5834 89.6737 36.7821 89.6878 36.9809 89.6878C37.4919 89.6878 37.9746 89.6454 38.3863 89.5468C43.6388 88.3624 48.9197 86.2897 54.5272 83.216C55.8616 82.4828 57.1393 81.5523 58.4879 80.5512L58.8002 80.3256C58.8002 80.1987 58.8286 80.0718 58.8286 79.9449C58.8854 79.2258 58.9564 78.2529 59.4532 77.2801C60.2198 75.7714 61.682 74.8408 63.272 74.8408C64.9755 74.8408 66.4945 75.8701 67.2611 77.5057C67.6018 78.2529 67.8573 79.0989 68.0277 80.0436C68.1128 80.5089 68.3116 80.9037 69.0498 81.4113C69.717 81.8624 70.228 82.3277 70.6397 82.8353C71.7328 84.2171 72.0026 86.0218 71.3353 87.5728C70.8669 88.6444 70.0435 89.4622 68.993 89.9133C68.6239 94.8905 67.3462 98.6692 65.0039 101.828C62.9881 104.549 60.5889 106.621 57.8633 107.975C55.3932 109.202 52.7953 109.272 50.6943 109.329C50.5239 109.329 50.2542 109.343 49.9987 109.343H50.027ZM57.0257 96.6953C56.4863 97.1888 55.9894 97.7246 55.4925 98.2462C56.0604 97.781 56.5714 97.2593 57.0257 96.6953Z" fill="#90D3F5"/>
<path id="Vector_10" d="M63.2861 77.6329C63.8256 77.6329 64.3792 77.9854 64.6915 78.6622C64.9613 79.2403 65.1316 79.8747 65.2452 80.5092C65.4865 81.9333 66.2957 82.9344 67.474 83.724C67.8289 83.9636 68.1696 84.2456 68.4393 84.5699C69.3763 85.7402 68.7658 87.3194 67.2752 87.4604C66.3667 87.545 66.2673 87.9538 66.2389 88.7011C66.0686 92.8041 65.2594 96.752 62.7467 100.15C61.1141 102.364 59.1267 104.197 56.6282 105.437C54.7969 106.354 52.781 106.438 50.6658 106.481C50.4529 106.481 50.2541 106.495 50.0412 106.495C45.4417 106.495 42.1766 103.59 40.9557 100.291C40.5582 99.2336 40.5298 98.0351 40.4163 96.893C40.3453 96.1739 40.2885 95.9624 39.8484 95.9624C39.7065 95.9624 39.5219 95.9906 39.2806 96.0188C38.2869 96.1598 37.2647 96.3149 36.271 96.3149C36.2 96.3149 36.1432 96.3149 36.0723 96.3149C33.8009 96.2726 31.8844 95.328 30.3938 93.6219C28.9174 91.93 29.4427 88.7716 31.345 87.5591C31.6715 87.3617 31.9838 87.2348 32.3103 87.2348C32.5942 87.2348 32.8782 87.3335 33.1479 87.5309C33.7441 87.968 33.7583 88.5601 33.5596 89.1946C33.5454 89.251 33.5312 89.2933 33.517 89.3497C32.9491 91.084 33.4744 92.085 35.3483 92.3388C35.8877 92.4093 36.4414 92.4516 36.995 92.4516C37.6906 92.4516 38.372 92.3811 39.0251 92.2401C44.9874 90.9007 50.5807 88.5601 55.9184 85.6274C57.8206 84.584 59.5526 83.2164 61.3129 81.9333C61.5258 81.7782 61.5258 81.2847 61.5826 80.9463C61.7246 80.1144 61.6394 79.198 62.0085 78.4789C62.3066 77.8867 62.8035 77.5906 63.2861 77.5906M51.2195 97.7672C50.7936 97.7672 50.3393 97.6121 49.7999 97.2878C48.6926 96.6251 47.5569 96.3431 46.407 96.3431C45.6262 96.3431 44.8312 96.47 44.0221 96.6815C43.4968 96.8225 43.3407 97.0622 43.5252 97.5416C43.6672 97.9505 43.7665 98.3876 43.9795 98.7401C45.4275 101.137 47.4149 102.66 50.2967 102.66C50.4245 102.66 50.5381 102.66 50.6658 102.66C50.6658 102.73 50.6942 102.801 50.6942 102.885C52.2132 102.547 53.9167 102.547 55.2086 101.828C58.9989 99.7271 61.2135 96.3572 62.0369 92.1273C62.193 91.3096 62.1363 90.9853 61.682 90.9853C61.4974 90.9853 61.2561 91.0417 60.9296 91.1263C57.6787 92.0709 55.2937 94.2282 53.1217 96.6533C52.4545 97.3865 51.8867 97.7813 51.2337 97.7813M63.3003 71.9648C60.6173 71.9648 58.1897 73.5017 56.9405 75.9691C56.4294 76.9843 56.2165 77.9713 56.1171 78.7609C55.1092 79.5082 54.1297 80.1849 53.1785 80.7066C48.2525 83.4138 43.6104 85.3031 39.0251 86.4593C38.5992 85.1057 37.7474 83.9072 36.5407 83.0049C35.2915 82.0743 33.8293 81.5949 32.3103 81.5949C30.9049 81.5949 29.5563 82.0038 28.2786 82.8075C25.9647 84.2738 24.3889 86.7695 23.9772 89.6599C23.5655 92.4939 24.3321 95.2857 26.1066 97.316C28.5909 100.164 31.8276 101.757 35.5328 101.941C35.5612 102.039 35.6038 102.138 35.6464 102.251C37.8752 108.257 43.5394 112.149 50.0554 112.149C50.3393 112.149 50.609 112.149 50.9072 112.121C53.1501 112.064 56.1881 111.966 59.1835 110.485C62.3066 108.934 65.0464 106.579 67.332 103.492C70.3132 99.4451 71.3495 95.0883 71.7328 91.5493C72.6981 90.802 73.4789 89.8291 73.9758 88.6729C75.0547 86.1773 74.643 83.2587 72.8969 81.0732C72.329 80.3541 71.6334 79.7196 70.7817 79.1275C70.5687 78.0982 70.2706 77.1535 69.8731 76.3075C68.6381 73.6427 66.1254 71.993 63.3003 71.993V71.9648Z" fill="#90D3F5"/>
<path id="Vector_11" d="M37.7898 77.8585C37.1936 77.8585 36.5548 77.7598 35.9018 77.5765C31.7565 76.378 27.4551 76.0819 22.3019 76.0114C21.5637 76.0114 20.7687 75.8845 19.8744 75.659C17.7734 75.1232 16.3964 73.3466 16.4247 71.2599C16.4531 69.1167 17.8444 67.4107 19.9596 66.889C20.0164 66.8749 20.0873 66.8608 20.1441 66.8467C19.9028 63.646 20.57 60.6992 21.294 58.1754C22.3161 54.6082 23.9629 51.9433 26.3052 50.0399C28.2359 48.4748 30.2801 47.7416 32.736 47.7275C35.1778 47.7275 37.3781 48.8555 39.4082 51.0551C40.9272 52.7047 42.0345 54.7492 42.801 57.273C42.9998 57.9216 43.4399 60.1211 40.9556 61.5311C40.4161 61.8272 39.9192 62.1233 39.4508 62.3912C40.3025 63.0257 41.1401 63.6179 41.9635 64.1818C43.9793 65.5636 44.0077 67.3966 43.8374 68.3835C43.7664 68.8347 43.6954 69.3 43.6244 69.7512C43.4399 70.9638 43.2411 72.2186 42.9146 73.5017C42.2332 76.2229 40.3025 77.8444 37.7756 77.8444L37.7898 77.8585Z" fill="#90D3F5"/>
<path id="Vector_12" d="M32.8639 50.5475C34.5248 50.5475 36.0296 51.5627 37.3073 52.9586C38.6559 54.439 39.5077 56.1874 40.0755 58.0908C40.2317 58.6266 39.9619 58.8522 39.5361 59.0919C38.372 59.7546 37.1937 60.4173 36.0722 61.1646C34.9791 61.8977 34.9649 62.5745 36.0296 63.3782C37.435 64.4639 38.883 65.5072 40.3452 66.5083C40.8847 66.8749 41.1402 67.2838 41.0408 67.9042C40.7569 69.5397 40.5724 71.2035 40.1607 72.8109C39.7916 74.2631 38.9966 75.0104 37.7757 75.0104C37.435 75.0104 37.0801 74.954 36.6684 74.8412C31.9695 73.4877 27.1571 73.2339 22.3162 73.1634C21.7342 73.1634 21.1379 73.0506 20.5559 72.8955C19.7041 72.6699 19.2215 72.0354 19.2357 71.274C19.2357 70.4421 19.7467 69.8076 20.5985 69.5961C21.1521 69.4692 21.72 69.3565 22.2736 69.3424C23.0686 69.3142 23.2957 68.9617 23.1538 68.2144C22.5292 65.042 23.1254 61.94 23.9914 58.9227C24.7295 56.3425 25.9078 53.9596 28.0656 52.1972C29.3007 51.1961 30.7061 50.5334 32.7077 50.5334C32.7503 50.5334 32.7929 50.5334 32.8213 50.5334M32.8213 44.8936C32.8213 44.8936 32.6793 44.8936 32.6226 44.8936C29.5562 44.9218 26.8874 45.8805 24.474 47.8404C21.6632 50.1245 19.7183 53.2406 18.5259 57.3858C17.9154 59.5008 17.305 62.0951 17.2198 64.9433C14.991 66.2122 13.5856 68.5387 13.543 71.2035C13.4863 74.6156 15.7292 77.492 19.1079 78.3661C20.2152 78.6481 21.2373 78.8032 22.2027 78.8173C27.1429 78.8878 31.2172 79.1698 35.0643 80.2696C35.9728 80.5375 36.8672 80.6644 37.7473 80.6644C41.6087 80.6644 44.6324 78.1828 45.6404 74.1926C45.9953 72.7968 46.194 71.4714 46.3928 70.1883C46.4637 69.7371 46.5347 69.3001 46.6057 68.863C47.0174 66.4096 46.1514 64.0691 44.2633 62.4335C45.8817 60.5583 46.0095 58.2036 45.4842 56.4694C44.5899 53.5225 43.2838 51.1256 41.4667 49.1517C38.2442 45.6408 34.9791 44.8936 32.8213 44.8936Z" fill="#90D3F5"/>
<path id="Vector_13" d="M82.8483 91.6197C82.6354 91.6197 82.4225 91.6197 82.2095 91.6056C78.263 91.5492 75.1115 90.2943 72.684 87.7987C70.1287 85.1621 69.717 81.5808 71.5767 78.2109C73.1098 75.4333 75.6651 73.7696 79.1574 73.2761C80.0375 73.1492 80.9035 73.0928 81.7269 73.0928C84.6654 73.0928 87.2917 73.8824 89.5631 75.4615C93.3109 78.07 93.8503 81.2001 93.6374 83.3714C93.4386 85.4441 92.3881 88.3063 88.5126 90.2521C86.6955 91.1544 84.7932 91.6197 82.8625 91.6197H82.8483ZM79.7962 82.2293C80.4208 82.5536 81.1874 82.7792 82.1527 82.9061C82.3089 82.8638 82.4651 82.8356 82.6212 82.7933C83.0897 82.6805 83.544 82.5818 83.9556 82.469C83.0613 82.0884 82.2521 81.9192 81.4997 81.9192C80.9319 81.9192 80.364 82.0179 79.7962 82.2293Z" fill="#90D3F5"/>
<path id="Vector_14" d="M81.7267 75.8982C83.9271 75.8982 86.0281 76.434 87.9304 77.7594C89.7617 79.0424 91.0393 80.7062 90.798 83.089C90.5851 85.345 89.1371 86.755 87.2206 87.7278C85.8578 88.4187 84.3956 88.7994 82.8482 88.7994C82.6921 88.7994 82.5217 88.7994 82.3655 88.7994C79.4553 88.7571 76.8291 88.0098 74.7423 85.8526C72.9677 84.0337 72.8542 81.7919 74.075 79.5782C75.2959 77.3646 77.2266 76.4199 79.5689 76.0815C80.2929 75.9828 81.0169 75.9264 81.7409 75.9264M82.3371 85.7962C83.3451 85.5424 84.3814 85.3591 85.3609 85.0207C86.4256 84.6541 87.4193 84.0619 87.5187 82.7789C87.6181 81.4817 86.6528 80.8472 85.7158 80.2127C85.6306 80.1563 85.5313 80.114 85.4319 80.0576C84.1117 79.4513 82.7914 79.127 81.4996 79.127C79.9806 79.127 78.49 79.5641 77.0136 80.4947C76.0909 81.0728 75.807 81.9611 76.3606 82.8917C76.6303 83.3428 77.0136 83.7658 77.4253 84.076C78.8449 85.1617 80.5059 85.5988 82.3088 85.7821M81.7125 70.2725C80.7614 70.2725 79.7535 70.343 78.7455 70.484C73.2233 71.2594 70.4408 74.3755 69.078 76.857C66.6363 81.2984 67.2325 86.2333 70.6254 89.7582C73.5356 92.7614 77.4111 94.3406 82.1526 94.4252C82.3797 94.4252 82.6069 94.4393 82.834 94.4393C85.2189 94.4393 87.5471 93.8753 89.7617 92.7614C94.7871 90.2376 96.1641 86.4025 96.4338 83.6389C96.661 81.2561 96.2919 76.716 91.1671 73.1488C88.4131 71.2453 85.2331 70.2725 81.7125 70.2725Z" fill="#90D3F5"/>
<path id="Vector_15" d="M54.087 49.1516C52.8094 49.1516 51.6311 48.6723 50.7793 47.8122C49.8992 46.938 49.4307 45.7254 49.4449 44.4001C49.5301 42.4684 50.6799 40.9034 52.5254 40.1279C52.9229 39.9587 53.3204 39.7895 53.7179 39.6203C55.1233 38.9999 56.5855 38.3654 58.1755 37.9142C60.745 37.181 63.3003 36.8145 65.7562 36.8145C67.4739 36.8145 69.1916 36.9977 70.8384 37.3643C72.5419 37.7309 74.0183 38.5769 75.2675 39.3383C76.3181 39.9728 77.0704 40.9738 77.3544 42.1441C77.6525 43.3567 77.4253 44.6821 76.7439 45.7818C75.9064 47.1354 74.4584 47.9391 72.8684 47.9391C72.1018 47.9391 71.3352 47.7417 70.6396 47.3751C69.22 46.6278 67.701 46.2753 65.9691 46.2753C64.0101 46.2753 61.9516 46.7124 59.4673 47.3751C58.8427 47.5443 58.1471 47.8545 57.4231 48.1929C57.0114 48.3903 56.5855 48.5736 56.1596 48.7569C55.4782 49.0389 54.7826 49.1798 54.0728 49.1798L54.087 49.1516Z" fill="#90D3F5"/>
<path id="Vector_16" d="M65.7562 39.6203C67.2468 39.6203 68.7374 39.7754 70.2422 40.0997C71.4914 40.3676 72.6981 41.0444 73.8054 41.7212C74.7423 42.2852 74.8701 43.4131 74.3306 44.2732C74.0183 44.7667 73.4789 45.0769 72.8684 45.0769C72.5703 45.0769 72.258 45.0064 71.9599 44.8372C69.9724 43.7938 67.9708 43.4131 65.9691 43.4131C63.5558 43.4131 61.1425 43.963 58.7433 44.6116C57.4799 44.95 56.3016 45.5986 55.0808 46.1062C54.7401 46.2472 54.3993 46.3177 54.087 46.3177C53.0507 46.3177 52.2557 45.5986 52.2699 44.4142C52.3125 43.6387 52.8378 43.0465 53.6186 42.7082C55.3789 41.9609 57.1108 41.129 58.9421 40.6073C61.1851 39.9728 63.4564 39.6203 65.7562 39.6203ZM65.7562 33.9805C63.0306 33.9805 60.2197 34.3894 57.3947 35.193C55.6202 35.7006 54.0019 36.4056 52.5823 37.026C52.199 37.1952 51.8015 37.3644 51.4182 37.5336C48.5932 38.7321 46.7477 41.27 46.6199 44.1745V44.2732V44.3719C46.5915 46.4446 47.3581 48.3762 48.7777 49.8003C50.1831 51.2102 52.0712 51.9857 54.1154 51.9857C55.1943 51.9857 56.259 51.7742 57.2953 51.3371C57.7496 51.1538 58.2039 50.9424 58.6582 50.7309C59.2686 50.4489 59.8506 50.181 60.2481 50.0823C62.5195 49.476 64.365 49.0812 66.0117 49.0812C67.2752 49.0812 68.3399 49.335 69.3478 49.8567C70.4551 50.4348 71.6902 50.745 72.911 50.745C75.4947 50.745 77.8513 49.4337 79.2141 47.2482C80.3072 45.4858 80.6337 43.4413 80.1652 41.4815C79.6967 39.578 78.5043 37.9566 76.8007 36.9273C75.2392 35.9826 73.5215 35.052 71.5056 34.615C69.6601 34.2061 67.7295 34.0087 65.813 34.0087L65.7562 33.9805Z" fill="#90D3F5"/>
<path id="Vector_17" d="M114.576 87.3477C113.895 87.3477 113.228 87.1926 112.603 86.8965C110.275 85.7827 109.395 83.146 110.502 80.6504C112.333 76.5333 114.307 73.0225 116.535 69.9065C116.834 69.4976 117.614 68.4119 118.963 68.0735C119.403 67.9607 119.872 67.9043 120.34 67.9043C121.064 67.9043 121.717 68.0453 122.313 68.3273C124.201 69.2156 124.925 71.3869 124.017 73.3891C123.875 73.6993 123.733 74.0235 123.577 74.3337C123.605 74.3337 123.634 74.3478 123.662 74.3619C125.706 75.0669 127.041 77.1819 126.757 79.2827C126.444 81.5951 124.485 83.3293 122.186 83.3293C121.206 83.3293 120.326 83.3011 119.502 83.2447C119.304 83.71 119.077 84.1894 118.821 84.6547C117.913 86.3466 116.323 87.3618 114.576 87.3618V87.3477Z" fill="#90D3F5"/>
<path id="Vector_18" d="M120.326 70.7096C120.596 70.7096 120.865 70.7519 121.078 70.8506C121.589 71.0903 121.646 71.6684 121.405 72.1901C120.851 73.3886 120.297 74.5729 119.73 75.7714C119.602 76.0534 119.46 76.3354 119.275 76.7302C119.715 76.7302 120.113 76.7302 120.482 76.7302C120.723 76.7302 120.95 76.7302 121.192 76.7584C121.703 76.8007 122.228 76.8571 122.697 77.0122C123.52 77.2942 124.017 78.1401 123.917 78.9015C123.804 79.7757 123.08 80.5089 122.157 80.5089C122.143 80.5089 122.115 80.5089 122.1 80.5089C120.851 80.5089 119.602 80.4525 118.367 80.2974C118.282 80.2974 118.196 80.2833 118.125 80.2833C117.7 80.2833 117.529 80.4807 117.373 80.9037C117.047 81.7215 116.72 82.5533 116.294 83.3288C115.868 84.1325 115.215 84.5414 114.562 84.5414C114.321 84.5414 114.065 84.485 113.824 84.3722C112.93 83.9351 112.575 82.934 113.086 81.8061C114.676 78.2106 116.535 74.7703 118.835 71.5556C119.048 71.2595 119.332 70.8929 119.659 70.8083C119.872 70.7519 120.099 70.7237 120.326 70.7237M120.326 65.0839C119.63 65.0839 118.92 65.1685 118.253 65.3377C115.882 65.9439 114.633 67.6923 114.222 68.2704C111.879 71.5415 109.807 75.2215 107.904 79.5078C106.187 83.3852 107.677 87.6574 111.368 89.434C112.39 89.9275 113.469 90.1671 114.576 90.1671C117.33 90.1671 119.815 88.6585 121.234 86.1205C121.518 86.1205 121.816 86.1205 122.115 86.1205C125.891 86.1205 129.056 83.3288 129.553 79.6206C129.894 77.125 128.886 74.6998 127.055 73.0925C127.722 70.1033 126.317 67.0578 123.506 65.7465C122.54 65.2954 121.462 65.0557 120.326 65.0557V65.0839Z" fill="#90D3F5"/>
<path id="Vector_19" d="M26.8306 49.4048C25.3826 49.4048 24.034 48.714 23.1538 47.4873C21.72 45.5274 22.0607 42.9754 23.9346 41.5654C25.4252 40.4375 26.8164 39.6761 28.1934 39.239C29.4569 38.8301 30.7061 38.6468 31.927 38.4776C32.4238 38.4071 32.9207 38.3366 33.446 38.2379L33.9428 38.1533L36.0864 38.534C37.7048 38.816 39.3799 39.1121 41.0409 39.4505C41.9494 39.6338 42.8438 40.1132 43.7239 40.8746C45.3281 42.2704 45.7681 44.47 44.7886 46.3311C43.9794 47.8962 42.3895 48.8691 40.6576 48.8691C40.3878 48.8691 40.1039 48.8409 39.82 48.7986C39.3941 48.7281 38.954 48.6153 38.5281 48.5025C38.0739 48.3897 37.648 48.2769 37.3215 48.2628C35.5328 48.1218 33.9144 48.009 32.3387 48.009C32.0405 48.009 31.7424 48.009 31.4301 48.009C31.2172 48.009 30.6919 48.2205 30.3086 48.3756C29.9821 48.5025 29.6414 48.6294 29.3149 48.7422L29.1871 48.7986C28.96 48.9114 28.7329 49.0101 28.4915 49.0947C27.9521 49.292 27.3842 49.3907 26.8448 49.3907L26.8306 49.4048Z" fill="#90D3F5"/>
<path id="Vector_20" d="M33.9428 41.0155C36.0296 41.3962 38.2584 41.7628 40.473 42.2139C40.9699 42.3126 41.4667 42.651 41.85 43.0035C42.5172 43.5816 42.6166 44.3571 42.2617 45.048C41.9352 45.6684 41.339 46.0631 40.6434 46.0631C40.5298 46.0631 40.4162 46.0632 40.3027 46.035C39.3799 45.8658 38.4714 45.5415 37.5344 45.471C35.8025 45.33 34.0706 45.2031 32.3245 45.2031C31.998 45.2031 31.6572 45.2031 31.3307 45.2172C30.3512 45.2454 29.3717 45.7671 28.4063 46.0913C28.094 46.19 27.8243 46.3733 27.512 46.472C27.2707 46.5566 27.0435 46.5989 26.8164 46.5989C26.2627 46.5989 25.7943 46.3451 25.4394 45.8517C24.9709 45.2031 24.9141 44.3712 25.6381 43.8213C26.6744 43.0458 27.8243 42.3267 29.0452 41.932C30.5358 41.4526 32.1541 41.3398 33.9144 41.0296M33.9144 35.3051L32.9207 35.4743C32.438 35.5589 31.9554 35.6294 31.4869 35.6999C30.2092 35.8832 28.7754 36.0947 27.2849 36.5741C25.5955 37.1099 23.9346 38.0263 22.1885 39.3376C19.0511 41.7064 18.4691 45.9363 20.8256 49.1651C22.2453 51.1249 24.4314 52.2388 26.8022 52.2388C27.6823 52.2388 28.5625 52.0837 29.4143 51.7735C29.826 51.6325 30.1667 51.4633 30.3654 51.3646C30.6777 51.2518 30.99 51.139 31.3165 51.0121C31.4585 50.9557 31.6572 50.8852 31.785 50.8288C31.9554 50.8288 32.1399 50.8288 32.3103 50.8288C33.7867 50.8288 35.3482 50.9416 37.066 51.0685C37.1795 51.0685 37.5344 51.1672 37.7899 51.2377C38.2016 51.3364 38.7127 51.4633 39.2805 51.5761C39.7206 51.6607 40.1749 51.6889 40.615 51.6889C43.4258 51.6889 45.9669 50.1238 47.2729 47.6282C48.8487 44.5968 48.1531 41.0296 45.541 38.7595C44.2918 37.6739 42.9573 36.983 41.5661 36.701C39.8484 36.3485 38.1732 36.0524 36.5407 35.7704L34.8939 35.4743L33.9002 35.291L33.9144 35.3051Z" fill="#90D3F5"/>
<path id="Vector_21" d="M41.9068 89.6312C39.1669 89.6312 36.3277 87.897 35.1352 85.5C34.7519 84.7386 34.539 83.9914 34.3544 83.3287C34.2835 83.1031 34.2267 82.8634 34.1557 82.6378L33.9854 82.1302L34.0279 81.5944C34.2835 77.7875 37.1511 75.0381 40.8562 75.0381C40.9982 75.0381 41.1544 75.0381 41.3105 75.0381C43.5535 75.1791 45.257 76.5749 45.6545 78.5912C45.8391 79.55 45.7397 80.4524 45.3848 81.256C46.4495 82.0597 47.1025 83.2582 47.1593 84.6258C47.2587 86.8818 45.6261 88.9262 43.2838 89.4761C42.8437 89.5748 42.3752 89.6312 41.9068 89.6312Z" fill="#90D3F5"/>
<path id="Vector_22" d="M40.8561 77.8297C40.9413 77.8297 41.0407 77.8297 41.1259 77.8297C42.077 77.8861 42.7158 78.3655 42.872 79.1128C43.0281 79.9306 42.6874 80.551 41.8215 81.0022C41.7079 81.0586 41.5518 81.0868 41.4666 81.1714C41.2536 81.3829 40.8987 81.6367 40.9129 81.8622C40.9129 82.1583 41.1685 82.5249 41.424 82.6941C41.7221 82.8915 42.1338 82.9338 42.5029 82.9902C43.5676 83.1453 44.2916 83.8221 44.3342 84.7104C44.3768 85.6269 43.667 86.4587 42.6448 86.6984C42.4177 86.7548 42.1622 86.783 41.9208 86.783C40.3167 86.783 38.4428 85.7256 37.7046 84.231C37.3213 83.4555 37.151 82.5813 36.867 81.7494C37.0232 79.4653 38.67 77.8156 40.8703 77.8156M40.8703 72.1758C35.703 72.1758 31.5577 76.1237 31.2028 81.3688L31.1318 82.4403L31.4725 83.4696C31.5293 83.667 31.5861 83.8644 31.6429 84.0618C31.8558 84.795 32.1114 85.7114 32.6082 86.7125C34.2692 90.0682 38.1021 92.4229 41.9208 92.4229C42.6165 92.4229 43.2979 92.3383 43.9509 92.1973C47.6135 91.3372 50.1546 88.0943 49.9984 84.4848C49.9274 82.962 49.4022 81.5521 48.522 80.41C48.6214 79.6345 48.6072 78.8449 48.4368 78.0412C47.798 74.7701 45.0014 72.4296 41.4808 72.204C41.2678 72.204 41.0691 72.1899 40.8561 72.1899L40.8703 72.1758Z" fill="#90D3F5"/>
<path id="Vector_23" d="M82.0247 88.5742C80.378 88.405 77.9221 87.982 75.7075 86.3042C74.9835 85.7543 74.3731 85.0634 73.9188 84.3161C72.5844 82.0743 73.2374 79.5222 75.4804 78.0982C77.3826 76.8997 79.3985 76.2793 81.4853 76.2793C83.1746 76.2793 84.8924 76.6882 86.6101 77.4778C86.8656 77.5906 87.0927 77.7175 87.2915 77.8585C88.3562 78.5775 90.5424 80.0439 90.3295 82.9625C90.2159 84.4994 89.4209 86.572 86.2694 87.6577C85.446 87.9397 84.6368 88.123 83.8702 88.3063C83.5721 88.3768 83.2882 88.4332 82.9901 88.5178L82.5074 88.6447L82.0106 88.5883L82.0247 88.5742Z" fill="#90D3F5"/>
<path id="Vector_24" d="M81.4855 79.0994C82.7774 79.0994 84.0834 79.4237 85.4178 80.03C85.5172 80.0723 85.6166 80.1146 85.7017 80.1851C86.6387 80.8054 87.604 81.454 87.5046 82.7512C87.4053 84.0343 86.4115 84.6265 85.3468 84.993C84.3673 85.3314 83.331 85.5147 82.3231 85.7685C80.506 85.5852 78.8592 85.1481 77.4396 84.0625C77.0137 83.7382 76.6446 83.3293 76.3749 82.8781C75.8213 81.9475 76.1052 81.0592 77.0279 80.4812C78.5043 79.5506 79.9949 79.1135 81.5139 79.1135M81.5139 73.4736C78.8734 73.4736 76.3465 74.235 73.9758 75.7296C70.4126 77.9855 69.3763 82.2013 71.4915 85.7544C72.1303 86.826 72.9963 87.7989 74.0042 88.5603C76.7866 90.6752 79.7536 91.1828 81.7552 91.3943L82.749 91.493L83.7285 91.2533C83.9982 91.1828 84.2679 91.1264 84.5377 91.0559C85.3468 90.8726 86.2554 90.6611 87.2349 90.3227C92.2603 88.5885 93.0695 84.7393 93.1973 83.1742C93.538 78.6341 90.0741 76.3077 88.9384 75.5463C88.4558 75.222 88.0583 75.0387 87.8595 74.9541C85.7443 73.9812 83.6149 73.4877 81.5139 73.4877V73.4736Z" fill="#90D3F5"/>
<path id="Vector_25" d="M16.7796 22.1502C16.7796 21.5157 16.7796 20.8812 16.7796 20.2608C16.7938 19.4571 16.7796 18.6534 16.8789 17.8498C17.0067 16.7923 17.6739 16.1578 18.696 15.9322C19.6756 15.7207 20.428 16.186 21.0384 16.9051C21.5637 17.5255 22.0605 18.1741 22.5716 18.8085C22.6567 18.7662 22.7561 18.738 22.8413 18.6957C22.8697 18.3996 22.9123 18.1177 22.9123 17.8216C22.9123 16.4257 22.8697 15.0298 22.8555 13.634C22.8555 13.3379 22.8981 13.0418 22.9691 12.7598C23.182 11.7869 23.8066 11.2229 24.7862 11.0396C25.5669 10.8845 26.4755 11.378 26.9582 12.1535C27.5686 13.0982 28.1364 14.0711 28.832 14.9452C29.5276 15.8194 29.8116 15.7771 30.5924 15.0298C32.6792 13.0559 35.1493 11.6741 37.7472 10.532C43.4398 8.0364 49.4305 6.76743 55.5916 6.09065C60.9436 5.49846 66.2813 5.52666 71.619 5.90735C76.2469 6.23164 80.8606 6.95073 85.3892 8.0082C92.3311 9.62966 99.0174 11.942 105.335 15.2836C110.403 17.9626 114.803 21.5016 118.736 25.5905C120.028 26.9299 120.894 28.6501 121.958 30.187C122.143 30.4407 122.285 30.765 122.526 30.9342C126.657 33.8106 129.326 37.7303 130.604 42.5523C132.492 49.6868 132.648 56.8776 130.575 64.012C130.178 65.3797 130.135 66.3808 130.873 67.692C132.407 70.4274 132.52 73.5152 132.009 76.5466C131.299 80.8188 129.582 84.7103 126.544 87.8545C123.278 91.2525 119.389 93.72 114.633 94.5942C113.952 94.7211 113.228 94.7211 112.546 94.8339C112.333 94.8621 112.021 95.0595 111.993 95.2287C111.439 98.105 109.636 100.135 107.407 101.827C105.207 103.505 102.751 104.69 100.181 105.733C91.9478 109.089 83.2598 110.273 74.515 111.26C69.3902 111.838 64.2512 112.557 59.0697 112.303C53.7461 112.05 48.4226 111.782 43.1417 111.204C39.9901 110.865 36.8954 109.977 33.8007 109.216C29.7406 108.214 25.7089 107.115 21.663 106.029C19.1645 105.352 17.0919 103.858 15.0193 102.405C12.0097 100.29 9.36923 97.7807 7.67989 94.4673C5.08201 89.3632 4.64193 84.2591 8.14836 79.3242C8.71621 78.5206 9.4686 77.8297 10.1926 77.167C10.6469 76.744 10.8314 76.3069 10.8598 75.7006C10.9876 72.8384 11.1295 69.9621 11.3283 67.0998C11.6264 62.8699 12.4498 58.7669 14.1959 54.8754C14.4372 54.3538 14.352 53.9167 14.1959 53.3527C13.7558 51.7312 13.3867 50.0675 13.1454 48.4037C12.6627 44.9916 12.9892 41.5936 13.6706 38.252C13.9688 36.7574 14.5366 35.3192 15.0335 33.8811C15.218 33.3453 15.1896 32.9505 14.8489 32.4711C12.7479 29.623 11.456 26.4364 11.0586 22.9256C10.9876 22.3052 11.0586 21.6003 11.2999 21.0504C12.0097 19.443 14.0113 19.302 15.1612 20.712C15.6013 21.2478 16.0272 21.7695 16.4673 22.2911C16.5524 22.2488 16.6376 22.1925 16.7228 22.1502H16.7796ZM101.317 72.5705C101.431 70.935 100.905 69.4827 100.196 68.0586C98.1798 64.012 96.1782 59.9795 94.1624 55.9329C92.3169 52.2388 90.4856 48.5306 88.5833 44.8506C88.2142 44.1315 87.7741 43.2009 87.1211 42.933C83.2882 41.2834 79.3984 39.7465 75.4803 38.2943C73.6632 37.6175 71.7468 37.2086 69.8871 36.6587C66.2387 35.5589 62.5193 34.6283 58.729 34.3323C55.2083 34.0503 51.6593 34.0362 48.1245 34.1067C45.8389 34.149 43.5534 34.5155 41.2962 34.8539C37.7472 35.3756 34.1982 35.9819 30.6633 36.5459C29.2295 36.7715 27.7815 36.9971 26.3335 37.2086C25.283 37.3637 24.5448 37.8854 23.9912 38.83C22.2593 41.7487 21.2939 44.9775 20.3144 48.1781C19.5762 50.575 19.0793 53.0566 18.3837 55.4676C16.5382 61.8125 15.9562 68.3124 15.7858 74.8688C15.7717 75.5596 15.942 75.7993 16.6944 75.7993C19.1645 75.7711 21.3649 76.5184 23.2814 78.1117C26.7026 80.9739 26.2626 85.937 22.3302 88.0237C19.1077 89.7298 15.8426 89.5747 12.6201 87.9532C12.251 87.7699 11.8535 87.6712 11.4702 87.5302C11.4702 87.9673 11.3993 88.4326 11.4986 88.8556C12.1942 92.0421 14.0823 94.4955 16.5382 96.5399C21.2371 100.446 26.731 102.8 32.594 104.281C40.7567 106.339 49.104 106.974 57.4939 107.242C63.0304 107.411 68.581 107.312 74.1033 106.79C80.7755 106.17 87.4192 105.254 93.8642 103.35C97.7114 102.208 101.445 100.826 104.682 98.387C106.584 96.9488 107.904 95.2287 107.989 92.6766C108.032 91.2103 109.281 89.5183 111.411 89.8567C112.986 90.1105 114.548 89.8708 116.024 89.2786C121.745 86.9663 125.578 82.9479 127.069 76.8991C127.608 74.6996 127.594 72.5 126.955 70.3005C126.359 68.2701 123.406 66.127 120.837 66.5641C118.069 67.0434 116.677 68.9187 115.229 70.8644C114.193 72.2603 113.284 73.769 112.149 75.0943C109.963 77.6323 107.265 79.3806 103.872 79.9305C101.587 80.3112 100.295 78.9718 100.721 76.7017C100.976 75.334 101.147 73.9523 101.346 72.5846L101.317 72.5705ZM17.5178 86.1062C18.4121 85.9088 19.3491 85.8524 20.1724 85.514C22.6 84.527 22.9691 82.2429 21.0384 80.4804C19.491 79.0704 16.0982 78.5347 14.2385 79.4229C13.9829 79.5498 13.7416 79.7754 13.6139 80.0151C13.1454 80.8611 12.7337 81.7353 12.3078 82.5954C12.0239 83.1735 12.1375 83.6669 12.6343 84.104C14.0113 85.3448 15.6155 86.0075 17.5178 86.1062Z" fill="black"/>
<path id="Vector_26" d="M101.317 72.5713C101.119 73.9389 100.948 75.3207 100.693 76.6884C100.267 78.9584 101.559 80.2979 103.844 79.9172C107.237 79.3532 109.934 77.619 112.121 75.081C113.256 73.7557 114.165 72.2611 115.201 70.8511C116.649 68.8913 118.04 67.0301 120.809 66.5507C123.378 66.0995 126.331 68.2427 126.927 70.2871C127.58 72.4867 127.594 74.6721 127.041 76.8858C125.536 82.9345 121.717 86.9388 115.996 89.2653C114.52 89.8575 112.972 90.0972 111.382 89.8434C109.253 89.505 108.004 91.1969 107.961 92.6633C107.89 95.2153 106.556 96.9355 104.653 98.3736C101.417 100.813 97.669 102.209 93.836 103.337C87.391 105.254 80.7615 106.157 74.0751 106.777C68.5528 107.299 63.0022 107.397 57.4657 107.228C49.09 106.96 40.7285 106.312 32.5658 104.267C26.7028 102.787 21.2089 100.432 16.51 96.5266C14.0541 94.4821 12.166 92.0288 11.4704 88.8423C11.3711 88.4193 11.442 87.954 11.442 87.5169C11.8253 87.6579 12.237 87.7566 12.5919 87.9399C15.8144 89.5614 19.0795 89.7165 22.302 88.0104C26.2343 85.9237 26.6886 80.9606 23.2532 78.0983C21.3509 76.5051 19.1363 75.7578 16.6662 75.786C15.928 75.786 15.7435 75.5463 15.7576 74.8554C15.928 68.2991 16.4958 61.7992 18.3555 55.4543C19.0653 53.0433 19.548 50.5758 20.2862 48.1648C21.2657 44.9642 22.2169 41.7353 23.963 38.8167C24.5308 37.872 25.2548 37.3503 26.3053 37.1953C27.7533 36.9697 29.1871 36.7582 30.6351 36.5326C34.1841 35.9686 37.719 35.3623 41.268 34.8406C43.5394 34.5163 45.8107 34.1497 48.0963 34.0933C51.6311 34.0228 55.1801 34.0369 58.7008 34.3189C62.4911 34.615 66.2105 35.5456 69.8589 36.6454C71.7186 37.2094 73.635 37.6041 75.4521 38.2809C79.3702 39.7473 83.26 41.2842 87.0929 42.9197C87.7459 43.2017 88.186 44.1323 88.5551 44.8373C90.4432 48.5173 92.2745 52.2255 94.1341 55.9196C96.15 59.9521 98.1516 63.9987 100.167 68.0453C100.877 69.4553 101.403 70.9075 101.289 72.5572L101.317 72.5713ZM66.6506 73.6993C68.3541 73.8967 70.3131 74.1081 72.2722 74.3337C72.7265 74.376 73.1949 74.4465 73.635 74.4042C74.7139 74.3055 75.3244 73.4314 75.2108 72.3598C75.1256 71.5138 75.1114 70.6678 75.0972 69.8077C75.0972 68.2991 75.1398 66.8045 75.0972 65.2959C75.0546 64.1115 74.9553 64.0692 73.7344 64.0692C72.3006 64.0692 70.8668 64.0974 69.433 64.0269C69.0355 64.0128 68.4393 63.7731 68.3115 63.477C68.1979 63.195 68.4819 62.6169 68.7516 62.3349C70.086 60.9673 71.463 59.6419 72.8542 58.3306C73.2801 57.9217 73.4363 57.5552 73.195 56.9912C72.2012 54.6647 70.9094 52.5498 68.9645 50.8719C65.671 48.052 61.7813 48.1225 58.6582 51.027C57.1392 52.437 56.1455 54.1712 55.4357 56.0888C53.7321 60.7135 53.7179 65.451 54.5839 70.2307C54.811 71.4856 54.8394 71.4574 53.6044 71.8945C52.4119 72.3175 51.2194 72.7687 50.0695 73.2904C49.2036 73.6852 48.8061 74.658 49.0758 75.4476C49.3455 76.2654 50.1547 76.6884 51.191 76.5192C51.4608 76.4769 51.7163 76.3782 51.9718 76.3077C54.0303 75.6732 56.0603 74.8272 58.1755 74.4747C60.887 74.0235 63.6552 73.9672 66.679 73.7275L66.6506 73.6993ZM50.6516 106.495C52.7668 106.439 54.7826 106.354 56.6139 105.452C59.0983 104.211 61.0999 102.378 62.7324 100.164C65.2451 96.7663 66.0543 92.8184 66.2247 88.7154C66.2531 87.9681 66.3524 87.5592 67.261 87.4746C68.7516 87.3336 69.362 85.7545 68.4251 84.5842C68.1553 84.2599 67.8146 83.9779 67.4597 83.7382C66.2957 82.9486 65.4865 81.9476 65.231 80.5235C65.1174 79.889 64.947 79.2545 64.6773 78.6764C64.0811 77.3934 62.6189 77.2665 61.9801 78.5354C61.6252 79.2545 61.6961 80.171 61.5542 81.0029C61.4974 81.3413 61.4974 81.8348 61.2844 81.9899C59.5099 83.2588 57.7922 84.6406 55.8899 85.684C50.5522 88.6167 44.959 90.9572 38.9966 92.2967C37.8183 92.5646 36.5123 92.5646 35.3056 92.3954C33.4318 92.1275 32.9065 91.1264 33.4743 89.4063C33.4885 89.3499 33.5027 89.3076 33.5169 89.2512C33.7015 88.6167 33.7015 88.0245 33.1052 87.5874C32.4948 87.1362 31.8986 87.2349 31.3023 87.6156C29.4001 88.8282 28.8748 91.9724 30.3512 93.6785C31.8418 95.3845 33.7441 96.3292 36.0296 96.3715C37.0943 96.3997 38.1732 96.2305 39.2379 96.0754C40.2175 95.9344 40.2743 96.0049 40.3736 96.9496C40.4872 98.0917 40.5298 99.2901 40.9131 100.348C42.1907 103.788 45.6972 106.805 50.6232 106.537L50.6516 106.495ZM32.7503 50.5476C30.7487 50.5476 29.3433 51.2103 28.1082 52.2114C25.9504 53.9597 24.7722 56.3567 24.034 58.9369C23.168 61.9542 22.586 65.0562 23.1964 68.2286C23.3383 68.9759 23.1112 69.3284 22.3162 69.3566C21.7484 69.3848 21.1805 69.4835 20.6411 69.6104C19.7751 69.8218 19.2925 70.4563 19.2783 71.2882C19.2783 72.0496 19.7467 72.6841 20.5985 72.9097C21.1663 73.0507 21.7626 73.1635 22.3588 73.1776C27.1997 73.2481 32.0121 73.5019 36.711 74.8554C38.5707 75.3912 39.7348 74.6721 40.2033 72.8251C40.615 71.2177 40.7995 69.554 41.0834 67.9184C41.1828 67.298 40.9273 66.8891 40.3878 66.5225C38.9256 65.5215 37.4776 64.4781 36.0722 63.3924C35.0075 62.5887 35.0217 61.9119 36.1148 61.1788C37.2363 60.4315 38.4004 59.7688 39.5786 59.1061C40.0045 58.8664 40.2743 58.6267 40.1181 58.105C39.5503 56.2016 38.6985 54.4391 37.3499 52.9728C36.0296 51.5346 34.4965 50.5053 32.7787 50.5617L32.7503 50.5476ZM82.3514 88.7718C84.0691 88.8564 85.7017 88.4757 87.2065 87.7143C89.1229 86.7555 90.5709 85.3315 90.7839 83.0755C91.011 80.6927 89.7476 79.0289 87.9163 77.7459C85.3894 75.9834 82.5218 75.6309 79.5406 76.0398C77.1982 76.3641 75.2676 77.3229 74.0467 79.5365C72.8259 81.7643 72.9394 83.992 74.7139 85.8109C76.8008 87.954 79.4412 88.7154 82.3372 88.7577L82.3514 88.7718ZM52.2699 44.4143C52.2557 45.9652 53.6044 46.7125 55.0666 46.1062C56.2874 45.5986 57.4657 44.9501 58.7292 44.6117C63.1441 43.4414 67.5733 42.5531 71.9599 44.8373C72.8968 45.3308 73.8622 45.0065 74.3306 44.2592C74.8701 43.385 74.7423 42.2711 73.8054 41.7071C72.6981 41.0304 71.4914 40.3536 70.2422 40.0857C66.4518 39.2538 62.6615 39.5499 58.9563 40.6074C57.125 41.1291 55.3931 41.975 53.6328 42.7082C52.852 43.0466 52.3125 43.6388 52.2841 44.4143H52.2699ZM119.275 76.7307C119.46 76.3359 119.602 76.0539 119.73 75.7719C120.283 74.5875 120.851 73.3891 121.405 72.1906C121.646 71.6689 121.589 71.0908 121.078 70.8511C120.681 70.6678 120.099 70.6819 119.659 70.7947C119.346 70.8793 119.048 71.2318 118.835 71.542C116.536 74.7426 114.676 78.197 113.086 81.7925C112.575 82.9345 112.93 83.9356 113.824 84.3586C114.718 84.7957 115.712 84.415 116.294 83.3152C116.706 82.5397 117.047 81.7079 117.373 80.8901C117.572 80.3966 117.771 80.2133 118.381 80.2838C119.63 80.4389 120.908 80.4953 122.171 80.4953C123.094 80.4953 123.804 79.7621 123.932 78.8879C124.031 78.1265 123.534 77.2806 122.711 76.9986C122.242 76.8294 121.717 76.773 121.206 76.7448C120.624 76.7025 120.028 76.7448 119.29 76.7448L119.275 76.7307ZM33.9428 41.0163C32.1825 41.3265 30.5641 41.4392 29.0736 41.9186C27.8527 42.3134 26.6886 43.0325 25.6665 43.808C24.9425 44.3579 24.9993 45.1898 25.4678 45.8383C25.9646 46.5292 26.7028 46.7548 27.5404 46.4587C27.8385 46.3459 28.1224 46.1767 28.4347 46.078C29.4001 45.7537 30.3796 45.2321 31.3591 45.2039C33.4176 45.1334 35.4902 45.2885 37.5628 45.4577C38.4997 45.5282 39.4083 45.8665 40.331 46.0216C41.1686 46.1626 41.9068 45.7678 42.2759 45.0347C42.6308 44.3438 42.5172 43.5683 41.8642 42.9902C41.4667 42.6518 40.9841 42.3134 40.4872 42.2006C38.2726 41.7494 36.0438 41.3829 33.957 41.0022L33.9428 41.0163ZM36.8672 81.7643C37.1369 82.5961 37.3215 83.4703 37.7048 84.2458C38.5707 85.9801 40.9415 87.1221 42.6592 86.7273C43.6813 86.4876 44.3769 85.6558 44.3485 84.7393C44.3059 83.8369 43.5819 83.1742 42.5172 83.0191C42.1481 82.9627 41.7365 82.9204 41.4383 82.723C41.1828 82.5538 40.9415 82.1872 40.9273 81.8912C40.9273 81.6656 41.268 81.4118 41.4809 81.2003C41.5661 81.1157 41.7223 81.0875 41.8358 81.0311C42.7018 80.594 43.0425 79.9595 42.8863 79.1417C42.7444 78.3944 42.0914 77.9151 41.1402 77.8587C38.8121 77.7177 37.0234 79.3955 36.8672 81.7784V81.7643Z" fill="white"/>
<path id="Vector_27" d="M17.518 86.1064C15.6157 86.0077 14.0116 85.3592 12.6345 84.1043C12.1377 83.6672 12.0241 83.1737 12.308 82.5956C12.7339 81.7215 13.1598 80.8614 13.6141 80.0154C13.7418 79.7757 13.9832 79.536 14.2387 79.4232C16.0984 78.5349 19.4912 79.0707 21.0386 80.4807C22.9693 82.229 22.6002 84.5273 20.1726 85.5143C19.3493 85.8527 18.4123 85.9232 17.518 86.1064Z" fill="#F29FA1"/>
<path id="Vector_28" d="M66.6505 73.6994C63.6267 73.9532 60.8585 73.9955 58.147 74.4467C56.0318 74.7992 54.0018 75.6452 51.9434 76.2796C51.6878 76.3642 51.4323 76.4488 51.1626 76.4911C50.1405 76.6603 49.3313 76.2373 49.0474 75.4196C48.7776 74.63 49.1751 73.6571 50.0411 73.2623C51.191 72.7406 52.3834 72.2894 53.5759 71.8665C54.811 71.4153 54.7826 71.4576 54.5554 70.2027C53.7037 65.4229 53.7179 60.6854 55.4072 56.0607C56.117 54.1432 57.1107 52.4089 58.6297 50.999C61.767 48.0944 65.6426 48.038 68.9361 50.8439C70.8809 52.5076 72.187 54.6226 73.1665 56.9631C73.4078 57.5271 73.2517 57.9078 72.8258 58.3026C71.4346 59.6139 70.0576 60.9392 68.7231 62.3069C68.4392 62.5889 68.1553 63.1811 68.283 63.449C68.4108 63.7451 69.007 63.9847 69.4045 63.9988C70.8383 64.0693 72.2721 64.0411 73.7059 64.0411C74.941 64.0411 75.0404 64.0834 75.0688 65.2678C75.1114 66.7624 75.0688 68.271 75.0688 69.7797C75.0688 70.6257 75.083 71.4858 75.1823 72.3317C75.2959 73.4033 74.6855 74.2775 73.6066 74.3762C73.1523 74.4185 72.698 74.348 72.2437 74.3057C70.2847 74.0942 68.3256 73.8686 66.6221 73.6712L66.6505 73.6994Z" fill="black"/>
<path id="Vector_29" d="M50.6514 106.495C45.7254 106.777 42.219 103.745 40.9413 100.305C40.5438 99.2477 40.5154 98.0492 40.4019 96.9071C40.3167 95.9625 40.2457 95.892 39.2662 96.0329C38.2015 96.188 37.1226 96.3431 36.0579 96.329C33.7865 96.2867 31.87 95.3421 30.3794 93.636C28.9031 91.9441 29.4283 88.7857 31.3306 87.5732C31.9268 87.1925 32.5372 87.1079 33.1335 87.545C33.7297 87.982 33.7439 88.5742 33.5452 89.2087C33.531 89.2651 33.5168 89.3074 33.5026 89.3638C32.9347 91.0981 33.46 92.0991 35.3339 92.3529C36.5405 92.5221 37.8466 92.5221 39.0248 92.2542C44.9872 90.9148 50.5805 88.5742 55.9182 85.6415C57.8204 84.5981 59.5524 83.2305 61.3127 81.9474C61.5256 81.7923 61.5256 81.2988 61.5824 80.9604C61.7244 80.1285 61.6392 79.2121 62.0083 78.493C62.6471 77.2381 64.1093 77.3509 64.7055 78.634C64.9753 79.2121 65.1456 79.8465 65.2592 80.481C65.5005 81.9051 66.3097 82.9062 67.488 83.6958C67.8429 83.9354 68.1836 84.2174 68.4533 84.5417C69.3902 85.712 68.7798 87.2912 67.2892 87.4322C66.3807 87.5168 66.2813 87.9256 66.2529 88.6729C66.0826 92.7759 65.2734 96.7238 62.7607 100.122C61.1281 102.335 59.1407 104.168 56.6422 105.409C54.8109 106.326 52.795 106.41 50.6798 106.453L50.6514 106.495ZM50.6514 102.688C50.6514 102.758 50.6798 102.829 50.6798 102.914C52.1988 102.575 53.9023 102.575 55.1942 101.856C58.9845 99.7553 61.1991 96.3854 62.0225 92.1555C62.2496 90.9994 62.0225 90.8302 60.9152 91.1545C57.6643 92.0991 55.2794 94.2564 53.1074 96.6815C52.0143 97.8941 51.1909 98.162 49.7855 97.3301C47.9258 96.2162 46.0093 96.2021 44.0077 96.7238C43.4824 96.8648 43.3263 97.1045 43.5108 97.5839C43.6528 97.9928 43.7521 98.4299 43.9651 98.7824C45.4841 101.278 47.5709 102.829 50.6514 102.688Z" fill="black"/>
<path id="Vector_30" d="M32.7503 50.5473C34.4538 50.505 36.0012 51.5343 37.3214 52.9583C38.67 54.4388 39.5218 56.1872 40.0896 58.0906C40.2458 58.6264 39.9761 58.852 39.5502 59.0917C38.3861 59.7544 37.2078 60.4171 36.0864 61.1643C34.9933 61.8975 34.9791 62.5743 36.0438 63.378C37.4492 64.4637 38.8972 65.507 40.3594 66.5081C40.8988 66.8747 41.1544 67.2836 41.055 67.904C40.7711 69.5395 40.5865 71.2033 40.1748 72.8107C39.7064 74.6577 38.5423 75.3768 36.6826 74.841C31.9837 73.4874 27.1712 73.2336 22.3304 73.1631C21.7483 73.1631 21.1521 73.0504 20.5701 72.8953C19.7183 72.6697 19.2356 72.0352 19.2498 71.2738C19.2498 70.4419 19.7609 69.8074 20.6126 69.5959C21.1663 69.469 21.7341 69.3562 22.2878 69.3421C23.0828 69.3139 23.3099 68.9615 23.1679 68.2142C22.5433 65.0417 23.1395 61.9398 24.0055 58.9225C24.7437 56.3423 25.922 53.9594 28.0798 52.197C29.3148 51.1959 30.7202 50.5332 32.7219 50.5332L32.7503 50.5473Z" fill="black"/>
<path id="Vector_31" d="M82.3513 88.7859C79.4411 88.7436 76.8148 87.9963 74.728 85.8391C72.9535 84.0202 72.8399 81.7784 74.0608 79.5647C75.2816 77.3511 77.2123 76.4064 79.5547 76.068C82.5358 75.645 85.4034 76.0116 87.9303 77.7741C89.7616 79.0571 91.0393 80.7209 90.7979 83.1037C90.585 85.3597 89.137 86.7696 87.2205 87.7425C85.7016 88.5039 84.0832 88.8846 82.3655 88.8L82.3513 88.7859ZM82.3087 85.7827C83.3166 85.5289 84.3529 85.3456 85.3325 85.0072C86.3972 84.6406 87.3909 84.0484 87.4903 82.7653C87.5896 81.4682 86.6243 80.8337 85.6874 80.1992C85.6022 80.1428 85.5028 80.1005 85.4034 80.0441C82.5216 78.7046 79.7108 78.761 76.9994 80.4812C76.0766 81.0593 75.7927 81.9476 76.3463 82.8781C76.6161 83.3293 76.9994 83.7523 77.4111 84.0625C78.8307 85.1482 80.4916 85.5853 82.2945 85.7686L82.3087 85.7827Z" fill="black"/>
<path id="Vector_32" d="M52.2842 44.4278C52.3268 43.6523 52.852 43.0601 53.6328 42.7217C55.3931 41.9745 57.125 41.1426 58.9563 40.6209C62.6615 39.5775 66.466 39.2814 70.2422 40.0992C71.4914 40.3671 72.6981 41.0439 73.8054 41.7207C74.7423 42.2847 74.8701 43.4126 74.3307 44.2727C73.8764 45.02 72.8969 45.3443 71.9599 44.8508C67.5733 42.5526 63.1442 43.4408 58.7292 44.6252C57.4657 44.9636 56.2875 45.6122 55.0666 46.1198C53.6044 46.726 52.2416 45.9647 52.27 44.4278H52.2842Z" fill="black"/>
<path id="Vector_33" d="M119.29 76.7444C120.028 76.7444 120.624 76.7162 121.206 76.7444C121.717 76.7867 122.242 76.8431 122.711 76.9982C123.534 77.2802 124.031 78.1262 123.932 78.8875C123.818 79.7617 123.094 80.4949 122.171 80.4949C120.908 80.4949 119.63 80.4385 118.381 80.2834C117.771 80.2129 117.572 80.3821 117.373 80.8897C117.047 81.7075 116.72 82.5394 116.294 83.3148C115.712 84.4146 114.719 84.7953 113.824 84.3582C112.93 83.9211 112.575 82.92 113.086 81.7921C114.676 78.1967 116.536 74.7564 118.835 71.5416C119.048 71.2455 119.332 70.8789 119.659 70.7943C120.113 70.6815 120.681 70.6674 121.078 70.8507C121.589 71.0904 121.646 71.6685 121.405 72.1902C120.851 73.3887 120.298 74.5731 119.73 75.7715C119.602 76.0535 119.46 76.3355 119.275 76.7303L119.29 76.7444Z" fill="black"/>
<path id="Vector_34" d="M33.9427 41.0156C36.0295 41.3963 38.2583 41.7629 40.4728 42.2141C40.9697 42.3128 41.4666 42.6512 41.8499 43.0037C42.5171 43.5818 42.6165 44.3572 42.2616 45.0481C41.8925 45.7672 41.1401 46.1761 40.3167 46.0351C39.3939 45.8659 38.4854 45.5416 37.5485 45.4711C35.49 45.316 33.4174 45.1609 31.3448 45.2173C30.3652 45.2455 29.3857 45.7672 28.4204 46.0915C28.1081 46.1902 27.8383 46.3735 27.526 46.4722C26.6885 46.7683 25.9503 46.5427 25.4534 45.8518C24.9849 45.2032 24.9281 44.3713 25.6521 43.8215C26.6885 43.046 27.8383 42.3269 29.0592 41.9321C30.5498 41.4527 32.1681 41.3399 33.9285 41.0297L33.9427 41.0156Z" fill="black"/>
<path id="Vector_35" d="M36.8672 81.7639C37.0233 79.3811 38.812 77.7032 41.1402 77.8442C42.0913 77.9006 42.7302 78.38 42.8863 79.1273C43.0425 79.945 42.7018 80.5654 41.8358 81.0166C41.7222 81.073 41.5661 81.1012 41.4809 81.1858C41.268 81.3973 40.9131 81.6511 40.9273 81.8767C40.9273 82.1728 41.1828 82.5394 41.4383 82.7086C41.7364 82.906 42.1481 82.9483 42.5172 83.0047C43.5819 83.1598 44.3059 83.8366 44.3485 84.7248C44.3911 85.6413 43.6813 86.4732 42.6592 86.7129C40.9415 87.1077 38.5707 85.9797 37.7048 84.2313C37.3215 83.4559 37.1511 82.5817 36.8672 81.7498V81.7639Z" fill="black"/>
<path id="Vector_36" d="M82.323 85.7682C80.5059 85.5849 78.8592 85.1478 77.4396 84.0621C77.0137 83.7378 76.6446 83.3289 76.3749 82.8777C75.8212 81.9472 76.1052 81.0589 77.0279 80.4808C79.7535 78.7606 82.5502 78.7042 85.432 80.0437C85.5314 80.086 85.6307 80.1283 85.7159 80.1988C86.6528 80.8192 87.6182 81.4678 87.5188 82.7649C87.4194 84.048 86.4257 84.6402 85.361 85.0068C84.3815 85.3452 83.3452 85.5285 82.3372 85.7823L82.323 85.7682Z" fill="#F29FA1"/>
<path id="Vector_37" d="M50.8645 103.012C47.2161 102.955 44.9447 101.08 43.5251 98.2462C42.9005 97.0054 43.0708 96.808 44.4195 96.4837C46.2792 96.0325 48.0253 96.2299 49.7004 97.1887C51.2904 98.1052 52.0854 97.8514 53.292 96.4978C55.535 94.0163 57.9909 91.8026 61.327 90.8439C62.4769 90.5055 62.7182 90.6747 62.5053 91.8026C61.6677 96.244 59.3395 99.7548 55.3646 101.954C54.0728 102.673 52.3693 102.673 50.8645 102.998V103.012Z" fill="white"/>
</g>
</svg>
