<svg width="56" height="58" viewBox="0 0 56 58" fill="none" xmlns="http://www.w3.org/2000/svg">
<g clip-path="url(#clip0_1234_5844)">
<path d="M38.2437 5.99449C39.3473 5.84042 39.8142 6.34464 39.6444 7.46514C40.6772 7.78729 40.7197 7.82931 40.7055 8.9218C40.6914 9.93025 40.5499 10.9527 40.6348 11.9612C40.6772 12.4094 41.0451 12.8716 41.3705 13.2217C41.9365 13.824 41.9789 13.922 41.3705 14.5103C41.4554 14.6364 41.5262 14.7904 41.6252 14.9165C41.7242 15.0425 41.8374 15.1686 42.0496 15.4067C41.8374 15.5188 41.6535 15.6308 41.4271 15.7569C41.7384 16.2331 41.8091 16.5972 41.229 16.8213C41.1441 16.8634 41.1017 17.0875 41.1017 17.2415C41.0734 17.4796 41.1158 17.7317 41.1017 17.9699C41.031 18.6281 40.7621 18.8242 40.1113 18.6982C39.8142 18.6422 39.5029 18.5581 39.2058 18.5161C38.3286 18.362 37.7485 18.7542 37.6212 19.6226C37.5646 19.9868 37.5787 20.3509 37.6212 20.7151C37.8192 22.5499 38.7813 23.0821 40.465 22.3118C41.7384 21.7235 42.7288 20.3229 42.2336 18.8663C42.2053 18.7962 42.2336 18.7122 42.2336 18.6141C42.3609 18.6141 42.46 18.5861 42.559 18.5861C42.842 18.5581 43.3089 18.6281 43.3938 18.5021C43.6201 18.0819 43.7475 17.5917 43.7899 17.1155C43.7899 16.9754 43.3938 16.6813 43.1532 16.6533C42.7146 16.5832 42.3892 16.5132 42.4175 15.981C42.4458 15.5047 42.6297 15.2806 43.1815 15.2806C43.6626 15.2806 44.1578 15.0565 44.6388 14.9725C45.0067 14.9165 45.3887 14.9305 45.7566 14.9445C46.0254 14.9445 46.3933 14.8605 46.5489 15.0145C47.6666 16.107 48.9824 15.4907 50.1992 15.4347C51.5009 15.3787 52.7035 14.9585 53.5949 13.922C53.7788 13.7119 53.991 13.5019 54.2174 13.3338C54.9673 12.7175 55.5332 12.8436 55.6889 13.768C55.9011 15.0005 55.9435 16.2751 56.0143 17.5357C56.0284 17.9138 55.9294 18.306 55.8162 18.6702C55.6181 19.2864 55.2503 19.4265 54.6843 19.1324C54.3589 18.9643 54.0476 18.7402 53.7647 18.5301C51.8405 17.0875 49.6616 17.1015 47.4403 17.4516C46.7187 17.5637 46.1669 18.0399 46.1386 18.9223C46.365 18.9923 46.6196 19.0063 46.8177 19.1324C46.9734 19.2304 47.1573 19.4545 47.1573 19.6086C47.1573 20.9112 47.1573 22.2278 47.0299 23.5163C46.8177 25.5332 45.9688 27.284 44.3559 28.5866C42.7429 29.8892 40.8329 29.9732 39.0785 28.8527C38.9794 28.7827 38.8662 28.7267 38.753 28.6707C37.8192 28.1944 37.2816 28.4466 37.0411 29.469C36.6732 31.0517 36.3336 32.6484 35.8667 34.2171C34.0557 40.3099 31.9476 46.2906 28.9339 51.9071C28.0143 53.6298 26.9956 55.2826 25.5949 56.6692C23.9961 58.2659 22.5388 58.448 20.5863 57.3135C20.0911 57.0194 19.5959 56.7112 19.1714 56.3331C17.7283 55.0585 16.3134 53.7279 14.8844 52.4393C14.4741 52.0751 14.0497 51.697 13.5828 51.4028C12.8187 50.9126 12.4084 51.1507 12.3235 52.0471C12.2669 52.7194 12.1962 53.3917 12.0689 54.05C12.0123 54.3582 11.8708 54.6803 11.701 54.9464C11.1916 55.7588 10.3427 55.8008 9.80509 54.9884C9.02692 53.8259 8.89958 52.5374 9.32403 51.2348C9.6353 50.2963 10.1305 49.3999 10.4701 48.4755C10.6116 48.0974 10.7672 47.4951 10.5833 47.257C10.2154 46.8088 9.6353 47.1029 9.25329 47.397C8.2063 48.1954 7.23005 49.0638 6.1972 49.8902C5.67371 50.3103 5.13606 50.7445 4.54182 51.0667C3.50898 51.6409 2.57517 51.0667 2.54688 49.8902C2.54688 49.484 2.60347 49.0778 2.73081 48.6856C3.15526 47.4111 3.89099 46.3326 5.00872 45.5622C5.48978 45.2261 6.12646 45.072 6.6924 44.8759C7.07441 44.7359 7.49887 44.7078 7.88088 44.5538C8.61661 44.2456 8.68735 43.7554 8.10726 43.1952C6.97537 42.0887 5.82934 40.9962 4.7399 39.8617C4.32959 39.4415 3.99003 38.9373 3.70706 38.419C3.2543 37.6067 3.48068 36.9484 4.37204 36.6822C5.44733 36.3461 6.56507 36.094 7.66865 35.9399C13.6535 35.0855 18.8177 32.4664 23.4443 28.6987C23.9678 28.2785 24.4205 27.7602 24.8591 27.242C25.1138 26.9339 25.3119 26.5697 25.4817 26.1915C25.6939 25.7293 25.8213 25.1551 25.4109 24.8189C25.128 24.5948 24.562 24.5948 24.1517 24.6789C22.8642 24.917 21.5908 25.3091 20.2892 25.5052C15.7616 26.1775 12.3094 24.5108 9.90413 20.6871C8.91373 19.1184 8.27704 17.4096 7.93748 15.4067C9.94657 17.6477 11.7293 19.9728 14.941 20.2249C12.2811 19.0203 10.2437 17.1715 8.94202 14.5803C7.65451 11.9892 7.48472 9.28596 8.1497 6.41467C8.63076 7.10098 9.04106 7.71726 9.50797 8.31953C11.418 10.8126 14.0638 12.1292 17.0491 12.8996C18.4074 13.2497 19.7515 13.5859 21.0956 13.9781C24.6045 14.9725 27.038 17.2135 28.5944 20.435C28.9764 21.2193 29.9526 21.6115 30.7167 21.1773C30.9996 21.0232 31.226 20.505 31.1977 20.1688C31.1553 19.7487 31.0987 19.2304 30.4054 19.1044C29.9102 19.0203 29.4716 18.6422 29.2452 18.1239C29.1745 17.9699 28.9764 17.7598 28.8207 17.7598C28.1982 17.7317 28.0143 17.3536 27.9718 16.8353C27.9718 16.7233 28.0567 16.5132 28.0001 16.4852C27.4625 16.093 27.5757 15.3647 27.2503 14.9585C26.8117 14.3983 26.9248 14.1742 27.4059 13.866C27.4483 13.838 27.4766 13.782 27.5474 13.6979C27.4625 13.5719 27.4059 13.4178 27.3069 13.3058C27.0239 12.9976 26.9107 12.7455 27.2644 12.3673C27.4059 12.2133 27.3493 11.8491 27.2927 11.597C27.2078 11.2188 27.0805 10.8827 27.4059 10.5045C27.5191 10.3785 27.4625 9.98627 27.3493 9.80419C27.1229 9.46804 27.0946 9.24394 27.4483 8.97782C27.5757 8.87978 27.6889 8.64167 27.6606 8.51561C27.5049 7.99738 27.8162 7.84331 28.2124 7.77328C28.6934 7.68924 28.8632 7.40912 29.0896 6.98893C29.3725 6.4847 29.9668 6.12054 30.4761 5.78439C30.9006 5.50427 31.4099 5.30818 31.9051 5.1401C32.1174 5.07007 32.372 5.1401 32.6126 5.15411C32.7965 5.15411 33.037 5.26616 33.1785 5.18212C34.1265 4.67789 35.0744 4.66389 36.0224 5.16811C36.1497 5.23815 36.3195 5.32218 36.4185 5.28016C37.2957 4.95802 37.8334 5.3502 38.2154 6.07852L38.2437 5.99449Z" fill="#FF7DA7"/>
<path d="M4.31541 25.8834C4.4003 25.7294 4.4852 25.5893 4.57009 25.4492C4.8955 24.945 5.31996 24.5388 5.8859 24.3427C7.00364 23.9506 8.22042 24.6509 8.53168 25.8554C8.75806 26.7378 8.53168 27.5502 8.02234 28.2645C7.66862 28.7547 7.21587 29.1329 6.76311 29.5111C6.11228 30.0573 5.47559 30.6035 4.82476 31.1638C4.64083 31.3179 4.4852 31.5 4.30126 31.668C4.30126 31.668 4.27297 31.668 4.27297 31.64C3.57969 30.9257 2.81567 30.3094 2.05164 29.6791C1.57059 29.287 1.08954 28.8808 0.679233 28.3765C0.226479 27.8163 -0.0140464 27.158 0.000102155 26.4017C0.0283993 25.3372 0.778273 24.4128 1.78282 24.2587C2.49025 24.1467 3.08449 24.3988 3.59384 24.903C3.86266 25.1691 4.07489 25.4773 4.24467 25.8274C4.24467 25.8554 4.27297 25.8694 4.27297 25.8974C4.27297 25.8974 4.27297 25.8974 4.28712 25.8974L4.31541 25.8834Z" fill="#EC2B65"/>
<path d="M21.3079 1.54073C21.3928 1.40066 21.4635 1.2606 21.5484 1.13454C21.8597 0.658331 22.2417 0.280162 22.7793 0.0980802C23.8122 -0.266083 24.9582 0.392212 25.2412 1.51271C25.4534 2.33908 25.2412 3.08142 24.7601 3.75372C24.4347 4.20192 24.0103 4.56608 23.6 4.91624C22.9916 5.42047 22.3973 5.9387 21.8031 6.44292C21.6333 6.58299 21.4777 6.75106 21.322 6.90513C21.322 6.90513 21.2937 6.90513 21.2937 6.87712C20.6571 6.21882 19.9355 5.64457 19.2281 5.0563C18.7753 4.69214 18.3225 4.31397 17.9547 3.85176C17.5161 3.31952 17.2897 2.70325 17.3038 2.00293C17.3321 1.00849 18.0396 0.154105 18.9734 0.0140425C19.6242 -0.0840014 20.1902 0.154105 20.6571 0.602306C20.9117 0.854419 21.1098 1.13454 21.2654 1.45669C21.2654 1.4707 21.2796 1.49871 21.2937 1.51271C21.2937 1.51271 21.2937 1.51271 21.3079 1.51271V1.54073Z" fill="#EC2B65"/>
<path d="M47.5816 7.12952C47.6381 7.03148 47.6947 6.93343 47.7513 6.83539C47.9636 6.49924 48.2465 6.23312 48.6285 6.10706C49.3643 5.85495 50.1707 6.31715 50.3688 7.11551C50.5103 7.70378 50.3688 8.23602 50.0293 8.71223C49.7887 9.03437 49.4916 9.28649 49.1945 9.5386C48.77 9.90276 48.3456 10.2669 47.9211 10.6311C47.8079 10.7291 47.6947 10.8552 47.5816 10.9672C47.5816 10.9672 47.5674 10.9672 47.5533 10.9532C47.1005 10.477 46.5912 10.0708 46.0818 9.66466C45.7564 9.39854 45.4451 9.13242 45.1763 8.81027C44.865 8.4321 44.7094 7.99791 44.7235 7.49368C44.7377 6.79337 45.247 6.17709 45.912 6.07905C46.3789 6.00902 46.7751 6.17709 47.1146 6.49924C47.2986 6.66731 47.4401 6.87741 47.5533 7.10151C47.5533 7.11551 47.5674 7.12952 47.5816 7.14353V7.12952Z" fill="#EC2B65"/>
<path d="M39.2481 43.5875C39.3046 43.4895 39.3612 43.3914 39.4178 43.2934C39.6301 42.9572 39.913 42.6911 40.295 42.5651C41.0308 42.313 41.8372 42.7752 42.0353 43.5735C42.1768 44.1618 42.0353 44.694 41.6958 45.1702C41.4552 45.4924 41.1581 45.7445 40.861 45.9966C40.4365 46.3608 40.0121 46.7249 39.5876 47.0891C39.4744 47.1871 39.3612 47.3132 39.2481 47.4253C39.2481 47.4253 39.2339 47.4252 39.2198 47.4112C38.767 46.935 38.2577 46.5288 37.7483 46.1227C37.4229 45.8565 37.1116 45.5904 36.8428 45.2683C36.5315 44.8901 36.3759 44.4559 36.39 43.9517C36.4042 43.2514 36.9135 42.6351 37.5785 42.5371C38.0454 42.467 38.4416 42.6351 38.7812 42.9572C38.9651 43.1253 39.1066 43.3354 39.2198 43.5595C39.2198 43.5735 39.2339 43.5875 39.2481 43.6015V43.5875Z" fill="#EC2B65"/>
</g>
<defs>
<clipPath id="clip0_1234_5844">
<rect width="56" height="58" fill="white"/>
</clipPath>
</defs>
</svg>
