<svg width="48" height="50" viewBox="0 0 48 50" fill="none" xmlns="http://www.w3.org/2000/svg">
<g clip-path="url(#clip0_1132_8259)">
<path d="M32.7801 5.16783C33.7261 5.03501 34.1263 5.46969 33.9807 6.43564C34.866 6.71335 34.9024 6.74958 34.8903 7.69138C34.8782 8.56073 34.7569 9.44216 34.8297 10.3115C34.866 10.6979 35.1813 11.0964 35.4603 11.3982C35.9454 11.9174 35.9817 12.0019 35.4603 12.5091C35.533 12.6177 35.5937 12.7505 35.6786 12.8592C35.7635 12.9679 35.8605 13.0766 36.0424 13.2818C35.8605 13.3784 35.7028 13.475 35.5088 13.5837C35.7756 13.9942 35.8362 14.3081 35.339 14.5013C35.2662 14.5376 35.2299 14.7307 35.2299 14.8636C35.2056 15.0688 35.242 15.2862 35.2299 15.4914C35.1692 16.0589 34.9388 16.228 34.3809 16.1193C34.1263 16.071 33.8595 15.9986 33.6048 15.9623C32.8529 15.8295 32.3557 16.1676 32.2465 16.9162C32.198 17.2301 32.2101 17.5441 32.2465 17.858C32.4163 19.4397 33.241 19.8986 34.6841 19.2345C35.7756 18.7274 36.6245 17.5199 36.2 16.2642C36.1758 16.2038 36.2 16.1314 36.2 16.0468C36.3092 16.0468 36.3941 16.0227 36.479 16.0227C36.7215 15.9986 37.1217 16.0589 37.1945 15.9503C37.3885 15.588 37.4977 15.1654 37.534 14.7549C37.534 14.6341 37.1945 14.3806 36.9883 14.3564C36.6124 14.2961 36.3334 14.2357 36.3577 13.7769C36.382 13.3663 36.5396 13.1731 37.0126 13.1731C37.4249 13.1731 37.8494 12.98 38.2617 12.9075C38.577 12.8592 38.9044 12.8713 39.2197 12.8834C39.4502 12.8834 39.7655 12.8109 39.8989 12.9437C40.8569 13.8855 41.9848 13.3543 43.0277 13.306C44.1434 13.2577 45.1743 12.8954 45.9383 12.0019C46.0959 11.8208 46.2779 11.6397 46.4719 11.4948C47.1146 10.9635 47.5997 11.0722 47.7331 11.8691C47.915 12.9317 47.9514 14.0304 48.0121 15.1171C48.0242 15.4431 47.9393 15.7812 47.8423 16.0951C47.6725 16.6264 47.3572 16.7472 46.8721 16.4936C46.5932 16.3487 46.3264 16.1555 46.0838 15.9744C44.4345 14.7307 42.5669 14.7428 40.6629 15.0447C40.0444 15.1413 39.5714 15.5518 39.5472 16.3125C39.7412 16.3729 39.9595 16.3849 40.1293 16.4936C40.2627 16.5781 40.4204 16.7713 40.4204 16.9041C40.4204 18.027 40.4204 19.162 40.3112 20.2729C40.1293 22.0116 39.4017 23.5209 38.0191 24.6438C36.6366 25.7667 34.9994 25.8392 33.4956 24.8732C33.4108 24.8128 33.3137 24.7645 33.2167 24.7163C32.4163 24.3057 31.9555 24.5231 31.7493 25.4045C31.434 26.7689 31.1429 28.1454 30.7427 29.4977C29.1904 34.7501 27.3835 39.9058 24.8003 44.7476C24.0121 46.2328 23.1389 47.6576 21.9383 48.8529C20.5679 50.2294 19.3188 50.3864 17.6452 49.4084C17.2208 49.1548 16.7963 48.8892 16.4325 48.5631C15.1955 47.4644 13.9828 46.3173 12.7579 45.2065C12.4062 44.8925 12.0424 44.5665 11.6422 44.313C10.9873 43.8904 10.6356 44.0956 10.5629 44.8684C10.5143 45.448 10.4537 46.0275 10.3446 46.595C10.296 46.8607 10.1748 47.1384 10.0292 47.3678C9.59266 48.0681 8.86502 48.1043 8.40418 47.404C7.73718 46.4018 7.62804 45.291 7.99186 44.1681C8.25866 43.3591 8.68311 42.5863 8.97417 41.7894C9.09544 41.4634 9.22884 40.9442 9.07119 40.739C8.75588 40.3526 8.25866 40.6061 7.93122 40.8597C7.0338 41.5479 6.19701 42.2965 5.31171 43.0089C4.863 43.3712 4.40216 43.7455 3.89282 44.0232C3.00752 44.5182 2.20712 44.0232 2.18286 43.0089C2.18286 42.6588 2.23137 42.3086 2.34052 41.9705C2.70434 40.8718 3.33496 39.942 4.29302 39.278C4.70535 38.9882 5.25108 38.8554 5.73617 38.6863C6.06361 38.5656 6.42743 38.5414 6.75487 38.4086C7.38549 38.143 7.44613 37.7204 6.9489 37.2374C5.97872 36.2835 4.9964 35.3417 4.0626 34.3637C3.71091 34.0014 3.41985 33.5668 3.1773 33.12C2.78923 32.4197 2.98327 31.8522 3.74729 31.6228C4.66897 31.333 5.62703 31.1157 6.57296 30.9829C11.7028 30.2463 16.1293 27.9884 20.0949 24.7404C20.5436 24.3782 20.9317 23.9314 21.3077 23.4847C21.526 23.219 21.6957 22.9051 21.8413 22.5791C22.0232 22.1806 22.1323 21.6856 21.7806 21.3958C21.5381 21.2026 21.053 21.2026 20.7013 21.2751C19.5977 21.4803 18.5063 21.8184 17.3905 21.9874C13.5098 22.567 10.5507 21.1302 8.48908 17.8339C7.64016 16.4815 7.09443 15.0085 6.80338 13.2818C8.52546 15.2137 10.0535 17.2181 12.8064 17.4354C10.5265 16.397 8.78013 14.8032 7.66442 12.5694C6.56083 10.3357 6.4153 8.00531 6.98529 5.53006C7.39762 6.12171 7.74931 6.65298 8.14951 7.17218C9.7867 9.32142 12.0545 10.4564 14.6134 11.1205C15.7776 11.4224 16.9297 11.7121 18.0818 12.0502C21.0894 12.9075 23.1753 14.8394 24.5093 17.6165C24.8367 18.2927 25.6735 18.6308 26.3284 18.2565C26.5709 18.1236 26.765 17.6769 26.7407 17.3871C26.7043 17.0249 26.6558 16.5781 26.0616 16.4695C25.6371 16.397 25.2612 16.071 25.0671 15.6242C25.0065 15.4914 24.8367 15.3103 24.7033 15.3103C24.1697 15.2862 24.0121 14.9602 23.9757 14.5134C23.9757 14.4168 24.0485 14.2357 23.9999 14.2115C23.5391 13.8735 23.6361 13.2456 23.3572 12.8954C22.9812 12.4125 23.0783 12.2193 23.4906 11.9536C23.527 11.9295 23.5512 11.8812 23.6119 11.8087C23.5391 11.7001 23.4906 11.5673 23.4057 11.4707C23.1632 11.205 23.0661 10.9877 23.3693 10.6617C23.4906 10.5289 23.4421 10.2149 23.3936 9.99758C23.3208 9.67158 23.2117 9.38179 23.4906 9.05578C23.5876 8.94711 23.5391 8.60903 23.4421 8.45206C23.248 8.16228 23.2238 7.96909 23.527 7.73968C23.6361 7.65515 23.7331 7.44989 23.7089 7.34122C23.5755 6.89447 23.8423 6.76165 24.1819 6.70128C24.5942 6.62883 24.7397 6.38734 24.9337 6.02511C25.1763 5.59044 25.6856 5.2765 26.1222 4.98672C26.486 4.74523 26.9226 4.57619 27.3471 4.4313C27.529 4.37092 27.7473 4.4313 27.9535 4.44337C28.1111 4.44337 28.3173 4.53996 28.4385 4.46752C29.2511 4.03284 30.0636 4.02077 30.8761 4.45544C30.9853 4.51582 31.1308 4.58826 31.2157 4.55204C31.9676 4.27433 32.4284 4.61241 32.7559 5.24028L32.7801 5.16783Z" fill="white"/>
<path d="M3.69886 22.3135C3.77162 22.1806 3.84438 22.0599 3.91715 21.9391C4.19608 21.5045 4.5599 21.1543 5.04499 20.9853C6.00305 20.6472 7.046 21.2509 7.3128 22.2893C7.50684 23.05 7.3128 23.7503 6.87622 24.3661C6.57303 24.7887 6.18496 25.1147 5.79688 25.4407C5.23903 25.9116 4.6933 26.3825 4.13544 26.8655C3.97778 26.9983 3.84438 27.1553 3.68673 27.3002C3.68673 27.3002 3.66247 27.3002 3.66247 27.276C3.06823 26.6602 2.41336 26.129 1.75848 25.5856C1.34615 25.2475 0.933823 24.8974 0.58213 24.4627C0.194055 23.9797 -0.0121095 23.4122 1.78069e-05 22.7602C0.0242725 21.8426 0.667021 21.0456 1.52806 20.9128C2.13443 20.8162 2.64378 21.0336 3.08036 21.4682C3.31078 21.6977 3.49269 21.9633 3.63822 22.2652C3.63822 22.2893 3.66247 22.3014 3.66247 22.3255C3.66247 22.3255 3.66247 22.3255 3.6746 22.3255L3.69886 22.3135Z" fill="#EC2B65"/>
<path d="M18.2639 1.32818C18.3366 1.20744 18.3973 1.08669 18.47 0.978025C18.7368 0.567497 19.0643 0.241488 19.5251 0.0845215C20.4104 -0.229412 21.3927 0.338084 21.6353 1.30403C21.8172 2.01642 21.6353 2.65636 21.2229 3.23593C20.944 3.62231 20.5802 3.93625 20.2285 4.23811C19.707 4.67279 19.1977 5.11954 18.6883 5.55421C18.5428 5.67496 18.4094 5.81985 18.276 5.95267C18.276 5.95267 18.2517 5.95267 18.2517 5.92852C17.706 5.36102 17.0875 4.86598 16.4812 4.35885C16.0931 4.04492 15.705 3.71891 15.3897 3.32046C15.0137 2.86163 14.8197 2.33036 14.8318 1.72664C14.8561 0.869356 15.4625 0.132819 16.2629 0.0120752C16.8207 -0.0724455 17.3058 0.132819 17.706 0.519199C17.9243 0.736538 18.0941 0.978025 18.2275 1.25574C18.2275 1.26781 18.2396 1.29196 18.2517 1.30403C18.2517 1.30403 18.2517 1.30403 18.2639 1.30403V1.32818Z" fill="#EC2B65"/>
<path d="M40.7842 6.14586C40.8327 6.06134 40.8812 5.97682 40.9297 5.8923C41.1117 5.60251 41.3542 5.3731 41.6816 5.26443C42.3123 5.04709 43.0035 5.44554 43.1733 6.13378C43.2946 6.64091 43.1733 7.09973 42.8822 7.51026C42.6761 7.78797 42.4214 8.00531 42.1667 8.22265C41.8029 8.53659 41.4391 8.85052 41.0753 9.16445C40.9783 9.24897 40.8812 9.35764 40.7842 9.45424C40.7842 9.45424 40.7721 9.45424 40.76 9.44216C40.3719 9.03164 39.9353 8.68148 39.4987 8.33132C39.2198 8.10191 38.953 7.87249 38.7226 7.59478C38.4558 7.26878 38.3224 6.89447 38.3345 6.45979C38.3466 5.85607 38.7832 5.3248 39.3532 5.24028C39.7534 5.17991 40.093 5.3248 40.384 5.60251C40.5417 5.7474 40.6629 5.92852 40.76 6.12171C40.76 6.13378 40.7721 6.14586 40.7842 6.15793V6.14586Z" fill="#EC2B65"/>
<path d="M33.6412 37.5755C33.6897 37.4909 33.7382 37.4064 33.7867 37.3219C33.9686 37.0321 34.2111 36.8027 34.5386 36.694C35.1692 36.4767 35.8605 36.8752 36.0302 37.5634C36.1515 38.0705 36.0302 38.5293 35.7392 38.9399C35.533 39.2176 35.2783 39.4349 35.0237 39.6523C34.6599 39.9662 34.296 40.2801 33.9322 40.5941C33.8352 40.6786 33.7382 40.7873 33.6412 40.8838C33.6412 40.8838 33.629 40.8838 33.6169 40.8718C33.2288 40.4612 32.7922 40.1111 32.3557 39.7609C32.0767 39.5315 31.8099 39.3021 31.5795 39.0244C31.3127 38.6984 31.1793 38.3241 31.1914 37.8894C31.2036 37.2857 31.6401 36.7544 32.2101 36.6699C32.6103 36.6095 32.9499 36.7544 33.241 37.0321C33.3986 37.177 33.5199 37.3581 33.6169 37.5513C33.6169 37.5634 33.629 37.5755 33.6412 37.5875V37.5755Z" fill="#EC2B65"/>
</g>
<defs>
<clipPath id="clip0_1132_8259">
<rect width="48" height="50" fill="white"/>
</clipPath>
</defs>
</svg>
