<svg width="33" height="43" viewBox="0 0 33 43" fill="none" xmlns="http://www.w3.org/2000/svg">
<g id="Isolation_Mode" clip-path="url(#clip0_1137_7225)">
<path id="Vector" d="M32.57 42.26H0.0200499C0.0200499 42.07 4.99133e-05 41.9 4.99133e-05 41.73C4.99133e-05 37.59 -0.00995009 33.46 4.99133e-05 29.32C0.0100499 25.38 2.04005 22.2 5.17005 21.2C5.69005 21.03 6.25005 20.93 6.79005 20.93C13.0501 20.91 19.3 20.91 25.56 20.92C27.74 20.92 29.42 22.16 30.7901 24.05C31.9801 25.69 32.5801 27.58 32.5601 29.76C32.5301 33.7 32.5601 37.65 32.5601 41.59V42.26H32.57Z" fill="black"/>
<path id="Vector_2" d="M16.2699 19.08C10.9999 19.08 6.7099 14.77 6.7399 9.51999C6.7699 4.25999 11.0699 -0.0200065 16.3199 -6.4847e-06C21.5399 0.0199935 25.8299 4.31999 25.8299 9.54999C25.8299 14.81 21.5299 19.09 16.2599 19.08H16.2699Z" fill="black"/>
</g>
<defs>
<clipPath id="clip0_1137_7225">
<rect width="32.58" height="42.26" fill="white"/>
</clipPath>
</defs>
</svg>
