<svg width="48" height="52" viewBox="0 0 48 52" fill="none" xmlns="http://www.w3.org/2000/svg">
<g id="&#235;&#176;&#155;&#236;&#157;&#128; &#237;&#149;&#152;&#237;&#138;&#184;" clip-path="url(#clip0_1132_8258)">
<path id="Vector" d="M0 20.6222V52H48V20.6222H24H0Z" fill="#D0D2D3"/>
<path id="Vector_2" d="M24 0L0 20.6222H24H48L24 0Z" fill="#D0D2D3"/>
<path id="Vector_3" d="M40.8045 0H7.1955C6.29308 0 5.56152 0.722977 5.56152 1.61481V33.4667C5.56152 34.3585 6.29308 35.0815 7.1955 35.0815H40.8045C41.7069 35.0815 42.4385 34.3585 42.4385 33.4667V1.61481C42.4385 0.722977 41.7069 0 40.8045 0Z" fill="#ED2666"/>
<path id="Vector_4" d="M0 20.6222V52H48V20.6222L24 31.3778L0 20.6222Z" fill="#E6E7E8"/>
<path id="Vector_5" d="M24 31.3778L0 52H24H48L24 31.3778Z" fill="#D0D2D3"/>
<path id="Vector_6" d="M33.7588 11.4963C33.7588 11.4963 33.444 8.11852 29.6364 7.15555C25.8438 6.20741 24.0449 10.0741 24.0449 10.0741C24.0449 10.0741 22.246 6.19259 18.4534 7.15555C14.6608 8.1037 14.331 11.4963 14.331 11.4963C14.331 11.4963 12.7869 16.2519 24.0299 24.1333C35.2729 16.2519 33.7288 11.4963 33.7288 11.4963H33.7588Z" fill="white"/>
</g>
<defs>
<clipPath id="clip0_1132_8258">
<rect width="48" height="52" fill="white"/>
</clipPath>
</defs>
</svg>
