<?xml version="1.0" encoding="utf-8"?>
<!-- Generator: Adobe Illustrator 28.0.0, SVG Export Plug-In . SVG Version: 6.00 Build 0)  -->
<svg version="1.1" id="Layer_1" xmlns="http://www.w3.org/2000/svg" xmlns:xlink="http://www.w3.org/1999/xlink" x="0px" y="0px"
	 viewBox="0 0 50 50" style="enable-background:new 0 0 50 50;" xml:space="preserve">
<style type="text/css">
	.st0{fill:#FFFFFF;}
	.st1{fill:#ED1C24;}
</style>
<g>
	<g>
		<path class="st0" d="M22.19,6.42c-1.34,0.56-2.66,0.96-3.82,1.63c-4.54,2.65-6.82,6.67-6.87,11.92c-0.04,3.4,0.02,6.79-0.03,10.19
			c-0.01,0.89-0.2,1.79-0.46,2.64c-0.34,1.09-1.17,1.65-2.34,1.69c-1.13,0.03-2.09,0.82-2.41,1.9c-0.32,1.11,0.09,2.28,1.01,2.96
			c0.61,0.44,1.28,0.51,1.99,0.51c10.45,0,20.9,0,31.34,0c0.21,0,0.42-0.01,0.63-0.02c1.41-0.11,2.47-1.28,2.47-2.67
			c0-1.43-1.1-2.6-2.54-2.66c-1.15-0.04-1.98-0.58-2.31-1.65c-0.28-0.87-0.46-1.79-0.47-2.7c-0.05-3.38-0.01-6.75-0.02-10.13
			c-0.01-4.15-1.52-7.63-4.63-10.39c-1.74-1.54-3.77-2.52-6.03-3.01c-0.35-2.01-1.29-3-2.8-2.97C23.36,3.66,22.38,4.72,22.19,6.42z
			 M19.55,41.19c0.07,2.08,0.97,3.65,2.74,4.64c1.9,1.06,3.84,0.97,5.65-0.25c1.53-1.03,2.29-2.52,2.32-4.39
			C26.67,41.19,23.14,41.19,19.55,41.19z"/>
		<path d="M22.19,6.42c0.19-1.69,1.17-2.76,2.68-2.79c1.52-0.03,2.45,0.95,2.8,2.97c2.25,0.49,4.29,1.47,6.03,3.01
			c3.11,2.76,4.62,6.25,4.63,10.39c0.01,3.38-0.03,6.75,0.02,10.13c0.01,0.9,0.21,1.84,0.47,2.7c0.34,1.07,1.15,1.61,2.31,1.65
			c1.44,0.06,2.54,1.22,2.54,2.66c0,1.4-1.08,2.56-2.47,2.67c-0.21,0.01-0.42,0.02-0.63,0.02c-10.45,0-20.9,0-31.34,0
			c-0.7,0-1.39-0.07-1.99-0.51c-0.92-0.68-1.33-1.84-1.01-2.96c0.31-1.08,1.28-1.87,2.41-1.9c1.18-0.03,2-0.59,2.34-1.69
			c0.26-0.85,0.45-1.76,0.46-2.64c0.06-3.4-0.01-6.79,0.03-10.19c0.07-5.25,2.34-9.27,6.88-11.92C19.53,7.38,20.85,6.98,22.19,6.42z
			"/>
		<path d="M19.55,41.19c3.58,0,7.11,0,10.71,0c-0.03,1.87-0.79,3.35-2.32,4.39c-1.8,1.22-3.75,1.32-5.65,0.25
			C20.52,44.85,19.62,43.27,19.55,41.19z"/>
	</g>
	<g>
		<circle class="st0" cx="37.53" cy="9.33" r="7.91"/>
		<circle class="st1" cx="37.53" cy="9.33" r="7.16"/>
	</g>
</g>
</svg>
