<svg width="64" height="64" viewBox="0 0 64 64" fill="none" xmlns="http://www.w3.org/2000/svg">
<path d="M29.4932 16.8795C28.4491 17.3143 27.4221 17.6213 26.5234 18.1414C22.9888 20.1962 21.2173 23.3083 21.1745 27.3838C21.1402 30.0184 21.1916 32.6445 21.1488 35.2791C21.1402 35.9697 20.9948 36.6689 20.7894 37.3254C20.524 38.1695 19.8822 38.6043 18.9664 38.6384C18.0849 38.664 17.3403 39.2779 17.0921 40.1135C16.844 40.9746 17.1606 41.8784 17.8795 42.407C18.3502 42.7481 18.8723 42.7993 19.4286 42.7993C27.559 42.7993 35.6894 42.7993 43.8113 42.7993C43.9739 42.7993 44.1365 42.7993 44.2991 42.7822C45.3946 42.6969 46.2248 41.7932 46.2248 40.7103C46.2248 39.6019 45.3689 38.6981 44.2478 38.647C43.3491 38.6129 42.7073 38.1951 42.4505 37.368C42.2366 36.6945 42.0911 35.9783 42.0825 35.2791C42.0397 32.6616 42.074 30.044 42.0654 27.4264C42.0568 24.2121 40.8843 21.5092 38.4623 19.3691C37.1101 18.1755 35.5268 17.4166 33.7724 17.033C33.4985 15.4727 32.771 14.7053 31.59 14.7309C30.4089 14.7565 29.6387 15.575 29.5017 16.8965L29.4932 16.8795ZM27.4392 43.8309C27.4905 45.4424 28.1923 46.6616 29.5702 47.429C31.0508 48.2475 32.5571 48.1793 33.9692 47.2329C35.1588 46.4314 35.7493 45.2804 35.775 43.8309H27.4392Z" fill="white"/>
<path d="M29.4932 16.8796C29.6387 15.5665 30.4004 14.7395 31.5814 14.7139C32.7625 14.6883 33.4899 15.4472 33.7638 17.016C35.5183 17.3997 37.1016 18.1585 38.4538 19.3522C40.8758 21.4923 42.0483 24.1951 42.0569 27.4095C42.0569 30.027 42.0312 32.6446 42.074 35.2621C42.0825 35.9613 42.2366 36.686 42.442 37.3511C42.7073 38.1781 43.3406 38.5959 44.2392 38.63C45.3604 38.6726 46.2162 39.5764 46.2162 40.6933C46.2162 41.7762 45.3775 42.68 44.2906 42.7652C44.128 42.7737 43.9654 42.7823 43.8028 42.7823C35.6723 42.7823 27.5419 42.7823 19.42 42.7823C18.8723 42.7823 18.3417 42.7311 17.871 42.3901C17.1521 41.8614 16.8354 40.9662 17.0836 40.0965C17.3232 39.2609 18.0764 38.647 18.9579 38.6215C19.8736 38.5959 20.5155 38.1611 20.7808 37.3084C20.9862 36.6519 21.1317 35.9442 21.1403 35.2621C21.183 32.6275 21.1403 30.0014 21.1659 27.3668C21.2173 23.2998 22.9889 20.1792 26.5149 18.1244C27.4135 17.6043 28.4405 17.2973 29.4846 16.8625L29.4932 16.8796Z" fill="black"/>
<path d="M27.4387 43.8307H35.7745C35.7489 45.2801 35.1583 46.4312 33.9687 47.2327C32.5652 48.1791 31.0503 48.2558 29.5697 47.4288C28.1833 46.6614 27.4901 45.4421 27.4387 43.8307Z" fill="black"/>
<path d="M41.4235 25.2607C44.8219 25.2607 47.5769 22.5161 47.5769 19.1304C47.5769 15.7447 44.8219 13 41.4235 13C38.025 13 35.27 15.7447 35.27 19.1304C35.27 22.5161 38.025 25.2607 41.4235 25.2607Z" fill="white"/>
<path d="M41.4235 24.6811C44.5006 24.6811 46.995 22.1961 46.995 19.1306C46.995 16.0651 44.5006 13.58 41.4235 13.58C38.3465 13.58 35.8521 16.0651 35.8521 19.1306C35.8521 22.1961 38.3465 24.6811 41.4235 24.6811Z" fill="#ED1C24"/>
</svg>
