<?xml version="1.0" encoding="utf-8"?>
<!-- Generator: Adobe Illustrator 28.0.0, SVG Export Plug-In . SVG Version: 6.00 Build 0)  -->
<svg version="1.1" id="Layer_1" xmlns="http://www.w3.org/2000/svg" xmlns:xlink="http://www.w3.org/1999/xlink" x="0px" y="0px"
	 viewBox="0 0 50 50" style="enable-background:new 0 0 50 50;" xml:space="preserve">
<style type="text/css">
	.st0{fill:#DE1F26;}
	.st1{fill:#FFFFFF;}
</style>
<g>
	<g id="iK3i27_00000021802579820670623080000016946698002714834085_">
		<g>
			<path class="st0" d="M34.48,43.41c0.84,0.81,1.65,1.57,2.43,2.35c0.37,0.37,0.39,0.83,0.09,1.21c-0.29,0.37-0.68,0.45-1.1,0.27
				c-0.16-0.07-0.29-0.21-0.41-0.33c-0.78-0.78-1.57-1.56-2.34-2.36c-0.21-0.22-0.38-0.28-0.69-0.15c-4.98,2.11-9.97,2.11-14.95,0
				c-0.27-0.11-0.43-0.1-0.64,0.12c-0.78,0.81-1.58,1.6-2.37,2.4c-0.49,0.49-1.01,0.55-1.41,0.16c-0.43-0.41-0.39-0.94,0.12-1.45
				c0.75-0.74,1.5-1.46,2.28-2.21c-10.75-6.39-12.42-20.8-4.41-29.58c7.29-8,20-8.2,27.53-0.33c2.74,2.86,4.46,6.26,5.11,10.16
				c0.65,3.89,0.15,7.64-1.51,11.22C40.53,38.49,37.97,41.3,34.48,43.41z M25.02,10.93C16.32,10.91,9.25,18,9.23,26.77
				c-0.02,8.84,7.04,16,15.76,16c8.65,0,15.74-7.12,15.77-15.84C40.79,18.07,33.78,10.95,25.02,10.93z"/>
			<path class="st0" d="M39.8,2.66c2.32,0,4.48,1.57,5.22,3.86c0.76,2.34-0.07,4.95-2.01,6.34c-0.6,0.42-1,0.4-1.51-0.11
				c-2.06-2.08-4.12-4.16-6.18-6.24c-0.54-0.55-0.57-0.93-0.1-1.55C36.35,3.46,37.86,2.71,39.8,2.66z"/>
			<path class="st0" d="M10.27,2.66c1.89,0.05,3.41,0.81,4.53,2.33c0.42,0.57,0.4,0.98-0.09,1.47c-2.08,2.11-4.17,4.21-6.26,6.31
				c-0.47,0.47-0.87,0.49-1.42,0.11c-1.96-1.36-2.81-3.97-2.07-6.32C5.7,4.24,7.84,2.66,10.27,2.66z"/>
			<path d="M24.13,12.74c0,0.47-0.01,0.88,0,1.28c0.01,0.58,0.35,0.93,0.88,0.93c0.53,0,0.85-0.35,0.87-0.94
				c0.01-0.37,0.01-0.75,0.02-1.12c0-0.02,0.02-0.03,0.08-0.13c3.19,0.2,5.99,1.4,8.37,3.56c2.81,2.56,4.33,5.76,4.63,9.63
				c-0.48,0-0.89-0.01-1.29,0c-0.55,0.01-0.89,0.34-0.91,0.84c-0.02,0.54,0.31,0.89,0.88,0.92c0.21,0.01,0.43,0,0.64,0
				c0.19,0,0.39,0,0.58,0c0.07,5.59-4.93,12.73-12.99,13.18c0-0.4,0-0.8,0-1.2c-0.01-0.64-0.32-0.99-0.86-1
				c-0.56-0.01-0.88,0.35-0.89,1.02c-0.01,0.36-0.01,0.71-0.02,1.07c0,0.03-0.03,0.06-0.05,0.09c-7.1-0.26-12.83-6.6-12.96-13.17
				c0.41,0,0.81,0.01,1.22,0c0.59-0.02,0.92-0.35,0.92-0.88c0-0.53-0.34-0.86-0.92-0.88c-0.2-0.01-0.39,0-0.59,0
				c-0.19,0-0.39,0-0.68,0c0.2-3.25,1.35-6.06,3.46-8.46C17.03,14.62,20.22,13.05,24.13,12.74z M25.88,21.56c0-0.77,0-1.54,0-2.3
				c-0.01-0.68-0.32-1.03-0.89-1.03c-0.56,0.01-0.86,0.36-0.86,1.05c0,1.48-0.01,2.96,0,4.44c0,0.35-0.06,0.57-0.42,0.75
				c-1.04,0.54-1.58,1.72-1.38,2.84c0.2,1.09,1.12,2.03,2.15,2.19c1.21,0.2,2.3-0.31,2.87-1.4c0.16-0.3,0.34-0.39,0.66-0.39
				c1.48,0.01,2.96,0.02,4.44-0.01c0.29-0.01,0.69-0.11,0.84-0.32c0.17-0.22,0.24-0.69,0.12-0.91c-0.14-0.25-0.54-0.49-0.83-0.5
				c-1.5-0.05-3-0.03-4.5-0.02c-0.35,0-0.55-0.08-0.76-0.41c-0.27-0.42-0.66-0.79-1.07-1.07c-0.3-0.2-0.4-0.38-0.39-0.72
				C25.89,23.03,25.88,22.29,25.88,21.56z"/>
			<path d="M25.01,27.77c-0.49,0.01-0.92-0.42-0.93-0.92c-0.01-0.5,0.41-0.93,0.9-0.94c0.5-0.01,0.93,0.41,0.93,0.91
				C25.93,27.32,25.51,27.76,25.01,27.77z"/>
		</g>
	</g>
	<g>
		<g>
			<path class="st0" d="M25.02,41.34c-3.93,0-7.62-1.53-10.39-4.3c-2.77-2.78-4.3-6.47-4.3-10.39c0-8.1,6.59-14.69,14.7-14.69
				c3.93,0,7.63,1.53,10.4,4.31c2.77,2.78,4.3,6.48,4.29,10.42C39.71,34.76,33.12,41.34,25.02,41.34z M25,32.05
				c-0.34,0-0.67,0.14-0.93,0.39c-0.25,0.26-0.4,0.59-0.39,0.94c0,0.72,0.61,1.33,1.33,1.34c0.74,0,1.32-0.59,1.32-1.35
				c0-0.35-0.13-0.68-0.38-0.92C25.7,32.19,25.36,32.05,25,32.05l0-1L25,32.05z M24.96,18.59c-0.52,0.02-0.84,0.37-0.84,0.92l0,5.36
				c0,0.97,0,1.94,0,2.91c0,0.49,0.44,0.82,0.84,0.82c0.07,0,0.14-0.01,0.21-0.03c0.47-0.12,0.71-0.47,0.71-1.03
				c0-1.59,0-3.19,0-4.78l0-0.94c0-0.8,0.01-1.59-0.02-2.39c-0.01-0.46-0.43-0.86-0.88-0.86v-1L24.96,18.59z"/>
			<path class="st1" d="M25.02,12.95C25.02,12.95,25.02,12.95,25.02,12.95c7.58,0,13.7,6.13,13.69,13.72
				c-0.01,7.54-6.14,13.66-13.69,13.66c-7.56,0-13.69-6.13-13.69-13.69C11.33,19.08,17.46,12.96,25.02,12.95 M24.96,29.62
				c0.15,0,0.31-0.02,0.47-0.06c0.91-0.24,1.46-0.98,1.46-1.99c0.01-1.6,0-3.19,0-4.79c0-1.12,0.02-2.23-0.02-3.35
				c-0.03-1.02-0.9-1.83-1.89-1.83c-0.02,0-0.05,0-0.07,0c-1.06,0.04-1.81,0.84-1.81,1.92c0,1.37,0,2.73,0,4.1
				c0,1.4-0.01,2.79,0,4.19C23.12,28.83,23.98,29.62,24.96,29.62 M25.02,35.72c1.28,0,2.31-1.05,2.32-2.35
				c0-1.28-1.04-2.32-2.33-2.32c0,0,0,0,0,0c-1.27,0-2.33,1.06-2.33,2.34c0,1.27,1.06,2.33,2.33,2.34
				C25.01,35.72,25.02,35.72,25.02,35.72 M25.02,10.95L25.02,10.95L25.02,10.95c-8.66,0-15.7,7.04-15.7,15.7
				c0,4.19,1.63,8.14,4.6,11.1c2.96,2.97,6.91,4.6,11.1,4.6c8.65,0,15.69-7.03,15.7-15.67c0-4.21-1.62-8.16-4.59-11.13
				C33.17,12.58,29.22,10.95,25.02,10.95L25.02,10.95z"/>
		</g>
		<path class="st1" d="M23.11,23.62c0-1.37,0-2.73,0-4.1c0-1.09,0.75-1.88,1.81-1.92c1.01-0.04,1.93,0.79,1.96,1.83
			c0.03,1.12,0.01,2.23,0.02,3.35c0,1.6,0,3.19,0,4.79c0,1.02-0.55,1.75-1.46,1.99c-1.15,0.3-2.31-0.56-2.32-1.75
			C23.1,26.41,23.11,25.01,23.11,23.62z"/>
		<path class="st1" d="M27.34,33.36c0,1.31-1.04,2.36-2.33,2.35c-1.27-0.01-2.33-1.07-2.33-2.34c0-1.27,1.06-2.34,2.33-2.34
			C26.3,31.05,27.34,32.08,27.34,33.36z"/>
	</g>
</g>
</svg>
