<svg width="64" height="64" viewBox="0 0 64 64" fill="none" xmlns="http://www.w3.org/2000/svg">
<g clip-path="url(#clip0_1132_7347)">
<path d="M44.6265 51.0273C45.6469 51.4345 45.9608 51.9073 45.9608 52.9712C45.9608 53.3652 45.9608 53.7593 45.9608 54.1533C45.9346 55.2304 45.2413 55.9265 44.1817 55.9265C33.3896 55.9265 22.5844 55.9265 11.7922 55.9265C10.7326 55.9265 10.0393 55.2304 10.0131 54.1533C10.0131 53.7593 10.0131 53.3652 10.0131 52.9712C10.0131 51.9204 10.3271 51.4607 11.282 51.0536C11.3474 50.121 11.3605 49.1884 11.4913 48.269C11.7922 46.2331 12.9303 44.6176 14.2123 43.094C16.5669 40.27 19.2748 37.8138 21.9695 35.3445C22.2835 35.0556 22.6105 34.7666 22.9245 34.4776C24.9259 32.5863 24.9128 30.314 22.8721 28.4489C21.237 26.9384 19.5495 25.4673 17.9797 23.878C16.4623 22.3544 15.0233 20.7651 13.6367 19.1364C12.0146 17.2187 11.2035 14.9727 11.3474 12.4246C11.3474 12.2933 11.3474 12.1488 11.3474 12.0174C11.3474 11.978 11.3344 11.9518 11.3213 11.8992C10.3402 11.584 9.96081 10.8747 10.0001 9.87648C10.0131 9.49558 10.0001 9.11468 10.0001 8.74691C10.0393 7.69614 10.7326 7 11.766 7C22.5844 7 33.3896 7 44.2079 7C45.2413 7 45.9346 7.69614 45.9608 8.74691C45.9608 9.12781 45.9608 9.50871 45.9608 9.87648C46.0131 10.8747 45.6207 11.5709 44.7181 11.8598C44.6003 12.9763 44.5742 14.0664 44.378 15.1172C44.0771 16.6934 43.2137 18.0068 42.2457 19.2415C40.4405 21.5532 38.3344 23.5628 36.2021 25.5724C35.1687 26.5443 34.096 27.49 33.0626 28.462C32.2777 29.2107 31.6628 30.0644 31.5713 31.194C31.4666 32.6125 32.1992 33.637 33.1672 34.5565C35.4434 36.7237 37.7588 38.8515 39.9695 41.0712C41.0553 42.1614 41.9971 43.3961 42.9259 44.6307C44.1425 46.2463 44.6527 48.1245 44.6265 50.1341C44.6265 50.41 44.6265 50.6858 44.6265 50.9879V51.0273ZM13.519 12.1619C13.5974 13.0157 13.6236 13.8169 13.7544 14.605C13.9768 15.971 14.7748 17.0611 15.6381 18.0988C18.2283 21.2117 21.237 23.9043 24.2064 26.6231C25.6323 27.9235 26.6134 29.4602 26.6265 31.4435C26.6396 33.4137 25.6846 34.9374 24.298 36.2508C21.9434 38.4706 19.5626 40.6903 17.2995 43.0152C16.1876 44.1579 15.2195 45.4713 14.33 46.8111C13.5451 48.0063 13.5059 49.4249 13.6105 50.8303H42.3503C42.5204 48.8863 42.141 47.0869 40.8852 45.6027C39.4201 43.8952 37.9157 42.2271 36.3329 40.6378C34.6977 38.9828 32.9317 37.4461 31.2442 35.8174C30.08 34.6878 29.3867 33.3087 29.3344 31.6668C29.2689 29.6966 30.1454 28.1336 31.5451 26.807C33.5466 24.9156 35.5742 23.0637 37.5102 21.1329C38.7268 19.9245 39.8387 18.611 40.9245 17.2844C42.141 15.8133 42.5073 14.0533 42.3503 12.1488H13.519V12.1619Z" fill="#ED2666"/>
<path d="M14.1337 50.318C13.9767 48.3084 14.8139 46.706 16.0043 45.248C16.1351 45.0904 16.4229 45.0379 16.6453 45.0116C18.1235 44.854 19.4185 44.3155 20.4651 43.2122C21.4985 42.122 22.7674 41.5835 24.2717 41.5835C25.5276 41.5835 26.3778 40.8611 27.0842 39.9416C27.2412 39.7446 27.2935 39.4294 27.2935 39.1667C27.2935 36.1195 27.3328 33.0722 27.2674 30.0381C27.2412 28.8954 26.6264 27.9235 25.8677 27.1222C24.8212 26.0189 23.67 25.0076 22.5712 23.9437C21.093 22.512 19.6278 21.0672 18.1627 19.6224C18.0319 19.491 17.9142 19.3465 17.7572 19.1627C19.3793 18.5191 20.9883 18.0331 22.6627 17.7441C24.1671 17.4814 25.6976 17.3238 27.1889 17.7573C28.0784 18.0199 28.9287 18.4665 29.7659 18.8737C31.5058 19.7012 33.2848 20.371 35.2209 20.5812C35.6918 20.6337 36.1758 20.6469 36.7383 20.6863C36.6075 20.8439 36.529 20.9621 36.4374 21.054C34.6322 22.7616 32.8139 24.4691 31.0087 26.1766C30.6555 26.5181 30.3153 26.899 30.0014 27.2799C29.3866 28.0285 29.0857 28.856 29.1119 29.8805C29.1642 32.8621 29.1511 35.8305 29.1119 38.8121C29.1119 39.8234 29.609 40.4276 30.4069 40.9267C31.1133 41.3733 31.8851 41.7936 32.4215 42.3978C34.2398 44.46 36.5421 44.9591 39.1191 44.7489C39.4462 44.7227 39.6424 44.7883 39.8517 45.051C41.029 46.509 41.9447 48.072 41.8793 50.0422C41.8793 50.121 41.8793 50.2129 41.8662 50.3311H14.1337V50.318Z" fill="#ED2666"/>
<path d="M42.1933 58.028C35.6657 58.028 30.3416 52.6954 30.3416 46.1281C30.3416 39.5608 35.6526 34.2281 42.1933 34.2281C45.359 34.2281 48.3416 35.4627 50.5785 37.7219C52.8154 39.9679 54.045 42.9626 54.045 46.1543C54.045 52.6954 48.7209 58.028 42.1933 58.028ZM42.1802 50.607C41.9447 50.607 41.7224 50.6989 41.5523 50.8697C41.3823 51.0404 41.2907 51.2637 41.2907 51.5001C41.2907 51.9861 41.7093 52.4064 42.1933 52.4064C42.6904 52.4064 43.0828 51.9992 43.0828 51.487C43.0828 51.2506 42.9913 51.0273 42.8343 50.8697C42.6642 50.6989 42.4418 50.607 42.1933 50.607H42.1802ZM42.1541 39.8628C41.827 39.876 41.6308 40.0861 41.6308 40.4408V44.6964C41.6308 45.4845 41.6308 46.2594 41.6308 47.0475C41.6308 47.3496 41.8924 47.5466 42.141 47.5466C42.468 47.4809 42.7166 47.3496 42.7166 46.8636C42.7166 45.7734 42.7166 42.2665 42.7166 42.2665C42.7166 41.636 42.7166 41.0187 42.7035 40.3882C42.7035 40.1124 42.4418 39.8628 42.1671 39.8628H42.1541Z" fill="#ED2666"/>
<path d="M42.1934 35.2C48.2239 35.2 53.0902 40.0993 53.0771 46.1543C53.0771 52.1831 48.1978 57.0692 42.1803 57.0692C36.1629 57.0692 31.2835 52.17 31.2835 46.1281C31.2835 40.0861 36.1629 35.2 42.1803 35.2M42.128 48.5054C42.2457 48.5054 42.3765 48.4923 42.5074 48.4529C43.2399 48.2559 43.6716 47.6779 43.6716 46.8636C43.6716 45.5895 43.6716 44.3155 43.6716 43.0414C43.6716 42.1483 43.6847 41.2551 43.6716 40.362C43.6454 39.5476 42.9521 38.904 42.1672 38.904C42.1542 38.904 42.128 38.904 42.1149 38.904C41.2777 38.9434 40.676 39.5739 40.676 40.4408C40.676 41.5309 40.676 42.6211 40.676 43.7113C40.676 44.8277 40.676 45.9442 40.676 47.0606C40.676 47.8881 41.3693 48.5054 42.1411 48.5054M42.1934 53.3784C43.2138 53.3784 44.0379 52.5378 44.0379 51.5001C44.0379 50.4756 43.2138 49.6481 42.1803 49.6481C41.1731 49.6481 40.3228 50.5019 40.3358 51.5133C40.3358 52.5246 41.1731 53.3784 42.1934 53.3784ZM42.1934 33.2693C35.1295 33.2693 29.3867 39.0354 29.3867 46.1281C29.3867 49.5693 30.721 52.8004 33.1411 55.2172C35.5611 57.6471 38.7792 58.9869 42.1934 58.9869C49.2443 58.9869 55.0001 53.2339 55.0001 46.1543C55.0001 42.7131 53.6789 39.4688 51.2588 37.0389C48.8388 34.609 45.6207 33.2693 42.1934 33.2693Z" fill="white"/>
<path d="M40.6759 43.7113C40.6759 42.6211 40.6759 41.5309 40.6759 40.4408C40.6759 39.5739 41.2777 38.9434 42.1149 38.904C42.9128 38.8778 43.6454 39.5345 43.6716 40.362C43.6977 41.2551 43.6716 42.1483 43.6716 43.0414C43.6716 44.3155 43.6716 45.5895 43.6716 46.8636C43.6716 47.678 43.2399 48.2559 42.5073 48.4529C41.5916 48.7025 40.6759 48.0063 40.6628 47.0475C40.6628 45.931 40.6628 44.8146 40.6628 43.6982L40.6759 43.7113Z" fill="white"/>
<path d="M44.0247 51.5001C44.0247 52.5509 43.2006 53.3915 42.1671 53.3784C41.1599 53.3784 40.3096 52.5246 40.3096 51.5133C40.3096 50.5019 41.1468 49.6481 42.1671 49.6481C43.2006 49.6481 44.0247 50.4756 44.0247 51.5001Z" fill="white"/>
</g>
<defs>
<clipPath id="clip0_1132_7347">
<rect width="45" height="52" fill="white" transform="translate(10 7)"/>
</clipPath>
</defs>
</svg>
