<svg width="64" height="64" viewBox="0 0 64 64" fill="none" xmlns="http://www.w3.org/2000/svg">
<g clip-path="url(#clip0_1132_7348)">
<path d="M48.6517 51.0934C49.6728 51.5012 49.987 51.9748 49.987 53.0403C49.987 53.4349 49.987 53.8295 49.987 54.2242C49.9608 55.3028 49.267 56 48.2066 56C37.4066 56 26.5935 56 15.7935 56C14.7331 56 14.0393 55.3028 14.0131 54.2242C14.0131 53.8295 14.0131 53.4349 14.0131 53.0403C14.0131 51.9879 14.3273 51.5275 15.283 51.1197C15.3484 50.1858 15.3615 49.2518 15.4924 48.331C15.7935 46.2921 16.9324 44.6741 18.2153 43.1482C20.5717 40.32 23.2815 37.8601 25.9782 35.3871C26.2924 35.0977 26.6197 34.8083 26.9339 34.5189C28.9368 32.6247 28.9237 30.349 26.8815 28.4811C25.2451 26.9683 23.5564 25.495 21.9855 23.9034C20.467 22.3774 19.027 20.7858 17.6393 19.1546C16.0161 17.2341 15.2044 14.9847 15.3484 12.4328C15.3484 12.3012 15.3484 12.1565 15.3484 12.025C15.3484 11.9855 15.3353 11.9592 15.3222 11.9066C14.3404 11.5909 13.9608 10.8805 14.0001 9.88081C14.0131 9.49933 14.0001 9.11785 14.0001 8.74953C14.0393 7.69718 14.7331 7 15.7673 7C26.5935 7 37.4066 7 48.2328 7C49.267 7 49.9608 7.69718 49.987 8.74953C49.987 9.13101 49.987 9.51248 49.987 9.88081C50.0393 10.8805 49.6466 11.5777 48.7433 11.8671C48.6255 12.9852 48.5993 14.077 48.403 15.1294C48.1019 16.7079 47.2379 18.0234 46.2691 19.2599C44.4626 21.575 42.355 23.5877 40.2211 25.6003C39.187 26.5737 38.1135 27.5208 37.0793 28.4942C36.2939 29.244 35.6786 30.0991 35.587 31.2303C35.4822 32.651 36.2153 33.677 37.1841 34.5979C39.4619 36.7683 41.779 38.8993 43.9913 41.1224C45.0779 42.2142 46.0204 43.4507 46.9499 44.6872C48.1673 46.3052 48.6779 48.1863 48.6517 50.1989C48.6517 50.4752 48.6517 50.7514 48.6517 51.054V51.0934ZM17.5215 12.1697C17.6001 13.0247 17.6262 13.8271 17.7571 14.6164C17.9797 15.9844 18.7782 17.0762 19.6422 18.1154C22.2342 21.233 25.2451 23.9297 28.2168 26.6526C29.6437 27.9549 30.6255 29.494 30.6386 31.4803C30.6517 33.4534 29.6961 34.9793 28.3084 36.2948C25.9521 38.5179 23.5695 40.7409 21.3048 43.0693C20.1921 44.2137 19.2233 45.5291 18.3331 46.8709C17.5477 48.0679 17.5084 49.4886 17.6131 50.8961H46.3739C46.5441 48.9493 46.1644 47.1471 44.9077 45.6607C43.4415 43.9506 41.9361 42.28 40.3521 40.6883C38.7157 39.0309 36.9484 37.4918 35.2597 35.8607C34.0946 34.7294 33.4008 33.3482 33.3484 31.7039C33.283 29.7307 34.1601 28.1654 35.5608 26.8368C37.5637 24.9426 39.5928 23.0878 41.5302 21.1541C42.7477 19.9439 43.8604 18.6285 44.947 17.2999C46.1644 15.8266 46.531 14.0639 46.3739 12.1565H17.5215V12.1697Z" fill="black"/>
<path d="M18.1366 50.3831C17.9795 48.3705 18.8173 46.7656 20.0086 45.3055C20.1395 45.1477 20.4275 45.095 20.6501 45.0687C22.1293 44.9109 23.4253 44.3715 24.4726 43.2666C25.5068 42.1748 26.7766 41.6354 28.2821 41.6354C29.5388 41.6354 30.3897 40.912 31.0966 39.9911C31.2537 39.7938 31.3061 39.4781 31.3061 39.215C31.3061 36.1632 31.3453 33.1114 31.2799 30.0728C31.2537 28.9283 30.6384 27.9549 29.8792 27.1525C28.8319 26.0475 27.6799 25.0346 26.5802 23.9691C25.101 22.5353 23.6348 21.0883 22.1686 19.6413C22.0377 19.5098 21.9199 19.3651 21.7628 19.1809C23.3861 18.5364 24.9962 18.0497 26.6719 17.7603C28.1773 17.4972 29.709 17.3393 31.2013 17.7734C32.0915 18.0365 32.9424 18.4838 33.7802 18.8915C35.5213 19.7203 37.3017 20.3911 39.2392 20.6016C39.7104 20.6542 40.1948 20.6674 40.7577 20.7068C40.6268 20.8647 40.5482 20.9831 40.4566 21.0752C38.6501 22.7852 36.8304 24.4953 35.0239 26.2054C34.6704 26.5474 34.3301 26.9289 34.0159 27.3103C33.4006 28.0601 33.0995 28.8889 33.1257 29.9149C33.1781 32.9009 33.165 35.8738 33.1257 38.8599C33.1257 39.8728 33.6232 40.4779 34.4217 40.9777C35.1286 41.425 35.901 41.8459 36.4377 42.451C38.2573 44.5162 40.5613 45.0161 43.1402 44.8056C43.4675 44.7793 43.6639 44.8451 43.8733 45.1082C45.0515 46.5683 45.9679 48.1337 45.9024 50.1068C45.9024 50.1858 45.9024 50.2779 45.8893 50.3962H18.1366V50.3831Z" fill="black"/>
</g>
<defs>
<clipPath id="clip0_1132_7348">
<rect width="36" height="49" fill="white" transform="translate(14 7)"/>
</clipPath>
</defs>
</svg>
