<svg width="64" height="65" viewBox="0 0 64 65" fill="none" xmlns="http://www.w3.org/2000/svg">
<g filter="url(#filter0_d_1601_5505)">
<g clip-path="url(#clip0_1601_5505)">
<path d="M42.2719 52.6843C43.1821 53.5791 44.0662 54.408 44.9114 55.2633C45.3145 55.6712 45.3275 56.1712 45.0154 56.5922C44.7033 57.0001 44.2743 57.0791 43.8192 56.8949C43.6502 56.8291 43.5071 56.6712 43.3771 56.5264C42.532 55.6712 41.6738 54.8159 40.8416 53.9343C40.6076 53.6975 40.4256 53.6317 40.1005 53.7764C34.7045 56.0922 29.2955 56.0922 23.8996 53.7764C23.6135 53.658 23.4315 53.6712 23.1974 53.908C22.3523 54.8027 21.4941 55.6712 20.623 56.5396C20.0899 57.0791 19.5308 57.1317 19.0887 56.7106C18.6206 56.2633 18.6596 55.6712 19.2187 55.1185C20.0249 54.3027 20.844 53.5133 21.6892 52.6975C10.039 45.6975 8.23172 29.8949 16.9043 20.2633C24.7967 11.5001 38.5792 11.2764 46.7317 19.8949C49.6963 23.0396 51.5556 26.7501 52.2577 31.0396C52.9598 35.3027 52.4137 39.4212 50.6194 43.3422C48.8251 47.2896 46.0426 50.3685 42.2589 52.6843H42.2719ZM32.026 17.0659C22.5863 17.0527 14.9409 24.8159 14.9149 34.4343C14.8889 44.1185 22.5343 51.9738 32 51.987C41.3747 51.987 49.0591 44.1843 49.0851 34.6185C49.1111 24.908 41.5178 17.0922 32.026 17.0659Z" fill="#FF0000"/>
<path d="M48.032 8C50.5414 8 52.8949 9.72368 53.688 12.2368C54.5071 14.8026 53.61 17.6711 51.5036 19.1842C50.8535 19.6447 50.4244 19.6184 49.8653 19.0526C47.6289 16.7763 45.3925 14.5 43.1691 12.2105C42.584 11.6053 42.558 11.1974 43.0651 10.5132C44.3003 8.88158 45.9386 8.05263 48.032 8Z" fill="#FF0000"/>
<path d="M16.0457 8C18.0871 8.05263 19.7384 8.88158 20.9606 10.5526C21.4157 11.1842 21.3897 11.6184 20.8696 12.1711C18.6202 14.4868 16.3578 16.7895 14.0954 19.0921C13.5883 19.6053 13.1462 19.6316 12.5481 19.2105C10.4027 17.7237 9.47955 14.8684 10.2857 12.2895C11.0788 9.73684 13.4063 8 16.0457 8Z" fill="#FF0000"/>
<path d="M32.0132 35.5395C31.4801 35.5395 31.012 35.079 30.999 34.5395C30.999 33.9869 31.4411 33.5132 31.9742 33.5132C32.5203 33.5132 32.9754 33.9606 32.9884 34.5132C32.9884 35.0658 32.5463 35.5395 32.0132 35.5527V35.5395Z" fill="#FF0000"/>
<path d="M32.0266 50.6315C23.1329 50.6315 15.8906 43.3026 15.8906 34.2894C15.8906 25.2894 23.1329 17.9604 32.0266 17.9604C36.3433 17.9604 40.4001 19.6578 43.4556 22.7499C46.4982 25.842 48.1755 29.9473 48.1755 34.3289C48.1755 43.3157 40.9202 50.6315 32.0396 50.6315H32.0266ZM32.0006 40.4341C31.6885 40.4341 31.3894 40.5657 31.1554 40.8026C30.9214 41.0394 30.7913 41.3552 30.7913 41.671C30.7913 42.342 31.3504 42.9078 32.0266 42.921C32.7027 42.921 33.2358 42.3683 33.2358 41.6578C33.2358 41.3289 33.1058 41.0262 32.8847 40.8026C32.6507 40.5657 32.3386 40.4473 32.0136 40.4473L32.0006 40.4341ZM31.9615 25.6841C31.5195 25.6973 31.2594 25.9868 31.2594 26.4736V32.3683C31.2594 33.4341 31.2594 34.4868 31.2594 35.5526C31.2594 35.9604 31.6235 36.2368 31.9485 36.2368C32.0006 36.2368 32.0656 36.2368 32.1306 36.2104C32.3906 36.1447 32.7417 35.9736 32.7417 35.3026C32.7417 33.5526 32.7417 31.8026 32.7417 30.0526V29.0131C32.7417 28.1447 32.7417 27.2894 32.7287 26.421C32.7287 26.0394 32.3646 25.6973 31.9876 25.6973V24.3815L31.9615 25.6973V25.6841Z" fill="#FF0000"/>
<path d="M32.0263 19.2893C40.2308 19.2893 46.862 26.013 46.862 34.3288C46.862 42.6051 40.2048 49.3156 32.0263 49.3156C23.8348 49.3156 17.1906 42.5919 17.1906 34.3025C17.1906 26.013 23.8348 19.2893 32.0263 19.2893ZM31.9613 37.5524C32.1303 37.5524 32.2994 37.5261 32.4684 37.4867C33.4566 37.2235 34.0547 36.4209 34.0547 35.3025C34.0547 33.5525 34.0547 31.8025 34.0547 30.0525C34.0547 28.8288 34.0807 27.6051 34.0417 26.3814C34.0027 25.263 33.0665 24.3682 32.0003 24.3682C31.9743 24.3682 31.9483 24.3682 31.9223 24.3682C30.7781 24.4209 29.9719 25.2893 29.9589 26.4735C29.9589 27.9735 29.9589 29.4735 29.9589 30.9735C29.9589 32.4998 29.9589 34.0393 29.9589 35.5656C29.9589 36.6972 30.8951 37.5524 31.9613 37.5524ZM32.0263 44.2498C33.4176 44.2498 34.5358 43.1051 34.5358 41.6709C34.5358 40.263 33.4176 39.1314 32.0133 39.1314C30.6351 39.1314 29.4909 40.3025 29.4909 41.6972C29.4909 43.0919 30.6351 44.2498 32.0133 44.263C32.0133 44.263 32.0133 44.263 32.0263 44.263M32.0263 16.6577C22.4046 16.6577 14.5771 24.5788 14.5771 34.3156C14.5771 39.0393 16.3975 43.4735 19.6871 46.8024C22.9767 50.1314 27.3585 51.9735 32.0263 51.9735C41.6351 51.9735 49.4625 44.0656 49.4755 34.3551C49.4755 29.6314 47.6682 25.184 44.3786 21.8419C41.089 18.4998 36.7072 16.6577 32.0263 16.6577Z" fill="white"/>
<path d="M29.959 30.9737C29.959 29.4737 29.959 27.9737 29.959 26.4737C29.959 25.2763 30.7781 24.4079 31.9223 24.3684C33.0145 24.329 34.0157 25.2368 34.0417 26.3816C34.0807 27.6053 34.0547 28.829 34.0547 30.0526C34.0547 31.8026 34.0547 33.5526 34.0547 35.3026C34.0547 36.4211 33.4566 37.2237 32.4684 37.4868C31.2202 37.8158 29.972 36.8684 29.959 35.5658C29.959 34.0395 29.959 32.5 29.959 30.9737Z" fill="white"/>
<path d="M34.5361 41.6708C34.5361 43.105 33.4049 44.2629 32.0137 44.2497C30.6354 44.2497 29.4912 43.0787 29.4912 41.684C29.4912 40.2892 30.6354 39.1182 32.0137 39.1182C33.4179 39.1182 34.5491 40.2497 34.5361 41.6576V41.6708Z" fill="white"/>
</g>
</g>
<defs>
<filter id="filter0_d_1601_5505" x="-4" y="0" width="72" height="72" filterUnits="userSpaceOnUse" color-interpolation-filters="sRGB">
<feFlood flood-opacity="0" result="BackgroundImageFix"/>
<feColorMatrix in="SourceAlpha" type="matrix" values="0 0 0 0 0 0 0 0 0 0 0 0 0 0 0 0 0 0 127 0" result="hardAlpha"/>
<feOffset dy="4"/>
<feGaussianBlur stdDeviation="2"/>
<feComposite in2="hardAlpha" operator="out"/>
<feColorMatrix type="matrix" values="0 0 0 0 0 0 0 0 0 0 0 0 0 0 0 0 0 0 0.25 0"/>
<feBlend mode="normal" in2="BackgroundImageFix" result="effect1_dropShadow_1601_5505"/>
<feBlend mode="normal" in="SourceGraphic" in2="effect1_dropShadow_1601_5505" result="shape"/>
</filter>
<clipPath id="clip0_1601_5505">
<rect width="44" height="49" fill="white" transform="translate(10 8)"/>
</clipPath>
</defs>
</svg>
