<svg width="163" height="126" viewBox="0 0 163 126" fill="none" xmlns="http://www.w3.org/2000/svg">
<g id="&#236;&#151;&#172;&#236;&#158;&#144; (&#235;&#136;&#140;&#235;&#160;&#128;&#236;&#157;&#132;&#235;&#150;&#132; &#235;&#176;&#152;&#236;&#157;&#145;)" clip-path="url(#clip0_1501_7783)">
<path id="Vector" d="M69.5347 112.5C68.1391 112.5 66.7072 112.463 65.2752 112.378C60.8944 112.136 56.4286 111.348 52.0236 110.015C51.4168 109.833 50.6523 109.712 49.8392 109.603C49.5237 109.555 49.2203 109.506 48.9048 109.458C47.4729 109.227 46.0288 108.997 44.5968 108.767C43.2013 108.549 41.8179 108.331 40.4223 108.1C39.5486 107.955 38.6749 107.797 37.8011 107.652C36.5633 107.434 35.3255 107.216 34.0877 107.034C31.236 106.61 28.1294 106.174 24.3189 105.665C23.3238 105.531 22.3287 105.422 21.3337 105.313C20.5206 105.228 19.7075 105.131 18.9066 105.034C18.13 104.937 17.3654 104.768 16.6616 104.525C14.2346 103.689 12.7662 101.629 12.8512 99.1567C12.924 96.8541 14.3195 94.9515 16.5888 94.0668C17.0742 93.8729 17.5353 93.6547 17.9479 93.4245C18.1542 93.3033 18.6032 92.6246 18.9066 92.1762L19.21 91.7157C20.4114 89.9464 21.1274 87.7528 21.904 85.426L22.0254 85.0746C23.0569 81.9479 24.1005 78.6273 24.4888 75.3552C24.7801 72.9193 24.9864 70.3986 25.1926 67.9627C25.3261 66.4357 25.4475 64.9087 25.5931 63.3818C25.6902 62.3032 25.8479 61.2367 26.0057 60.1824C26.0664 59.7582 26.1271 59.3219 26.1877 58.8978L26.394 57.3466C26.8188 54.0987 27.2556 50.7418 28.3599 47.397C30.0225 42.3676 32.9834 35.0599 39.4394 29.667C40.75 28.5763 42.2183 27.5341 43.9173 26.4919L44.4269 26.1768C47.1938 24.4802 50.0577 22.7108 53.589 21.7898C54.5234 21.5474 55.4214 21.402 56.2224 21.2687C56.5864 21.2081 56.9626 21.1475 57.3267 21.0748C58.9528 20.0083 60.7973 19.1236 63.0787 18.3116C66.8285 16.9665 70.7967 16.0939 74.8863 15.7303C76.84 15.5607 78.5754 15.4758 80.2015 15.4758C82.4344 15.4758 84.461 15.6334 86.4147 15.9485C90.3829 16.6029 94.2662 17.2573 98.1616 18.2026C100.807 18.8449 103.234 19.9598 105.382 20.9293L105.734 21.0869C108.355 22.2866 111.073 23.5228 113.646 25.1467C118.233 28.0431 124.058 32.1514 128.318 38.332C128.742 38.938 129.179 39.5318 129.628 40.1256C130.563 41.386 131.533 42.6827 132.383 44.1733C133.778 46.6456 134.956 49.2027 136.108 51.6749L136.557 52.6444C138.329 56.474 139.373 60.4611 140.283 64.218C140.562 65.3693 140.877 66.5084 141.193 67.6476C141.557 68.9565 141.909 70.2653 142.224 71.5862C142.589 73.1011 142.88 74.6038 143.159 76.0581C143.305 76.7974 143.438 77.5245 143.596 78.2638C144.227 81.3298 145.647 84.2384 148.074 87.4377C148.583 88.1043 148.972 88.7708 149.263 89.2798C150.003 90.5765 150.95 93.2185 148.923 96.2966C146.144 100.514 142.127 102.502 138.936 103.774C133.851 105.786 128.148 106.767 121 106.864H120.527C115.964 106.864 111.353 106.331 106.438 105.216C104.897 104.865 103.465 104.525 102.057 104.162C99.1688 106.077 95.9044 107.628 92.0819 108.925C87.701 110.415 83.1018 111.421 78.0293 112.027C75.2746 112.354 72.4107 112.524 69.5468 112.524L69.5347 112.5ZM43.5653 94.3819C44.609 95.0484 45.8225 95.6665 47.2666 96.2845C50.4945 97.6661 54.0137 98.5992 58.0062 99.1082C61.1856 99.5203 64.3772 99.7263 67.4717 99.7263C73.4422 99.7263 79.352 98.9507 85.0313 97.4358C88.3442 96.5511 91.2081 95.5089 93.7565 94.2728C98.2223 92.1035 101.062 89.8979 102.967 87.1105C104.193 85.3169 106.037 84.2868 108.028 84.2868C109.484 84.2868 110.928 84.8322 112.202 85.8744C112.481 86.1047 112.639 86.1168 112.821 86.1168C112.894 86.1168 112.967 86.1168 113.039 86.1047C113.974 85.9956 114.847 85.5957 115.806 84.8443C118.112 83.0265 119.532 80.7481 120.151 77.8759C120.369 76.8701 120.357 75.9975 120.114 75.234C119.908 74.5917 119.787 74.5917 119.495 74.5917C119.386 74.5917 119.253 74.5917 119.107 74.6281C118.112 74.7856 117.663 75.1128 117.408 75.3431C116.377 76.2884 115.357 77.2458 114.338 78.2153L112.942 79.5241C111.328 81.039 109.654 81.3662 108.537 81.3662C108.064 81.3662 107.579 81.3056 107.105 81.1965C104.375 80.5421 102.615 78.3971 102.409 75.4401C102.373 74.9674 102.215 74.4948 101.887 73.9737C100.953 72.4467 99.4601 71.1984 98.1252 70.1926C94.8244 67.6961 91.1353 65.7449 87.2399 63.6847L86.2812 63.1757C85.0313 62.5092 83.7814 61.8548 82.5315 61.2004C80.1287 59.94 77.641 58.6433 75.2018 57.3102C73.8669 57.7707 72.5442 58.2312 71.2215 58.716C70.554 58.9584 69.8623 59.0917 69.1827 59.0917C67.5445 59.0917 66.0155 58.3524 64.984 57.0678C63.3942 55.0924 63.4185 52.3172 65.0446 50.3176C65.1053 50.2449 65.1781 50.1601 65.2388 50.0874C63.6612 48.7058 62.0958 47.1909 60.7609 45.3973C60.6153 45.4943 60.4697 45.5912 60.324 45.6882C59.6445 46.1608 58.9892 46.6577 58.3217 47.2031C59.2197 47.3242 59.9721 47.6272 60.4939 47.8817C62.8482 49.0694 64.0374 51.4689 63.5156 54.0018C63.0059 56.4982 60.7366 58.3403 58.1154 58.3645H57.982C57.2296 58.3645 56.5379 58.2918 55.9311 58.2312L55.4942 58.1828C55.0695 58.1464 54.6448 58.1222 54.22 58.1222C52.3512 58.1222 50.4945 58.5221 48.5408 59.3462C46.0167 63.9635 44.524 67.9991 43.8566 71.9741C43.7352 72.6891 43.6503 73.3435 43.6017 73.9494C46.5385 74.5069 49.0383 76.3005 50.7494 79.1242C53.4313 83.5597 52.7517 88.2012 48.917 91.5582C47.3879 92.8912 45.5919 93.8486 43.5532 94.4061L43.5653 94.3819ZM131.376 82.2509C129.956 87.2681 127.14 91.3521 123.063 94.3334C124.483 94.297 125.769 94.2122 126.983 94.1031C129.458 93.8729 132.055 93.0851 135.344 91.5824C134.519 90.2978 133.718 88.9526 133.087 87.4256C132.371 85.7047 131.837 83.9717 131.376 82.2509ZM92.5066 52.9353C93.7808 53.6018 95.0671 54.2805 96.3413 54.9591C100.649 57.2981 104.181 59.431 107.421 62.2789C108.634 63.3454 109.666 64.3997 110.552 65.4783C113.282 63.5757 116.267 62.6183 119.471 62.6183C119.896 62.6183 120.32 62.6304 120.769 62.6668C123.197 62.8607 125.417 63.7332 127.262 65.2117C126.194 60.7156 124.192 56.4255 122.068 52.0749C121.437 50.7781 120.539 49.5299 119.58 48.1968C119.18 47.6393 118.767 47.0697 118.379 46.5002C115.527 42.3313 111.498 38.7804 105.673 35.3508C103.817 34.248 101.778 33.3512 100.212 32.6968L99.545 32.418C97.5791 31.5818 95.7224 30.8062 93.9021 30.3699C89.4242 29.3035 85.9536 28.7339 82.6528 28.4915C81.6092 28.4188 80.5534 28.3703 79.5341 28.3703C73.9519 28.3703 68.8551 29.4853 63.9403 31.7757C63.4913 31.9817 63.0545 32.1756 62.6176 32.3574C62.9938 32.4423 63.3578 32.5635 63.6976 32.7331C65.0446 33.3875 66.1732 34.151 67.0712 35.0236C67.8964 35.8234 68.6488 36.6354 69.3648 37.4231C69.8987 38.0048 70.4448 38.5987 71.003 39.1561C73.2966 41.4587 75.9785 43.422 78.9758 45.5185C79.704 45.5549 80.4321 45.567 81.1602 45.5912C82.4101 45.6276 83.6722 45.664 84.9221 45.7488C86.2448 45.8336 87.4584 46.1245 88.4656 46.4032C91.2445 47.1546 93.0041 49.8571 92.5551 52.6808C92.543 52.7656 92.5309 52.8505 92.5066 52.9353ZM55.5428 34.4298C53.8317 35.0357 52.3027 35.7871 50.9314 36.6839C46.8904 39.3621 43.7959 43.0826 41.5145 48.0029C44.2935 44.0643 47.4486 40.6346 51.0528 37.617C52.5697 36.3567 54.0501 35.2902 55.5428 34.4176V34.4298Z" fill="#8FD2F4"/>
<path id="Vector_2" d="M80.1772 19.4994C82.0339 19.4994 83.8906 19.6206 85.7351 19.9235C89.5699 20.5537 93.4167 21.196 97.1786 22.1171C99.4115 22.6624 101.559 23.6319 103.659 24.5893C106.304 25.8012 108.986 27.001 111.45 28.5522C116.607 31.8 121.425 35.4963 124.944 40.6105C126.218 42.4647 127.711 44.1977 128.803 46.1488C130.296 48.8028 131.546 51.5781 132.832 54.3412C134.434 57.795 135.404 61.4671 136.303 65.1633C136.897 67.6235 137.662 70.0593 138.244 72.5195C138.754 74.6888 139.13 76.8823 139.579 79.0637C140.404 83.1114 142.334 86.6259 144.809 89.8737C145.137 90.31 145.428 90.7826 145.707 91.2674C146.253 92.2248 146.132 93.0973 145.501 94.0426C143.523 97.036 140.611 98.7084 137.407 99.9687C132.116 102.065 126.558 102.695 120.915 102.768C120.782 102.768 120.636 102.768 120.502 102.768C116.049 102.768 111.656 102.199 107.324 101.217C105.71 100.853 104.108 100.466 102.506 100.041C102.227 99.9687 101.96 99.9324 101.705 99.9324C101.232 99.9324 100.783 100.066 100.322 100.381C97.3728 102.417 94.157 103.883 90.7712 105.034C86.4754 106.489 82.0582 107.41 77.5439 107.955C74.8741 108.27 72.2044 108.416 69.5346 108.416C68.1876 108.416 66.8406 108.379 65.4936 108.307C61.307 108.076 57.2174 107.325 53.2007 106.113C52.0236 105.762 50.7858 105.628 49.5722 105.434C46.7447 104.974 43.9172 104.538 41.0897 104.077C38.9539 103.726 36.8303 103.314 34.6945 102.998C31.418 102.514 28.1415 102.053 24.865 101.617C23.0447 101.375 21.2244 101.205 19.4041 100.987C18.9309 100.926 18.4455 100.829 17.9843 100.672C17.2198 100.405 16.88 99.9203 16.9043 99.2658C16.9286 98.5751 17.3533 98.1024 18.0693 97.8237C18.7246 97.5692 19.3556 97.2662 19.9624 96.9148C21.1637 96.2361 21.819 95.0606 22.5714 93.9578C24.149 91.6188 24.9985 88.9648 25.8722 86.3229C27.0129 82.8811 28.0808 79.4151 28.5055 75.8037C28.9788 71.7923 29.2336 67.7568 29.622 63.7454C29.7555 62.2911 29.9982 60.8611 30.2045 59.419C30.702 55.7954 31.0661 52.1234 32.2189 48.6332C34.2212 42.5737 37.0123 36.9384 42.0484 32.7453C43.2983 31.7031 44.6575 30.7699 46.0409 29.9095C48.7713 28.2371 51.4896 26.5041 54.6326 25.6679C55.7976 25.3649 57.0111 25.2316 58.2125 25.0013C58.5644 24.9286 58.9528 24.8438 59.244 24.6499C60.858 23.5471 62.6297 22.7472 64.4621 22.0928C67.9571 20.8325 71.5612 20.069 75.2503 19.7418C76.9007 19.5963 78.5511 19.4994 80.2015 19.4994M35.8352 99.2174C36.0172 99.2174 36.2114 99.1568 36.4662 99.1204C36.3206 98.9023 36.2721 98.7811 36.1871 98.6963C35.4347 97.8601 34.6095 97.0723 33.9421 96.1755C32.0854 93.7154 31.0782 90.9523 31.3937 87.8256C31.7335 84.505 33.2868 81.7541 35.5197 79.3424C35.908 78.9304 36.0415 78.5426 35.9444 77.9851C35.4833 75.2462 35.641 72.5195 36.1507 69.817C36.9031 65.8904 38.238 62.1578 39.9976 58.5706C43.3712 51.6992 47.7884 45.6519 53.6739 40.7195C55.7491 38.9865 57.9819 37.4838 60.5303 36.49C60.8216 36.381 61.1856 36.284 61.5011 36.284C61.6589 36.284 61.8045 36.3083 61.9259 36.3689C62.7632 36.7688 63.6005 37.2899 64.2558 37.9322C65.6028 39.2289 66.8042 40.6832 68.127 42.0163C70.8574 44.7551 73.9883 46.985 77.1434 49.1906C77.4589 49.4088 77.9201 49.53 78.3205 49.5542C80.4321 49.6511 82.5557 49.6754 84.6794 49.8087C85.6016 49.8693 86.5118 50.0753 87.4098 50.3298C88.2107 50.5479 88.6719 51.3357 88.5626 52.0507C88.4534 52.7415 87.8345 53.2383 86.9729 53.2383H86.9487C86.354 53.2383 85.7594 53.1171 85.1769 53.0565C84.8857 53.0323 84.6066 53.0081 84.3153 52.9838C84.3032 53.0444 84.2789 53.105 84.2668 53.1777C84.4367 53.2868 84.6066 53.4201 84.7886 53.5171C88.0044 55.1895 91.2445 56.8134 94.4239 58.5464C98.0524 60.5218 101.632 62.5941 104.751 65.3451C106.559 66.9327 108.149 68.6899 109.253 70.8471C109.484 71.3076 109.593 71.5257 109.739 71.5257C109.872 71.5257 110.03 71.3561 110.333 71.0289C112.857 68.3748 115.818 66.6903 119.471 66.6903C119.786 66.6903 120.114 66.7024 120.454 66.7267C122.383 66.8842 124.046 67.6356 125.405 69.005C127.759 71.3682 128.572 74.3494 128.196 77.5246C127.335 84.7717 123.682 90.1646 116.947 93.2185C115.648 93.8123 114.314 94.1153 112.967 94.1153C111.692 94.1153 110.418 93.8366 109.156 93.267C108.986 93.1943 108.841 93.1579 108.707 93.1579C108.464 93.1579 108.282 93.2791 108.064 93.5094C107.287 94.3456 106.462 95.1575 105.673 95.9816C105.564 96.1028 105.467 96.2361 105.249 96.5027C106.013 96.6603 106.656 96.7815 107.287 96.9269C111.231 97.7873 115.199 98.3933 119.24 98.4296C119.665 98.4296 120.078 98.4296 120.502 98.4296C122.796 98.4296 125.102 98.369 127.383 98.1509C130.914 97.8237 134.227 96.5997 137.419 95.1091C138.463 94.6243 139.409 93.8972 140.38 93.2428C140.853 92.9156 140.853 92.5641 140.501 92.0188C139.215 90.0191 137.759 88.0559 136.861 85.8866C135.769 83.2568 135.113 80.4331 134.397 77.6579C133.9 75.7431 133.681 73.7435 133.22 71.8166C132.638 69.417 131.861 67.066 131.303 64.6543C130.15 59.5886 127.978 54.935 125.721 50.3056C124.641 48.0999 123.099 46.2215 121.74 44.2219C118.112 38.9138 113.197 35.0843 107.748 31.8606C105.855 30.7457 103.829 29.8125 101.802 28.9642C99.5207 28.0068 97.2272 26.9888 94.8487 26.4193C90.9411 25.4982 86.9851 24.7347 82.9683 24.4439C81.8276 24.359 80.6869 24.3227 79.5583 24.3227C73.5635 24.3227 67.7872 25.5225 62.2414 28.1038C61.0279 28.6734 59.7537 29.1581 58.4552 29.4247C54.9724 30.1519 51.6838 31.3395 48.7228 33.2907C42.9707 37.096 39.2209 42.501 36.7817 48.8513C35.4954 52.2204 34.9736 55.7712 34.6581 59.3341C34.3304 62.9334 34.2455 66.557 33.9664 70.1684C33.7965 72.4104 33.5538 74.6524 33.2019 76.8823C32.583 80.7482 31.5029 84.505 30.2651 88.2134C29.1366 91.5946 27.8866 94.9152 25.7994 97.8479C25.3989 98.4175 25.4717 98.5751 26.1634 98.7084C26.2969 98.7326 26.4304 98.7568 26.5518 98.7568C29.6462 98.9144 32.7286 99.0598 35.8231 99.2052C35.8352 99.2052 35.8473 99.2052 35.8595 99.2052M48.8077 51.881C49.0747 51.8326 49.3417 51.8083 49.6087 51.7477C50.5309 51.5538 51.4532 51.2266 52.3876 51.1781C53.14 51.1418 53.8924 51.1297 54.6448 51.1297C55.6398 51.1297 56.6349 51.1539 57.6179 51.166C57.9819 51.166 58.3703 51.2993 58.6979 51.4569C59.4382 51.8325 59.7173 52.4142 59.5716 53.1414C59.4503 53.7473 58.8678 54.2563 58.1033 54.2563C58.079 54.2563 58.0547 54.2563 58.0183 54.2563C57.3145 54.2563 56.6228 54.1594 55.919 54.0867C55.3607 54.0261 54.8025 54.0018 54.2443 54.0018C51.5988 54.0018 49.0747 54.6199 46.6113 55.7106C46.0894 55.9408 45.6526 56.1711 45.3492 56.7043C42.7887 61.2853 40.7378 66.048 39.8762 71.2591C39.5486 73.2466 39.3787 75.2462 39.6456 77.258C39.6942 77.6215 39.7791 77.8881 40.1553 77.8881C40.216 77.8881 40.2767 77.8881 40.3374 77.876C40.7742 77.8033 41.2111 77.7669 41.6116 77.7669C44.0629 77.7669 45.9802 79.0031 47.2908 81.1724C48.8441 83.7294 48.7228 86.2986 46.2593 88.4558C44.4876 90.007 42.3397 90.6978 39.9976 90.8553C39.7791 90.8675 39.5728 90.8796 39.3665 90.8796C38.2744 90.8796 37.2065 90.6857 36.1507 90.3342C36.09 90.31 36.0294 90.31 35.9687 90.31C35.8231 90.31 35.6774 90.3464 35.5318 90.3464C35.5318 90.5524 35.4954 90.7826 35.5561 90.9765C35.9444 92.2127 36.5512 93.3276 37.3764 94.3213C39.6092 96.9875 42.5338 98.6478 45.6647 99.993C49.4509 101.617 53.4191 102.586 57.4844 103.108C60.8216 103.544 64.1587 103.762 67.4717 103.762C73.7213 103.762 79.9345 102.974 86.0871 101.326C89.3393 100.453 92.5066 99.3628 95.5404 97.8964C99.7634 95.8483 103.61 93.3397 106.329 89.3647C106.814 88.6497 107.409 88.3104 108.04 88.3104C108.549 88.3104 109.095 88.5406 109.641 88.9769C110.6 89.7646 111.656 90.1403 112.833 90.1403C113.064 90.1403 113.294 90.1282 113.537 90.0918C115.345 89.8737 116.923 89.0981 118.33 87.9832C121.376 85.5836 123.318 82.457 124.131 78.6759C124.471 77.1125 124.483 75.5128 123.997 73.9616C123.281 71.7075 121.68 70.4835 119.507 70.4835C119.18 70.4835 118.84 70.5077 118.488 70.5683C117.056 70.7986 115.758 71.3197 114.678 72.3013C113.161 73.6829 111.68 75.1129 110.175 76.5187C109.702 76.9671 109.168 77.258 108.549 77.258C108.392 77.258 108.234 77.2337 108.064 77.1974C107.057 76.955 106.559 76.3248 106.474 75.1008C106.389 73.901 105.989 72.8224 105.37 71.8045C104.156 69.8048 102.421 68.2779 100.589 66.8963C96.7296 63.9757 92.4338 61.7822 88.1864 59.528C84.4245 57.5284 80.6262 55.6015 76.8886 53.5413C76.3425 53.2383 75.8328 53.0929 75.311 53.0929C74.9834 53.0929 74.6678 53.1535 74.328 53.2626C72.8233 53.7716 71.3307 54.3048 69.838 54.8501C69.6196 54.935 69.4012 54.9713 69.1949 54.9713C68.7944 54.9713 68.4425 54.8017 68.1634 54.4623C67.775 53.9776 67.7629 53.3595 68.2119 52.8142C68.491 52.4748 68.8308 52.1598 69.207 51.9659C69.9472 51.5781 70.7239 51.263 71.4884 50.9236C71.7432 50.8146 71.9738 50.6813 72.3257 50.5116C72.0588 50.2934 71.8889 50.148 71.719 50.0147C70.7603 49.2633 69.7774 48.5483 68.8551 47.7606C66.3795 45.6519 63.9767 43.4584 62.5448 40.4408C62.4113 40.1621 62.2414 40.0409 62.0351 40.0409C61.9137 40.0409 61.7803 40.0894 61.6346 40.1742C60.4332 40.865 59.1833 41.4951 58.0426 42.2829C54.754 44.5491 52.0236 47.397 49.5601 50.5116C49.2567 50.8994 48.9776 51.3114 48.6864 51.6992C48.7228 51.7477 48.7592 51.8083 48.7956 51.8568M39.0025 87.5832C39.136 87.5832 39.2816 87.5832 39.4151 87.559H39.4394C41.2111 87.559 42.7159 87.1106 44.0265 86.0926C44.9973 85.3412 45.2157 84.4445 44.7788 83.3538C44.2813 82.1176 43.4076 81.2087 42.097 81.0633C41.5873 81.0027 41.0655 80.93 40.5558 80.93C39.585 80.93 38.6627 81.1845 37.971 82.2752C37.1943 83.4992 36.2235 84.602 35.7988 86.032C35.7017 86.3471 35.5925 86.6743 36.0536 86.844C37.0366 87.2076 38.0195 87.5832 38.9903 87.5832M80.1772 11.3918C78.4297 11.3918 76.5731 11.4767 74.4979 11.6585C70.0686 12.0463 65.7485 12.9915 61.671 14.4579C59.4139 15.2699 57.5208 16.1546 55.8219 17.1847C55.7248 17.1968 55.6398 17.2089 55.5428 17.2331C54.6569 17.3786 53.6375 17.5361 52.5211 17.8391C48.4194 18.9298 45.155 20.9294 42.2669 22.6988L41.7693 23.0017C39.9005 24.153 38.2744 25.3043 36.806 26.5283C29.5492 32.5878 26.2969 40.5983 24.4767 46.1003C23.251 49.8087 22.7656 53.5292 22.3287 56.8134C22.268 57.3224 22.1952 57.8314 22.1224 58.3283C22.0617 58.7403 22.0011 59.1645 21.9404 59.5765C21.7826 60.6551 21.6249 61.77 21.5035 62.9698C21.3579 64.5089 21.2244 66.0601 21.1031 67.5992C20.8968 70.1199 20.6905 72.4952 20.4114 74.8584C20.0716 77.7548 19.1372 80.724 18.1299 83.7779L18.0086 84.1294C17.3047 86.2623 16.6859 88.1165 15.8121 89.4132L15.4845 89.9101C15.4359 89.9949 15.3753 90.0797 15.3146 90.1646C15.2296 90.2009 15.1568 90.2373 15.0719 90.2615C11.31 91.74 8.89506 95.0848 8.76157 98.9992C8.62808 103.253 11.1886 106.925 15.3146 108.343C16.2854 108.682 17.3169 108.912 18.3969 109.046C19.2221 109.143 20.0473 109.24 20.8604 109.325C21.8312 109.434 22.802 109.531 23.7728 109.664C27.5469 110.161 30.6292 110.597 33.4688 111.021C34.6459 111.191 35.8231 111.409 37.073 111.627C37.971 111.785 38.8569 111.942 39.7549 112.088C41.1747 112.318 42.5945 112.548 44.0143 112.766C45.422 112.984 46.8297 113.215 48.2374 113.445C48.565 113.493 48.8927 113.554 49.2325 113.602C49.8635 113.699 50.5067 113.796 50.8343 113.893C55.5428 115.311 60.324 116.172 65.0325 116.426C66.5373 116.511 68.042 116.547 69.5104 116.547C72.532 116.547 75.5537 116.366 78.4783 116.026C83.842 115.396 88.7083 114.317 93.356 112.742C96.851 111.554 99.9333 110.161 102.712 108.5C103.622 108.719 104.557 108.949 105.503 109.155C110.709 110.33 115.612 110.912 120.49 110.912H120.976C128.682 110.815 134.834 109.737 140.404 107.531C143.863 106.161 148.85 103.738 152.285 98.5266C154.639 94.9636 154.809 90.8675 152.758 87.2803C152.406 86.6622 151.921 85.8502 151.265 84.9898C149.214 82.2994 148.025 79.912 147.528 77.464C147.382 76.749 147.248 76.0461 147.103 75.3311C146.812 73.8283 146.508 72.265 146.132 70.6653C145.792 69.2474 145.416 67.8901 145.064 66.5812C144.749 65.4299 144.445 64.3392 144.19 63.2728C143.232 59.322 142.127 55.1046 140.198 50.9479L139.749 49.9905C138.572 47.4455 137.346 44.8036 135.878 42.1859C134.907 40.465 133.815 38.9987 132.844 37.7019C132.407 37.1081 131.982 36.5506 131.618 36.0174C126.934 29.2308 120.685 24.7953 115.77 21.6929C112.967 19.9235 110.127 18.6268 107.384 17.3786L107.032 17.221C104.836 16.2152 102.118 14.979 99.0839 14.2398C95.0428 13.2582 91.0746 12.5795 87.0336 11.9251C84.8614 11.5736 82.6164 11.404 80.1651 11.404L80.1772 11.3918ZM71.2457 33.4482C73.9033 32.7696 76.6459 32.4302 79.5462 32.4302C80.4685 32.4302 81.415 32.4666 82.3615 32.5393C85.4318 32.7696 88.7083 33.3149 92.9677 34.3208C94.4603 34.6722 96.1714 35.3993 97.9795 36.1628L98.6348 36.4416C100.091 37.0475 101.96 37.8837 103.61 38.8532C108.889 41.9678 112.518 45.1308 115.017 48.7907C115.43 49.3967 115.855 49.9905 116.279 50.5722C117.165 51.8083 117.93 52.8748 118.415 53.8564C119.192 55.444 119.944 57.0194 120.636 58.5828C120.248 58.5585 119.859 58.5464 119.471 58.5464C116.595 58.5464 113.877 59.1402 111.316 60.34C110.928 59.9643 110.527 59.6007 110.103 59.2251C106.377 55.9408 102.215 53.5171 98.2829 51.3841C97.7247 51.0812 97.1665 50.7782 96.6083 50.4874C96.0986 46.7426 93.3924 43.5311 89.5456 42.4768C88.4049 42.1617 86.888 41.7981 85.1769 41.689C83.8299 41.6042 82.5314 41.5679 81.2815 41.5315C80.966 41.5315 80.6505 41.5073 80.335 41.5073C77.8958 39.7743 75.7236 38.1261 73.8912 36.2961C73.4058 35.8114 72.9082 35.266 72.3743 34.6843C72.0224 34.2965 71.634 33.8845 71.2336 33.4603L71.2457 33.4482ZM57.9941 62.4002H58.164C59.9842 62.376 61.7074 61.8549 63.1637 60.9459C64.8505 62.3396 66.962 63.1273 69.1949 63.1273C70.3598 63.1273 71.5127 62.9213 72.6413 62.5093C73.3572 62.2427 74.0975 61.976 74.862 61.7094C76.7915 62.7517 78.7331 63.7575 80.6141 64.7513C81.8761 65.4057 83.1382 66.0722 84.3881 66.7388L85.3468 67.2478C89.0966 69.2353 92.6522 71.1016 95.686 73.4042C97.118 74.4827 97.931 75.2705 98.3921 76.0097C98.647 78.7001 99.7634 81.0148 101.535 82.6751C100.819 83.2932 100.176 84.0082 99.6178 84.8323C98.113 87.0379 95.8316 88.7709 91.9969 90.6372C89.6791 91.7643 87.0579 92.7095 83.9877 93.5336C78.6482 94.9636 73.0903 95.6908 67.4838 95.6908C64.5592 95.6908 61.5497 95.4969 58.5402 95.1091C56.3437 94.8303 54.3171 94.4062 52.424 93.8487C56.9869 89.2556 57.7271 82.7599 54.2443 77.0156C52.691 74.4464 50.5916 72.4831 48.1524 71.247C48.7592 68.5324 49.8149 65.7329 51.4168 62.6183C52.3876 62.3275 53.322 62.1821 54.2322 62.1821C54.5234 62.1821 54.8146 62.1942 55.1059 62.2305L55.4942 62.2669C56.1738 62.3396 57.0233 62.4366 57.9941 62.4366V62.4002Z" fill="#8FD2F4"/>
<path id="Vector_3" d="M35.7017 101.532C32.5951 101.387 29.5127 101.229 26.4183 101.071C26.1877 101.071 25.9571 101.023 25.7266 100.987C25.3018 100.914 23.9548 100.672 23.4087 99.3263C23.0447 98.4295 23.2024 97.4843 23.8941 96.5148C25.6901 93.9698 26.8551 91.0613 28.0565 87.4741C29.5127 83.1234 30.3865 79.7422 30.9083 76.5065C31.2238 74.519 31.4665 72.3861 31.6485 69.9865C31.7699 68.4232 31.8548 66.8599 31.9398 65.2965C32.049 63.2727 32.1582 61.1882 32.3524 59.1159C32.6558 55.759 33.1654 51.8082 34.6217 48.015C37.4492 40.6346 41.6479 35.1811 47.4486 31.3515C50.4217 29.3883 53.8681 28.0067 57.994 27.1463C58.977 26.9403 60.057 26.5646 61.2827 25.9829C66.9741 23.3288 73.1266 21.9836 79.5826 21.9836C80.7597 21.9836 81.9611 22.0321 83.1625 22.117C86.7666 22.3836 90.662 23.0259 95.419 24.1529C97.7611 24.7104 99.9576 25.6314 102.081 26.5282L102.749 26.807C104.496 27.5462 106.79 28.5521 108.974 29.8488C115.624 33.7753 120.308 37.92 123.694 42.8887C124.058 43.4219 124.434 43.9431 124.81 44.4642C125.878 45.9548 126.983 47.4818 127.856 49.2632C130.211 54.0744 132.407 58.825 133.621 64.1089C133.9 65.3329 134.24 66.5326 134.604 67.8051C134.931 68.9443 135.247 70.0835 135.526 71.2469C135.756 72.2164 135.926 73.1859 136.096 74.1191C136.278 75.1492 136.448 76.1187 136.691 77.0518L136.982 78.1668C137.601 80.5663 138.171 82.8447 139.057 84.9655C139.664 86.444 140.61 87.8498 141.593 89.3525C141.897 89.813 142.212 90.2735 142.504 90.7462C143.693 92.6125 142.977 94.297 141.727 95.1332L141.157 95.521C140.319 96.1027 139.458 96.7087 138.45 97.1813C134.3 99.1203 130.963 100.114 127.638 100.429C125.526 100.623 123.257 100.72 120.515 100.72H119.253C115.515 100.684 111.571 100.187 106.826 99.1567C106.377 99.0597 105.94 98.9749 105.455 98.8658L101.11 97.9811L103.635 94.8181C103.792 94.6121 103.902 94.4788 104.035 94.3455L104.848 93.5214C105.37 92.9882 105.904 92.4549 106.401 91.9096C107.081 91.1824 107.87 90.8189 108.743 90.8189C109.217 90.8189 109.678 90.928 110.151 91.1461C111.086 91.5703 112.044 91.7884 112.991 91.7884C113.937 91.7884 115.005 91.5581 116.012 91.0976C121.886 88.4436 125.126 83.9111 125.915 77.2457C126.23 74.5917 125.514 72.3739 123.779 70.6288C122.82 69.6593 121.68 69.1382 120.296 69.0291C120.029 69.0049 119.762 68.9928 119.507 68.9928C116.765 68.9928 114.398 70.1441 112.044 72.6163C111.547 73.1374 110.891 73.8282 109.763 73.8282C108.197 73.8282 107.566 72.58 107.214 71.9134C106.353 70.241 105.091 68.7019 103.234 67.0659C100.443 64.6057 97.2514 62.691 93.3318 60.558C91.1838 59.3946 89.0238 58.2797 86.8516 57.1648C85.8079 56.6315 84.7764 56.0983 83.7328 55.5529C83.5144 55.4318 83.3081 55.2984 83.1139 55.1651L81.6091 54.1714L82.1916 52.0021C81.7912 51.99 81.4029 51.9779 81.0024 51.9658C80.0801 51.9415 79.1578 51.9052 78.2356 51.8688C77.7259 51.8446 76.7308 51.7113 75.8449 51.0932C72.3864 48.6815 69.3041 46.4517 66.513 43.6522C65.8941 43.022 65.2873 42.3797 64.6927 41.7253C64.001 40.9739 63.3578 40.271 62.6661 39.6045C62.3385 39.2894 61.9016 38.9743 61.3555 38.6835C59.3411 39.4712 57.3266 40.7194 55.1908 42.513C49.8271 47.0091 45.5433 52.5959 42.1091 59.6128C40.3373 63.2363 39.136 66.7144 38.4685 70.2653C37.9467 72.9557 37.886 75.3673 38.2622 77.6093C38.4685 78.8576 38.1287 79.9725 37.2429 80.9299C35.1313 83.2082 33.9785 85.5472 33.7237 88.0679C33.4931 90.419 34.1727 92.6125 35.8109 94.7818C36.1871 95.2786 36.6482 95.7634 37.1336 96.2845C37.4006 96.5753 37.6676 96.8541 37.9346 97.1449C38.0681 97.2904 38.1894 97.46 38.3472 97.7145L40.3859 100.865L36.8424 101.411L36.6846 101.435C36.4783 101.471 36.1992 101.532 35.8594 101.532H35.726H35.7017Z" fill="#8FD2F4"/>
<path id="Vector_4" d="M79.5462 24.3104C80.6748 24.3104 81.8155 24.3467 82.9562 24.4316C86.9851 24.7224 90.9412 25.4859 94.8366 26.407C97.2272 26.9765 99.5208 27.9945 101.79 28.9519C103.817 29.8124 105.843 30.7334 107.736 31.8483C113.185 35.0598 118.1 38.9015 121.728 44.2096C123.099 46.2092 124.641 48.0998 125.709 50.2933C127.966 54.9227 130.138 59.5763 131.291 64.642C131.837 67.0537 132.626 69.4047 133.208 71.8043C133.669 73.7312 133.888 75.7187 134.385 77.6456C135.101 80.4208 135.756 83.2445 136.849 85.8743C137.747 88.0557 139.203 90.0068 140.489 92.0065C140.841 92.5518 140.841 92.9033 140.368 93.2305C139.409 93.8849 138.463 94.612 137.407 95.0968C134.215 96.5874 130.89 97.8114 127.371 98.1386C125.09 98.3568 122.784 98.4173 120.49 98.4173C120.066 98.4173 119.653 98.4173 119.228 98.4173C115.199 98.381 111.219 97.7629 107.275 96.9146C106.644 96.7813 106.001 96.648 105.236 96.4904C105.443 96.2238 105.54 96.0905 105.661 95.9693C106.462 95.1452 107.275 94.3333 108.052 93.4971C108.27 93.2668 108.452 93.1456 108.695 93.1456C108.828 93.1456 108.974 93.182 109.144 93.2547C110.406 93.8243 111.68 94.103 112.954 94.103C114.301 94.103 115.636 93.8001 116.935 93.2062C123.682 90.1523 127.322 84.7594 128.184 77.5123C128.56 74.325 127.747 71.3559 125.393 68.9927C124.034 67.6233 122.371 66.8598 120.442 66.7144C120.114 66.6901 119.787 66.678 119.459 66.678C115.794 66.678 112.845 68.3625 110.321 71.0166C110.018 71.3316 109.86 71.5134 109.726 71.5134C109.581 71.5134 109.472 71.2953 109.241 70.8348C108.137 68.6776 106.547 66.9204 104.739 65.3328C101.608 62.5818 98.0403 60.4974 94.4118 58.5341C91.2324 56.8011 87.9923 55.1772 84.7765 53.5048C84.5945 53.4078 84.4246 53.2745 84.2547 53.1654C84.2668 53.1048 84.2911 53.0443 84.3032 52.9715C84.5945 52.9958 84.8736 53.0079 85.1648 53.0443C85.7594 53.1049 86.3541 53.2139 86.9366 53.226H86.9608C87.8224 53.226 88.4413 52.7292 88.5505 52.0384C88.6598 51.3234 88.1986 50.5356 87.3977 50.3175C86.5118 50.0751 85.5895 49.857 84.6673 49.7964C82.5557 49.6631 80.4321 49.651 78.3084 49.5419C77.908 49.5177 77.459 49.4086 77.1313 49.1783C73.9762 46.9727 70.8453 44.7428 68.1149 42.004C66.7921 40.6709 65.5907 39.2287 64.2437 37.9199C63.5763 37.2776 62.739 36.7686 61.9138 36.3566C61.7924 36.296 61.6468 36.2717 61.489 36.2717C61.1735 36.2717 60.8095 36.3687 60.5182 36.4777C57.982 37.4594 55.737 38.9621 53.6618 40.7072C47.7763 45.6396 43.3469 51.6991 39.9855 58.5583C38.2259 62.1455 36.891 65.8781 36.1386 69.8047C35.6168 72.5072 35.4712 75.2339 35.9323 77.9728C36.0294 78.5303 35.8959 78.9181 35.5076 79.3301C33.2747 81.7296 31.7093 84.4927 31.3816 87.8133C31.0661 90.94 32.0733 93.7031 33.93 96.1632C34.6096 97.06 35.4226 97.8356 36.175 98.684C36.26 98.7809 36.3206 98.89 36.4541 99.1081C36.1872 99.1445 36.0051 99.2051 35.8231 99.2051C35.811 99.2051 35.7988 99.2051 35.7867 99.2051C32.6922 99.0596 29.6099 98.9021 26.5154 98.7567C26.3819 98.7567 26.2484 98.7324 26.1271 98.7082C25.4354 98.587 25.3626 98.4295 25.763 97.8478C27.8381 94.9029 29.1002 91.5823 30.2288 88.2132C31.4666 84.5049 32.5466 80.748 33.1655 76.8821C33.5174 74.6643 33.7601 72.4223 33.93 70.1682C34.2091 66.5568 34.2941 62.9333 34.6217 59.334C34.9494 55.771 35.459 52.2202 36.7454 48.8511C39.1846 42.4887 42.9343 37.0958 48.6864 33.2905C51.6474 31.3393 54.936 30.1517 58.4188 29.4246C59.7173 29.1579 61.0036 28.6611 62.205 28.1036C67.7508 25.5223 73.5272 24.3225 79.5219 24.3225M79.5219 19.681C72.7384 19.681 66.246 21.0989 60.2391 23.8983C59.1712 24.3952 58.2732 24.7224 57.4602 24.8921C53.0429 25.8131 49.3296 27.3038 46.1137 29.4367C39.9855 33.4965 35.3741 39.4711 32.401 47.2151C30.8477 51.2749 30.3016 55.4196 29.9861 58.934C29.7919 61.0427 29.6827 63.1514 29.5735 65.1995C29.4885 66.7265 29.4036 68.314 29.2944 69.841C29.1123 72.1921 28.8818 74.2523 28.5663 76.1671C28.0687 79.2695 27.2192 82.5416 25.7994 86.7711C24.6709 90.1644 23.5787 92.8911 21.9526 95.2058C20.4114 97.3872 20.8361 99.2899 21.2245 100.235C21.6977 101.386 22.7899 102.853 25.2898 103.301C25.4839 103.338 25.8358 103.398 26.2606 103.422C29.3672 103.58 32.4495 103.738 35.544 103.883H35.6532H35.7988C36.3692 103.883 36.8303 103.786 37.0852 103.738H37.158L44.2692 102.635L40.3374 96.6116L40.2767 96.5268C40.1675 96.345 39.9491 95.9936 39.6214 95.6179C39.3423 95.3149 39.0632 95.0119 38.7841 94.7211C38.3351 94.2485 37.9104 93.8 37.6191 93.4001C36.3206 91.6914 35.811 90.0796 35.9809 88.3102C36.1872 86.2742 37.1094 84.4322 38.8933 82.5174C40.6408 80.6389 40.7257 78.603 40.4952 77.2335C40.1675 75.2582 40.2282 73.1252 40.6893 70.7015C41.3325 67.3567 42.4611 64.0603 44.1357 60.6307C47.4243 53.9168 51.5139 48.5724 56.635 44.2944C58.1761 43.0098 59.6324 42.0282 61.0643 41.3374C61.6832 41.9312 62.29 42.5978 62.9331 43.3128C63.5278 43.9672 64.1467 44.6338 64.8141 45.3124C67.7387 48.2452 70.9181 50.5357 74.4616 53.0079C75.4688 53.7108 76.7551 54.135 78.0657 54.1955C78.4298 54.2077 78.7817 54.2319 79.1458 54.244L78.8909 55.2257L81.6699 57.0556L81.7306 57.092C81.9126 57.2132 82.2038 57.4192 82.5922 57.6252C83.6358 58.1705 84.6794 58.7038 85.723 59.2491C87.8467 60.3398 90.0432 61.4669 92.1547 62.6182C95.9409 64.6784 99.0111 66.5205 101.632 68.823C103.271 70.2652 104.363 71.574 105.067 72.9556C106.159 75.0885 107.712 76.155 109.69 76.155C111.814 76.155 113.052 74.8582 113.634 74.2281C115.551 72.2163 117.335 71.3195 119.422 71.3195C119.629 71.3195 119.823 71.3195 120.029 71.3438C120.854 71.4044 121.485 71.6952 122.056 72.2648C123.294 73.5131 123.767 75.0037 123.524 76.9669C122.832 82.7598 120.029 86.6863 114.969 88.9767C114.265 89.2918 113.561 89.4615 112.906 89.4615C112.251 89.4615 111.668 89.3161 111.025 89.0252C110.248 88.6738 109.447 88.492 108.646 88.492C107.579 88.492 106.013 88.8071 104.605 90.3219C104.12 90.843 103.622 91.352 103.125 91.861C102.846 92.1519 102.555 92.4306 102.275 92.7215C102.021 92.9881 101.839 93.2305 101.705 93.4001L101.572 93.5819L96.8632 99.4838L104.266 101.011L104.982 101.156C105.431 101.253 105.843 101.338 106.256 101.423C111.146 102.489 115.248 102.998 119.143 103.035C119.58 103.035 120.017 103.035 120.442 103.035C123.245 103.035 125.575 102.938 127.759 102.732C131.351 102.392 134.919 101.326 139.324 99.2778C140.513 98.7203 141.509 98.0295 142.37 97.4236C142.552 97.2903 142.734 97.1691 142.928 97.0358C145.452 95.3149 146.059 92.1398 144.348 89.4736C144.045 89.001 143.729 88.5283 143.414 88.0436C142.479 86.6499 141.606 85.3289 141.084 84.0565C140.271 82.0811 139.713 79.8876 139.118 77.5729L138.827 76.4458C138.608 75.5975 138.438 74.6765 138.268 73.6948C138.099 72.7253 137.917 71.7316 137.674 70.6893C137.383 69.4775 137.043 68.3019 136.727 67.1627C136.375 65.9145 136.036 64.7511 135.781 63.5877C134.519 58.0615 132.249 53.1776 129.847 48.2331C128.888 46.2819 127.735 44.6701 126.607 43.1068C126.242 42.5978 125.878 42.0888 125.526 41.5677C121.934 36.296 117.02 31.9332 110.066 27.837C107.761 26.4797 105.382 25.4253 103.562 24.6618L102.919 24.3952C100.698 23.4621 98.4043 22.4804 95.8681 21.8866C90.9897 20.7353 86.973 20.0688 83.2475 19.79C81.9975 19.6931 80.7355 19.6567 79.4977 19.6567L79.5219 19.681Z" fill="#8FD2F4"/>
<path id="Vector_5" d="M67.4718 106.101C64.0982 106.101 60.6396 105.871 57.1933 105.434C52.6061 104.841 48.5287 103.762 44.7547 102.15C41.9514 100.95 38.3716 99.1447 35.6047 95.8362C34.5975 94.6365 33.8451 93.2549 33.3476 91.7037C33.1777 91.1826 33.202 90.7342 33.202 90.4918L33.1292 88.165L35.4591 88.0559C35.629 88.0317 35.7989 88.0195 35.9567 88.0195C36.2722 88.0195 36.5877 88.068 36.8789 88.165C37.7284 88.4558 38.5293 88.5891 39.3545 88.5891C39.5123 88.5891 39.67 88.5891 39.8399 88.577C41.8786 88.4437 43.4805 87.8499 44.7304 86.7471C46.1988 85.4625 46.3687 84.1657 45.3008 82.4085C44.3663 80.8694 43.1528 80.118 41.5995 80.118C41.3083 80.118 41.0049 80.1423 40.6894 80.1907C40.4831 80.2271 40.3011 80.2392 40.1433 80.2392C39.7307 80.2392 37.6677 80.1059 37.3279 77.6094C36.976 75.016 37.2915 72.5437 37.5706 70.9077C38.3837 66.0116 40.204 61.1399 43.3106 55.6015C44.0144 54.3412 45.1309 53.8564 45.6527 53.6262C46.041 53.4565 46.4293 53.2989 46.8055 53.1535L45.8711 51.8083L46.7812 50.4025L47.0482 50.039C47.2667 49.736 47.4851 49.433 47.7157 49.1301C50.7009 45.3611 53.5527 42.598 56.6957 40.4287C57.5816 39.8227 58.4917 39.3138 59.3654 38.829C59.7295 38.6351 60.0814 38.4291 60.4333 38.2231C60.943 37.9322 61.477 37.7747 62.0109 37.7747C63.1274 37.7747 64.0982 38.417 64.62 39.4955C65.8699 42.1132 68.0421 44.0886 70.3357 46.0519C70.9303 46.5608 71.5492 47.0214 72.1681 47.5061C72.4957 47.7485 72.8113 48.003 73.1268 48.2454C73.2481 48.3423 76.4518 50.9479 76.4518 50.9479C76.9615 51.0691 77.4712 51.263 77.993 51.5538C80.4686 52.9111 83.017 54.2442 85.4804 55.5288C86.7425 56.1832 88.0045 56.8498 89.2666 57.5163L90.2253 58.0253C94.1813 60.1098 98.2709 62.279 101.984 65.0906C103.805 66.4722 105.868 68.2052 107.348 70.6411C108.149 71.962 108.61 73.283 108.756 74.6888L109.945 73.5617C110.989 72.5801 112.032 71.5985 113.088 70.6289C114.423 69.4049 116.11 68.6293 118.1 68.3142C118.573 68.2415 119.034 68.2052 119.495 68.2052C122.687 68.2052 125.187 70.1078 126.194 73.2951C126.776 75.1129 126.837 77.1004 126.388 79.197C125.454 83.5234 123.221 87.1106 119.75 89.8374C117.894 91.3038 115.891 92.1763 113.792 92.4187C113.464 92.4551 113.137 92.4793 112.821 92.4793C111.098 92.4793 109.532 91.9097 108.161 90.7948C104.872 95.5454 100.225 98.2115 96.5477 99.993C93.6231 101.411 90.3952 102.586 86.6818 103.58C80.4564 105.253 73.9884 106.101 67.4596 106.101H67.4718ZM95.9409 80.2392C93.9022 80.2392 92.1669 81.0269 90.6257 82.6266C89.0846 84.2263 89.121 86.2502 90.7228 87.9105C91.8392 89.0739 93.3683 89.6435 95.8075 89.8131C98.1738 89.7768 100.152 88.9769 101.402 87.5469C102.664 86.1048 102.627 85.0383 102.458 84.2748C102.045 82.4691 100.892 81.3299 98.817 80.6997C97.8098 80.3968 96.8511 80.2392 95.9652 80.2392H95.9409ZM78.3206 74.301C80.6627 74.301 82.5801 74.5797 84.3276 75.1856C84.6188 75.2826 84.91 75.3432 85.1527 75.4038C85.2377 74.9433 85.2862 74.4827 85.3348 74.0101C85.3833 73.5617 85.4319 73.1133 85.5047 72.677C85.5653 72.3013 85.6382 71.9378 85.7231 71.5863C85.7352 71.5136 85.7474 71.453 85.7716 71.3803C85.0435 71.1864 84.2547 70.9804 83.466 70.7865C82.9805 70.6653 82.483 70.5441 81.9976 70.4108C81.7185 70.3381 81.4515 70.229 81.1845 70.12L81.0268 70.0594L78.3692 69.0293L79.9225 66.6418C80.1045 66.3025 80.3836 65.7693 80.9782 65.3451C81.8641 64.7149 82.7864 64.0605 83.7451 63.4303C83.3203 62.6547 82.8349 61.9882 82.2767 61.3944C81.67 60.7521 80.6749 59.9886 79.4249 59.9886C78.7818 59.9886 78.1265 60.1946 77.459 60.5824C76.6702 61.055 76.0149 61.77 75.4567 62.7517C73.7821 65.7208 73.1632 68.9444 73.6364 72.3377C73.6971 72.7982 73.8306 73.7314 73.5394 74.7009C74.9835 74.4222 76.4033 74.3494 77.7017 74.3252H78.3085L78.3206 74.301ZM47.9341 72.9679C48.3952 73.0285 48.82 73.0891 49.2204 73.1376C50.1184 73.2466 50.9558 73.3436 51.8174 73.5375C52.8731 73.7677 53.9167 74.0465 54.9725 74.3131C55.4094 74.4343 55.8584 74.5433 56.2952 74.6524C56.3681 74.3737 56.4409 74.0586 56.5015 73.7435C56.5744 73.4163 56.6229 73.0891 56.6836 72.7619C56.7685 72.2771 56.8413 71.7924 56.9748 71.2834C56.4045 71.0531 55.822 70.8228 55.2395 70.5926C54.7177 70.3866 54.1959 70.1927 53.674 69.9745C53.2736 69.817 52.9823 69.611 52.8003 69.4655L50.5917 68.0476L52.1814 65.9753C52.3634 65.7087 52.6547 65.2966 53.1644 64.9694L53.5527 64.727C54.2808 64.2665 55.0332 63.7818 55.8098 63.3213C55.4822 62.6062 55.1667 61.9276 54.7905 61.4065C54.2444 60.6551 53.6376 60.2794 52.9945 60.2794C52.4484 60.2794 51.8416 60.5339 51.2349 61.0187C50.349 61.7216 49.6573 62.7032 48.9899 64.2059C47.922 66.5812 47.4001 69.102 47.4244 71.7196C47.4244 72.168 47.3637 72.5922 47.2181 72.9679L47.6428 72.9194L47.9462 72.9558L47.9341 72.9679Z" fill="#8FD2F4"/>
<path id="Vector_6" d="M62.023 40.0772C62.2293 40.0772 62.3992 40.2105 62.5327 40.4771C63.9647 43.4947 66.3674 45.6882 68.843 47.7969C69.7653 48.5846 70.7482 49.2996 71.7069 50.051C71.8768 50.1843 72.0467 50.3176 72.3137 50.5479C71.9739 50.7175 71.7312 50.8387 71.4764 50.9599C70.7118 51.3114 69.923 51.6143 69.1949 52.0021C68.8187 52.2082 68.479 52.5233 68.1999 52.8505C67.7509 53.3958 67.7751 54.0139 68.1513 54.4986C68.4304 54.838 68.7823 55.0076 69.1828 55.0076C69.3891 55.0076 69.5954 54.9713 69.826 54.8864C71.3186 54.3411 72.8112 53.8079 74.316 53.2989C74.6558 53.1777 74.9834 53.1292 75.2989 53.1292C75.8208 53.1292 76.3304 53.2867 76.8765 53.5776C80.6142 55.6257 84.4125 57.5647 88.1744 59.5643C92.4338 61.8184 96.7297 64.012 100.577 66.9326C102.409 68.3263 104.144 69.8411 105.358 71.8407C105.977 72.8587 106.377 73.9373 106.462 75.1371C106.547 76.3611 107.045 76.9913 108.052 77.2337C108.222 77.27 108.379 77.2942 108.537 77.2942C109.156 77.2942 109.69 77.0034 110.163 76.555C111.656 75.1492 113.149 73.7313 114.666 72.3376C115.746 71.356 117.044 70.8349 118.476 70.6046C118.828 70.544 119.168 70.5198 119.495 70.5198C121.668 70.5198 123.269 71.7438 123.985 73.9979C124.483 75.5491 124.459 77.1488 124.119 78.7122C123.306 82.4932 121.364 85.6199 118.318 88.0195C116.911 89.1344 115.333 89.91 113.525 90.1281C113.282 90.1524 113.052 90.1766 112.821 90.1766C111.644 90.1766 110.588 89.8009 109.629 89.0132C109.083 88.5648 108.537 88.3467 108.028 88.3467C107.397 88.3467 106.802 88.6981 106.317 89.401C103.598 93.376 99.7514 95.8846 95.5283 97.9327C92.4945 99.3991 89.3272 100.49 86.075 101.362C79.9225 103.011 73.7092 103.798 67.4596 103.798C64.1467 103.798 60.8095 103.58 57.4723 103.144C53.407 102.623 49.4267 101.641 45.6527 100.029C42.5218 98.6841 39.5972 97.0238 37.3643 94.3576C36.527 93.3639 35.9324 92.2368 35.544 91.0128C35.4834 90.8189 35.5198 90.6008 35.5198 90.3826C35.6654 90.3826 35.811 90.3463 35.9566 90.3463C36.0173 90.3463 36.0901 90.3463 36.1387 90.3705C37.1944 90.722 38.2502 90.9159 39.3545 90.9159C39.5608 90.9159 39.7792 90.9159 39.9855 90.8916C42.3276 90.7341 44.4755 90.0433 46.2473 88.4921C48.7107 86.347 48.8321 83.7657 47.2788 81.2086C45.956 79.0272 44.0508 77.8032 41.5995 77.8032C41.1869 77.8032 40.7622 77.8396 40.3253 77.9123C40.2525 77.9123 40.1918 77.9244 40.1433 77.9244C39.755 77.9244 39.6821 77.6699 39.6336 77.2942C39.3545 75.2825 39.5365 73.2829 39.8642 71.2954C40.7258 66.0843 42.7766 61.3216 45.3371 56.7406C45.6284 56.2074 46.0774 55.9771 46.5992 55.7469C49.0505 54.6562 51.5868 54.0381 54.2322 54.0381C54.7783 54.0381 55.3365 54.0624 55.9069 54.1229C56.5986 54.1957 57.3024 54.2926 58.0063 54.2926C58.0306 54.2926 58.0548 54.2926 58.0912 54.2926C58.8557 54.2926 59.4382 53.7836 59.5596 53.1777C59.7052 52.4505 59.4261 51.8688 58.6859 51.4932C58.3582 51.3235 57.9699 51.2023 57.6058 51.2023C56.6107 51.1902 55.6157 51.1659 54.6327 51.1659C53.8803 51.1659 53.1279 51.1781 52.3756 51.2144C51.4411 51.2629 50.5189 51.5901 49.5966 51.784C49.3296 51.8446 49.0626 51.8688 48.7957 51.9173C48.7593 51.8688 48.7229 51.8082 48.6865 51.7598C48.9777 51.3598 49.2447 50.9478 49.5602 50.5721C52.0236 47.4576 54.7541 44.6096 58.0427 42.3434C59.1834 41.5557 60.4333 40.9255 61.6347 40.2347C61.7803 40.1499 61.9138 40.1014 62.0352 40.1014M70.4327 78.0093C70.7118 78.0093 71.0274 77.9366 71.355 77.7911C73.4059 76.8822 75.5902 76.6883 77.7745 76.6398C77.9687 76.6398 78.1507 76.6398 78.3449 76.6398C80.1166 76.6398 81.8884 76.8095 83.5994 77.3912C84.1819 77.5851 84.7887 77.6942 85.1285 77.779C85.1649 77.779 85.1891 77.779 85.2255 77.779C86.5119 77.779 87.2157 77.1852 87.4341 75.9854C87.6162 75.0159 87.6768 74.0221 87.8346 73.0405C87.9438 72.3497 88.138 71.6832 88.2351 70.9924C88.2715 70.6895 88.2593 70.2774 88.0773 70.0835C87.7861 69.7563 87.3856 69.4412 86.9609 69.32C85.5289 68.8959 84.0606 68.5565 82.6043 68.1808C82.3616 68.1203 82.1311 67.9991 81.8884 67.9021C82.034 67.6719 82.1311 67.381 82.3374 67.2356C83.563 66.363 84.7887 65.5026 86.0507 64.7027C86.524 64.3998 86.6332 64.121 86.4269 63.6241C85.8323 62.2062 85.0435 60.9095 83.9756 59.7946C82.6286 58.3888 81.0632 57.6738 79.4492 57.6738C78.3934 57.6738 77.3255 57.9768 76.294 58.6069C75.0684 59.3462 74.1704 60.4005 73.4665 61.6245C71.5128 65.0663 70.8211 68.7747 71.355 72.6648C71.5249 73.8888 71.4278 74.6644 70.1536 75.1734C69.1949 75.5612 68.9037 76.5429 69.2556 77.3064C69.4619 77.7426 69.8745 78.0093 70.4206 78.0093M43.3834 75.8036C43.5169 75.8036 43.6503 75.8036 43.7838 75.7673C45.1551 75.5491 46.5385 75.4158 47.6186 75.2825C49.0626 75.4885 50.2155 75.5734 51.3319 75.8157C52.9944 76.1793 54.6206 76.6519 56.271 77.0519C56.4772 77.1003 56.6593 77.1246 56.8413 77.1246C57.5087 77.1246 58.0063 76.761 58.2975 76.0339C58.5281 75.4643 58.6495 74.8584 58.7829 74.2524C58.9771 73.3435 59.062 72.4225 59.3169 71.5257C59.6445 70.3501 59.4868 69.8411 58.3703 69.3685C57.1083 68.8353 55.8219 68.3626 54.5599 67.8536C54.3536 67.7688 54.1716 67.6113 53.9774 67.4901C54.123 67.3083 54.2444 67.078 54.4264 66.9568C55.6035 66.2055 56.7685 65.4541 57.982 64.7754C58.5524 64.4604 58.6859 64.0483 58.4432 63.5272C57.8849 62.3517 57.4238 61.1034 56.6714 60.0733C55.6642 58.6918 54.3657 57.9889 52.9944 57.9889C51.9265 57.9889 50.8344 58.4009 49.7908 59.2371C48.4437 60.3157 47.57 61.7336 46.8783 63.2848C45.6648 65.9873 45.0823 68.8232 45.1066 71.768C45.1066 72.3255 44.8881 72.5558 44.3663 72.6527C43.8445 72.7497 43.3227 72.8587 42.8373 73.0648C41.9393 73.4404 41.5874 74.1555 41.8543 74.9068C42.0606 75.4885 42.6795 75.7915 43.3955 75.7915M110.831 85.8865C111.292 85.8865 111.741 85.6805 112.129 85.2806C112.323 85.0746 112.493 84.8322 112.651 84.6019C112.918 84.1899 113.197 83.79 113.391 83.3537C113.585 82.8932 113.852 82.7114 114.217 82.7114C114.362 82.7114 114.532 82.7477 114.726 82.7962C116.061 83.1961 117.396 83.5961 118.743 83.9354C118.889 83.9717 119.034 83.9839 119.18 83.9839C119.872 83.9839 120.503 83.5839 120.818 82.978C121.182 82.263 121.073 81.3541 120.393 80.8208C119.872 80.4088 119.216 80.1543 118.585 79.8998C117.918 79.6332 117.202 79.4756 116.304 79.209C116.777 78.6879 117.105 78.288 117.481 77.9244C118.027 77.3791 118.658 76.9064 119.168 76.3369C120.236 75.1613 119.847 73.5859 118.391 73.1738C118.221 73.1254 118.051 73.1011 117.893 73.1011C117.202 73.1011 116.644 73.5253 116.11 73.9737C113.695 76.0096 111.862 78.5183 110.333 81.245C109.896 82.0327 109.496 82.8568 109.205 83.7051C108.938 84.505 109.35 85.3048 110.03 85.6926C110.297 85.8381 110.564 85.9108 110.831 85.9108M95.7468 92.1762C98.8291 92.1641 101.45 91.0734 103.161 89.1101C104.484 87.6074 105.188 85.8502 104.727 83.8021C104.084 80.9784 102.154 79.3302 99.4965 78.5183C98.283 78.1426 97.0938 77.9608 95.9652 77.9608C93.3683 77.9608 91.0019 78.9545 88.9753 81.0632C86.524 83.6082 86.6575 87.0499 89.0724 89.5586C90.9776 91.5461 93.4775 92.0308 95.7589 92.1762M60.7124 87.1348C60.8702 87.1348 61.0279 87.1348 61.1857 87.1105C61.7803 87.0499 62.4235 86.7712 62.9089 86.4076C63.5399 85.935 63.6249 85.2321 63.3094 84.6262C63.0181 84.0566 62.5327 83.7778 61.8774 83.7778C61.7803 83.7778 61.6954 83.7778 61.5983 83.79C61.3313 83.8142 61.0644 83.8506 60.7974 83.8506C60.6396 83.8506 60.494 83.8506 60.3484 83.8142C59.7659 83.7173 59.6445 83.2688 60.0693 82.8689C60.4091 82.5538 60.8338 82.3599 61.1978 82.0691C61.9502 81.4631 61.8167 80.4573 60.9066 80.1301C60.6518 80.0331 60.3484 79.9846 60.0693 79.9846C59.9601 79.9846 59.8508 79.9846 59.7538 80.0089C57.9577 80.2997 56.6714 81.8631 56.6714 83.8142C56.635 84.5656 56.9627 85.2806 57.6058 85.8744C58.5038 86.6985 59.5596 87.1348 60.7246 87.1348M59.9358 91.5945C59.8144 91.5945 59.7052 91.5945 59.5839 91.5945C59.0378 91.5582 58.4796 91.546 57.9335 91.4855C57.4117 91.4249 56.8898 91.3158 56.368 91.2188C55.4822 91.0613 54.8875 90.4917 54.3536 89.813C53.9167 89.2556 54.0017 88.7102 54.1109 88.08C54.1716 87.6801 53.9167 87.1227 53.6255 86.8076C53.3949 86.5531 53.1037 86.4198 52.7639 86.4198C52.5697 86.4198 52.3634 86.4682 52.1571 86.5531C51.0892 87.0257 50.3611 88.3951 50.6888 89.5101C51.2227 91.3521 52.2906 92.8185 53.9774 93.7396C55.6521 94.6485 57.4602 94.7939 59.2805 94.7939C59.8023 94.7939 60.312 94.7818 60.8338 94.7697C61.9017 94.7454 63.006 94.5515 64.0132 94.2001C67.314 93.0488 70.1658 91.134 72.6413 88.686C72.8234 88.5042 72.9811 88.4073 73.151 88.4073C73.2845 88.4073 73.418 88.4678 73.5879 88.589C74.8621 89.4858 76.3183 89.9464 77.8352 90.1524C78.0294 90.1766 78.2235 90.1887 78.4177 90.1887C78.8424 90.1887 79.2672 90.1403 79.6676 90.0554C80.5899 89.8615 81.1602 89.0374 81.0389 88.2134C80.9175 87.365 80.3108 86.8924 79.34 86.8924C79.2914 86.8924 79.255 86.8924 79.2065 86.8924C79.0487 86.8924 78.9031 86.9166 78.7453 86.9288C78.6361 86.9288 78.539 86.9288 78.4298 86.9288C76.0513 86.9288 74.3767 85.4987 74.0247 83.1234C73.9762 82.7962 73.8913 82.469 73.7699 82.166C73.5515 81.5965 73.1631 81.1844 72.52 81.1844C72.4836 81.1844 72.4593 81.1844 72.4229 81.1844C71.7433 81.2329 71.1973 81.6207 71.088 82.2751C70.9545 83.0628 70.8939 83.899 71.0031 84.6868C71.088 85.3048 71.0274 85.7653 70.5541 86.1531C69.3406 87.1469 68.1756 88.2012 66.9135 89.1101C64.8263 90.6129 62.5327 91.5703 59.9236 91.5703M62.0594 35.4599C61.1129 35.4599 60.1906 35.7144 59.329 36.2112C58.9892 36.4051 58.6495 36.599 58.2975 36.793C57.3631 37.3141 56.4044 37.8473 55.4215 38.5138C52.0843 40.8164 49.0748 43.7249 45.9318 47.6878C45.6648 48.015 45.4221 48.3665 45.1794 48.7058L44.9367 49.0451L43.0072 51.7113L43.3834 52.2566C42.6917 52.7293 41.915 53.4322 41.3204 54.4865C38.0803 60.2672 36.1751 65.3693 35.3135 70.544C35.0222 72.3255 34.6703 75.028 35.0586 77.9244C35.4955 81.1359 37.9468 82.566 40.1675 82.566C40.4709 82.566 40.7743 82.5417 41.0898 82.4932C41.284 82.4569 41.466 82.4448 41.6359 82.4448C42.0364 82.4448 42.6431 82.4448 43.347 83.6203C43.6503 84.1172 43.6989 84.408 43.6989 84.4686C43.6868 84.505 43.5654 84.711 43.2378 85.0019C42.3762 85.7532 41.2597 86.1531 39.7307 86.2622C39.6215 86.2622 39.5122 86.2622 39.403 86.2622C38.8327 86.2622 38.2745 86.1653 37.6677 85.9592C37.1337 85.7775 36.5755 85.6926 36.0052 85.6926C35.7018 85.6926 35.4591 85.7169 35.3013 85.729L30.7749 85.8623L30.9327 90.419C30.9205 90.8068 30.9084 91.5339 31.1875 92.3944C31.77 94.2243 32.6801 95.8846 33.8815 97.3146C36.9639 100.999 40.8593 102.962 43.9052 104.271C47.8249 105.955 52.2299 107.119 56.9627 107.725C60.5183 108.185 64.0739 108.416 67.5446 108.416C74.2796 108.416 80.9418 107.543 87.3613 105.822C91.2203 104.792 94.5818 103.568 97.6398 102.077C101.111 100.393 105.382 97.9691 108.804 93.8729C110.078 94.4788 111.462 94.7939 112.894 94.7939C113.306 94.7939 113.731 94.7697 114.144 94.7212C116.668 94.4182 119.058 93.3881 121.255 91.6551C125.162 88.5769 127.674 84.5535 128.718 79.6817C129.252 77.1852 129.167 74.7978 128.475 72.5921C127.165 68.4475 123.743 65.8783 119.556 65.8783C118.986 65.8783 118.391 65.9267 117.796 66.0237C115.345 66.4115 113.258 67.3931 111.583 68.9201C111.037 69.417 110.491 69.926 109.945 70.435C109.775 70.0956 109.593 69.7563 109.387 69.4291C107.7 66.6539 105.431 64.7391 103.44 63.2363C99.5693 60.3036 95.3948 58.0979 91.3538 55.965L90.4073 55.4681C89.1331 54.7895 87.8467 54.1229 86.5725 53.4564C84.1334 52.1839 81.6092 50.863 79.1701 49.5178C78.6483 49.2269 78.1143 49.0088 77.5804 48.8391L75.2868 46.9728L75.0562 46.7789C74.8863 46.6335 74.7529 46.5244 74.6072 46.4153C74.2796 46.1608 73.9641 45.9185 73.6364 45.664C73.0175 45.1913 72.4229 44.7429 71.889 44.2824C69.7774 42.4888 67.8115 40.6952 66.7558 38.5017C65.8578 36.6233 64.0618 35.4478 62.0473 35.4478L62.0594 35.4599ZM75.9542 68.5444C76.1605 66.9326 76.6824 65.3935 77.5318 63.8908C77.8959 63.2606 78.2721 62.8243 78.7089 62.5577C78.9031 62.4365 79.2065 62.2911 79.4734 62.2911C79.8496 62.2911 80.2501 62.594 80.5171 62.8485C80.238 63.0424 79.9589 63.2485 79.6798 63.4424C78.6725 64.1574 78.175 65.0542 77.9687 65.4662L75.9664 68.5444H75.9542ZM49.7908 70.8712C49.7908 70.6773 49.815 70.4956 49.8272 70.3017L50.9436 71.0167C50.5674 70.9561 50.1791 70.9076 49.7908 70.8712ZM75.9907 72.071C75.9907 72.071 75.9907 72.0347 75.9907 72.0225C75.9178 71.5014 75.8814 71.0045 75.8572 70.4956L79.7526 72.0346C79.3036 72.0104 78.8424 71.9983 78.357 71.9983C78.1386 71.9983 77.9201 71.9983 77.7017 71.9983C77.1556 71.9983 76.5731 72.0225 75.9907 72.071ZM95.8924 87.5105C94.1206 87.3772 93.1134 87.0257 92.4217 86.3228C91.3781 85.2442 91.997 84.6019 92.3246 84.2505C93.4289 83.1113 94.5818 82.5781 95.9773 82.5781C96.6448 82.5781 97.3729 82.6993 98.1495 82.9416C99.7635 83.4385 100.055 84.1414 100.213 84.8201C100.261 85.014 100.322 85.3048 99.6786 86.0441C98.8776 86.953 97.5428 87.4741 95.8924 87.5226V87.5105Z" fill="#8FD2F4"/>
<path id="Vector_7" d="M38.9905 89.9464C37.6556 89.9464 36.4664 89.5101 35.4106 89.1223L35.2529 89.0617C34.1 88.6376 32.9593 87.4378 33.5539 85.4382C33.9787 83.996 34.7432 82.9053 35.4106 81.9358C35.6048 81.6571 35.8111 81.3662 35.9931 81.0754C37.0125 79.4636 38.5415 78.6516 40.5438 78.6516C41.1142 78.6516 41.6481 78.7122 42.1335 78.7728L42.352 78.797C44.4149 79.0273 46.0411 80.3482 46.9269 82.5175C47.7764 84.602 47.2424 86.5895 45.4464 87.971C43.7718 89.2677 41.8301 89.91 39.5245 89.9222C39.3424 89.9343 39.1725 89.9464 38.9905 89.9464Z" fill="#8FD2F4"/>
<path id="Vector_8" d="M40.5436 80.9662C41.0533 80.9662 41.5751 81.0389 42.0848 81.0995C43.3954 81.245 44.2691 82.166 44.7667 83.39C45.2157 84.4807 44.9851 85.3775 44.0143 86.1289C42.7037 87.1469 41.1868 87.5953 39.4272 87.5953H39.4029C39.2694 87.6074 39.1238 87.6195 38.9903 87.6195C38.0195 87.6195 37.0365 87.2438 36.0536 86.8803C35.5924 86.7106 35.7017 86.3834 35.7987 86.0683C36.2235 84.6383 37.1822 83.5354 37.9709 82.3114C38.6627 81.2207 39.5849 80.9662 40.5557 80.9662M40.5557 76.3247C37.0244 76.3247 35.0706 78.2274 34.0513 79.8271C33.8814 80.0937 33.6994 80.3482 33.5173 80.6148C32.7892 81.6691 31.8669 82.9901 31.3451 84.7595C30.35 88.08 32.2674 90.4432 34.4639 91.2431L34.6216 91.3036C35.7987 91.7278 37.255 92.261 39.0024 92.261C39.2209 92.261 39.4393 92.261 39.6456 92.2368C42.4246 92.1883 44.8516 91.3764 46.8782 89.8009C49.4751 87.7892 50.3124 84.6625 49.0746 81.6449C47.8733 78.7 45.519 76.8216 42.6066 76.4944L42.4003 76.4701C41.8906 76.4095 41.2474 76.3368 40.5557 76.3368V76.3247Z" fill="#8FD2F4"/>
<path id="Vector_9" d="M70.4206 80.2997C69.0008 80.2997 67.7388 79.5241 67.1563 78.2637C66.7073 77.3063 66.6709 76.1914 67.0592 75.1976C67.4233 74.2645 68.1392 73.5131 69.0736 73.0768C69.0736 73.0405 69.0736 72.992 69.0615 72.9435C68.4547 68.5201 69.2557 64.3149 71.4521 60.4368C72.3987 58.7644 73.6243 57.4556 75.0927 56.5709C76.4883 55.7347 77.9566 55.3105 79.4492 55.3105C81.7307 55.3105 83.8786 56.2922 85.6625 58.1464C86.8638 59.4067 87.8225 60.8852 88.5749 62.6667C89.2302 64.2179 88.7569 65.6843 87.3128 66.6053C87.1794 66.6902 87.058 66.7629 86.9245 66.8477C87.1551 66.9083 87.3857 66.981 87.6162 67.0416C88.6963 67.3567 89.4486 68.096 89.8127 68.4959C90.6258 69.4169 90.6136 70.6167 90.5287 71.2469C90.468 71.6832 90.3831 72.1073 90.286 72.5315C90.2253 72.7981 90.1646 73.0768 90.1282 73.3434C90.0675 73.7191 90.0311 74.1069 89.9826 74.4947C89.9098 75.1249 89.837 75.743 89.7156 76.361C89.2788 78.6636 87.6041 80.0331 85.2256 80.0331H84.8251L84.3155 79.9119C83.9271 79.827 83.4053 79.718 82.8471 79.5241C81.5972 79.0999 80.1652 78.8939 78.3449 78.8939H77.8231C75.9907 78.9302 74.0491 79.0757 72.3137 79.8392C71.6948 80.1179 71.0638 80.2512 70.4449 80.2512L70.4206 80.2997Z" fill="#8FD2F4"/>
<path id="Vector_10" d="M79.4371 57.6374C81.0511 57.6374 82.6287 58.3524 83.9636 59.7582C85.0315 60.8731 85.8203 62.1698 86.4149 63.5878C86.6212 64.0846 86.512 64.3634 86.0387 64.6663C84.7766 65.4662 83.5388 66.3266 82.3253 67.1992C82.119 67.3446 82.0219 67.6476 81.8763 67.8657C82.119 67.9627 82.3496 68.0717 82.5923 68.1445C84.0485 68.5201 85.5047 68.8595 86.9488 69.2836C87.3614 69.4048 87.774 69.7199 88.0653 70.0471C88.2352 70.241 88.2594 70.6531 88.223 70.956C88.1259 71.6468 87.9318 72.3255 87.8226 73.0041C87.6648 73.9858 87.6041 74.9795 87.4221 75.949C87.1915 77.1367 86.4998 77.7426 85.2135 77.7426C85.1771 77.7426 85.1528 77.7426 85.1164 77.7426C84.7888 77.6578 84.1699 77.5608 83.5874 77.3548C81.8763 76.7731 80.1046 76.6034 78.3328 76.6034C78.1387 76.6034 77.9566 76.6034 77.7625 76.6034C75.5781 76.6398 73.3938 76.8337 71.343 77.7547C71.0153 77.9002 70.6998 77.9729 70.4207 77.9729C69.8746 77.9729 69.462 77.7062 69.2557 77.27C68.8916 76.5065 69.1829 75.5248 70.1537 75.137C71.4279 74.6281 71.525 73.8403 71.3551 72.6284C70.8211 68.7383 71.5129 65.0299 73.4666 61.5881C74.1583 60.3641 75.0685 59.3098 76.2941 58.5705C77.3256 57.9525 78.4056 57.6374 79.4493 57.6374M79.4493 52.9958C77.544 52.9958 75.6267 53.5533 73.8913 54.5955C72.0832 55.6862 70.5784 57.2738 69.4256 59.2977C67.1927 63.2363 66.2462 67.4779 66.6102 71.9255C65.8578 72.58 65.2754 73.3919 64.8992 74.3372C64.2803 75.9127 64.341 77.6941 65.0569 79.2332C66.0277 81.3177 68.0907 82.6023 70.4207 82.6023C71.3672 82.6023 72.3138 82.3963 73.236 81.9842C74.5952 81.3783 76.2577 81.2692 77.8474 81.2328C78.0052 81.2328 78.1629 81.2328 78.3207 81.2328C79.874 81.2328 81.0633 81.3904 82.0705 81.7418C82.75 81.9721 83.3811 82.1054 83.8058 82.2024L84 82.2508L84.4854 82.372H85.0072L85.2014 82.3963C88.672 82.3963 91.3296 80.2149 91.9728 76.8337C92.1063 76.1066 92.1912 75.4158 92.264 74.7977C92.3004 74.4463 92.349 74.0827 92.3975 73.7313C92.4339 73.501 92.4825 73.2829 92.531 73.0526C92.6281 72.6284 92.7373 72.1437 92.8101 71.5862C93.0407 69.8532 92.5796 68.1808 91.5359 66.9932C91.2811 66.7023 90.9898 66.4236 90.6986 66.1812C91.3054 64.8602 91.3296 63.309 90.6986 61.7942C89.8491 59.7703 88.7084 58.0131 87.325 56.5709C85.1285 54.2805 82.3375 53.008 79.4371 53.008L79.4493 52.9958Z" fill="#8FD2F4"/>
<path id="Vector_11" d="M56.8413 79.4149C56.4772 79.4149 56.101 79.3665 55.7249 79.2695C55.0817 79.112 54.4385 78.9423 53.7954 78.7726C52.8124 78.5181 51.8295 78.2515 50.8465 78.0455C50.1912 77.9001 49.4874 77.8152 48.6743 77.7183C48.3345 77.6819 47.9826 77.6335 47.6064 77.585L46.9026 77.6698C46.0531 77.7668 45.0944 77.8758 44.1479 78.0334C43.893 78.0697 43.6382 78.094 43.3955 78.094C41.648 78.094 40.1797 77.1366 39.6579 75.646C38.9783 73.7191 39.9127 71.7679 41.9271 70.9075C42.2184 70.7863 42.5218 70.6893 42.8009 70.6045C42.9101 67.7323 43.5654 64.945 44.7546 62.3031C45.7255 60.1338 46.8662 58.5705 48.3345 57.3949C49.7786 56.2436 51.3805 55.6377 52.9944 55.6377C55.1545 55.6377 57.1204 56.7163 58.5524 58.6795C59.2683 59.6612 59.7537 60.7397 60.1785 61.685C60.2998 61.9638 60.4212 62.2304 60.5547 62.497C61.3192 64.133 60.7488 65.8418 59.1348 66.7507C59.0135 66.8234 58.88 66.8961 58.7587 66.9688C58.9407 67.0416 59.1227 67.1143 59.2926 67.1991C61.4648 68.1201 62.2293 69.7683 61.574 72.1194C61.4527 72.5314 61.3799 73.0162 61.2949 73.513C61.2342 73.913 61.1614 74.3008 61.0765 74.6886C60.943 75.343 60.7731 76.0822 60.4819 76.8457C59.8508 78.4454 58.4917 79.4028 56.8777 79.4028L56.8413 79.4149Z" fill="#8FD2F4"/>
<path id="Vector_12" d="M52.9823 57.9646C54.3536 57.9646 55.6521 58.6554 56.6593 60.0491C57.4117 61.0792 57.8728 62.3274 58.431 63.5029C58.6737 64.0241 58.5402 64.4361 57.9699 64.7512C56.7564 65.4299 55.5914 66.1812 54.4143 66.9326C54.2322 67.0538 54.1109 67.284 53.9653 67.4658C54.1594 67.587 54.3415 67.7446 54.5478 67.8294C55.8219 68.3384 57.0961 68.811 58.3582 69.3442C59.4868 69.8169 59.6445 70.3259 59.3047 71.5014C59.0499 72.3861 58.965 73.3192 58.7708 74.2282C58.6373 74.8341 58.516 75.44 58.2854 76.0096C57.9941 76.7489 57.5087 77.1003 56.8292 77.1003C56.6471 77.1003 56.4651 77.0761 56.2588 77.0276C54.6084 76.6277 52.9823 76.1429 51.3198 75.7915C50.2034 75.5491 49.0505 75.4643 47.6064 75.2583C46.5142 75.3916 45.143 75.537 43.7717 75.743C43.6382 75.7673 43.5047 75.7794 43.3712 75.7794C42.6553 75.7794 42.0242 75.4643 41.8301 74.8947C41.5752 74.1554 41.915 73.4404 42.813 73.0526C43.2984 72.8466 43.8202 72.7254 44.3421 72.6406C44.8639 72.5436 45.0944 72.3134 45.0823 71.7559C45.0459 68.7989 45.6405 65.9631 46.854 63.2727C47.5457 61.7336 48.4195 60.3036 49.7665 59.225C50.8101 58.3888 51.9144 57.9767 52.9702 57.9767M52.9702 53.3352C50.8344 53.3352 48.7229 54.1229 46.8662 55.6014C45.0944 57.0072 43.7474 58.8493 42.6188 61.37C41.5267 63.8059 40.835 66.363 40.568 68.9928C37.7284 70.4228 36.4178 73.4768 37.4371 76.4217C38.2866 78.8576 40.6165 80.4209 43.3712 80.4209C43.7474 80.4209 44.1115 80.3967 44.4877 80.3361C45.3735 80.2028 46.3201 80.0816 47.1574 79.9967C47.303 79.9846 47.4365 79.9604 47.5821 79.9483C47.8613 79.9846 48.1161 80.021 48.3709 80.0452C49.1719 80.1422 49.7908 80.2149 50.3368 80.3361C51.2591 80.53 52.1935 80.7845 53.1765 81.039C53.8318 81.2086 54.4871 81.3904 55.1545 81.548C55.7127 81.6813 56.2831 81.754 56.8292 81.754C59.4018 81.754 61.6104 80.2149 62.5934 77.7305C62.9574 76.8095 63.1516 75.9248 63.2972 75.2219C63.3943 74.7856 63.4671 74.3615 63.5399 73.9373C63.6127 73.4889 63.6856 73.0769 63.7705 72.7739C64.4622 70.3138 63.9768 68.1566 62.472 66.6175C63.3336 65.1026 63.4307 63.2606 62.6298 61.5397C62.5084 61.2852 62.3992 61.0307 62.2779 60.7641C61.8046 59.7097 61.2706 58.51 60.409 57.3344C58.5402 54.7652 55.8948 53.3473 52.9702 53.3473V53.3352Z" fill="#8FD2F4"/>
<path id="Vector_13" d="M95.5769 94.4425C93.2833 94.2971 89.9461 93.7881 87.3735 91.1219C84.0242 87.6438 83.9878 82.8326 87.2764 79.4151C89.7156 76.8823 92.628 75.5977 95.9409 75.5977C97.3001 75.5977 98.7199 75.8158 100.152 76.2642C103.829 77.3791 106.183 79.8029 106.972 83.2447C107.384 85.0383 107.36 87.7771 104.897 90.5887C102.737 93.061 99.4844 94.4304 95.7468 94.4546H95.6618H95.5769V94.4425ZM96.572 83.4992C95.1157 83.4992 93.9993 83.8627 93.1741 84.5777C93.0285 84.6989 92.7858 84.9534 92.7979 85.2079C92.7979 85.4139 92.9678 85.6563 93.259 85.8866C93.8779 86.3713 94.5454 86.5895 95.4312 86.5895C95.9531 86.5895 96.5598 86.5168 97.3243 86.3592C97.9554 86.2259 98.5015 85.9108 98.999 85.3897C99.0961 85.2806 99.266 85.0746 99.2538 84.8807C99.2538 84.7232 99.1325 84.5414 98.9262 84.3596C98.3437 83.8506 97.5549 83.5598 96.572 83.4992Z" fill="#8FD2F4"/>
<path id="Vector_14" d="M95.9409 77.9122C97.0816 77.9122 98.2587 78.1061 99.4723 78.4697C102.13 79.2816 104.059 80.9177 104.703 83.7535C105.164 85.8016 104.46 87.5467 103.137 89.0616C101.426 91.0248 98.8048 92.1155 95.7225 92.1277C93.4411 91.9822 90.9534 91.4975 89.036 89.51C86.6211 87.0014 86.4876 83.5596 88.9389 81.0146C90.9655 78.906 93.344 77.9122 95.9288 77.9122M95.407 88.904C96.1836 88.904 96.9724 88.7828 97.7733 88.6253C98.914 88.395 99.8727 87.8255 100.662 86.9893C101.936 85.6441 101.839 83.8383 100.431 82.6143C99.2296 81.5721 97.7976 81.2449 96.6205 81.1843C94.509 81.1843 92.8586 81.766 91.6329 82.8325C89.9825 84.2625 90.0796 86.3591 91.7907 87.7164C92.9314 88.6132 94.1449 88.9162 95.407 88.9162M95.9288 73.2949C92.0091 73.2949 88.4292 74.8583 85.5896 77.8153C81.4515 82.1175 81.5 88.395 85.6867 92.7457C88.8176 95.9936 92.7372 96.5995 95.407 96.7692H95.5769H95.7468C100.164 96.745 104.035 95.0847 106.632 92.1155C109.739 88.5647 109.751 85.0502 109.217 82.7355C108.246 78.4939 105.261 75.4157 100.819 74.0584C99.1567 73.5494 97.5064 73.2949 95.9288 73.2949Z" fill="#8FD2F4"/>
<path id="Vector_15" d="M59.232 97.0601C57.2783 97.0601 54.9847 96.9026 52.8125 95.7149C50.6524 94.5394 49.1234 92.6004 48.4074 90.0918C47.7764 87.9104 49.0142 85.3412 51.1621 84.3838C51.6718 84.1535 52.1936 84.0445 52.7154 84.0445C53.7105 84.0445 54.6328 84.4565 55.3002 85.1958C55.9434 85.9108 56.5623 87.1227 56.356 88.383C56.356 88.4436 56.3317 88.5042 56.3317 88.5527C56.5137 88.7587 56.6351 88.8557 56.7322 88.8799L57.2054 88.9647C57.521 89.0253 57.8486 89.0859 58.1763 89.1223C58.5039 89.1586 58.8316 89.1707 59.1713 89.195L59.7174 89.2313H59.9116C61.8047 89.2313 63.6492 88.5648 65.5545 87.2075C66.3554 86.6258 67.132 85.9835 67.9451 85.2927C68.1878 85.0867 68.4305 84.8928 68.6732 84.6868C68.5883 83.8263 68.6368 82.881 68.8067 81.8752C69.0858 80.1785 70.4935 78.9666 72.2774 78.8455H72.5201C74.0491 78.8455 75.3233 79.7544 75.9301 81.2935C76.1121 81.754 76.2456 82.2509 76.3184 82.7477C76.5004 83.9717 77.1921 84.5656 78.4178 84.5656H78.6119L78.7454 84.5535C78.8546 84.5535 78.976 84.5292 79.0973 84.5292H79.34C81.4516 84.5292 83.0534 85.8502 83.3325 87.8377C83.6238 89.8979 82.2161 91.849 80.1288 92.2732C79.5342 92.3944 78.9517 92.455 78.4056 92.455C78.1023 92.455 77.7989 92.4307 77.5076 92.3944C75.9543 92.1762 74.583 91.7642 73.3695 91.1219C70.7362 93.5214 67.8359 95.2787 64.7535 96.3451C63.5279 96.7693 62.1809 97.0117 60.8581 97.0359H60.6761C60.2028 97.048 59.7296 97.0601 59.2563 97.0601H59.232Z" fill="#8FD2F4"/>
<path id="Vector_16" d="M72.4957 81.1603C73.1267 81.1603 73.515 81.5723 73.7456 82.1419C73.867 82.4449 73.9519 82.7721 74.0004 83.0993C74.3524 85.4625 76.027 86.9046 78.4055 86.9046C78.5147 86.9046 78.6118 86.9046 78.721 86.9046C78.8788 86.9046 79.0244 86.8683 79.1822 86.8683C79.2307 86.8683 79.2671 86.8683 79.3157 86.8683C80.2865 86.8683 80.8932 87.3409 81.0146 88.1892C81.1359 89.0133 80.5656 89.8374 79.6433 90.0313C79.2429 90.1161 78.806 90.1646 78.3934 90.1646C78.1992 90.1646 78.0051 90.1646 77.8109 90.1282C76.294 89.9222 74.8378 89.4496 73.5636 88.5649C73.3937 88.4437 73.2481 88.3831 73.1267 88.3831C72.9568 88.3831 72.7991 88.4801 72.617 88.6619C70.1293 91.1099 67.2897 93.0368 63.9889 94.1759C62.9817 94.5274 61.8774 94.7213 60.8095 94.7455C60.2998 94.7455 59.778 94.7698 59.2562 94.7698C57.4359 94.7698 55.6156 94.6122 53.9531 93.7154C52.2663 92.7944 51.1984 91.328 50.6645 89.4859C50.3368 88.371 51.0771 87.0137 52.1328 86.5289C52.3391 86.432 52.5454 86.3956 52.7396 86.3956C53.0794 86.3956 53.3706 86.5289 53.6012 86.7834C53.8924 87.1106 54.1473 87.656 54.0866 88.0559C53.9895 88.6982 53.8924 89.2436 54.3293 89.7889C54.8632 90.4676 55.4457 91.0372 56.3437 91.1947C56.8655 91.2916 57.3874 91.4007 57.9092 91.4613C58.4553 91.5219 59.0135 91.534 59.5596 91.5704C59.6809 91.5704 59.7901 91.5704 59.9115 91.5704C62.5205 91.5704 64.8141 90.613 66.9014 89.1102C68.1634 88.2013 69.3284 87.147 70.5419 86.1532C71.0152 85.7654 71.0759 85.3049 70.9909 84.6869C70.8938 83.8991 70.9424 83.0629 71.0759 82.2752C71.1851 81.6087 71.7312 81.2209 72.4107 81.1845C72.4471 81.1845 72.4714 81.1845 72.5078 81.1845M72.5078 76.543C72.3743 76.543 72.253 76.543 72.1074 76.5551C69.2192 76.7369 66.962 78.7244 66.4888 81.5117C66.3674 82.251 66.2946 82.9781 66.2825 83.6689C65.5543 84.2869 64.8626 84.8686 64.1709 85.3534C62.654 86.4441 61.2949 86.941 59.8872 86.941C59.8387 86.941 59.7901 86.941 59.7537 86.941C59.596 86.941 59.4382 86.9289 59.2683 86.9167C59.0499 86.9167 58.8314 86.8925 58.613 86.8804C58.3703 85.5715 57.7029 84.4324 57.0233 83.681C55.919 82.4691 54.3536 81.7662 52.7153 81.7662C51.8537 81.7662 51.0164 81.948 50.2033 82.3116C46.9875 83.7537 45.2158 87.4742 46.1744 90.7827C47.0724 93.8972 48.9898 96.321 51.7081 97.7995C54.3414 99.2295 56.9869 99.4234 59.2319 99.4234C59.7295 99.4234 60.2149 99.4234 60.7124 99.3992H60.8823C62.4477 99.3628 64.0375 99.0841 65.4937 98.5751C68.4304 97.5571 71.1972 95.9817 73.7577 93.873C74.8135 94.2729 75.9542 94.5637 77.1677 94.7334C77.5561 94.7819 77.9687 94.8182 78.3812 94.8182C79.073 94.8182 79.8132 94.7455 80.5656 94.588C83.8542 93.9214 86.075 90.8311 85.6017 87.559C85.1527 84.4324 82.5679 82.251 79.3035 82.251C79.1943 82.251 79.0851 82.251 78.9637 82.251C78.8303 82.251 78.6968 82.2631 78.5512 82.2752C78.4541 81.6693 78.2842 81.0633 78.0536 80.4816C77.1071 78.0578 74.9713 76.543 72.4835 76.543H72.5078Z" fill="#8FD2F4"/>
<path id="Vector_17" d="M110.819 88.189C110.151 88.189 109.484 88.0072 108.889 87.68C107.178 86.7347 106.389 84.7351 106.984 82.9294C107.287 82.0447 107.7 81.1358 108.282 80.0815C110.139 76.7609 112.202 74.1674 114.593 72.1557C115.139 71.6952 116.279 70.7378 117.869 70.7378C118.245 70.7378 118.634 70.7863 119.01 70.8953C120.43 71.3074 121.522 72.3617 121.91 73.719C122.311 75.1248 121.922 76.6639 120.867 77.8395C120.757 77.9607 120.648 78.0697 120.539 78.1788C120.951 78.3848 121.388 78.6272 121.789 78.9423C123.33 80.142 123.767 82.2144 122.857 83.9837C122.141 85.3653 120.697 86.25 119.155 86.25C118.816 86.25 118.488 86.2136 118.16 86.1288C117.056 85.85 115.976 85.5471 114.957 85.2441C114.884 85.3653 114.593 85.8016 114.593 85.8016C114.386 86.1167 114.132 86.4923 113.78 86.8559C112.967 87.7042 111.911 88.1769 110.819 88.1769V88.189Z" fill="#8FD2F4"/>
<path id="Vector_18" d="M117.869 73.0647C118.027 73.0647 118.197 73.0889 118.367 73.1374C119.811 73.5494 120.199 75.1249 119.143 76.3004C118.634 76.87 118.003 77.3427 117.457 77.888C117.08 78.2516 116.753 78.6515 116.28 79.1726C117.178 79.4392 117.894 79.6089 118.561 79.8634C119.192 80.1058 119.847 80.3724 120.369 80.7844C121.061 81.3177 121.17 82.2266 120.794 82.9416C120.478 83.5475 119.847 83.9474 119.156 83.9474C119.01 83.9474 118.864 83.9353 118.719 83.899C117.372 83.5597 116.037 83.1718 114.702 82.7598C114.52 82.6992 114.35 82.675 114.192 82.675C113.828 82.675 113.561 82.8568 113.367 83.3173C113.173 83.7535 112.882 84.1656 112.627 84.5655C112.469 84.8079 112.311 85.0503 112.105 85.2442C111.705 85.6562 111.256 85.8501 110.807 85.8501C110.54 85.8501 110.26 85.7774 110.006 85.632C109.326 85.2563 108.913 84.4443 109.18 83.6445C109.46 82.7962 109.872 81.9721 110.309 81.1843C111.838 78.4455 113.67 75.9369 116.085 73.913C116.619 73.4646 117.178 73.0405 117.869 73.0405M117.869 68.3989C115.43 68.3989 113.804 69.7684 113.1 70.3622C110.491 72.5557 108.258 75.3552 106.256 78.9302C105.588 80.1179 105.127 81.148 104.775 82.1781C103.817 85.0381 105.067 88.2012 107.748 89.6918C108.695 90.2129 109.751 90.4916 110.807 90.4916C112.53 90.4916 114.18 89.7766 115.442 88.4678C115.612 88.286 115.77 88.1163 115.903 87.9467C116.449 88.1042 117.008 88.2497 117.578 88.3951C118.088 88.5284 118.622 88.589 119.143 88.589C121.583 88.589 123.791 87.2317 124.908 85.0624C126.194 82.5538 125.696 79.5362 123.755 77.6093C124.41 76.1793 124.556 74.5917 124.119 73.0889C123.512 70.956 121.837 69.3078 119.629 68.6777C119.046 68.508 118.44 68.4232 117.845 68.4232L117.869 68.3989Z" fill="#8FD2F4"/>
<path id="Vector_19" d="M60.6761 89.4009C58.9407 89.4009 57.3267 88.7465 55.9919 87.5225C54.8512 86.4681 54.2565 85.0987 54.3172 83.6565C54.3172 80.6995 56.4409 78.1424 59.3412 77.6698C59.5596 77.6334 59.8023 77.6213 60.0329 77.6213C60.5911 77.6213 61.1615 77.7183 61.6833 77.9122C62.8968 78.3606 63.7341 79.3543 63.9404 80.5662C64.0132 81.0389 63.989 81.4994 63.8798 81.9478C64.4986 82.3113 65.0083 82.8567 65.3602 83.5475C66.1976 85.2078 65.7486 87.1347 64.2559 88.2375C63.3943 88.8677 62.3507 89.2918 61.3678 89.3888C61.1372 89.413 60.9066 89.4251 60.6761 89.4251V89.4009Z" fill="#8FD2F4"/>
<path id="Vector_20" d="M60.0449 79.9361C60.3362 79.9361 60.6274 79.9967 60.8823 80.0816C61.7924 80.4209 61.9259 81.4146 61.1735 82.0206C60.8095 82.3114 60.3847 82.5053 60.0449 82.8204C59.6081 83.2203 59.7416 83.6687 60.324 83.7657C60.4697 83.7899 60.6274 83.802 60.7731 83.802C61.04 83.802 61.307 83.7778 61.574 83.7414C61.6711 83.7414 61.7681 83.7293 61.8531 83.7293C62.5084 83.7293 63.0059 84.0081 63.285 84.5777C63.5884 85.1836 63.5156 85.8865 62.8846 86.3591C62.3992 86.7227 61.756 87.0014 61.1614 87.062C61.0036 87.0741 60.8459 87.0863 60.6881 87.0863C59.5231 87.0863 58.4674 86.65 57.5694 85.8259C56.9262 85.2321 56.6107 84.5171 56.6349 83.7657C56.6349 81.8146 57.9213 80.2512 59.7173 79.9604C59.8144 79.9482 59.9236 79.9361 60.0328 79.9361M60.0328 75.2946C59.6688 75.2946 59.3168 75.3188 58.9649 75.3794C54.9603 76.0338 52.0357 79.512 51.9872 83.6566C51.9265 85.7411 52.776 87.7164 54.4021 89.2192C56.1738 90.8552 58.3339 91.7157 60.6638 91.7157C60.9672 91.7157 61.2827 91.7036 61.5861 91.6672C62.9817 91.5339 64.4136 90.9643 65.615 90.0796C68.0299 88.2982 68.7701 85.1715 67.411 82.4811C67.1076 81.8873 66.7314 81.354 66.2824 80.9056C66.2824 80.6633 66.246 80.4209 66.2096 80.1785C65.882 78.1547 64.4379 76.4459 62.4598 75.7188C61.6832 75.44 60.8337 75.2825 60.0207 75.2825L60.0328 75.2946Z" fill="#8FD2F4"/>
<path id="Vector_21" d="M95.419 91.2189C93.4774 91.2189 91.8149 90.6615 90.3708 89.5223C88.9752 88.4195 88.1864 86.9288 88.15 85.317C88.1136 83.7173 88.8175 82.2146 90.1281 81.0754C91.827 79.609 94.0235 78.8577 96.6447 78.8577H96.7782C98.8047 78.9789 100.601 79.6696 101.972 80.8573C103.137 81.8753 103.817 83.2205 103.889 84.6505C103.962 86.0684 103.416 87.4621 102.36 88.577C101.207 89.7889 99.8241 90.5645 98.2586 90.8917C97.1665 91.1099 96.2685 91.2189 95.419 91.2189Z" fill="#8FD2F4"/>
<path id="Vector_22" d="M96.6326 81.1722C97.8098 81.2449 99.2417 81.5721 100.443 82.6022C101.851 83.8262 101.948 85.6319 100.674 86.9771C99.8727 87.8133 98.9141 88.3829 97.7855 88.6132C96.9846 88.7829 96.1958 88.8919 95.4191 88.8919C94.1571 88.8919 92.9436 88.589 91.8028 87.6922C90.0918 86.347 90.0068 84.2383 91.6451 82.8083C92.8707 81.7418 94.5211 81.1601 96.6326 81.1601M96.7783 76.5186H96.6326C93.4411 76.5186 90.7349 77.4517 88.5992 79.3059C86.7789 80.8814 85.7595 83.087 85.8202 85.3532C85.8687 87.6437 87.0094 89.813 88.9268 91.3278C90.7835 92.7821 92.9557 93.5213 95.4191 93.5213C96.4263 93.5213 97.4821 93.4002 98.7199 93.1457C100.734 92.7336 102.579 91.6914 104.035 90.1644C105.528 88.589 106.304 86.5893 106.195 84.5291C106.098 82.4568 105.127 80.5299 103.477 79.0999C101.717 77.5729 99.4359 76.6882 96.8875 76.5307H96.754L96.7783 76.5186Z" fill="#8FD2F4"/>
<path id="Vector_23" d="M120.927 102.792C116.328 102.829 111.802 102.259 107.324 101.241C105.71 100.877 104.108 100.49 102.506 100.066C101.705 99.8595 101.025 99.9201 100.322 100.405C97.3728 102.441 94.157 103.907 90.7712 105.058C86.4754 106.513 82.0582 107.434 77.5439 107.979C73.5393 108.452 69.5225 108.549 65.4936 108.331C61.307 108.1 57.2174 107.349 53.2007 106.137C52.0235 105.786 50.7858 105.652 49.5722 105.458C46.7447 104.998 43.9172 104.562 41.0897 104.101C38.9539 103.75 36.8303 103.338 34.6945 103.023C31.418 102.538 28.1415 102.077 24.865 101.641C23.0447 101.399 21.2244 101.229 19.4041 101.011C18.9309 100.95 18.4455 100.853 17.9843 100.696C17.2198 100.429 16.88 99.9443 16.9043 99.2899C16.9286 98.5991 17.3533 98.1265 18.0693 97.8478C18.7246 97.5933 19.3556 97.2903 19.9624 96.9388C21.1637 96.2481 21.819 95.0847 22.5714 93.9818C24.149 91.6429 24.9985 88.9889 25.8722 86.3469C27.0129 82.9052 28.0808 79.4392 28.5055 75.8278C28.9788 71.8164 29.2336 67.7808 29.622 63.7695C29.7555 62.3152 29.9982 60.8852 30.2045 59.443C30.702 55.8195 31.0661 52.1475 32.2189 48.6572C34.2212 42.5978 37.0123 36.9625 42.0484 32.7694C43.2983 31.7272 44.6575 30.794 46.0409 29.9336C48.7713 28.2612 51.4896 26.5282 54.6326 25.692C55.7976 25.389 57.0111 25.2557 58.2125 25.0254C58.5644 24.9527 58.9528 24.8679 59.244 24.674C60.858 23.5711 62.6297 22.7713 64.4621 22.1169C67.9571 20.8565 71.5612 20.093 75.2503 19.7658C78.7574 19.4507 82.2887 19.378 85.7715 19.9476C89.6063 20.5778 93.4531 21.2201 97.215 22.1411C99.4479 22.6865 101.596 23.656 103.695 24.6134C106.341 25.8253 109.023 27.025 111.486 28.5762C116.643 31.8241 121.461 35.5204 124.98 40.6345C126.255 42.4887 127.747 44.2217 128.839 46.1729C130.332 48.8269 131.582 51.6021 132.868 54.3652C134.47 57.8191 135.441 61.4911 136.339 65.1874C136.934 67.6475 137.698 70.0834 138.281 72.5435C138.79 74.7128 139.166 76.9063 139.615 79.0877C140.441 83.1354 142.37 86.6499 144.846 89.8978C145.173 90.3341 145.465 90.8067 145.744 91.2915C146.29 92.2488 146.168 93.1214 145.537 94.0667C143.559 97.06 140.647 98.7324 137.443 99.9928C132.152 102.089 126.594 102.72 120.951 102.792H120.927ZM105.249 96.4783C106.013 96.6359 106.656 96.7571 107.287 96.9025C111.231 97.7629 115.199 98.3689 119.24 98.4052C121.959 98.4295 124.689 98.381 127.383 98.1265C130.914 97.7993 134.227 96.5753 137.419 95.0847C138.463 94.5999 139.409 93.8728 140.38 93.2183C140.853 92.8911 140.853 92.5397 140.501 91.9943C139.215 89.9947 137.759 88.0315 136.861 85.8622C135.769 83.2324 135.113 80.4087 134.397 77.6335C133.9 75.7187 133.681 73.7191 133.22 71.7922C132.638 69.3926 131.861 67.0416 131.303 64.6299C130.15 59.5642 127.978 54.9106 125.721 50.2812C124.641 48.0755 123.099 46.1971 121.74 44.1975C118.112 38.8894 113.197 35.0598 107.748 31.8362C105.855 30.7213 103.829 29.7881 101.802 28.9398C99.5207 27.9824 97.2272 26.9644 94.8487 26.3948C90.9411 25.4738 86.9851 24.7103 82.9683 24.4195C75.7479 23.8862 68.8308 25.0133 62.2414 28.0794C61.0279 28.649 59.7537 29.1337 58.4552 29.4003C54.9724 30.1275 51.6716 31.3151 48.7228 33.2663C42.9707 37.0716 39.2209 42.4766 36.7817 48.8269C35.4954 52.1959 34.9736 55.7468 34.6581 59.3097C34.3304 62.909 34.2455 66.5326 33.9664 70.144C33.7965 72.386 33.5538 74.628 33.2019 76.8579C32.583 80.7238 31.5029 84.4806 30.2651 88.189C29.1366 91.5702 27.8866 94.8908 25.7994 97.8235C25.3989 98.3931 25.4717 98.5507 26.1634 98.684C26.2969 98.7082 26.4304 98.7324 26.5518 98.7324C29.6462 98.89 32.7286 99.0354 35.8231 99.1808C36.0172 99.1808 36.2235 99.1202 36.5026 99.0839C36.357 98.8657 36.3085 98.7446 36.2235 98.6597C35.4711 97.8235 34.6459 97.0358 33.9785 96.139C32.1218 93.6789 31.1146 90.9158 31.4301 87.7891C31.7699 84.4685 33.3232 81.7175 35.5561 79.3059C35.9444 78.8938 36.0779 78.506 35.9808 77.9486C35.5197 75.2097 35.6774 72.4829 36.1871 69.7804C36.9395 65.8539 38.2744 62.1213 40.034 58.5341C43.4076 51.6627 47.8248 45.6154 53.7103 40.683C55.7855 38.95 58.0183 37.4473 60.5667 36.4535C60.9915 36.2839 61.5982 36.1505 61.9623 36.3202C62.7996 36.7201 63.6369 37.2412 64.2922 37.8835C65.6392 39.1803 66.8406 40.6345 68.1634 41.9676C70.8938 44.7065 74.0247 46.9363 77.1798 49.142C77.4953 49.3601 77.9565 49.4813 78.3569 49.5055C80.4685 49.6025 82.5921 49.6267 84.7158 49.76C85.638 49.8206 86.5482 50.0267 87.4462 50.2812C88.2471 50.4993 88.7083 51.287 88.599 52.002C88.4898 52.7049 87.8588 53.2018 86.9851 53.1897C86.3904 53.1897 85.7958 53.0685 85.2133 53.0079C84.9221 52.9837 84.643 52.9594 84.3517 52.9352C84.3396 52.9958 84.3153 53.0564 84.3032 53.117C84.4731 53.226 84.643 53.3594 84.825 53.4563C88.0408 55.1287 91.2809 56.7526 94.4603 58.4856C98.0888 60.461 101.669 62.5333 104.787 65.2843C106.596 66.8719 108.185 68.6291 109.29 70.7863C109.739 71.6589 109.726 71.6589 110.37 70.9681C113.124 68.0717 116.364 66.3387 120.49 66.6659C122.42 66.8234 124.082 67.5748 125.442 68.9442C127.796 71.3074 128.609 74.2887 128.233 77.4638C127.371 84.7109 123.718 90.1038 116.983 93.1578C114.459 94.2969 111.789 94.3818 109.192 93.2062C108.719 92.9881 108.428 93.085 108.1 93.4486C107.324 94.2848 106.498 95.0968 105.71 95.9209C105.6 96.042 105.503 96.1754 105.285 96.442L105.249 96.4783ZM48.6742 51.7354C48.6742 51.7354 48.747 51.8445 48.7835 51.893C49.0504 51.8445 49.3174 51.8203 49.5844 51.7597C50.5066 51.5658 51.4289 51.2386 52.3633 51.1901C54.0987 51.0931 55.8461 51.1416 57.5936 51.178C57.9577 51.178 58.346 51.3113 58.6736 51.4688C59.4139 51.8445 59.693 52.4262 59.5474 53.1533C59.426 53.7593 58.8435 54.2683 58.079 54.2683C57.3509 54.2683 56.6228 54.1713 55.9068 54.0986C52.6546 53.7835 49.5722 54.4137 46.6113 55.7225C46.0894 55.9528 45.6526 56.1831 45.3492 56.7163C42.7887 61.2972 40.7378 66.0599 39.8762 71.2711C39.5486 73.2586 39.3787 75.2582 39.6456 77.2699C39.7063 77.6941 39.7913 77.9728 40.3374 77.8758C43.4076 77.379 45.7618 78.6393 47.303 81.1843C48.8563 83.7414 48.7349 86.3106 46.2715 88.4677C44.4997 90.019 42.3518 90.7097 40.0097 90.8673C38.687 90.9521 37.4128 90.7703 36.1628 90.3462C35.9808 90.2856 35.7503 90.3462 35.544 90.3462C35.544 90.5522 35.5075 90.7825 35.5682 90.9764C35.9565 92.2125 36.5633 93.3274 37.3885 94.3212C39.6214 96.9873 42.546 98.6476 45.6768 99.9928C49.463 101.617 53.4312 102.586 57.4965 103.107C67.1319 104.356 76.6823 103.847 86.0992 101.326C89.3514 100.453 92.5187 99.3626 95.5525 97.8962C99.7756 95.8481 103.622 93.3395 106.341 89.3645C107.214 88.0799 108.428 87.983 109.654 88.9767C110.794 89.9099 112.093 90.2735 113.549 90.0917C115.357 89.8735 116.935 89.0979 118.342 87.983C121.388 85.5835 123.33 82.4568 124.143 78.6757C124.483 77.1124 124.495 75.5127 124.01 73.9614C123.184 71.368 121.182 70.144 118.488 70.5682C117.056 70.7984 115.758 71.3195 114.678 72.3012C113.161 73.6827 111.68 75.1127 110.175 76.5185C109.581 77.076 108.901 77.4032 108.064 77.1972C107.057 76.9548 106.559 76.3246 106.474 75.1006C106.389 73.9009 105.989 72.8223 105.37 71.8043C104.156 69.8047 102.421 68.2777 100.589 66.8961C96.7296 63.9755 92.4338 61.782 88.1864 59.5279C84.4245 57.5282 80.6262 55.6013 76.8886 53.5411C76.0027 53.0564 75.2139 52.9594 74.3159 53.2624C72.8111 53.7714 71.3185 54.3046 69.8259 54.85C69.1585 55.0924 68.5638 54.9833 68.1512 54.4622C67.7629 53.9774 67.7508 53.3594 68.1998 52.814C68.4789 52.4747 68.8187 52.1596 69.1949 51.9657C69.9351 51.5779 70.7118 51.2628 71.4763 50.9235C71.7311 50.8144 71.9617 50.6811 72.3136 50.5114C72.0466 50.2933 71.8767 50.1479 71.7068 50.0145C70.7482 49.2632 69.7652 48.5482 68.8429 47.7604C66.3674 45.6517 63.9646 43.4582 62.5326 40.4406C62.3263 40.0043 62.0108 39.9316 61.6104 40.1619C60.409 40.8527 59.159 41.4829 58.0183 42.2706C54.7297 44.5368 51.9993 47.3847 49.5358 50.4993C49.2325 50.8871 48.9533 51.2991 48.6621 51.6869L48.6742 51.7354ZM39.4029 87.5952C41.1868 87.5952 42.7037 87.1589 44.0265 86.1288C44.9973 85.3774 45.2157 84.4806 44.7788 83.3899C44.2813 82.1538 43.4076 81.2449 42.097 81.0995C40.6043 80.9298 39.0268 80.6511 37.971 82.3235C37.1943 83.5475 36.2235 84.6503 35.7988 86.0803C35.7017 86.3954 35.5925 86.7226 36.0536 86.8923C37.1701 87.3043 38.2865 87.7406 39.4029 87.6073V87.5952Z" fill="black"/>
<path id="Vector_24" d="M105.249 96.4785C105.455 96.2119 105.552 96.0786 105.673 95.9574C106.474 95.1333 107.287 94.3213 108.064 93.4851C108.392 93.1337 108.671 93.0246 109.156 93.2427C111.753 94.4304 114.411 94.3456 116.947 93.1943C123.694 90.1403 127.335 84.7474 128.196 77.5003C128.573 74.313 127.759 71.3439 125.405 68.9807C124.046 67.6113 122.384 66.8478 120.454 66.7024C116.328 66.3752 113.088 68.1082 110.333 71.0046C109.69 71.6832 109.69 71.6832 109.253 70.8228C108.149 68.6656 106.559 66.9084 104.751 65.3208C101.62 62.5698 98.0525 60.4854 94.4241 58.5221C91.2446 56.7891 88.0046 55.1652 84.7887 53.4928C84.6067 53.3958 84.4368 53.2625 84.2669 53.1535C84.279 53.0929 84.3033 53.0323 84.3154 52.9717C84.6067 52.9959 84.8858 53.008 85.177 53.0444C85.7717 53.105 86.3663 53.2141 86.9488 53.2262C87.8225 53.2262 88.4536 52.7414 88.5628 52.0385C88.672 51.3235 88.2108 50.5358 87.4099 50.3177C86.5241 50.0753 85.6018 49.8571 84.6795 49.7965C82.568 49.6632 80.4443 49.6511 78.3207 49.542C77.9202 49.5178 77.4712 49.4087 77.1435 49.1785C73.9884 46.9728 70.8575 44.743 68.1271 42.0041C66.8044 40.671 65.603 39.2289 64.256 37.92C63.5885 37.2777 62.7512 36.7687 61.926 36.3567C61.5619 36.1749 60.9552 36.3203 60.5305 36.49C57.9942 37.4716 55.7492 38.9744 53.6741 40.7195C47.7885 45.6519 43.3591 51.7113 39.9977 58.5706C38.2381 62.1578 36.9032 65.8904 36.1508 69.8169C35.629 72.5194 35.4834 75.2462 35.9445 77.9851C36.0416 78.5425 35.9081 78.9303 35.5198 79.3424C33.2869 81.7419 31.7215 84.505 31.3938 87.8256C31.0783 90.9523 32.0855 93.7154 33.9422 96.1755C34.6218 97.0723 35.4349 97.8479 36.1872 98.6962C36.2722 98.7932 36.3329 98.9023 36.4664 99.1204C36.1872 99.1689 35.9809 99.2295 35.7868 99.2173C32.6923 99.0719 29.61 98.9144 26.5155 98.7689C26.382 98.7689 26.2485 98.7447 26.1272 98.7205C25.4355 98.5993 25.3626 98.4417 25.7631 97.86C27.8382 94.9151 29.1003 91.5946 30.2289 88.2255C31.4667 84.5171 32.5467 80.7603 33.1656 76.8944C33.5175 74.6766 33.7602 72.4346 33.9301 70.1805C34.2092 66.5691 34.2942 62.9455 34.6218 59.3462C34.9495 55.7833 35.4591 52.2324 36.7455 48.8634C39.1846 42.501 42.9344 37.1081 48.6865 33.3027C51.6475 31.3516 54.9361 30.164 58.4189 29.4368C59.7174 29.1702 61.0037 28.6733 62.2051 28.1159C68.7945 25.0377 75.6995 23.9227 82.932 24.456C86.9609 24.7468 90.917 25.5103 94.8124 26.4313C97.203 27.0009 99.4966 28.0189 101.766 28.9763C103.792 29.8367 105.819 30.7578 107.712 31.8727C113.161 35.0842 118.076 38.9259 121.704 44.234C123.075 46.2336 124.616 48.1241 125.684 50.3177C127.941 54.9471 130.114 59.6007 131.267 64.6664C131.813 67.0781 132.601 69.4291 133.184 71.8287C133.645 73.7556 133.863 75.7431 134.361 77.67C135.077 80.4452 135.732 83.2689 136.824 85.8987C137.722 88.0801 139.179 90.0312 140.465 92.0308C140.817 92.5762 140.817 92.9276 140.344 93.2548C139.385 93.9093 138.438 94.6364 137.383 95.1212C134.191 96.6118 130.866 97.8358 127.347 98.163C124.641 98.4175 121.91 98.466 119.204 98.4417C115.175 98.4054 111.195 97.7873 107.251 96.939C106.62 96.8057 105.977 96.6724 105.212 96.5148L105.249 96.4785Z" fill="black"/>
<path id="Vector_25" d="M48.6622 51.7354C48.9534 51.3355 49.2204 50.9234 49.5359 50.5477C51.9994 47.4332 54.7298 44.5852 58.0184 42.319C59.1591 41.5313 60.4091 40.9011 61.6104 40.2103C62.0109 39.9801 62.3143 40.0407 62.5327 40.4891C63.9647 43.5067 66.3674 45.7002 68.843 47.8089C69.7653 48.5966 70.7482 49.3116 71.7069 50.063C71.8768 50.1963 72.0467 50.3296 72.3137 50.5599C71.9739 50.7295 71.7312 50.8507 71.4764 50.9719C70.7118 51.3233 69.9231 51.6263 69.1949 52.0141C68.8188 52.2201 68.479 52.5352 68.1999 52.8624C67.7509 53.4078 67.7751 54.0259 68.1513 54.5106C68.5639 55.0317 69.1585 55.1408 69.826 54.8984C71.3186 54.3531 72.8112 53.8198 74.316 53.3108C75.2019 53.0079 76.0028 53.1048 76.8887 53.5896C80.6263 55.6377 84.4246 57.5767 88.1865 59.5763C92.446 61.8304 96.7418 64.0239 100.589 66.9446C102.421 68.3383 104.156 69.8531 105.37 71.8527C105.989 72.8707 106.389 73.9493 106.474 75.1491C106.559 76.3731 107.057 77.0033 108.064 77.2456C108.901 77.4395 109.581 77.1244 110.176 76.567C111.668 75.1612 113.161 73.7433 114.678 72.3496C115.758 71.368 117.056 70.8469 118.488 70.6166C121.182 70.1924 123.184 71.4043 124.01 74.0099C124.507 75.5611 124.483 77.1608 124.143 78.7241C123.33 82.5052 121.388 85.6319 118.342 88.0314C116.935 89.1464 115.357 89.922 113.549 90.1401C112.093 90.3098 110.807 89.9583 109.654 89.0252C108.44 88.0314 107.227 88.1284 106.341 89.413C103.622 93.388 99.7756 95.8966 95.5526 97.9447C92.5188 99.4111 89.3515 100.514 86.0993 101.374C76.6824 103.895 67.132 104.404 57.4966 103.156C53.4313 102.635 49.451 101.653 45.6769 100.041C42.546 98.6961 39.6215 97.0358 37.3886 94.3696C36.5513 93.3759 35.9566 92.2488 35.5683 91.0248C35.5076 90.8309 35.544 90.6128 35.544 90.3946C35.7503 90.3946 35.9809 90.3219 36.1629 90.3946C37.4129 90.8188 38.6871 91.0006 40.0098 90.9157C42.3519 90.7582 44.4998 90.0674 46.2716 88.5162C48.735 86.3711 48.8563 83.7898 47.303 81.2327C45.7619 78.6878 43.4076 77.4395 40.3374 77.9243C39.7914 78.0091 39.6943 77.7304 39.6457 77.3183C39.3666 75.3066 39.5487 73.307 39.8763 71.3195C40.7379 66.1084 42.7887 61.3457 45.3493 56.7647C45.6405 56.2315 46.0895 56.0012 46.6113 55.771C49.5845 54.4621 52.6547 53.832 55.9069 54.147C56.635 54.2198 57.3631 54.3167 58.0791 54.3167C58.8436 54.3167 59.4261 53.8077 59.5475 53.2018C59.6931 52.4746 59.414 51.8929 58.6737 51.5172C58.3461 51.3476 57.9577 51.2264 57.5937 51.2264C55.8462 51.2022 54.0988 51.1416 52.3634 51.2385C51.429 51.287 50.5067 51.6142 49.5845 51.8081C49.3175 51.8687 49.0505 51.8929 48.7835 51.9414C48.7471 51.8929 48.7107 51.8323 48.6743 51.7839L48.6622 51.7354ZM85.1042 77.7546C86.4512 77.7789 87.1793 77.185 87.4099 75.9731C87.5919 75.0036 87.6526 74.0099 87.8103 73.0283C87.9196 72.3375 88.1137 71.6709 88.2108 70.9802C88.2472 70.6772 88.2351 70.2652 88.053 70.0713C87.7618 69.744 87.3613 69.429 86.9366 69.3078C85.5047 68.8836 84.0363 68.5443 82.5801 68.1686C82.3374 68.108 82.1068 67.9868 81.8641 67.8899C82.0097 67.6596 82.1068 67.3687 82.3131 67.2233C83.5387 66.3508 84.7644 65.4903 86.0265 64.6905C86.4997 64.3875 86.6089 64.1088 86.4027 63.6119C85.808 62.194 85.0192 60.8973 83.9513 59.7823C81.7306 57.4555 78.8788 57.0192 76.2576 58.5947C75.032 59.3339 74.134 60.3883 73.4301 61.6123C71.4764 65.054 70.7847 68.7624 71.3186 72.6526C71.4885 73.8766 71.3914 74.6522 70.1172 75.1612C69.1585 75.549 68.8673 76.5306 69.2192 77.2941C69.5347 77.9606 70.3235 78.2151 71.3065 77.7789C73.3573 76.8699 75.5417 76.676 77.726 76.6276C79.6798 76.5912 81.6578 76.7245 83.5509 77.3789C84.1334 77.5728 84.7401 77.6819 85.0799 77.7667L85.1042 77.7546ZM47.6186 75.2581C49.0626 75.4642 50.2155 75.549 51.3319 75.7914C52.9944 76.1549 54.6206 76.6276 56.271 77.0275C57.2418 77.2699 57.9213 76.9305 58.2975 76.0095C58.5281 75.4399 58.6495 74.834 58.7829 74.228C58.9771 73.3191 59.0621 72.3981 59.3169 71.5013C59.6445 70.3258 59.4868 69.8168 58.3703 69.3441C57.1083 68.8109 55.822 68.3383 54.5599 67.8293C54.3536 67.7444 54.1716 67.5869 53.9774 67.4657C54.123 67.2839 54.2444 67.0537 54.4264 66.9325C55.6035 66.1811 56.7685 65.4297 57.982 64.7511C58.5524 64.436 58.6859 64.0239 58.4432 63.5028C57.8849 62.3273 57.4238 61.079 56.6714 60.0489C54.8754 57.5888 52.1693 57.3101 49.7908 59.2249C48.4437 60.3034 47.57 61.7213 46.8783 63.2726C45.6648 65.9751 45.0823 68.8109 45.1066 71.7558C45.1066 72.3132 44.8881 72.5435 44.3663 72.6405C43.8445 72.7374 43.3227 72.8465 42.8373 73.0525C41.9393 73.4282 41.5874 74.1432 41.8543 74.8946C42.097 75.5732 42.9222 75.8883 43.796 75.755C45.1672 75.5369 46.5507 75.4036 47.6307 75.2703L47.6186 75.2581ZM95.7225 92.1276C98.8048 92.1155 101.426 91.0248 103.137 89.0615C104.46 87.5588 105.164 85.8016 104.703 83.7535C104.059 80.9298 102.13 79.2816 99.4723 78.4696C95.4919 77.2578 91.8635 77.9728 88.9389 81.0146C86.4876 83.5596 86.6211 87.0013 89.036 89.5099C90.9412 91.4974 93.4411 91.9822 95.7225 92.1276ZM59.5353 91.5338C58.9892 91.4974 58.431 91.4853 57.8849 91.4247C57.3631 91.3641 56.8413 91.2551 56.3195 91.1581C55.4336 91.0006 54.839 90.431 54.3051 89.7523C53.8682 89.1948 53.9531 88.6495 54.0623 88.0193C54.123 87.6194 53.8682 87.0619 53.5769 86.7468C53.225 86.359 52.6789 86.25 52.1086 86.5045C51.0407 86.9771 50.3126 88.3465 50.6402 89.4615C51.1742 91.3035 52.2421 92.7699 53.9289 93.6909C56.0768 94.8544 58.4553 94.7695 60.7852 94.7211C61.8531 94.6968 62.9574 94.5029 63.9647 94.1515C67.2654 93.0002 70.1172 91.0854 72.5928 88.6374C72.9204 88.3102 73.151 88.2617 73.5393 88.5283C74.8135 89.4251 76.2698 89.8856 77.7867 90.0916C78.3813 90.1765 79.0245 90.1159 79.6191 89.9947C80.5414 89.8008 81.1117 88.9767 80.9904 88.1526C80.869 87.2679 80.2016 86.7953 79.1579 86.8317C79.0002 86.8317 78.8546 86.8559 78.6968 86.868C76.1484 87.0013 74.3524 85.5471 73.9762 83.0748C73.9277 82.7476 73.8427 82.4204 73.7214 82.1174C73.4908 81.5115 73.0661 81.0994 72.3744 81.1358C71.6948 81.1843 71.1487 81.5721 71.0395 82.2265C70.906 83.0142 70.8453 83.8504 70.9545 84.6381C71.0395 85.2562 70.9788 85.7167 70.5055 86.1045C69.292 87.0983 68.127 88.1526 66.865 89.0615C64.6806 90.6249 62.2779 91.6065 59.5232 91.5217L59.5353 91.5338ZM116.267 79.1725C116.741 78.6514 117.068 78.2515 117.444 77.8879C117.991 77.3426 118.622 76.8699 119.131 76.3004C120.199 75.1248 119.811 73.5494 118.355 73.1373C117.432 72.8707 116.729 73.3918 116.085 73.9372C113.67 75.9731 111.838 78.4818 110.309 81.2085C109.872 81.9962 109.472 82.8203 109.18 83.6686C108.913 84.4685 109.326 85.2683 110.006 85.6561C110.709 86.0439 111.486 85.9106 112.117 85.2683C112.311 85.0623 112.481 84.8199 112.639 84.5897C112.906 84.1776 113.185 83.7777 113.379 83.3414C113.658 82.687 114.083 82.6022 114.714 82.7961C116.049 83.196 117.384 83.5959 118.731 83.9353C119.58 84.1534 120.43 83.705 120.806 82.9779C121.17 82.2628 121.061 81.3539 120.381 80.8207C119.859 80.4087 119.204 80.1542 118.573 79.8997C117.906 79.633 117.19 79.4755 116.292 79.2089L116.267 79.1725ZM56.635 83.7535C56.5986 84.5048 56.9263 85.2198 57.5694 85.8137C58.5888 86.7468 59.8023 87.1831 61.1493 87.0498C61.7439 86.9892 62.3871 86.7105 62.8725 86.3469C63.5035 85.8743 63.5885 85.1714 63.273 84.5654C62.9453 83.9231 62.3628 83.6444 61.5619 83.7413C61.1493 83.7898 60.7124 83.8383 60.312 83.7656C59.7295 83.6686 59.6081 83.2202 60.0329 82.8203C60.3727 82.5052 60.7974 82.3113 61.1614 82.0205C61.9138 81.4145 61.7803 80.4087 60.8702 80.0814C60.5183 79.9481 60.0814 79.8997 59.7174 79.9603C57.9213 80.2511 56.635 81.8144 56.635 83.7656V83.7535Z" fill="white"/>
<path id="Vector_26" d="M39.4029 87.5952C38.2865 87.7285 37.1822 87.2922 36.0536 86.8802C35.5925 86.7105 35.7017 86.3833 35.7988 86.0682C36.2235 84.6382 37.1822 83.5354 37.971 82.3113C39.0268 80.6511 40.6165 80.9177 42.097 81.0873C43.4076 81.2328 44.2813 82.1538 44.7788 83.3778C45.2278 84.4685 44.9973 85.3653 44.0265 86.1167C42.7037 87.1468 41.1868 87.5831 39.4029 87.5831V87.5952Z" fill="#F19D9F"/>
<path id="Vector_27" d="M85.1042 77.7547C84.7765 77.6699 84.1576 77.5729 83.5751 77.3669C81.682 76.7125 79.7161 76.5792 77.7502 76.6155C75.5659 76.6519 73.3816 76.8458 71.3307 77.7668C70.3478 78.2031 69.559 77.9486 69.2435 77.2821C68.8794 76.5186 69.1706 75.5369 70.1415 75.1491C71.4157 74.6401 71.5127 73.8524 71.3428 72.6405C70.8089 68.7504 71.5006 65.042 73.4544 61.6002C74.1461 60.3762 75.0562 59.3219 76.2819 58.5826C78.9031 57.0072 81.7548 57.4556 83.9756 59.7703C85.0435 60.8852 85.8323 62.1819 86.4269 63.5998C86.6332 64.0967 86.524 64.3755 86.0507 64.6784C84.7887 65.4783 83.5509 66.3387 82.3373 67.2113C82.131 67.3567 82.034 67.6597 81.8883 67.8778C82.131 67.9748 82.3616 68.0838 82.6043 68.1565C84.0605 68.5322 85.5168 68.8716 86.9609 69.2957C87.3734 69.4169 87.786 69.732 88.0773 70.0592C88.2472 70.2531 88.2714 70.6652 88.235 70.9681C88.138 71.6589 87.9438 72.3376 87.8346 73.0162C87.6768 73.9978 87.6162 74.9916 87.4341 75.9611C87.2036 77.1851 86.4754 77.7789 85.1284 77.7426L85.1042 77.7547Z" fill="black"/>
<path id="Vector_28" d="M47.6186 75.2583C46.5265 75.3917 45.1552 75.5371 43.7839 75.7431C42.9102 75.8764 42.085 75.5613 41.8423 74.8827C41.5874 74.1434 41.9272 73.4284 42.8252 73.0406C43.3106 72.8346 43.8325 72.7134 44.3543 72.6286C44.8761 72.5316 45.1067 72.3013 45.0945 71.7439C45.0581 68.7869 45.6527 65.9511 46.8663 63.2607C47.558 61.7216 48.4317 60.2915 49.7787 59.213C52.1693 57.3103 54.8755 57.5769 56.6594 60.037C57.4117 61.0671 57.8729 62.3154 58.4311 63.4909C58.6738 64.012 58.5403 64.4241 57.97 64.7392C56.7564 65.4178 55.5915 66.1692 54.4144 66.9206C54.2323 67.0418 54.111 67.272 53.9654 67.4538C54.1595 67.575 54.3415 67.7325 54.5478 67.8174C55.822 68.3264 57.0962 68.799 58.3583 69.3322C59.4869 69.8049 59.6446 70.3138 59.3048 71.4894C59.05 72.3741 58.9651 73.3072 58.7709 74.2161C58.6374 74.8221 58.516 75.428 58.2855 75.9976C57.9214 76.9308 57.2419 77.258 56.2589 77.0156C54.6085 76.6157 52.9824 76.1309 51.3199 75.7795C50.2034 75.5371 49.0506 75.4523 47.6065 75.2462L47.6186 75.2583Z" fill="black"/>
<path id="Vector_29" d="M95.7225 92.1277C93.4411 91.9822 90.9534 91.4975 89.036 89.51C86.6211 87.0014 86.4876 83.5596 88.9389 81.0147C91.8635 77.9728 95.4919 77.2578 99.4723 78.4697C102.13 79.2817 104.059 80.9177 104.703 83.7535C105.164 85.8016 104.46 87.5467 103.137 89.0616C101.426 91.0249 98.8048 92.1155 95.7225 92.1277ZM96.6326 81.1722C94.5211 81.1722 92.8707 81.7539 91.6451 82.8204C89.9947 84.2504 90.0918 86.347 91.8028 87.7043C93.6353 89.1464 95.674 89.0616 97.7855 88.6253C98.9262 88.3951 99.8849 87.8255 100.674 86.9893C101.948 85.6441 101.851 83.8384 100.443 82.6143C99.2417 81.5721 97.8098 81.2449 96.6326 81.1843V81.1722Z" fill="black"/>
<path id="Vector_30" d="M59.5353 91.5459C62.29 91.6307 64.6928 90.6612 66.8771 89.0858C68.1392 88.1769 69.3041 87.1225 70.5177 86.1288C70.9909 85.741 71.0516 85.2804 70.9667 84.6624C70.8696 83.8746 70.9181 83.0384 71.0516 82.2507C71.1608 81.5842 71.7069 81.1964 72.3865 81.16C73.0782 81.1115 73.4908 81.5357 73.7335 82.1416C73.8548 82.4446 73.9398 82.7718 73.9883 83.099C74.3524 85.5713 76.1605 87.0256 78.7089 86.8922C78.8667 86.8922 79.0123 86.8559 79.17 86.8559C80.2137 86.8074 80.8811 87.2922 81.0025 88.1769C81.1238 89.0009 80.5535 89.825 79.6312 90.0189C79.0366 90.1401 78.3934 90.2007 77.7988 90.1159C76.2819 89.9099 74.8257 89.4372 73.5515 88.5525C73.1631 88.2738 72.9326 88.3344 72.6049 88.6616C70.1172 91.1096 67.2776 93.0365 63.9768 94.1757C62.9696 94.5271 61.8653 94.721 60.7974 94.7453C58.4674 94.7938 56.0889 94.8786 53.941 93.7152C52.2542 92.7941 51.1863 91.3278 50.6523 89.4857C50.3247 88.3707 51.0649 87.0134 52.1207 86.5287C52.691 86.2742 53.225 86.3833 53.5891 86.7711C53.8803 87.0983 54.1351 87.6436 54.0745 88.0435C53.9774 88.6858 53.8803 89.2312 54.3172 89.7765C54.8511 90.4552 55.4336 91.0248 56.3316 91.1823C56.8534 91.2793 57.3752 91.3884 57.897 91.4489C58.4431 91.5095 59.0014 91.5217 59.5474 91.558L59.5353 91.5459Z" fill="black"/>
<path id="Vector_31" d="M116.28 79.1847C117.178 79.4514 117.893 79.621 118.561 79.8755C119.192 80.1179 119.847 80.3845 120.369 80.7966C121.061 81.3298 121.17 82.2387 120.794 82.9537C120.418 83.6808 119.568 84.1171 118.719 83.9111C117.372 83.5718 116.037 83.184 114.702 82.7719C114.071 82.578 113.646 82.675 113.367 83.3173C113.173 83.7536 112.882 84.1656 112.627 84.5655C112.469 84.8079 112.311 85.0503 112.105 85.2442C111.474 85.8986 110.697 86.0319 109.993 85.632C109.314 85.2563 108.901 84.4443 109.168 83.6445C109.447 82.7962 109.86 81.9721 110.297 81.1844C111.826 78.4455 113.658 75.9369 116.073 73.913C116.729 73.3677 117.42 72.8466 118.342 73.1132C119.787 73.5252 120.175 75.1007 119.119 76.2762C118.609 76.8458 117.978 77.3184 117.432 77.8638C117.056 78.2274 116.729 78.6273 116.255 79.1484L116.28 79.1847Z" fill="black"/>
<path id="Vector_32" d="M56.6351 83.7656C56.6351 81.8145 57.9214 80.2511 59.7174 79.9603C60.0936 79.8997 60.5184 79.9603 60.8703 80.0815C61.7804 80.4208 61.9139 81.4146 61.1615 82.0205C60.7975 82.3114 60.3727 82.5053 60.0329 82.8203C59.5961 83.2203 59.7296 83.6687 60.3121 83.7656C60.7125 83.8383 61.1494 83.7899 61.562 83.7414C62.3629 83.6565 62.9575 83.9232 63.273 84.5655C63.5764 85.1714 63.5036 85.8743 62.8726 86.3469C62.3872 86.7105 61.744 86.9892 61.1494 87.0498C59.8024 87.1831 58.5889 86.7469 57.5695 85.8137C56.9263 85.2199 56.6108 84.5049 56.6351 83.7535V83.7656Z" fill="black"/>
<path id="Vector_33" d="M96.6448 81.1723C97.822 81.245 99.2539 81.5722 100.455 82.6023C101.863 83.8263 101.96 85.632 100.686 86.9772C99.8849 87.8134 98.9263 88.383 97.7977 88.6133C95.6983 89.0495 93.6475 89.1344 91.815 87.6922C90.104 86.347 90.019 84.2384 91.6573 82.8083C92.8829 81.7419 94.5333 81.1602 96.6448 81.1602V81.1723Z" fill="#F19D9F"/>
<path id="Vector_34" d="M149.676 3.02972C155.355 3.02972 159.966 7.63489 159.966 13.3065V112.693C159.966 118.365 155.355 122.97 149.676 122.97H13.3244C7.64517 122.97 3.0338 118.365 3.0338 112.693V13.3065C3.0338 7.63489 7.64517 3.02972 13.3244 3.02972H149.676ZM149.676 0H13.3244C5.98265 0 0 5.97461 0 13.3065V112.693C0 120.025 5.98265 126 13.3244 126H149.676C157.017 126 163 120.025 163 112.693V13.3065C163 5.97461 157.017 0 149.676 0Z" fill="#8FD2F4"/>
</g>
<defs>
<clipPath id="clip0_1501_7783">
<rect width="163" height="126" fill="white"/>
</clipPath>
</defs>
</svg>
